# Fractured Arcana procedural boulder
o Boulder_Low
v -0.256664 0.157324 -0.001599
v 0.259429 0.158106 -0.001599
v -0.273548 -0.076444 -0.001599
v 0.252187 -0.078297 -0.001599
v 0.000658 -0.069505 0.396669
v 0.000658 0.107548 0.366453
v 0.000658 -0.059552 -0.334043
v 0.000658 0.103217 -0.351744
v 0.421979 0.018539 -0.223414
v 0.393698 0.018539 0.205326
v -0.391615 0.018539 -0.208120
v -0.411037 0.018539 0.215147
v -0.427605 0.106766 0.137749
v -0.221444 0.064294 0.304530
v -0.151766 0.151556 0.208491
v 0.148599 0.147644 0.202312
v 0.000658 0.182909 -0.001599
v 0.155065 0.153287 -0.214423
v -0.138108 0.139637 -0.192864
v -0.241869 0.068502 -0.335880
v -0.386724 0.098344 -0.127645
v -0.472016 0.018539 -0.001599
v 0.251958 0.070309 0.344774
v 0.435963 0.108216 0.140040
v -0.220035 -0.026927 0.302588
v 0.000658 0.018539 0.405990
v -0.412745 -0.062919 -0.136111
v -0.384372 -0.058745 0.123681
v 0.000658 0.018539 -0.353374
v -0.249140 -0.032922 -0.345902
v 0.373636 0.095377 -0.122958
v 0.258226 0.071601 -0.356612
v 0.405690 -0.061740 0.130190
v 0.235028 -0.029744 0.321440
v 0.148420 -0.078389 0.202065
v -0.153026 -0.078376 0.210227
v 0.000658 -0.061582 -0.001599
v -0.157554 -0.078104 -0.219666
v 0.147910 -0.078372 -0.204561
v 0.260749 -0.035043 -0.360089
v 0.348622 -0.052544 -0.114819
v 0.466460 0.018539 -0.001599
v -0.344629 0.135006 0.066498
v -0.310595 0.140012 0.190259
v -0.220711 0.165249 0.111353
v -0.330739 0.043812 0.277378
v -0.355987 0.092012 0.257884
v -0.429784 0.061764 0.182823
v -0.073269 0.124976 0.273648
v -0.202277 0.112022 0.278111
v -0.117603 0.084350 0.332792
v -0.082386 0.180587 0.112862
v -0.139310 0.182774 -0.001599
v 0.083310 0.137539 0.306137
v 0.000658 0.148935 0.204351
v 0.135023 0.176201 -0.001599
v 0.080516 0.174372 0.108472
v 0.213354 0.159502 0.106928
v -0.076546 0.169191 -0.108011
v -0.194596 0.147941 -0.101226
v 0.215971 0.161236 -0.111462
v 0.079855 0.173082 -0.110759
v -0.080406 0.135253 -0.303422
v 0.000658 0.163342 -0.230305
v 0.077500 0.129174 -0.287703
v -0.248711 0.115861 -0.155311
v -0.316082 0.125376 -0.064066
v -0.124298 0.088076 -0.354921
v -0.195431 0.108868 -0.271874
v -0.386313 0.057399 -0.167396
v -0.311252 0.082796 -0.228535
v -0.319367 0.042945 -0.271002
v -0.403237 0.101746 -0.001599
v -0.432773 0.018539 -0.106486
v -0.435458 0.058719 -0.065060
v -0.483944 0.063186 0.068917
v -0.533540 0.018539 0.127673
v 0.318025 0.142399 0.194028
v 0.343998 0.134349 0.066114
v 0.131214 0.091193 0.367560
v 0.228017 0.123273 0.311776
v 0.395331 0.058172 0.167498
v 0.316939 0.083696 0.228517
v 0.316059 0.042592 0.263913
v -0.122860 0.043985 0.379087
v 0.000658 0.065259 0.418694
v -0.330896 -0.006747 0.277510
v -0.233433 0.018539 0.321054
v 0.000658 -0.029269 0.428475
v -0.124529 -0.007251 0.384230
v -0.120735 -0.048837 0.341649
v -0.469487 -0.024776 0.066813
v -0.422788 -0.023984 0.179825
v -0.397907 -0.021486 -0.172363
v -0.454052 -0.023354 -0.067765
v -0.364275 -0.077935 0.070372
v -0.396927 -0.060654 -0.001599
v -0.342485 -0.076659 -0.069273
v -0.257602 0.018539 -0.357566
v -0.329265 -0.006622 -0.279335
v 0.000658 0.059464 -0.369763
v -0.123200 0.044055 -0.383331
v -0.125177 -0.051085 -0.357406
v -0.130043 -0.008387 -0.404424
v 0.000658 -0.022307 -0.369044
v 0.213639 0.116650 -0.295157
v 0.133213 0.092306 -0.376411
v 0.296503 0.118329 -0.059945
v 0.271110 0.124089 -0.168308
v 0.379368 0.047421 -0.320406
v 0.340432 0.088536 -0.248808
v 0.420228 0.060673 -0.181363
v 0.335933 -0.076006 0.064523
v 0.295344 -0.076488 0.180047
v 0.208561 -0.078131 0.104483
v 0.321456 -0.005927 0.268456
v 0.333037 -0.049683 0.240230
v 0.435460 -0.025125 0.184691
v 0.081646 -0.076849 0.299943
v 0.191532 -0.064719 0.261488
v 0.136527 -0.055839 0.382583
v 0.078771 -0.075204 0.106066
v 0.140588 -0.070593 -0.001599
v -0.075560 -0.075033 0.282182
v 0.000658 -0.077929 0.219001
v -0.144444 -0.067429 -0.001599
v -0.086143 -0.067921 0.118040
v -0.222424 -0.076455 0.112227
v 0.083314 -0.071917 -0.115526
v 0.216971 -0.077384 -0.111972
v -0.212838 -0.077685 -0.110534
v -0.079427 -0.073918 -0.111982
v 0.080949 -0.076627 -0.300544
v 0.000658 -0.075811 -0.239056
v -0.079101 -0.076447 -0.298561
v 0.277257 -0.074448 -0.172097
v 0.294381 -0.070855 -0.059527
v 0.123972 -0.049820 -0.350281
v 0.202461 -0.067714 -0.279749
v 0.412176 -0.022787 -0.177913
v 0.343726 -0.051661 -0.251205
v 0.385765 -0.010831 -0.325791
v 0.402856 -0.061330 -0.001599
v 0.428836 0.018539 -0.105215
v 0.418533 -0.019961 -0.062406
v 0.465967 -0.024331 0.066110
v 0.454890 0.018539 0.108322
v 0.140729 -0.010318 0.430106
v 0.243487 0.018539 0.333098
v 0.122242 0.043586 0.373126
v -0.308857 -0.077621 0.189188
v -0.181265 -0.061991 0.249150
v -0.351326 -0.053257 0.254493
v -0.212858 -0.070514 -0.295893
v -0.276507 -0.074523 -0.172445
v -0.301780 -0.043767 -0.221643
v 0.265164 0.018539 -0.366174
v 0.124670 -0.007009 -0.383810
v 0.116674 0.042439 -0.359164
v 0.432368 0.058313 0.061221
v 0.416750 0.056874 -0.062146
v 0.399967 0.100801 -0.001599
vn -0.239910 0.970760 0.008248
vn -0.290108 0.956111 0.041100
vn -0.094263 0.974368 0.204259
vn -0.246790 0.968645 0.028681
vn -0.641332 0.261305 0.721396
vn -0.275363 0.232969 0.932685
vn -0.704796 0.518779 0.483871
vn -0.695677 -0.075494 0.714377
vn -0.282881 0.876329 0.389904
vn -0.073672 0.889225 0.451499
vn -0.316561 0.553526 0.770323
vn -0.066496 0.845012 0.530596
vn -0.395174 0.853223 0.340366
vn -0.178111 0.530332 0.828869
vn -0.114181 0.897189 0.426631
vn -0.175564 0.854582 0.488739
vn -0.211942 0.977282 -0.001111
vn -0.109944 0.970442 0.214835
vn -0.000962 0.999808 0.019586
vn -0.110699 0.991096 0.073995
vn -0.135463 0.948593 0.286045
vn 0.010102 0.994615 0.103149
vn 0.025628 0.936038 0.350964
vn -0.120809 0.970897 0.206796
vn 0.143773 0.988430 0.048323
vn 0.049816 0.997906 0.041256
vn 0.111329 0.974126 0.196684
vn 0.111782 0.991133 0.071829
vn 0.024693 0.951468 0.306757
vn 0.012077 0.963954 0.265796
vn 0.039392 0.998030 0.048828
vn 0.044295 0.955855 0.290482
vn -0.206814 0.953634 -0.218655
vn -0.000954 0.991880 -0.127172
vn -0.184723 0.962007 -0.201048
vn -0.185214 0.955123 -0.231161
vn 0.143882 0.989178 -0.028727
vn 0.085350 0.988251 -0.126791
vn 0.049787 0.997317 -0.053659
vn 0.086106 0.993687 -0.071911
vn 0.079423 0.887033 -0.454824
vn -0.204531 0.968041 -0.145134
vn 0.100890 0.908420 -0.405703
vn 0.077536 0.898877 -0.431287
vn -0.026633 0.993709 -0.108778
vn 0.077946 0.988161 -0.132146
vn -0.212679 0.960364 -0.180193
vn -0.025944 0.997607 -0.064090
vn -0.248522 0.937617 -0.243130
vn -0.286558 0.922052 -0.260201
vn -0.166641 0.960423 -0.223202
vn -0.259211 0.922023 -0.287546
vn -0.076729 0.766912 -0.637148
vn -0.213641 0.888774 -0.405510
vn -0.265753 0.947786 -0.176284
vn -0.318839 0.818443 -0.478009
vn -0.630566 0.600867 -0.491270
vn -0.635008 0.534810 -0.557444
vn -0.608858 0.633205 -0.477852
vn -0.605653 0.634732 -0.479897
vn -0.264087 0.948010 -0.177580
vn -0.322225 0.888545 -0.326586
vn -0.175402 0.944780 -0.276811
vn -0.281207 0.941642 -0.185024
vn -0.346751 0.926811 -0.144169
vn -0.304622 0.950215 -0.065551
vn -0.398231 0.911542 -0.102482
vn -0.354820 0.923513 -0.145690
vn -0.822405 0.461227 -0.333046
vn -0.897409 0.286214 -0.335766
vn -0.830514 0.383669 -0.403788
vn -0.837868 0.363701 -0.407062
vn -0.547361 0.335833 0.766558
vn -0.812523 0.431695 0.391721
vn -0.827242 0.400832 -0.393705
vn -0.478648 0.845098 0.238129
vn -0.709341 0.695957 -0.111709
vn -0.897262 0.288349 -0.334330
vn -0.511461 0.850873 -0.120097
vn -0.578776 0.780745 -0.235489
vn 0.211741 0.974259 0.077361
vn 0.037855 0.988180 0.148550
vn 0.276547 0.960991 -0.004322
vn 0.181455 0.983081 -0.025020
vn 0.099325 0.830019 0.548820
vn 0.247114 0.590407 0.768345
vn 0.091050 0.984020 0.153020
vn 0.058387 0.818260 0.571875
vn 0.608282 0.534758 0.586539
vn 0.602699 -0.052466 0.796242
vn 0.780333 0.398399 0.482036
vn 0.627365 0.500392 0.596675
vn 0.039644 0.981050 0.189655
vn 0.677832 0.584368 0.446158
vn 0.476054 0.438918 0.762053
vn 0.718862 0.342206 0.605089
vn -0.314709 0.737760 0.597217
vn -0.306638 0.734395 0.605506
vn -0.255464 -0.253679 0.932944
vn -0.319104 0.731977 0.601982
vn -0.613348 0.003960 0.789803
vn -0.272944 -0.429973 0.860595
vn -0.290286 0.391419 0.873227
vn -0.408703 0.003647 0.912660
vn -0.418762 -0.563138 0.712400
vn -0.237936 0.413368 0.878927
vn -0.394297 -0.674769 0.623873
vn -0.346681 -0.686301 0.639378
vn -0.496172 0.406977 0.766931
vn -0.525579 -0.448501 0.722920
vn -0.191120 0.104195 0.976021
vn -0.480739 0.103065 0.870786
vn -0.516540 -0.458135 0.723394
vn -0.728799 -0.590377 -0.346853
vn -0.476965 -0.855138 0.203086
vn -0.426062 -0.886143 0.182269
vn -0.910655 -0.186294 -0.368784
vn -0.876003 -0.099250 -0.471983
vn -0.925977 0.150117 -0.346455
vn -0.881123 0.010584 -0.472769
vn 0.010483 -0.999917 -0.007500
vn -0.584129 -0.808562 0.070856
vn -0.231529 -0.971851 0.043597
vn -0.353547 -0.933246 -0.063693
vn -0.965341 -0.235160 -0.113206
vn -0.612058 -0.786208 0.085218
vn -0.401105 -0.914432 0.054127
vn -0.491232 -0.868561 -0.065521
vn -0.682368 0.251644 -0.686330
vn -0.653417 0.465015 -0.597333
vn -0.666175 -0.267345 -0.696231
vn -0.752571 0.252523 -0.608169
vn -0.022628 0.380710 -0.924418
vn 0.146357 -0.367760 -0.918331
vn -0.220534 0.525019 -0.822022
vn 0.024489 0.542527 -0.839681
vn 0.088869 -0.682105 -0.725834
vn -0.168777 -0.738303 -0.653011
vn 0.279301 0.343942 -0.896490
vn 0.104752 -0.730798 -0.674508
vn -0.249851 0.450647 -0.857025
vn 0.285103 0.325407 -0.901569
vn -0.381152 -0.263523 -0.886160
vn -0.244155 0.389115 -0.888244
vn 0.005211 0.924564 -0.380990
vn 0.064719 0.925550 -0.373053
vn 0.216194 0.855596 -0.470336
vn 0.067084 0.935572 -0.346706
vn 0.556190 0.807368 -0.197000
vn 0.275132 0.961314 -0.013370
vn 0.333631 0.904055 -0.267161
vn 0.504737 0.860220 -0.072548
vn 0.896129 0.331601 -0.294946
vn 0.284205 0.890004 -0.356539
vn 0.447017 0.879041 -0.165718
vn 0.483873 0.846288 -0.222853
vn 0.311732 0.929785 -0.195763
vn 0.322495 0.936750 -0.136001
vn 0.332581 0.859289 -0.388603
vn 0.275219 0.944366 -0.180076
vn 0.019718 -0.999759 0.009672
vn 0.154555 -0.986709 0.050178
vn 0.013817 -0.999887 0.005868
vn 0.017279 -0.999849 0.001892
vn 0.601591 0.211356 0.770335
vn 0.557841 -0.340572 0.756852
vn 0.395094 -0.847800 0.353747
vn 0.509879 -0.366946 0.778058
vn 0.116187 -0.978297 0.171567
vn 0.149472 -0.981769 0.117419
vn 0.385207 -0.890992 0.240310
vn 0.158043 -0.976960 0.143430
vn 0.243671 -0.933473 0.263158
vn 0.157075 -0.898394 0.410141
vn 0.041906 -0.979901 0.195031
vn 0.147919 -0.934556 0.323612
vn -0.068841 -0.997269 -0.026752
vn -0.022748 -0.999602 -0.016666
vn -0.064062 -0.994784 -0.079382
vn -0.023196 -0.998158 -0.056062
vn -0.018355 -0.998005 0.060411
vn 0.000274 -0.998936 0.046114
vn -0.001424 -0.999890 0.014760
vn -0.014717 -0.999498 0.028056
vn 0.069628 -0.997080 -0.031368
vn 0.040249 -0.998908 -0.023725
vn 0.065152 -0.995713 -0.065657
vn 0.063958 -0.997329 -0.035272
vn -0.006385 -0.999572 -0.028536
vn 0.008960 -0.994297 -0.106265
vn -0.050411 -0.994730 -0.089279
vn -0.048205 -0.997187 -0.057404
vn -0.068859 -0.997532 0.013723
vn -0.064203 -0.996973 0.043859
vn -0.041950 -0.998239 0.041943
vn -0.041716 -0.998598 0.032572
vn 0.069574 -0.996317 0.050120
vn 0.028418 -0.999430 0.018237
vn 0.040125 -0.995810 0.082175
vn 0.028964 -0.996713 0.075654
vn -0.006484 -0.897123 -0.441733
vn -0.015701 -0.999851 -0.007231
vn 0.013575 -0.999880 -0.007507
vn -0.000976 -0.999928 0.011997
vn 0.014425 -0.994811 0.100709
vn 0.017680 -0.999505 0.026031
vn -0.029337 -0.998263 0.051096
vn 0.012791 -0.999655 0.022952
vn 0.113899 -0.992493 -0.044549
vn 0.034008 -0.999313 -0.014701
vn 0.305114 -0.952181 -0.016017
vn 0.069745 -0.997339 0.021228
vn 0.007921 -0.883103 -0.469112
vn 0.078386 -0.942039 -0.326217
vn 0.086240 -0.993198 -0.078227
vn 0.132089 -0.915789 -0.379320
vn 0.885980 -0.421950 -0.192348
vn 0.407166 -0.913124 -0.020524
vn 0.268220 -0.900659 -0.341866
vn 0.525225 -0.835525 -0.161355
vn 0.055395 -0.993380 -0.100631
vn 0.162151 -0.949536 -0.268493
vn 0.305930 -0.951900 -0.017141
vn 0.143447 -0.976515 -0.160755
vn 0.081309 -0.994331 -0.068523
vn 0.169002 -0.973116 -0.156474
vn 0.207120 -0.978287 -0.007492
vn 0.132264 -0.987537 -0.085308
vn 0.956066 -0.287859 -0.055460
vn 0.794902 -0.533684 -0.288638
vn 0.423129 -0.906069 -0.001117
vn 0.951435 -0.304556 -0.044908
vn 0.738946 0.486486 0.466144
vn 0.636992 -0.754332 0.158822
vn 0.982934 0.152105 0.103459
vn 0.968446 0.004878 0.249176
vn 0.595100 -0.727477 -0.341517
vn 0.803977 -0.505052 -0.313918
vn 0.516660 -0.856080 -0.013769
vn 0.689669 -0.668926 -0.277300
vn 0.142241 -0.613826 0.776522
vn 0.520701 -0.639058 0.566105
vn -0.067962 0.424607 0.902824
vn 0.089870 -0.723184 0.684783
vn 0.623836 0.141362 0.768665
vn 0.709955 -0.263457 0.653111
vn 0.556868 -0.285862 0.779859
vn 0.657847 0.142420 0.739563
vn 0.091646 0.773983 0.626539
vn 0.300346 -0.250271 0.920411
vn 0.197733 0.076989 0.977228
vn 0.357164 0.041783 0.933107
vn 0.699344 -0.281193 0.657152
vn 0.255948 -0.252333 0.933176
vn 0.033420 0.731427 0.681101
vn 0.344591 0.735209 0.583716
vn 0.012060 -0.999912 -0.005512
vn -0.002435 -0.999837 -0.017877
vn -0.383640 -0.905504 0.181334
vn 0.011193 -0.999934 -0.002573
vn -0.258943 -0.941010 0.217827
vn -0.328232 -0.881242 0.340114
vn -0.196700 -0.946523 0.255742
vn -0.199068 -0.943627 0.264463
vn -0.639856 -0.378654 0.668734
vn -0.517258 -0.839597 0.165895
vn -0.265168 -0.331580 0.905395
vn -0.726368 -0.020908 0.686987
vn -0.052443 -0.933435 0.354894
vn -0.026568 -0.844513 0.534876
vn -0.341577 -0.931455 0.125368
vn -0.038203 -0.944120 0.327380
vn 0.013624 -0.914335 -0.404730
vn -0.045530 -0.996766 -0.066216
vn -0.170849 -0.843138 -0.509831
vn -0.048512 -0.930507 -0.363048
vn -0.005209 -0.999950 0.008485
vn -0.108255 -0.990065 -0.089731
vn -0.035750 -0.999259 -0.014269
vn -0.018193 -0.999312 -0.032328
vn -0.761066 -0.361515 -0.538595
vn -0.504177 -0.815309 -0.284741
vn -0.486498 -0.470107 -0.736423
vn -0.383334 -0.848888 -0.363930
vn -0.053887 -0.996734 -0.060150
vn -0.193521 -0.873522 -0.446664
vn -0.481044 -0.831986 -0.276397
vn -0.479831 -0.833327 -0.274460
vn 0.921343 0.134884 -0.364600
vn 0.285858 -0.131361 -0.949226
vn 0.318006 0.208261 -0.924932
vn 0.342035 0.123676 -0.931513
vn -0.041876 -0.684214 -0.728078
vn -0.153508 0.353951 -0.922580
vn 0.010177 -0.616657 -0.787166
vn -0.017714 -0.616311 -0.787304
vn -0.139346 0.377092 -0.915633
vn 0.089289 -0.351873 -0.931779
vn 0.030239 -0.371593 -0.927903
vn 0.036420 -0.337407 -0.940654
vn 0.145668 -0.123486 -0.981597
vn -0.132240 0.424941 -0.895510
vn -0.018305 0.175006 -0.984397
vn 0.030255 0.449781 -0.892626
vn 0.764154 0.428603 0.482046
vn 0.819670 0.566301 0.086275
vn 0.814673 -0.506043 0.283247
vn 0.692760 0.679237 0.242324
vn 0.993437 0.098798 -0.057628
vn 0.630979 0.774603 0.043091
vn 0.777349 0.562188 -0.282264
vn 0.964123 0.262936 0.036505
vn 0.461230 0.841695 -0.280742
vn 0.375436 0.915695 -0.143352
vn 0.215605 0.972302 -0.090239
vn 0.285147 0.931504 -0.225814
vn 0.677421 0.729530 -0.094270
vn 0.793291 0.575798 -0.197855
vn 0.911577 0.327302 -0.248799
vn 0.864609 0.489069 -0.115163
s off
f 1//1 43//1 45//1
f 13//2 44//2 43//2
f 15//3 45//3 44//3
f 43//4 44//4 45//4
f 12//5 46//5 48//5
f 14//6 47//6 46//6
f 13//7 48//7 47//7
f 46//8 47//8 48//8
f 6//9 49//9 51//9
f 15//10 50//10 49//10
f 14//11 51//11 50//11
f 49//12 50//12 51//12
f 13//13 47//13 44//13
f 14//14 50//14 47//14
f 15//15 44//15 50//15
f 47//16 50//16 44//16
f 1//17 45//17 53//17
f 15//18 52//18 45//18
f 17//19 53//19 52//19
f 45//20 52//20 53//20
f 6//21 54//21 49//21
f 16//22 55//22 54//22
f 15//23 49//23 55//23
f 54//24 55//24 49//24
f 2//25 56//25 58//25
f 17//26 57//26 56//26
f 16//27 58//27 57//27
f 56//28 57//28 58//28
f 15//29 55//29 52//29
f 16//30 57//30 55//30
f 17//31 52//31 57//31
f 55//32 57//32 52//32
f 1//33 53//33 60//33
f 17//34 59//34 53//34
f 19//35 60//35 59//35
f 53//36 59//36 60//36
f 2//37 61//37 56//37
f 18//38 62//38 61//38
f 17//39 56//39 62//39
f 61//40 62//40 56//40
f 8//41 63//41 65//41
f 19//42 64//42 63//42
f 18//43 65//43 64//43
f 63//44 64//44 65//44
f 17//45 62//45 59//45
f 18//46 64//46 62//46
f 19//47 59//47 64//47
f 62//48 64//48 59//48
f 1//49 60//49 67//49
f 19//50 66//50 60//50
f 21//51 67//51 66//51
f 60//52 66//52 67//52
f 8//53 68//53 63//53
f 20//54 69//54 68//54
f 19//55 63//55 69//55
f 68//56 69//56 63//56
f 11//57 70//57 72//57
f 21//58 71//58 70//58
f 20//59 72//59 71//59
f 70//60 71//60 72//60
f 19//61 69//61 66//61
f 20//62 71//62 69//62
f 21//63 66//63 71//63
f 69//64 71//64 66//64
f 1//65 67//65 43//65
f 21//66 73//66 67//66
f 13//67 43//67 73//67
f 67//68 73//68 43//68
f 11//69 74//69 70//69
f 22//70 75//70 74//70
f 21//71 70//71 75//71
f 74//72 75//72 70//72
f 12//73 48//73 77//73
f 13//74 76//74 48//74
f 22//75 77//75 76//75
f 48//76 76//76 77//76
f 21//77 75//77 73//77
f 22//78 76//78 75//78
f 13//79 73//79 76//79
f 75//80 76//80 73//80
f 2//81 58//81 79//81
f 16//82 78//82 58//82
f 24//83 79//83 78//83
f 58//84 78//84 79//84
f 6//85 80//85 54//85
f 23//86 81//86 80//86
f 16//87 54//87 81//87
f 80//88 81//88 54//88
f 10//89 82//89 84//89
f 24//90 83//90 82//90
f 23//91 84//91 83//91
f 82//92 83//92 84//92
f 16//93 81//93 78//93
f 23//94 83//94 81//94
f 24//95 78//95 83//95
f 81//96 83//96 78//96
f 6//97 51//97 86//97
f 14//98 85//98 51//98
f 26//99 86//99 85//99
f 51//100 85//100 86//100
f 12//101 87//101 46//101
f 25//102 88//102 87//102
f 14//103 46//103 88//103
f 87//104 88//104 46//104
f 5//105 89//105 91//105
f 26//106 90//106 89//106
f 25//107 91//107 90//107
f 89//108 90//108 91//108
f 14//109 88//109 85//109
f 25//110 90//110 88//110
f 26//111 85//111 90//111
f 88//112 90//112 85//112
f 12//113 77//113 93//113
f 22//114 92//114 77//114
f 28//115 93//115 92//115
f 77//116 92//116 93//116
f 11//117 94//117 74//117
f 27//118 95//118 94//118
f 22//119 74//119 95//119
f 94//120 95//120 74//120
f 3//121 96//121 98//121
f 28//122 97//122 96//122
f 27//123 98//123 97//123
f 96//124 97//124 98//124
f 22//125 95//125 92//125
f 27//126 97//126 95//126
f 28//127 92//127 97//127
f 95//128 97//128 92//128
f 11//129 72//129 100//129
f 20//130 99//130 72//130
f 30//131 100//131 99//131
f 72//132 99//132 100//132
f 8//133 101//133 68//133
f 29//134 102//134 101//134
f 20//135 68//135 102//135
f 101//136 102//136 68//136
f 7//137 103//137 105//137
f 30//138 104//138 103//138
f 29//139 105//139 104//139
f 103//140 104//140 105//140
f 20//141 102//141 99//141
f 29//142 104//142 102//142
f 30//143 99//143 104//143
f 102//144 104//144 99//144
f 8//145 65//145 107//145
f 18//146 106//146 65//146
f 32//147 107//147 106//147
f 65//148 106//148 107//148
f 2//149 108//149 61//149
f 31//150 109//150 108//150
f 18//151 61//151 109//151
f 108//152 109//152 61//152
f 9//153 110//153 112//153
f 32//154 111//154 110//154
f 31//155 112//155 111//155
f 110//156 111//156 112//156
f 18//157 109//157 106//157
f 31//158 111//158 109//158
f 32//159 106//159 111//159
f 109//160 111//160 106//160
f 4//161 113//161 115//161
f 33//162 114//162 113//162
f 35//163 115//163 114//163
f 113//164 114//164 115//164
f 10//165 116//165 118//165
f 34//166 117//166 116//166
f 33//167 118//167 117//167
f 116//168 117//168 118//168
f 5//169 119//169 121//169
f 35//170 120//170 119//170
f 34//171 121//171 120//171
f 119//172 120//172 121//172
f 33//173 117//173 114//173
f 34//174 120//174 117//174
f 35//175 114//175 120//175
f 117//176 120//176 114//176
f 4//177 115//177 123//177
f 35//178 122//178 115//178
f 37//179 123//179 122//179
f 115//180 122//180 123//180
f 5//181 124//181 119//181
f 36//182 125//182 124//182
f 35//183 119//183 125//183
f 124//184 125//184 119//184
f 3//185 126//185 128//185
f 37//186 127//186 126//186
f 36//187 128//187 127//187
f 126//188 127//188 128//188
f 35//189 125//189 122//189
f 36//190 127//190 125//190
f 37//191 122//191 127//191
f 125//192 127//192 122//192
f 4//193 123//193 130//193
f 37//194 129//194 123//194
f 39//195 130//195 129//195
f 123//196 129//196 130//196
f 3//197 131//197 126//197
f 38//198 132//198 131//198
f 37//199 126//199 132//199
f 131//200 132//200 126//200
f 7//201 133//201 135//201
f 39//202 134//202 133//202
f 38//203 135//203 134//203
f 133//204 134//204 135//204
f 37//205 132//205 129//205
f 38//206 134//206 132//206
f 39//207 129//207 134//207
f 132//208 134//208 129//208
f 4//209 130//209 137//209
f 39//210 136//210 130//210
f 41//211 137//211 136//211
f 130//212 136//212 137//212
f 7//213 138//213 133//213
f 40//214 139//214 138//214
f 39//215 133//215 139//215
f 138//216 139//216 133//216
f 9//217 140//217 142//217
f 41//218 141//218 140//218
f 40//219 142//219 141//219
f 140//220 141//220 142//220
f 39//221 139//221 136//221
f 40//222 141//222 139//222
f 41//223 136//223 141//223
f 139//224 141//224 136//224
f 4//225 137//225 113//225
f 41//226 143//226 137//226
f 33//227 113//227 143//227
f 137//228 143//228 113//228
f 9//229 144//229 140//229
f 42//230 145//230 144//230
f 41//231 140//231 145//231
f 144//232 145//232 140//232
f 10//233 118//233 147//233
f 33//234 146//234 118//234
f 42//235 147//235 146//235
f 118//236 146//236 147//236
f 41//237 145//237 143//237
f 42//238 146//238 145//238
f 33//239 143//239 146//239
f 145//240 146//240 143//240
f 5//241 121//241 89//241
f 34//242 148//242 121//242
f 26//243 89//243 148//243
f 121//244 148//244 89//244
f 10//245 84//245 116//245
f 23//246 149//246 84//246
f 34//247 116//247 149//247
f 84//248 149//248 116//248
f 6//249 86//249 80//249
f 26//250 150//250 86//250
f 23//251 80//251 150//251
f 86//252 150//252 80//252
f 34//253 149//253 148//253
f 23//254 150//254 149//254
f 26//255 148//255 150//255
f 149//256 150//256 148//256
f 3//257 128//257 96//257
f 36//258 151//258 128//258
f 28//259 96//259 151//259
f 128//260 151//260 96//260
f 5//261 91//261 124//261
f 25//262 152//262 91//262
f 36//263 124//263 152//263
f 91//264 152//264 124//264
f 12//265 93//265 87//265
f 28//266 153//266 93//266
f 25//267 87//267 153//267
f 93//268 153//268 87//268
f 36//269 152//269 151//269
f 25//270 153//270 152//270
f 28//271 151//271 153//271
f 152//272 153//272 151//272
f 7//273 135//273 103//273
f 38//274 154//274 135//274
f 30//275 103//275 154//275
f 135//276 154//276 103//276
f 3//277 98//277 131//277
f 27//278 155//278 98//278
f 38//279 131//279 155//279
f 98//280 155//280 131//280
f 11//281 100//281 94//281
f 30//282 156//282 100//282
f 27//283 94//283 156//283
f 100//284 156//284 94//284
f 38//285 155//285 154//285
f 27//286 156//286 155//286
f 30//287 154//287 156//287
f 155//288 156//288 154//288
f 9//289 142//289 110//289
f 40//290 157//290 142//290
f 32//291 110//291 157//291
f 142//292 157//292 110//292
f 7//293 105//293 138//293
f 29//294 158//294 105//294
f 40//295 138//295 158//295
f 105//296 158//296 138//296
f 8//297 107//297 101//297
f 32//298 159//298 107//298
f 29//299 101//299 159//299
f 107//300 159//300 101//300
f 40//301 158//301 157//301
f 29//302 159//302 158//302
f 32//303 157//303 159//303
f 158//304 159//304 157//304
f 10//305 147//305 82//305
f 42//306 160//306 147//306
f 24//307 82//307 160//307
f 147//308 160//308 82//308
f 9//309 112//309 144//309
f 31//310 161//310 112//310
f 42//311 144//311 161//311
f 112//312 161//312 144//312
f 2//313 79//313 108//313
f 24//314 162//314 79//314
f 31//315 108//315 162//315
f 79//316 162//316 108//316
f 42//317 161//317 160//317
f 31//318 162//318 161//318
f 24//319 160//319 162//319
f 161//320 162//320 160//320
