# Fractured Arcana procedural boulder
o Boulder_Round
v -0.248740 0.425209 0.000250
v 0.261001 0.436017 0.000250
v -0.262759 -0.237284 0.000250
v 0.271078 -0.237520 0.000250
v 0.002201 -0.117701 0.357919
v 0.002201 0.313642 0.422617
v 0.002201 -0.134511 -0.387817
v 0.002201 0.298581 -0.394883
v 0.369510 0.080082 -0.215409
v 0.386502 0.080082 0.225885
v -0.410032 0.080082 -0.241786
v -0.389131 0.080082 0.230014
v -0.344116 0.262012 0.125917
v -0.219734 0.196671 0.341394
v -0.164650 0.451380 0.256722
v 0.156806 0.424129 0.237898
v 0.002201 0.498371 0.000250
v 0.138213 0.382751 -0.208818
v -0.148351 0.415109 -0.231169
v -0.224404 0.199124 -0.348073
v -0.406471 0.294769 -0.148044
v -0.473427 0.080082 0.000250
v 0.252374 0.211505 0.384798
v 0.398696 0.288372 0.144125
v -0.244383 -0.049456 0.379282
v 0.002201 0.080082 0.451620
v -0.375941 -0.118567 -0.136966
v -0.398515 -0.130426 0.145657
v 0.002201 0.080082 -0.418534
v -0.240432 -0.047381 -0.372709
v 0.379031 0.278041 -0.136490
v 0.248888 0.209673 -0.378941
v 0.380700 -0.118754 0.137594
v 0.223420 -0.036131 0.340292
v 0.139545 -0.217325 0.211364
v -0.143150 -0.226741 0.223674
v 0.002201 -0.230236 0.000250
v -0.132230 -0.213176 -0.206390
v 0.162709 -0.236547 -0.246472
v 0.238993 -0.044312 -0.363730
v 0.416145 -0.137375 -0.149957
v 0.492303 0.080082 0.000250
v -0.287900 0.329605 0.064055
v -0.270145 0.351120 0.187468
v -0.181306 0.390208 0.104672
v -0.300712 0.138990 0.284629
v -0.287888 0.232474 0.235627
v -0.355051 0.171565 0.170949
v -0.084447 0.398206 0.360036
v -0.186655 0.301926 0.290547
v -0.126756 0.263082 0.406901
v -0.091620 0.546937 0.144466
v -0.140107 0.505887 0.000250
v 0.080654 0.368114 0.326004
v 0.002201 0.446860 0.253599
v 0.130916 0.465212 0.000250
v 0.085109 0.492627 0.127689
v 0.221075 0.449977 0.124796
v -0.063271 0.405873 -0.100391
v -0.204525 0.429447 -0.117385
v 0.206933 0.426076 -0.116249
v 0.072056 0.427678 -0.107126
v -0.074358 0.361164 -0.317644
v 0.002201 0.425456 -0.238316
v 0.082007 0.373084 -0.331126
v -0.299878 0.380710 -0.207408
v -0.349225 0.382353 -0.077044
v -0.125374 0.261120 -0.402043
v -0.213513 0.333474 -0.331331
v -0.438947 0.193049 -0.210537
v -0.330042 0.254618 -0.269331
v -0.312435 0.141270 -0.295136
v -0.352463 0.266397 0.000250
v -0.460293 0.080082 -0.124566
v -0.495742 0.197066 -0.080556
v -0.401459 0.174915 0.065755
v -0.416703 0.080082 0.113301
v 0.271432 0.348019 0.185326
v 0.335130 0.366443 0.073474
v 0.131971 0.264234 0.409462
v 0.203684 0.316758 0.309955
v 0.423497 0.187965 0.201550
v 0.329465 0.252003 0.265790
v 0.330940 0.144012 0.308874
v -0.119071 0.143789 0.417078
v 0.002201 0.198043 0.464344
v -0.343858 0.012783 0.325135
v -0.245044 0.080082 0.380298
v 0.002201 -0.020646 0.396539
v -0.124461 0.013542 0.435606
v -0.113152 -0.083613 0.364002
v -0.452789 -0.026811 0.074085
v -0.420302 -0.028111 0.202127
v -0.444476 -0.034302 -0.213179
v -0.483896 -0.034119 -0.078634
v -0.385910 -0.230873 0.085611
v -0.443159 -0.153879 0.000250
v -0.375883 -0.227506 -0.082907
v -0.240668 0.080082 -0.373072
v -0.312939 0.018795 -0.295609
v 0.002201 0.179103 -0.389327
v -0.117954 0.143203 -0.412739
v -0.118032 -0.090539 -0.378891
v -0.115666 0.018163 -0.404876
v 0.002201 -0.029818 -0.432126
v 0.192485 0.303602 -0.292242
v 0.125849 0.255546 -0.389656
v 0.324688 0.357461 -0.070678
v 0.261329 0.337964 -0.177881
v 0.351201 0.147952 -0.327396
v 0.319396 0.246713 -0.257121
v 0.391652 0.179810 -0.185835
v 0.351089 -0.213798 0.076984
v 0.267402 -0.183844 0.182555
v 0.220344 -0.237492 0.124380
v 0.318251 0.018619 0.296961
v 0.293728 -0.073066 0.236794
v 0.399737 -0.021718 0.190197
v 0.068399 -0.162959 0.275119
v 0.183031 -0.132334 0.278209
v 0.116677 -0.082368 0.361234
v 0.076867 -0.237539 0.115021
v 0.127782 -0.237469 0.000250
v -0.068117 -0.178088 0.292230
v 0.002201 -0.232075 0.233324
v -0.139173 -0.225475 0.000250
v -0.082439 -0.226328 0.130353
v -0.219288 -0.237511 0.126284
v 0.077017 -0.237538 -0.114753
v 0.194028 -0.227065 -0.108906
v -0.203474 -0.234825 -0.116787
v -0.071985 -0.237505 -0.113784
v 0.078592 -0.199039 -0.316945
v 0.002201 -0.231117 -0.230824
v -0.070983 -0.188480 -0.303630
v 0.298735 -0.210390 -0.203596
v 0.340509 -0.207395 -0.074158
v 0.131078 -0.102804 -0.406146
v 0.235100 -0.193019 -0.357746
v 0.373055 -0.014885 -0.176949
v 0.351374 -0.103349 -0.283068
v 0.308917 0.020434 -0.287700
v 0.397442 -0.127550 0.000250
v 0.448504 0.080082 -0.120196
v 0.385339 -0.009931 -0.061926
v 0.446139 -0.024214 0.072291
v 0.478243 0.080082 0.128721
v 0.119514 0.018454 0.403468
v 0.267174 0.080082 0.407547
v 0.133379 0.148993 0.451126
v -0.321991 -0.226372 0.223108
v -0.195136 -0.151725 0.303583
v -0.338405 -0.098849 0.276617
v -0.188427 -0.143844 -0.292772
v -0.292901 -0.209372 -0.202612
v -0.346545 -0.103125 -0.282722
v 0.256337 0.080082 -0.390391
v 0.131661 0.012073 -0.444720
v 0.129796 0.147111 -0.438310
v 0.458774 0.187346 0.074342
v 0.401714 0.173941 -0.064583
v 0.408217 0.293373 0.000250
v -0.265000 0.369255 0.033683
v -0.221709 0.344168 0.079572
v -0.216624 0.412172 0.056550
v -0.304918 0.302145 0.153639
v -0.259923 0.321780 0.114104
v -0.316481 0.296751 0.094861
v -0.189454 0.446654 0.186485
v -0.225620 0.374031 0.145405
v -0.232336 0.412907 0.230147
v -0.345256 0.110634 0.259502
v -0.329257 0.155799 0.227184
v -0.384071 0.129886 0.205781
v -0.253400 0.214356 0.285703
v -0.271832 0.178255 0.240232
v -0.252204 0.164568 0.302404
v -0.346202 0.214698 0.147340
v -0.306631 0.196065 0.193529
v -0.302037 0.239907 0.173371
v -0.040024 0.352583 0.388020
v -0.103857 0.321831 0.375157
v -0.066199 0.294757 0.428626
v -0.178546 0.372313 0.278082
v -0.137708 0.340185 0.315604
v -0.117831 0.406559 0.292112
v -0.179198 0.230824 0.379356
v -0.161889 0.288044 0.353067
v -0.205680 0.251334 0.319791
v -0.286226 0.294030 0.217807
v -0.243067 0.269761 0.267249
v -0.230677 0.329388 0.243409
v -0.176956 0.473005 0.062801
v -0.207820 0.485063 0.000250
v -0.135366 0.516603 0.211709
v -0.155871 0.488725 0.131887
v -0.069690 0.518809 0.000250
v -0.118914 0.532058 0.069663
v -0.044250 0.554258 0.071651
v 0.045167 0.357366 0.394826
v 0.002201 0.409238 0.372513
v 0.082615 0.447182 0.253822
v 0.042038 0.405670 0.289534
v 0.112550 0.380219 0.268565
v -0.042837 0.448179 0.327303
v -0.083057 0.469300 0.269100
v 0.186310 0.435097 0.000250
v 0.184013 0.478827 0.063728
v 0.248774 0.454282 0.063690
v 0.044147 0.508268 0.064726
v 0.108119 0.475345 0.060953
v 0.064635 0.461091 0.000250
v 0.191241 0.441651 0.183943
v 0.157751 0.482206 0.129787
v 0.126898 0.475763 0.191925
v -0.041338 0.490507 0.201025
v 0.046801 0.500510 0.205918
v 0.002201 0.549997 0.145411
v -0.183131 0.486547 -0.064458
v -0.237995 0.444604 -0.061550
v -0.034183 0.451493 -0.055678
v -0.108867 0.494567 -0.063406
v -0.162012 0.394168 -0.159320
v -0.132856 0.429228 -0.112221
v -0.097690 0.397050 -0.153296
v 0.220471 0.411328 -0.055908
v 0.145815 0.395053 -0.049892
v 0.109684 0.421138 -0.164965
v 0.135493 0.424663 -0.110751
v 0.178749 0.417759 -0.171305
v 0.097167 0.434477 -0.054177
v 0.037730 0.442759 -0.054363
v -0.036126 0.327432 -0.351730
v 0.002201 0.368806 -0.326287
v 0.043691 0.347838 -0.380768
v -0.071148 0.414934 -0.231048
v -0.035692 0.389787 -0.274923
v -0.118454 0.408252 -0.293127
v 0.118027 0.395117 -0.281384
v 0.040993 0.397126 -0.281443
v 0.076414 0.418875 -0.233770
v 0.002201 0.425570 -0.106475
v 0.037937 0.416948 -0.164541
v -0.031132 0.394304 -0.153464
v -0.291482 0.426460 -0.103791
v -0.296156 0.402973 -0.037082
v -0.231673 0.411966 -0.228998
v -0.257694 0.415415 -0.165342
v -0.382920 0.341923 -0.114087
v -0.335087 0.391088 -0.146252
v -0.388156 0.362331 -0.194712
v -0.057053 0.266053 -0.370849
v -0.101877 0.317317 -0.367657
v -0.222508 0.265197 -0.345159
v -0.173183 0.302358 -0.376851
v -0.179771 0.231301 -0.380055
v -0.145622 0.354899 -0.332945
v -0.186245 0.384761 -0.289417
v -0.440085 0.137108 -0.235086
v -0.404137 0.172904 -0.277951
v -0.389825 0.114552 -0.292258
v -0.402942 0.292915 -0.230291
v -0.390271 0.227477 -0.245375
v -0.429693 0.246958 -0.182090
v -0.254850 0.165447 -0.305047
v -0.295261 0.186648 -0.260251
v -0.254014 0.214679 -0.285890
v -0.258636 0.359319 -0.272104
v -0.282874 0.300546 -0.310085
v -0.347416 0.339419 -0.263463
v -0.321390 0.358411 0.000250
v -0.378651 0.280154 -0.067117
v -0.339568 0.311024 -0.033517
v -0.322512 0.299499 0.032332
v -0.339239 0.259450 0.060644
v -0.446366 0.080082 -0.187595
v -0.443590 0.134054 -0.163885
v -0.460213 0.133038 -0.036329
v -0.487412 0.137268 -0.105695
v -0.445300 0.080082 -0.058964
v -0.480434 0.198322 -0.150505
v -0.451070 0.247073 -0.115099
v -0.380174 0.126376 0.141035
v -0.404941 0.080082 0.170746
v -0.349455 0.209637 0.089739
v -0.372206 0.171808 0.117199
v -0.455792 0.080082 0.060851
v -0.411294 0.128377 0.089723
v -0.440594 0.130791 0.035277
v -0.440574 0.244812 -0.037679
v -0.456849 0.187928 0.000250
v -0.387266 0.224979 0.033612
v 0.278188 0.405589 0.098021
v 0.309166 0.412288 0.038658
v 0.217613 0.385766 0.211399
v 0.252855 0.403492 0.159953
v 0.365742 0.327250 0.108179
v 0.324802 0.377544 0.140372
v 0.331726 0.318345 0.164829
v 0.063157 0.271393 0.382004
v 0.110026 0.325857 0.381401
v 0.232703 0.269969 0.354561
v 0.180434 0.305968 0.383476
v 0.191851 0.237680 0.396599
v 0.145019 0.345593 0.322161
v 0.177860 0.364086 0.270260
v 0.414559 0.133249 0.219660
v 0.376052 0.165482 0.256207
v 0.359111 0.111465 0.266556
v 0.345639 0.260499 0.195677
v 0.378723 0.221486 0.235892
v 0.411687 0.238299 0.173128
v 0.313059 0.183316 0.369453
v 0.343749 0.202442 0.299357
v 0.299185 0.236096 0.331918
v 0.231301 0.325343 0.239464
v 0.256000 0.276358 0.276535
v 0.282016 0.287641 0.211311
v -0.064957 0.235406 0.448169
v 0.002201 0.253509 0.439970
v -0.175375 0.173367 0.389466
v -0.125645 0.204048 0.421637
v 0.002201 0.138118 0.465948
v -0.061249 0.169481 0.438920
v -0.060622 0.113084 0.443223
v -0.367046 0.047614 0.275761
v -0.317178 0.080082 0.300087
v -0.254763 0.014279 0.395238
v -0.301476 0.046313 0.363148
v -0.302396 -0.021073 0.362016
v -0.269754 0.110323 0.325240
v -0.230664 0.139713 0.358194
v 0.002201 -0.072113 0.386135
v -0.056796 -0.056368 0.393737
v -0.053098 -0.093477 0.346580
v -0.059371 0.047736 0.434404
v -0.061526 -0.009708 0.440836
v 0.002201 0.029204 0.408502
v -0.179049 -0.070538 0.379046
v -0.119873 -0.038289 0.402613
v -0.190524 -0.021163 0.422671
v -0.187381 0.113279 0.411732
v -0.194490 0.045639 0.427161
v -0.124143 0.080082 0.434510
v -0.433004 0.027391 0.160487
v -0.411552 0.026734 0.220403
v -0.497534 0.022852 0.039781
v -0.470429 0.024879 0.102519
v -0.402765 -0.076390 0.171220
v -0.443771 -0.029177 0.139553
v -0.419735 -0.075365 0.107624
v -0.440399 0.023015 -0.235253
v -0.481358 0.021536 -0.177791
v -0.442542 -0.083768 -0.112929
v -0.474168 -0.036624 -0.148548
v -0.424205 -0.084674 -0.179773
v -0.468003 0.025162 -0.101495
v -0.457734 0.027410 -0.036133
v -0.333011 -0.237159 0.042193
v -0.393525 -0.232971 0.000250
v -0.332904 -0.237150 -0.041680
v -0.426497 -0.145126 0.076079
v -0.411495 -0.198260 0.041123
v -0.398655 -0.192072 0.119258
v -0.389944 -0.186487 -0.116172
v -0.416437 -0.201051 -0.041112
v -0.434262 -0.149205 -0.076953
v -0.446034 -0.025224 0.000250
v -0.459736 -0.091777 -0.039321
v -0.441116 -0.084850 0.038225
v -0.324386 0.080082 -0.306355
v -0.370404 0.047318 -0.277768
v -0.226572 0.138665 -0.351406
v -0.266171 0.109925 -0.320459
v -0.285387 -0.015425 -0.341316
v -0.257163 0.051240 -0.309694
v -0.235003 0.019339 -0.364365
v 0.002201 0.225441 -0.368306
v -0.053474 0.208849 -0.371085
v -0.055360 0.110320 -0.405625
v -0.055389 0.161224 -0.397907
v 0.002201 0.132457 -0.420025
v -0.121303 0.199839 -0.406828
v -0.176426 0.173920 -0.391271
v -0.055813 -0.101998 -0.363083
v -0.054466 -0.050979 -0.377699
v 0.002201 -0.087448 -0.424516
v -0.179238 -0.015233 -0.397433
v -0.120170 -0.038577 -0.403093
v -0.179879 -0.071227 -0.380282
v 0.002201 0.024089 -0.449048
v -0.061529 -0.009712 -0.440356
v -0.060262 0.047268 -0.440188
v -0.172825 0.110730 -0.379639
v -0.119541 0.080082 -0.418196
v -0.194813 0.045582 -0.427364
v 0.112542 0.331591 -0.389794
v 0.068355 0.287707 -0.414060
v 0.168557 0.349046 -0.255462
v 0.152852 0.360156 -0.339318
v 0.193017 0.238649 -0.398536
v 0.165099 0.286533 -0.350004
v 0.222641 0.261679 -0.338595
v 0.291617 0.393296 -0.035963
v 0.266810 0.392170 -0.093491
v 0.334824 0.320585 -0.165877
v 0.293560 0.348737 -0.126303
v 0.352434 0.318202 -0.103729
v 0.224681 0.367139 -0.141502
v 0.210665 0.375907 -0.204090
v 0.381458 0.113430 -0.282731
v 0.382309 0.166912 -0.259992
v 0.395511 0.130793 -0.209026
v 0.304920 0.239109 -0.337824
v 0.359245 0.207993 -0.312429
v 0.297415 0.178121 -0.350373
v 0.379311 0.225790 -0.158960
v 0.362409 0.215360 -0.225183
v 0.342692 0.258951 -0.193501
v 0.229784 0.323719 -0.237381
v 0.305235 0.304865 -0.228326
v 0.262992 0.281765 -0.283648
v 0.306224 -0.229083 0.038290
v 0.305815 -0.236666 0.107808
v 0.254224 -0.237020 0.065092
v 0.311668 -0.143679 0.154811
v 0.320512 -0.209244 0.138508
v 0.362331 -0.164767 0.107166
v 0.176591 -0.230776 0.169708
v 0.262156 -0.231417 0.165879
v 0.210370 -0.210599 0.204300
v 0.336057 0.050726 0.249354
v 0.348132 0.001059 0.237092
v 0.397765 0.029079 0.210725
v 0.269669 -0.060427 0.298955
v 0.301825 -0.027259 0.262642
v 0.273898 -0.010148 0.322941
v 0.392703 -0.070801 0.165113
v 0.341411 -0.047311 0.212540
v 0.319740 -0.086730 0.180940
v 0.036947 -0.144154 0.319338
v 0.101536 -0.146343 0.351390
v 0.061312 -0.105439 0.370448
v 0.163937 -0.181412 0.248859
v 0.138204 -0.172761 0.306801
v 0.107387 -0.203638 0.256013
v 0.170082 -0.059427 0.351105
v 0.157447 -0.116672 0.334051
v 0.209984 -0.091090 0.319640
v 0.288108 -0.131997 0.215906
v 0.257441 -0.117310 0.278105
v 0.238618 -0.173013 0.247104
v 0.176824 -0.236969 0.061218
v 0.196591 -0.237498 0.000250
v 0.119120 -0.237536 0.179969
v 0.152362 -0.236309 0.125298
v 0.067273 -0.234599 0.000250
v 0.107798 -0.235265 0.060769
v 0.042205 -0.231397 0.061740
v -0.031938 -0.140241 0.313769
v 0.002201 -0.170682 0.283854
v -0.066659 -0.222302 0.217392
v -0.033261 -0.206528 0.257765
v -0.106812 -0.211368 0.265318
v 0.036468 -0.198701 0.249086
v 0.079334 -0.235745 0.243479
v -0.204082 -0.234442 0.000250
v -0.180164 -0.233898 0.063921
v -0.251072 -0.236817 0.065413
v -0.041567 -0.211656 0.067527
v -0.117789 -0.210965 0.069018
v -0.070359 -0.214331 0.000250
v -0.181108 -0.235459 0.178375
v -0.143585 -0.237423 0.121656
v -0.111524 -0.236983 0.175060
v 0.043219 -0.236529 0.189398
v -0.039857 -0.234747 0.194195
v 0.002201 -0.221072 0.133582
v 0.163710 -0.236105 -0.056140
v 0.230077 -0.234416 -0.058380
v 0.037518 -0.236946 -0.054036
v 0.101862 -0.237539 -0.056868
v 0.179867 -0.232808 -0.172392
v 0.138029 -0.235561 -0.112863
v 0.113570 -0.235967 -0.170939
v -0.245986 -0.237433 -0.063606
v -0.170638 -0.237299 -0.060096
v -0.104948 -0.232862 -0.164453
v -0.134223 -0.235845 -0.113360
v -0.169138 -0.228559 -0.166245
v -0.099708 -0.237210 -0.058156
v -0.037614 -0.232025 -0.060952
v 0.040911 -0.169731 -0.355234
v 0.002201 -0.192863 -0.308964
v -0.035158 -0.161017 -0.342834
v 0.076324 -0.232376 -0.233488
v 0.035429 -0.191178 -0.241038
v 0.116925 -0.221046 -0.278705
v -0.104394 -0.206602 -0.258942
v -0.029643 -0.180178 -0.230990
v -0.066133 -0.221001 -0.215233
v 0.002201 -0.237166 -0.117397
v -0.036463 -0.237288 -0.178046
v 0.041812 -0.237528 -0.182411
v 0.282988 -0.229909 -0.099222
v 0.306539 -0.229217 -0.037831
v 0.230363 -0.226885 -0.223398
v 0.235251 -0.214198 -0.148237
v 0.382781 -0.178671 -0.112739
v 0.321575 -0.209947 -0.138471
v 0.369853 -0.185723 -0.183372
v 0.064243 -0.114638 -0.388307
v 0.110905 -0.167699 -0.384010
v 0.237257 -0.113557 -0.361063
v 0.181739 -0.147459 -0.385782
v 0.180555 -0.068130 -0.372493
v 0.156523 -0.204269 -0.347592
v 0.196515 -0.222199 -0.298437
v 0.373779 0.032172 -0.197463
v 0.348731 0.000922 -0.237003
v 0.376569 0.047163 -0.279083
v 0.385418 -0.121233 -0.217813
v 0.378245 -0.061144 -0.235094
v 0.400232 -0.073710 -0.167793
v 0.284550 -0.013685 -0.335093
v 0.320643 -0.034001 -0.278622
v 0.291206 -0.071741 -0.322508
v 0.265241 -0.199986 -0.274404
v 0.286788 -0.140005 -0.309553
v 0.344709 -0.173983 -0.258100
v 0.343007 -0.208975 0.000250
v 0.391343 -0.124346 -0.068583
v 0.390761 -0.182478 -0.038140
v 0.386340 -0.179491 0.038203
v 0.391067 -0.124201 0.069033
v 0.414571 0.080082 -0.172436
v 0.377085 0.034694 -0.137778
v 0.395410 0.035051 -0.030855
v 0.408262 0.032654 -0.087615
v 0.453826 0.080082 -0.059509
v 0.400192 -0.017422 -0.124066
v 0.398574 -0.065948 -0.100619
v 0.428802 0.028432 0.157318
v 0.445809 0.080082 0.186017
v 0.389829 -0.062726 0.098893
v 0.411343 -0.020154 0.128048
v 0.499158 0.080082 0.066007
v 0.480197 0.024252 0.103680
v 0.453911 0.028352 0.035982
v 0.363184 -0.054218 -0.030673
v 0.407070 -0.015036 0.000250
v 0.427931 -0.078307 0.036718
v 0.061888 -0.057963 0.398338
v 0.172724 -0.009499 0.374007
v 0.116163 -0.030423 0.375875
v 0.062726 -0.005195 0.418689
v 0.066263 0.046428 0.451959
v 0.325529 0.080082 0.303794
v 0.261200 0.146405 0.398365
v 0.302404 0.113464 0.358996
v 0.277469 0.049472 0.329198
v 0.239286 0.019370 0.364679
v 0.066066 0.227788 0.426200
v 0.066311 0.113760 0.452299
v 0.067643 0.172286 0.452687
v 0.127903 0.201969 0.414569
v 0.189579 0.178516 0.410948
v 0.197604 0.045865 0.424365
v 0.199829 0.114688 0.429193
v 0.140845 0.080082 0.476788
v -0.316062 -0.237482 0.112998
v -0.222180 -0.224375 0.220192
v -0.257652 -0.231373 0.165814
v -0.358638 -0.230480 0.156981
v -0.378126 -0.194294 0.190202
v -0.088105 -0.125763 0.319476
v -0.218845 -0.102016 0.340028
v -0.150235 -0.113111 0.328010
v -0.128423 -0.162761 0.294676
v -0.173376 -0.201857 0.270135
v -0.375449 -0.006187 0.258809
v -0.364099 -0.112347 0.208687
v -0.373449 -0.060996 0.235347
v -0.362814 -0.050686 0.319908
v -0.308473 -0.083125 0.347208
v -0.267048 -0.205314 0.281386
v -0.285447 -0.142373 0.313385
v -0.325474 -0.162980 0.247412
v -0.091496 -0.133492 -0.330963
v -0.165710 -0.191096 -0.257853
v -0.127797 -0.161598 -0.292767
v -0.159034 -0.124262 -0.346429
v -0.224751 -0.106881 -0.348605
v -0.273298 -0.227390 -0.097349
v -0.353374 -0.177018 -0.177341
v -0.319660 -0.211559 -0.139551
v -0.246013 -0.225269 -0.157899
v -0.203710 -0.208294 -0.201588
v -0.378795 -0.006952 -0.260601
v -0.277452 -0.066828 -0.312065
v -0.308238 -0.031134 -0.271615
v -0.401113 -0.071386 -0.252161
v -0.388840 -0.125343 -0.222266
v -0.250208 -0.189919 -0.263304
v -0.348250 -0.179875 -0.264092
v -0.284070 -0.141308 -0.311386
v 0.322732 0.080082 -0.300669
v 0.239791 0.019241 -0.364957
v 0.284276 0.048715 -0.336834
v 0.312215 0.114555 -0.370221
v 0.258126 0.145618 -0.393141
v 0.066752 -0.069212 -0.430277
v 0.065446 0.046857 -0.445698
v 0.069955 -0.015380 -0.468169
v 0.129709 -0.043557 -0.420023
v 0.173687 -0.010005 -0.375618
v 0.065111 0.225580 -0.419334
v 0.204343 0.186272 -0.442810
v 0.132187 0.206123 -0.428190
v 0.061049 0.162996 -0.406600
v 0.058695 0.109759 -0.398096
v 0.188768 0.047412 -0.404687
v 0.131320 0.080082 -0.443548
v 0.207643 0.116056 -0.445655
v 0.462953 0.135866 0.169893
v 0.502466 0.137372 0.039823
v 0.457711 0.133285 0.098814
v 0.464572 0.193358 0.144674
v 0.430566 0.237897 0.109260
v 0.417952 0.130417 -0.152825
v 0.403190 0.227811 -0.101794
v 0.387946 0.174585 -0.120241
v 0.459278 0.133468 -0.098654
v 0.480360 0.134841 -0.037575
v 0.338884 0.369672 0.000250
v 0.421260 0.300225 0.074374
v 0.364307 0.324766 0.036026
v 0.378685 0.334481 -0.036947
v 0.385195 0.281279 -0.067495
v 0.435525 0.181884 0.000250
v 0.382523 0.221577 -0.032329
v 0.445302 0.244933 0.038206
vn -0.692567 0.507543 0.512592
vn -0.305758 0.683954 0.662359
vn -0.712215 0.272287 0.647000
vn -0.609405 0.294742 0.736039
vn -0.741463 0.665616 0.084780
vn -0.622207 0.693136 -0.363897
vn -0.480465 0.784884 0.391293
vn -0.403360 0.915029 -0.004623
vn -0.528050 0.839201 0.130017
vn -0.651657 0.592449 -0.473653
vn -0.669631 0.653509 -0.352873
vn -0.764707 0.560574 -0.317774
vn -0.270704 0.916473 0.294612
vn -0.670214 0.652188 -0.354210
vn -0.594344 0.718513 -0.361240
vn -0.682991 0.649072 -0.335007
vn -0.682592 0.374660 0.627453
vn -0.647799 0.581570 0.492070
vn -0.518671 0.731292 0.442937
vn -0.521427 0.610955 0.595690
vn -0.820240 0.164119 0.547970
vn -0.839143 -0.205742 0.503497
vn -0.533002 0.775266 0.338926
vn -0.944849 0.083538 0.316673
vn -0.615359 0.347483 0.707523
vn -0.558824 0.483457 0.673784
vn -0.947710 0.209853 0.240432
vn -0.621008 0.380214 0.685410
vn -0.411978 0.798775 0.438443
vn -0.820677 -0.197498 0.536175
vn -0.561481 0.693203 0.451894
vn -0.408001 0.709500 0.574582
vn -0.096153 0.600798 0.793597
vn -0.309463 0.259756 0.914746
vn -0.522327 0.553909 0.648352
vn -0.436068 0.640959 0.631678
vn -0.373303 0.302525 0.876997
vn -0.568939 0.206520 0.796026
vn -0.803195 0.397560 0.443649
vn -0.419296 0.411915 0.809022
vn -0.782833 0.392178 0.483083
vn -0.620068 0.474582 0.624730
vn -0.748576 0.519595 0.411892
vn -0.747995 0.450277 0.487599
vn -0.784007 0.306164 0.539996
vn -0.682712 0.607904 0.405409
vn -0.557477 0.552230 0.619888
vn -0.568909 0.637308 0.519790
vn -0.689033 0.189848 0.699422
vn -0.968441 0.093090 0.231204
vn -0.863292 0.403952 0.302570
vn -0.957504 0.045944 0.284737
vn -0.718448 0.407493 0.563722
vn -0.568466 0.561403 0.601393
vn -0.713760 0.337523 0.613698
vn -0.706422 0.338742 0.621467
vn -0.493769 0.306609 0.813746
vn -0.799941 0.078573 0.594912
vn -0.653198 0.204373 0.729084
vn -0.612637 0.112063 0.782380
vn -0.678330 0.221168 0.700680
vn -0.537171 0.407005 0.738779
vn -0.604197 0.499928 0.620499
vn -0.582106 0.403264 0.706067
vn -0.707376 0.483613 0.515498
vn -0.663086 0.365258 0.653378
vn -0.279199 0.907865 0.312776
vn -0.763308 0.450131 0.463403
vn -0.807550 0.534559 0.249219
vn -0.658684 0.746819 -0.091629
vn -0.897189 0.316680 -0.307839
vn -0.788951 0.614340 -0.011899
vn 0.237066 0.833869 -0.498460
vn -0.172118 0.937935 -0.301087
vn -0.281777 0.955506 -0.087238
vn -0.257816 0.898851 -0.354398
vn -0.951913 0.176614 0.250337
vn -0.678853 0.727002 0.103091
vn -0.709533 0.703007 -0.048421
vn -0.715378 0.696163 0.059921
vn -0.097132 0.600100 0.794006
vn 0.603526 0.679427 0.417295
vn -0.179163 0.381724 0.906745
vn -0.093496 0.327076 0.940361
vn 0.294850 0.329300 0.897009
vn -0.004726 0.654792 0.755794
vn 0.414288 0.816491 0.402128
vn 0.382622 0.358520 0.851507
vn -0.229011 0.444551 0.865984
vn -0.577918 0.725719 0.373285
vn 0.277403 0.948567 0.152537
vn -0.584482 0.544569 0.601520
vn 0.556159 0.797833 0.232700
vn 0.532706 0.786912 0.311438
vn -0.188742 0.643222 0.742053
vn 0.510781 0.833827 0.209367
vn -0.011819 0.960290 -0.278752
vn 0.411730 0.757356 -0.506843
vn 0.345772 0.911928 0.220974
vn 0.299399 0.790755 -0.533916
vn 0.464813 0.778438 -0.421881
vn 0.452897 0.888492 -0.073930
vn -0.060968 0.980547 -0.186577
vn 0.383948 0.799072 -0.462674
vn 0.449153 0.725029 0.522106
vn 0.447497 0.826291 0.342038
vn 0.135214 0.976405 0.168378
vn 0.474422 0.819853 0.320568
vn -0.038581 0.983164 -0.178606
vn 0.144793 0.968838 -0.200969
vn 0.457862 0.878388 0.137102
vn -0.043242 0.996736 -0.068168
vn -0.249342 0.623392 0.741088
vn 0.302843 0.841345 0.447688
vn 0.281454 0.792733 0.540701
vn 0.286214 0.850917 0.440480
vn 0.352420 0.727868 0.588225
vn 0.303161 0.951488 0.052576
vn -0.004744 0.666495 0.745495
vn 0.331234 0.743876 0.580459
vn 0.401191 0.829599 -0.388344
vn -0.033296 0.996356 0.078522
vn 0.541490 0.827820 -0.146637
vn 0.435915 0.871621 -0.224175
vn -0.119287 0.713121 0.690817
vn 0.586262 0.782913 0.208192
vn -0.029895 0.694184 0.719177
vn -0.119849 0.723372 0.679977
vn -0.825049 0.564063 0.033580
vn -0.292758 0.951954 -0.089867
vn -0.540486 0.671895 -0.506392
vn -0.600647 0.771035 -0.211492
vn 0.194905 0.685570 -0.701431
vn 0.376581 0.514761 -0.770200
vn -0.174536 0.951113 -0.254797
vn 0.459542 0.698330 -0.548776
vn -0.068091 0.961227 0.267219
vn 0.046709 0.787214 -0.614908
vn 0.351586 0.859074 -0.371994
vn 0.021046 0.795693 -0.605334
vn -0.101566 0.969677 -0.222287
vn 0.304668 0.495751 -0.813270
vn 0.055538 0.667480 -0.742554
vn -0.054728 0.610441 -0.790168
vn -0.011303 0.918360 -0.395584
vn -0.183977 0.944511 0.272125
vn 0.323310 0.594712 -0.736063
vn -0.223106 0.841569 -0.491920
vn -0.024871 0.744137 -0.667563
vn 0.042457 0.995481 -0.084941
vn -0.029922 0.990487 -0.134316
vn 0.040984 0.995602 -0.084248
vn 0.450955 0.755230 -0.475675
vn -0.054943 0.883641 -0.464930
vn 0.136090 0.972423 -0.189402
vn 0.129233 0.919116 -0.372189
vn 0.015704 0.900150 0.435298
vn 0.038683 0.988633 -0.145288
vn 0.516571 0.567767 -0.640933
vn 0.591938 0.759692 0.269219
vn -0.406095 0.550976 -0.729049
vn -0.148795 0.614344 -0.774882
vn -0.073466 0.910711 -0.406459
vn -0.392723 0.717542 -0.575241
vn 0.002428 0.994056 -0.108843
vn -0.171629 0.788487 -0.590620
vn 0.298647 0.645616 -0.702844
vn 0.270748 0.913188 -0.304604
vn 0.502335 0.864640 0.007602
vn 0.023990 0.907509 -0.419347
vn 0.106590 0.872335 -0.477149
vn 0.023873 0.902725 -0.429555
vn -0.139511 0.876410 -0.460915
vn -0.126836 0.772865 -0.621766
vn -0.076095 0.871460 -0.484527
vn -0.122977 0.883664 -0.451680
vn 0.100939 0.729171 -0.676846
vn -0.031577 0.955402 -0.293616
vn -0.282539 0.757266 -0.588830
vn 0.118278 0.916206 -0.382853
vn 0.568803 0.765718 -0.300232
vn 0.083588 0.993740 0.074115
vn -0.058530 0.987001 -0.149680
vn -0.058332 0.998286 -0.004637
vn 0.001860 0.974410 0.224769
vn 0.039996 0.981041 -0.189626
vn -0.105411 0.946187 0.305970
vn 0.040643 0.970626 0.237137
vn -0.031298 0.985693 -0.165619
vn -0.268015 0.933682 0.237501
vn -0.298928 0.878559 -0.372526
vn -0.341776 0.875965 -0.340403
vn -0.525147 0.833782 0.170376
vn -0.080381 0.948719 -0.305730
vn -0.510253 0.821787 0.253591
vn -0.487618 0.833646 0.259353
vn -0.029104 0.961118 0.274601
vn -0.465664 0.852759 -0.236555
vn 0.218302 0.844460 -0.489114
vn 0.214560 0.976090 0.034819
vn -0.923399 0.353550 0.149453
vn -0.736262 0.673529 -0.065405
vn -0.235063 0.926889 -0.292612
vn -0.617803 0.751816 0.230418
vn -0.066560 0.975104 -0.211521
vn -0.358711 0.864071 -0.353141
vn -0.614388 0.788576 -0.025989
vn -0.358591 0.864587 -0.351997
vn -0.527360 0.411367 -0.743417
vn 0.363413 0.370957 -0.854589
vn 0.049803 0.737261 -0.673770
vn 0.195500 0.230284 -0.953283
vn -0.606341 0.052397 -0.793476
vn -0.643636 0.232476 -0.729169
vn -0.410518 0.079028 -0.908421
vn -0.585756 0.090631 -0.805404
vn -0.328867 0.908111 -0.259194
vn 0.128774 0.550175 -0.825061
vn -0.233068 0.686669 -0.688597
vn -0.267141 0.660040 -0.702128
vn 0.000528 0.521770 -0.853086
vn -0.234865 0.692880 -0.681730
vn 0.082634 0.726386 -0.682301
vn -0.039423 0.652828 -0.756480
vn -0.768596 -0.341511 -0.540953
vn -0.832658 0.236666 -0.500669
vn -0.109097 0.211393 -0.971293
vn -0.755655 -0.024872 -0.654497
vn -0.884474 0.464071 -0.048404
vn -0.415529 0.127149 -0.900649
vn -0.705721 0.421600 -0.569395
vn -0.854182 -0.046012 -0.517934
vn -0.865981 0.194046 -0.460894
vn -0.385527 0.649634 -0.655244
vn -0.349841 -0.297680 -0.888255
vn -0.639134 0.288302 -0.713015
vn -0.709231 0.485390 -0.511261
vn -0.255749 -0.255430 -0.932388
vn 0.055159 0.595345 -0.801574
vn 0.077912 0.496322 -0.864635
vn -0.045288 0.897707 -0.438259
vn -0.389102 0.698088 -0.601060
vn -0.485951 0.689067 -0.537622
vn -0.388878 0.694656 -0.605167
vn -0.897523 0.045102 -0.438656
vn -0.377742 -0.366539 -0.850271
vn -0.383767 0.231602 -0.893915
vn -0.624024 -0.399037 -0.671835
vn -0.971812 0.231044 -0.046899
vn -0.243006 0.867903 -0.433235
vn -0.487809 -0.039594 -0.872052
vn -0.702075 0.437520 -0.561843
vn -0.481770 0.607076 -0.631946
vn -0.611770 -0.070817 -0.787859
vn -0.237008 0.867250 -0.437840
vn -0.208174 0.589991 -0.780112
vn -0.666113 0.515598 0.538937
vn -0.587530 0.688670 0.424902
vn -0.462020 0.691858 0.554860
vn -0.455533 0.708979 0.538366
vn -0.913959 0.203715 0.350969
vn -0.754614 0.520437 0.399628
vn -0.825834 0.208025 0.524140
vn -0.755501 0.362675 0.545605
vn -0.814845 0.573649 -0.083395
vn -0.703068 0.704232 0.098757
vn -0.824011 0.513469 0.239491
vn -0.888944 0.445740 0.105327
vn -0.926579 0.096385 0.363540
vn -0.833396 0.465843 0.297391
vn -0.775250 0.313415 0.548415
vn -0.946855 0.167558 0.274572
vn -0.778384 -0.348907 -0.521902
vn -0.966342 0.143499 -0.213521
vn -0.998032 0.041100 -0.047367
vn -0.996384 0.071448 -0.045984
vn -0.901005 -0.070808 -0.427990
vn -0.902466 -0.267617 0.337544
vn -0.859283 -0.472299 0.196383
vn -0.868681 -0.380309 0.317424
vn -0.787583 0.562194 -0.252292
vn -0.732325 0.411860 -0.542283
vn -0.788881 0.592810 -0.161996
vn -0.745319 0.622432 -0.238909
vn -0.790320 -0.181694 -0.585134
vn -0.975682 -0.045807 -0.214350
vn -0.786331 -0.343943 -0.513212
vn -0.764687 -0.322196 -0.558071
vn -0.942934 0.218200 0.251523
vn -0.847985 0.524034 -0.079434
vn -0.820338 0.546655 0.167968
vn -0.898931 0.431187 -0.077468
vn -0.996495 0.066756 0.050416
vn -0.629263 0.667466 0.398142
vn -0.895150 0.340880 0.287240
vn -0.856010 0.516952 0.002924
vn -0.882495 0.394017 0.256815
vn -0.749150 0.356466 0.558306
vn -0.799663 0.399749 0.448040
vn -0.776296 0.453490 0.437848
vn -0.905001 0.311012 0.290249
vn -0.783047 0.407487 0.469884
vn -0.800433 0.332978 0.498430
vn -0.779455 0.392769 0.488039
vn -0.564541 0.756287 0.330641
vn -0.699828 0.704916 0.115468
vn -0.352106 0.880738 0.316737
vn -0.461730 0.882607 0.088379
vn -0.882455 0.395790 0.254211
vn -0.729682 0.194313 0.655597
vn -0.889332 -0.214568 0.403793
vn -0.959076 -0.113944 0.259210
vn -0.984634 0.155400 -0.079665
vn -0.648682 0.726840 0.225644
vn -0.622063 0.540221 0.566743
vn -0.664979 0.473650 0.577458
vn -0.758167 0.497761 0.421210
vn -0.580673 0.550007 0.600259
vn -0.406326 0.755455 0.513991
vn -0.581253 0.559965 0.590409
vn 0.525373 0.839216 -0.140359
vn 0.671625 0.652781 0.350424
vn 0.630070 0.663377 0.403661
vn 0.629179 0.664432 0.403315
vn 0.601910 0.562514 0.566818
vn 0.633099 0.487165 0.601545
vn 0.589989 0.703293 0.396600
vn 0.578491 0.562979 0.590257
vn 0.475064 0.779735 0.407832
vn 0.780682 0.624701 0.016854
vn 0.461061 0.384352 0.799810
vn 0.792944 0.309553 0.524802
vn 0.668850 0.681633 0.296675
vn 0.388646 0.487713 0.781723
vn 0.549974 0.833472 -0.053409
vn 0.377599 0.907263 0.185182
vn 0.549879 -0.009506 0.835190
vn -0.328043 0.292243 0.898322
vn 0.466856 0.804852 0.366413
vn 0.147122 -0.115726 0.982325
vn 0.375195 0.522294 0.765792
vn 0.649220 0.695712 0.307404
vn 0.300143 0.228159 0.926206
vn 0.593558 0.246451 0.766127
vn 0.100997 0.499232 0.860562
vn 0.326802 0.871691 0.365179
vn 0.458914 0.704485 0.541386
vn 0.204472 0.874012 0.440789
vn 0.098337 0.441206 0.892002
vn 0.469469 0.840090 0.271748
vn 0.317219 0.827593 0.463100
vn 0.233847 0.872588 0.428843
vn 0.681709 -0.280628 0.675663
vn 0.729314 0.104650 0.676129
vn 0.778244 -0.126214 0.615147
vn 0.658799 -0.062982 0.749678
vn 0.428312 0.533553 0.729294
vn 0.610297 0.757269 0.232553
vn 0.730923 0.457461 0.506440
vn 0.416498 0.799450 0.432908
vn 0.445267 0.593707 0.670261
vn 0.920396 -0.142470 0.364105
vn 0.724016 0.517539 0.456019
vn 0.724071 0.515899 0.457788
vn 0.691199 0.217078 0.689290
vn 0.655196 0.543929 0.524270
vn 0.770934 -0.065823 0.633505
vn 0.847595 0.144769 0.510514
vn 0.597331 0.532612 0.599600
vn 0.672891 0.655197 0.343416
vn 0.622571 0.441229 0.646314
vn 0.664786 0.433257 0.608562
vn 0.501572 0.524554 0.687945
vn 0.340631 0.866686 0.364454
vn 0.688938 0.676171 0.261068
vn 0.501015 0.837488 0.218169
vn 0.452514 0.501914 0.737098
vn 0.469793 0.417167 0.777988
vn 0.426259 0.881044 0.205098
vn 0.402810 0.504235 0.763866
vn 0.702363 0.619481 0.350612
vn 0.339109 0.894910 0.290072
vn 0.652138 0.393244 0.648132
vn 0.678361 0.629180 0.379419
vn 0.007859 0.277260 0.960763
vn -0.447572 0.271224 0.852125
vn 0.003329 0.402297 0.915503
vn 0.031455 0.313200 0.949166
vn -0.714509 0.074853 0.695611
vn -0.486731 -0.118583 0.865466
vn -0.546720 0.193086 0.814748
vn -0.584222 0.102779 0.805059
vn -0.247706 -0.232210 0.940596
vn -0.381398 0.024734 0.924080
vn -0.378227 0.066238 0.923340
vn -0.362852 0.066875 0.929444
vn -0.478784 0.204131 0.853871
vn -0.310122 -0.105322 0.944845
vn -0.309188 -0.149162 0.939230
vn -0.330297 -0.149334 0.931989
vn -0.685824 0.394857 0.611337
vn -0.616336 0.477423 0.626257
vn -0.620856 0.356721 0.698060
vn -0.595547 0.387471 0.703698
vn -0.398241 -0.283280 0.872443
vn -0.419601 0.259475 0.869832
vn -0.666188 -0.003436 0.745776
vn -0.569028 -0.006047 0.822296
vn -0.839559 0.295556 0.455837
vn -0.511147 0.468669 0.720471
vn -0.746486 0.381972 0.544845
vn -0.748711 0.447940 0.488652
vn -0.765831 0.467812 0.441197
vn -0.541104 0.610605 0.578246
vn -0.604834 0.355993 0.712351
vn -0.638342 0.601101 0.480830
vn -0.375294 -0.487828 0.788149
vn 0.073222 -0.197603 0.977544
vn 0.051303 -0.782861 0.620078
vn -0.131074 -0.784044 0.606708
vn 0.125345 -0.641439 0.756865
vn -0.040873 0.112702 0.992788
vn 0.536577 -0.196907 0.820557
vn 0.408310 0.086437 0.908742
vn -0.215011 -0.674219 0.706540
vn 0.046636 -0.643760 0.763805
vn 0.111609 -0.526579 0.842768
vn 0.055752 -0.653781 0.754627
vn 0.358459 -0.644954 0.674938
vn -0.264165 -0.534443 0.802862
vn -0.081324 -0.653294 0.752724
vn -0.106275 -0.711706 0.694392
vn -0.608800 0.329661 0.721586
vn -0.605562 0.400855 0.687466
vn -0.239252 0.379062 0.893907
vn -0.619440 0.378620 0.687708
vn -0.505478 -0.286119 0.814020
vn -0.153354 -0.075327 0.985296
vn -0.554434 0.261298 0.790143
vn -0.431012 -0.085958 0.898243
vn -0.200510 -0.134790 0.970375
vn -0.269038 0.274063 0.923314
vn 0.009835 0.016422 0.999817
vn -0.065642 -0.134684 0.988712
vn -0.567343 0.239342 0.787932
vn -0.112077 0.016903 0.993556
vn -0.195757 0.273288 0.941803
vn -0.215759 0.238639 0.946836
vn -0.909205 0.338420 0.242526
vn -0.882264 0.434715 0.180648
vn -0.940676 0.037712 0.337204
vn -0.862202 0.398249 0.313059
vn -0.824260 0.512892 0.239868
vn -0.802991 -0.473289 0.362220
vn -0.668085 0.552961 0.497892
vn -0.815399 0.470639 0.337080
vn -0.948812 -0.192929 0.250068
vn -0.810925 -0.494669 0.312576
vn -0.853051 -0.512355 0.098977
vn -0.802886 -0.559694 0.205222
vn -0.690008 0.589525 0.419939
vn -0.919670 -0.376060 0.113078
vn -0.935478 0.048530 0.350037
vn -0.838583 -0.041397 0.543199
vn -0.776869 0.353768 -0.520886
vn -0.801192 -0.164577 -0.575330
vn -0.856489 0.480220 -0.189248
vn -0.762182 0.366146 -0.533869
vn -0.494295 -0.860412 -0.123947
vn -0.794714 -0.600413 -0.089074
vn -0.753702 -0.545960 -0.365870
vn -0.740346 -0.643508 -0.194386
vn -0.902937 0.027232 -0.428908
vn -0.949966 0.224564 0.217108
vn -0.942168 0.305628 0.137520
vn -0.948574 0.284276 0.139260
vn -0.859529 -0.310410 -0.406023
vn -0.968426 0.204841 -0.142093
vn -0.966178 0.202637 0.159495
vn -0.984168 -0.034234 0.173901
vn -0.001839 -0.999998 -0.000119
vn -0.091496 -0.995271 0.032633
vn -0.132288 -0.986846 -0.092926
vn -0.068899 -0.997624 -0.000204
vn -0.901685 -0.168476 0.398220
vn -0.881145 -0.407055 0.240603
vn -0.877895 -0.443965 0.179431
vn -0.909673 -0.374692 0.179166
vn -0.695619 -0.075305 -0.714453
vn -0.744308 -0.555630 -0.370514
vn -0.907034 -0.400874 -0.128800
vn -0.767928 -0.521306 -0.372191
vn -0.838499 -0.537746 0.088027
vn -0.840984 -0.536675 0.068748
vn -0.665517 -0.722147 -0.188658
vn -0.850561 -0.521356 0.068804
vn -0.885680 0.054593 -0.461075
vn -0.901731 0.091599 0.422481
vn -0.712373 -0.697209 -0.080153
vn -0.769974 -0.469692 -0.431890
vn -0.505085 -0.464004 -0.727729
vn -0.934942 -0.330989 -0.127785
vn -0.821689 -0.513258 -0.247778
vn -0.935456 -0.253680 -0.246107
vn -0.917894 -0.086184 0.387353
vn -0.871323 -0.372562 0.319365
vn -0.969980 -0.094552 0.224051
vn -0.953114 -0.043058 0.299532
vn -0.895518 -0.076311 0.438433
vn -0.964938 -0.104019 0.240988
vn -0.985663 -0.140653 -0.093193
vn -0.971619 0.064761 0.227515
vn -0.770465 -0.338914 -0.539927
vn -0.104986 0.199157 -0.974328
vn -0.390604 -0.229292 -0.891546
vn -0.345945 -0.292092 -0.891630
vn -0.836382 0.060026 -0.544850
vn -0.725425 0.385442 -0.570257
vn -0.286204 0.310007 -0.906633
vn -0.716329 0.318395 -0.620884
vn -0.493736 0.147352 -0.857037
vn -0.485412 0.533911 -0.692325
vn -0.943072 -0.131720 -0.305393
vn -0.627668 0.534300 -0.566177
vn -0.340354 0.233487 -0.910847
vn -0.921379 -0.202302 -0.331867
vn -0.131961 -0.195068 -0.971872
vn -0.133424 -0.198583 -0.970960
vn -0.190198 -0.335291 -0.922716
vn -0.077422 0.411874 -0.907946
vn 0.413387 0.029619 -0.910073
vn 0.047741 0.007110 -0.998834
vn -0.232564 -0.027687 -0.972187
vn 0.187782 0.147353 -0.971095
vn -0.046167 0.549168 -0.834436
vn -0.291679 0.143235 -0.945731
vn -0.631330 0.113165 -0.767213
vn -0.395634 0.045339 -0.917288
vn -0.305779 0.080929 -0.948657
vn -0.337669 0.161574 -0.927294
vn -0.022794 0.491282 -0.870702
vn 0.198173 0.113335 -0.973593
vn 0.453536 0.099285 -0.885691
vn 0.370720 0.444388 -0.815528
vn -0.562783 -0.508299 -0.651849
vn 0.188864 -0.275052 -0.942696
vn -0.670326 -0.097152 -0.735680
vn -0.693143 -0.181539 -0.697564
vn -0.227881 -0.282784 -0.931721
vn -0.104342 -0.022954 -0.994277
vn -0.111973 -0.423334 -0.899027
vn -0.202298 -0.284703 -0.937027
vn 0.052943 0.477861 -0.876839
vn 0.028705 -0.299382 -0.953701
vn -0.542842 0.014550 -0.839709
vn -0.138263 0.005997 -0.990377
vn 0.264318 -0.398236 -0.878376
vn -0.542069 0.016635 -0.840169
vn -0.193897 -0.829190 -0.524260
vn 0.057148 -0.830804 -0.553623
vn -0.648609 0.065060 -0.758336
vn -0.423752 -0.187288 -0.886204
vn -0.261455 0.389521 -0.883127
vn -0.529944 -0.182649 -0.828130
vn 0.053703 0.476773 -0.877385
vn -0.442082 -0.215005 -0.870825
vn 0.154585 0.081230 -0.984635
vn -0.056586 0.483289 -0.873630
vn -0.435763 0.146515 -0.888056
vn -0.801498 -0.157436 -0.576901
vn 0.112554 -0.415410 -0.902644
vn -0.646632 -0.463698 -0.605682
vn -0.551290 0.085607 -0.829910
vn 0.205535 -0.193511 -0.959327
vn -0.350791 0.627566 -0.695059
vn -0.192257 0.621334 -0.759593
vn -0.189776 0.414854 -0.889877
vn 0.129151 0.840049 -0.526913
vn 0.423795 0.072533 -0.902849
vn -0.000430 0.484245 -0.874932
vn 0.691422 0.719071 -0.069801
vn 0.849304 0.520151 -0.090143
vn 0.106382 0.878322 -0.466082
vn 0.682043 0.730658 -0.030927
vn 0.529861 0.670393 -0.519442
vn 0.096450 0.735708 -0.670397
vn 0.428282 0.791051 -0.436821
vn 0.425043 0.754560 -0.499977
vn 0.089415 0.834516 -0.543680
vn 0.857723 0.210736 -0.468936
vn 0.660014 0.114158 -0.742529
vn 0.700034 0.215269 -0.680891
vn 0.348888 0.738790 -0.576599
vn 0.570072 0.779012 -0.261073
vn 0.456642 0.882417 0.113219
vn 0.279790 0.949910 -0.139246
vn 0.742666 0.643377 -0.185778
vn 0.269682 0.894950 -0.355439
vn 0.539298 0.731860 -0.416579
vn 0.489410 0.865650 -0.105490
vn 0.110980 0.663930 -0.739514
vn 0.775011 0.431291 -0.461894
vn 0.607446 0.793974 -0.024799
vn 0.761253 0.643460 -0.080327
vn 0.582972 0.686889 -0.433967
vn 0.316017 0.869712 -0.379122
vn 0.531905 0.463758 -0.708523
vn 0.326842 0.689547 -0.646296
vn 0.891280 -0.448889 -0.064182
vn 0.873228 0.178839 -0.453310
vn 0.977817 0.147382 -0.148840
vn 0.976649 0.070715 -0.202869
vn 0.553110 0.102061 -0.826833
vn 0.549805 0.816634 -0.175564
vn 0.460771 0.156064 -0.873690
vn 0.476251 0.120606 -0.870999
vn 0.775183 0.253074 -0.578830
vn 0.870749 0.400490 -0.285312
vn 0.711537 0.594288 -0.374882
vn 0.777404 0.559915 -0.286597
vn 0.909785 -0.018529 -0.414666
vn 0.628613 0.772719 -0.088037
vn 0.851540 0.487812 -0.192143
vn 0.904642 0.420660 -0.068321
vn 0.113981 0.838971 -0.532104
vn 0.670662 0.557687 -0.489078
vn 0.452410 0.692760 -0.561613
vn 0.443567 0.591839 -0.673034
vn 0.729927 0.354994 -0.584111
vn 0.836566 0.392813 -0.381909
vn 0.269538 0.895871 -0.353220
vn 0.824194 0.315892 -0.470018
vn 0.187718 0.659456 -0.727928
vn 0.309991 0.796673 -0.518862
vn 0.578606 0.795775 -0.178764
vn 0.236010 0.843901 -0.481799
vn 0.266532 0.895763 -0.355766
vn 0.597191 0.467981 -0.651427
vn 0.310848 0.804385 -0.506298
vn 0.264621 0.801249 -0.536634
vn 0.177689 -0.982617 0.053762
vn 0.395134 -0.913454 -0.097318
vn 0.009131 -0.999955 -0.002753
vn 0.095696 -0.989601 -0.107388
vn 0.392144 -0.611191 0.687509
vn 0.600734 -0.115657 0.791038
vn 0.789473 -0.442711 0.425134
vn 0.660383 -0.096102 0.744754
vn 0.126386 -0.905619 0.404822
vn -0.000887 -0.989324 0.145731
vn 0.469482 -0.337750 0.815789
vn 0.015521 -0.870214 0.492429
vn 0.601810 -0.716807 0.352155
vn 0.501419 -0.334946 0.797741
vn 0.031612 -0.993032 0.113530
vn 0.491341 -0.753124 0.437479
vn 0.486826 -0.148377 0.860805
vn 0.901889 0.116560 0.415945
vn 0.571101 -0.288399 0.768551
vn 0.505944 -0.088835 0.857980
vn 0.478205 -0.410586 0.776363
vn 0.836966 -0.373591 0.399898
vn 0.657408 -0.587948 0.471309
vn 0.832836 -0.293832 0.469091
vn 0.288656 -0.529874 0.797440
vn 0.485105 -0.452066 0.748538
vn 0.589663 -0.677103 0.440259
vn 0.294092 -0.691015 0.660309
vn 0.635400 -0.595358 0.491748
vn 0.588916 -0.473627 0.654870
vn 0.484514 -0.448533 0.751042
vn 0.621893 -0.421430 0.660035
vn 0.042036 -0.805963 0.590471
vn -0.170998 -0.944622 0.280087
vn 0.242622 -0.203367 0.948566
vn -0.352783 -0.657235 0.666023
vn 0.370239 -0.779310 0.505567
vn 0.741079 -0.532718 0.408672
vn -0.383454 -0.667377 0.638413
vn 0.381568 -0.874299 0.300011
vn 0.347676 -0.403107 0.846538
vn 0.312106 -0.333864 0.889452
vn 0.487846 -0.756437 0.435671
vn 0.399680 -0.341624 0.850617
vn -0.271024 -0.909279 0.315846
vn 0.737034 -0.482695 0.473060
vn 0.397846 -0.230777 0.887953
vn 0.490209 -0.511174 0.705972
vn 0.361711 -0.430641 0.826870
vn 0.854967 -0.243809 0.457808
vn 0.740743 -0.546835 0.390220
vn 0.868184 -0.303267 0.392792
vn 0.479238 -0.408979 0.776574
vn 0.151969 -0.748132 0.645913
vn 0.855828 -0.329985 0.398332
vn 0.474261 -0.391074 0.788757
vn 0.135623 -0.758098 0.637882
vn 0.504818 -0.785951 0.356986
vn 0.079867 -0.534316 0.841503
vn 0.102231 -0.779969 0.617412
vn 0.844105 -0.248844 0.474935
vn 0.104239 -0.510303 0.853654
vn 0.721252 -0.554805 0.414713
vn 0.719464 -0.507183 0.474485
vn -0.000290 -0.999971 0.007637
vn -0.000252 -0.999967 -0.008115
vn -0.000422 -0.999963 0.008546
vn -0.001075 -0.999965 0.008335
vn 0.182626 -0.876491 0.445433
vn 0.017864 -0.999773 -0.011577
vn -0.015472 -0.991139 0.131922
vn 0.126240 -0.990500 0.054526
vn -0.066883 -0.997456 0.024672
vn -0.047371 -0.998662 0.020736
vn -0.059809 -0.995326 -0.075824
vn -0.058422 -0.997895 0.028144
vn -0.017355 -0.999843 0.003670
vn 0.020400 -0.999334 -0.030261
vn -0.024855 -0.999293 0.028194
vn -0.024687 -0.999695 0.000870
vn -0.089686 -0.857260 0.507013
vn 0.156606 -0.597344 0.786546
vn 0.164041 -0.860363 0.482562
vn -0.095510 -0.750157 0.654326
vn 0.078777 -0.955582 0.284002
vn -0.236378 -0.822714 0.516978
vn 0.118247 -0.703866 0.700421
vn 0.092857 -0.951048 0.294763
vn 0.501205 -0.657514 0.562556
vn -0.118755 -0.513097 0.850076
vn -0.138550 -0.303021 0.942859
vn -0.112397 -0.274590 0.954970
vn 0.156949 -0.677939 0.718168
vn 0.163788 -0.553733 0.816427
vn 0.173360 -0.676335 0.715903
vn 0.165242 -0.681985 0.712455
vn 0.048373 -0.998828 -0.001527
vn 0.136715 -0.989681 -0.042897
vn 0.040434 -0.998654 -0.032500
vn 0.040994 -0.999136 -0.006859
vn -0.212315 -0.968600 0.129367
vn -0.013419 -0.971742 -0.235664
vn 0.157899 -0.974956 0.156616
vn -0.008210 -0.999032 0.043227
vn -0.011999 -0.979996 0.198657
vn 0.003425 -0.999314 0.036867
vn 0.192261 -0.975450 -0.107391
vn -0.020901 -0.999566 0.020782
vn 0.336878 -0.936950 0.092940
vn 0.215357 -0.910792 -0.352249
vn -0.002461 -0.998232 -0.059385
vn 0.351419 -0.894227 -0.277242
vn 0.416199 -0.863431 0.285072
vn -0.054111 -0.997253 0.050585
vn -0.012267 -0.999893 0.008025
vn -0.010585 -0.999712 0.021554
vn 0.076751 -0.964389 0.253107
vn 0.079180 -0.980094 -0.182063
vn -0.197450 -0.940525 0.276453
vn -0.078212 -0.913332 0.399634
vn -0.219431 -0.967655 0.124477
vn -0.209674 -0.977483 0.023729
vn 0.067933 -0.980431 -0.184769
vn -0.228522 -0.973456 0.012656
vn -0.016418 -0.996188 0.085673
vn 0.067663 -0.982299 -0.174672
vn -0.236620 -0.967052 -0.093918
vn -0.034817 -0.969432 -0.242877
vn -0.000289 -0.998613 -0.052657
vn -0.000422 -0.999701 -0.024442
vn 0.019805 -0.987276 -0.157775
vn 0.024120 -0.998958 -0.038734
vn -0.066691 -0.994596 0.079563
vn -0.009044 -0.999952 0.003867
vn -0.047369 -0.998619 0.022723
vn -0.007132 -0.998865 0.047102
vn 0.048425 -0.998059 0.039161
vn 0.145837 -0.987676 0.056817
vn 0.032598 -0.999446 -0.006736
vn 0.047318 -0.998796 -0.012939
vn 0.023283 -0.999685 -0.009339
vn 0.032824 -0.999362 -0.014102
vn 0.155027 -0.984695 -0.079639
vn 0.023407 -0.999522 -0.020190
vn 0.048367 -0.998716 0.015043
vn 0.003911 -0.998940 -0.045862
vn 0.135822 -0.983214 0.121830
vn -0.000418 -0.998892 0.047066
vn -0.050334 -0.916275 -0.397375
vn -0.027100 -0.996910 -0.073732
vn -0.008104 -0.991319 -0.131229
vn -0.063957 -0.993454 -0.094649
vn -0.211160 -0.963333 0.165533
vn 0.152860 -0.943840 0.292917
vn 0.085258 -0.995213 0.047779
vn 0.093178 -0.942070 0.322214
vn -0.012926 -0.999264 -0.036124
vn -0.026725 -0.999611 -0.008008
vn -0.004076 -0.980928 0.194326
vn 0.001970 -0.999661 -0.025950
vn -0.187613 -0.770168 -0.609625
vn -0.122883 -0.842733 -0.524119
vn -0.092020 -0.774086 -0.626357
vn -0.183691 -0.809125 -0.558188
vn -0.093660 -0.942673 -0.320304
vn -0.038741 -0.217186 -0.975361
vn -0.393419 -0.910200 -0.129453
vn -0.505367 -0.612956 -0.607362
vn -0.141127 -0.970367 -0.196139
vn 0.365264 -0.925284 -0.102133
vn -0.241412 -0.154038 -0.958119
vn 0.457015 -0.644939 -0.612528
vn -0.074099 -0.995387 0.060944
vn -0.169697 -0.109276 -0.979419
vn -0.048959 -0.988817 0.140869
vn -0.151091 -0.983619 0.098314
vn -0.072142 -0.994494 0.076004
vn 0.009282 -0.995221 0.097207
vn -0.005195 -0.999966 0.006371
vn -0.069159 -0.996721 0.042012
vn -0.154895 -0.929241 -0.335438
vn -0.198467 -0.946081 -0.256010
vn -0.073084 -0.996365 -0.043767
vn -0.123174 -0.941390 -0.314028
vn -0.052152 -0.998294 -0.026269
vn 0.023741 -0.999640 -0.012503
vn -0.020974 -0.993218 -0.114362
vn 0.034062 -0.996411 -0.077497
vn 0.004526 -0.999989 -0.000880
vn -0.009918 -0.992321 -0.123289
vn -0.005058 -0.999984 0.002483
vn -0.002854 -0.999989 0.003825
vn 0.099990 -0.987457 -0.122193
vn -0.017332 -0.991120 -0.131838
vn 0.416204 -0.896888 -0.149552
vn 0.072242 -0.997251 -0.016471
vn 0.135103 -0.990655 0.018711
vn 0.190181 -0.970011 0.151362
vn 0.312066 -0.949920 0.016323
vn 0.257981 -0.955288 0.144467
vn 0.744217 -0.664271 -0.069897
vn 0.488397 -0.865733 -0.109427
vn 0.355255 -0.927254 -0.118296
vn 0.452995 -0.891492 0.006088
vn 0.003112 -0.951390 -0.307973
vn 0.050410 -0.998669 -0.010898
vn 0.393130 -0.916050 -0.079383
vn 0.088434 -0.920294 -0.381101
vn 0.172890 -0.559730 -0.810439
vn -0.206287 -0.257847 -0.943907
vn -0.174322 -0.857205 -0.484573
vn -0.343674 -0.372056 -0.862243
vn 0.164918 -0.042098 -0.985408
vn 0.431237 -0.049313 -0.900890
vn 0.480929 0.151835 -0.863512
vn 0.317573 0.161276 -0.934418
vn -0.093202 -0.942522 -0.320882
vn -0.193984 -0.921679 -0.335974
vn 0.079429 -0.913947 -0.397985
vn -0.083471 -0.956119 -0.280835
vn 0.074459 -0.342599 -0.936527
vn -0.029420 -0.548633 -0.835545
vn -0.254800 -0.823155 -0.507437
vn 0.150793 -0.596749 -0.788132
vn 0.992621 0.108633 0.053879
vn 0.890672 -0.193132 -0.411586
vn 0.363792 -0.737169 -0.569418
vn 0.822472 -0.563780 -0.075442
vn 0.914770 0.120633 -0.385543
vn 0.882891 -0.029397 -0.468656
vn 0.897797 0.380176 -0.222322
vn 0.951647 0.025550 -0.306130
vn 0.580291 -0.108427 -0.807159
vn 0.854229 0.098888 -0.510406
vn 0.631951 0.325151 -0.703502
vn 0.838830 -0.021735 -0.543959
vn 0.877882 0.409838 -0.247699
vn 0.663534 0.336871 -0.668012
vn 0.797692 0.071977 -0.598754
vn 0.660457 0.292798 -0.691423
vn 0.188379 -0.971240 -0.145626
vn 0.365960 -0.907046 -0.208184
vn 0.300251 -0.913006 -0.276170
vn 0.369535 -0.902057 -0.223019
vn 0.604076 -0.045792 -0.795610
vn 0.464458 -0.194045 -0.864075
vn 0.707369 -0.048642 -0.705169
vn 0.660833 -0.181000 -0.728381
vn 0.778965 -0.431167 -0.455312
vn 0.382807 -0.884188 -0.267712
vn 0.826793 -0.255215 -0.501278
vn 0.851795 -0.391491 -0.348109
vn 0.808360 -0.485495 -0.332940
vn 0.512027 -0.328822 -0.793539
vn 0.351428 -0.887958 -0.296698
vn 0.338922 -0.563321 -0.753526
vn 0.230691 -0.973023 0.002666
vn 0.513030 -0.857639 -0.035433
vn 0.396428 -0.912700 -0.099117
vn 0.482476 -0.875902 0.003535
vn 0.857149 -0.399419 0.325207
vn 0.994210 -0.057490 -0.090777
vn 0.497170 -0.862194 -0.097180
vn 0.991705 -0.067279 -0.109520
vn 0.872084 -0.459482 0.168365
vn 0.824831 -0.421249 0.377100
vn 0.985430 -0.138938 0.098106
vn 0.886059 -0.281230 0.368523
vn 0.463633 -0.885361 -0.034364
vn 0.984409 -0.164066 0.063418
vn 0.625377 -0.771894 -0.114383
vn 0.522768 -0.850104 0.063530
vn 0.675468 -0.205123 -0.708285
vn 0.561715 -0.742531 -0.364861
vn 0.997809 -0.038734 -0.053630
vn 0.765216 -0.643594 -0.015190
vn 0.480664 -0.820474 -0.309490
vn 0.908160 -0.355752 0.220650
vn 0.738520 -0.671114 -0.064766
vn 0.654269 -0.734732 0.179168
vn 0.970406 0.241446 -0.003940
vn 0.847296 0.326211 -0.419138
vn 0.971848 0.075436 0.223205
vn 0.999429 -0.020277 0.027022
vn 0.561034 -0.736129 -0.378622
vn 0.907129 -0.333264 0.257007
vn 0.862036 0.269219 -0.429436
vn 0.829844 0.234745 -0.506215
vn 0.553692 -0.122568 0.823652
vn 0.851469 -0.167721 0.496861
vn 0.759196 -0.488794 0.429769
vn 0.749913 -0.492408 0.441775
vn 0.976295 -0.205668 -0.067441
vn 0.639200 -0.627502 0.444594
vn 0.958591 -0.225964 0.173328
vn 0.912074 -0.400383 -0.088398
vn 0.772961 -0.629317 -0.080574
vn 0.943085 -0.108063 0.314505
vn 0.857358 -0.372290 -0.355439
vn 0.796781 -0.499785 -0.339639
vn 0.895622 -0.416270 0.156781
vn 0.592177 -0.687911 0.419648
vn 0.682379 -0.279150 0.675599
vn 0.573874 -0.563950 0.593826
vn 0.957546 0.038188 0.285739
vn 0.878893 -0.112544 0.463552
vn 0.914070 0.400737 -0.062344
vn 0.893542 0.125799 0.430996
vn 0.491789 -0.711589 -0.501781
vn 0.765441 -0.438503 -0.470973
vn 0.944287 0.015655 -0.328751
vn 0.718848 -0.238230 -0.653073
vn 0.986628 -0.054715 0.153533
vn 0.809679 -0.577731 0.103182
vn 0.634873 -0.562214 0.529954
vn 0.795876 -0.251496 0.550755
vn 0.745257 -0.590861 -0.308990
vn 0.879807 0.016273 -0.475053
vn 0.729533 0.053288 -0.681866
vn 0.673173 -0.189969 -0.714668
vn -0.070881 -0.524973 0.848162
vn 0.335048 -0.480269 0.810607
vn -0.151650 -0.195844 0.968838
vn -0.056292 -0.505214 0.861156
vn 0.348571 -0.405958 0.844806
vn 0.209754 -0.491535 0.845220
vn 0.285638 -0.257376 0.923130
vn 0.183962 -0.417841 0.889701
vn -0.325022 -0.611435 0.721462
vn -0.284092 -0.223729 0.932329
vn 0.414991 -0.512791 0.751550
vn -0.402313 -0.476306 0.781842
vn 0.471114 -0.234984 0.850196
vn 0.405879 -0.470234 0.783673
vn -0.243422 -0.345644 0.906243
vn 0.496165 -0.319258 0.807400
vn 0.571497 -0.417064 0.706717
vn 0.783908 -0.114833 0.610165
vn 0.954749 -0.142107 0.261267
vn 0.821028 -0.420869 0.385724
vn 0.339762 0.235803 0.910472
vn 0.744948 0.156871 0.648416
vn 0.898736 -0.195829 0.392332
vn 0.584507 -0.206624 0.784639
vn 0.492099 -0.464255 0.736414
vn 0.558417 -0.119599 0.820894
vn 0.752569 -0.573815 0.323074
vn 0.723262 -0.114787 0.680967
vn 0.891146 -0.110395 0.440082
vn 0.838026 -0.461834 0.290554
vn 0.537339 -0.155778 0.828855
vn 0.633392 -0.515526 0.577103
vn 0.639729 0.213109 0.738465
vn 0.338234 0.378589 0.861550
vn -0.205221 0.689923 0.694184
vn 0.403278 0.664538 0.629092
vn 0.114861 -0.238093 0.964427
vn 0.021215 -0.007105 0.999750
vn 0.185328 0.026293 0.982325
vn 0.204168 -0.011130 0.978873
vn 0.276209 0.216506 0.936394
vn 0.236664 0.064053 0.969478
vn 0.261259 0.566395 0.781627
vn 0.143260 0.228076 0.963046
vn 0.315632 0.415961 0.852850
vn 0.220537 0.569328 0.791978
vn 0.211083 0.066196 0.975224
vn 0.332241 0.413894 0.847531
vn 0.314372 -0.455772 0.832732
vn 0.463667 -0.643224 0.609324
vn 0.044719 -0.683127 0.728929
vn 0.389941 -0.709337 0.587185
vn 0.267996 0.231238 0.935258
vn 0.438960 0.311403 0.842818
vn 0.375712 0.160215 0.912782
vn 0.296227 0.306174 0.904714
vn -0.007942 -0.005045 0.999956
vn 0.147629 -0.777855 0.610858
vn -0.156910 0.329678 0.930963
vn -0.314005 -0.004571 0.949410
vn 0.269481 -0.076046 0.959998
vn 0.452799 0.353820 0.818403
vn 0.106123 -0.776175 0.621522
vn 0.652189 -0.073995 0.754436
vn 0.002263 -0.999975 0.006751
vn 0.001363 -0.999926 -0.012113
vn -0.101901 -0.994596 0.019858
vn 0.005866 -0.999965 -0.005963
vn -0.038882 -0.974688 0.220162
vn 0.023177 -0.993356 0.112727
vn -0.067599 -0.993761 0.088706
vn -0.081785 -0.980348 0.179523
vn -0.955206 -0.114657 0.272828
vn -0.793452 -0.526062 0.306094
vn -0.617582 -0.685912 0.384859
vn -0.771227 -0.602887 0.204295
vn -0.018898 -0.990600 0.135479
vn -0.014964 -0.997417 0.070250
vn -0.112975 -0.992407 0.048630
vn -0.020787 -0.990279 0.137531
vn -0.413366 -0.640881 0.646839
vn 0.091908 -0.696822 0.711331
vn -0.031896 -0.471171 0.881465
vn -0.071858 -0.594456 0.800911
vn -0.206420 -0.647895 0.733228
vn 0.050089 -0.574883 0.816701
vn -0.007056 -0.769838 0.638201
vn -0.013352 -0.771528 0.636056
vn -0.098625 -0.902516 0.419211
vn -0.105641 -0.548104 0.829712
vn 0.020833 -0.548615 0.835816
vn -0.012704 -0.521094 0.853405
vn -0.059140 -0.741346 0.668512
vn 0.020191 -0.551158 0.834156
vn -0.088350 -0.486385 0.869266
vn 0.000586 -0.557224 0.830362
vn -0.798877 0.236080 0.553228
vn -0.763425 -0.091273 0.639415
vn -0.903479 0.006066 0.428590
vn -0.760923 -0.083884 0.643397
vn -0.794361 -0.309697 0.522569
vn -0.847696 -0.357727 0.391718
vn -0.704589 -0.546057 0.453184
vn -0.801422 -0.383998 0.458549
vn -0.361520 -0.182776 0.914273
vn -0.605566 0.116030 0.787291
vn -0.610478 -0.677762 0.409822
vn -0.514302 -0.151089 0.844195
vn -0.684562 -0.307826 0.660770
vn -0.808719 -0.562985 0.170357
vn -0.901361 0.239496 0.360818
vn -0.986308 -0.093989 0.135509
vn -0.046467 -0.892844 0.447963
vn 0.120966 -0.514066 0.849178
vn 0.028217 -0.948315 0.316073
vn 0.076176 -0.934761 0.347015
vn -0.067467 -0.617850 0.783396
vn -0.732391 -0.529203 0.428424
vn 0.027874 -0.582363 0.812451
vn -0.037731 -0.506441 0.861449
vn -0.882192 0.045271 0.468708
vn -0.607118 -0.313317 0.730233
vn -0.851097 -0.349867 0.391442
vn -0.727180 -0.030228 0.685781
vn 0.051653 -0.440548 0.896242
vn -0.721685 -0.402106 0.563455
vn -0.634705 -0.306787 0.709247
vn -0.674407 -0.481664 0.559621
vn -0.548673 -0.436635 -0.712957
vn -0.413030 -0.524253 -0.744691
vn 0.037182 -0.733862 -0.678280
vn -0.377537 -0.415973 -0.827304
vn -0.241765 -0.938767 -0.245491
vn -0.187492 -0.640492 -0.744726
vn -0.433424 -0.674549 -0.597601
vn -0.177152 -0.648529 -0.740289
vn -0.274348 -0.422293 -0.863946
vn -0.161617 -0.575326 -0.801798
vn -0.216409 -0.872969 -0.437141
vn -0.123249 -0.567912 -0.813810
vn -0.392022 -0.522590 -0.757112
vn -0.250899 -0.856958 -0.450191
vn 0.057123 -0.727555 -0.683668
vn 0.021302 -0.814821 -0.579321
vn -0.002861 -0.999995 0.001591
vn -0.027156 -0.979265 -0.200755
vn -0.150534 -0.974206 -0.168111
vn -0.063064 -0.969347 -0.237464
vn -0.859532 0.020884 -0.510654
vn -0.536972 -0.803906 -0.255729
vn -0.438364 -0.651993 -0.618661
vn -0.420160 -0.824585 -0.378846
vn -0.090148 -0.899488 -0.427546
vn -0.060185 -0.984206 -0.166484
vn 0.015331 -0.936925 -0.349195
vn -0.085269 -0.898071 -0.431506
vn -0.042517 -0.949906 -0.309630
vn -0.211220 -0.969637 -0.123249
vn -0.131166 -0.986925 -0.093672
vn -0.212620 -0.968485 -0.129731
vn -0.559214 0.205640 -0.803114
vn -0.388229 -0.222839 -0.894215
vn -0.480104 -0.285316 -0.829515
vn -0.455629 -0.203668 -0.866557
vn -0.702141 -0.430944 -0.566821
vn -0.527427 0.396572 -0.751366
vn -0.900606 -0.254207 -0.352545
vn -0.868420 -0.339630 -0.361245
vn -0.657467 -0.736742 0.157947
vn -0.769494 -0.537954 -0.344215
vn -0.624557 -0.482364 -0.614210
vn -0.856314 -0.385313 -0.343890
vn -0.283038 -0.436943 -0.853798
vn -0.321461 0.309142 -0.895039
vn -0.611338 0.109081 -0.783816
vn -0.176434 -0.067514 -0.981994
vn -0.086976 -0.934759 -0.344471
vn 0.014937 -0.955178 -0.295656
vn 0.044399 -0.579843 -0.813517
vn 0.005309 -0.957304 -0.289035
vn -0.874904 -0.454085 0.168374
vn -0.789933 -0.128023 -0.599680
vn -0.471356 -0.881942 0.001196
vn -0.812294 -0.582536 -0.028801
vn -0.710189 -0.416964 -0.567250
vn 0.093839 -0.800967 -0.591309
vn -0.402938 0.027461 -0.914815
vn -0.548035 0.041077 -0.835446
vn -0.092116 -0.927571 -0.362113
vn -0.504209 -0.193120 -0.841711
vn 0.128384 -0.650772 -0.748341
vn -0.068807 -0.725382 -0.684899
vn 0.987576 -0.064984 0.143077
vn 0.220949 -0.255803 -0.941141
vn 0.497128 -0.490402 -0.715800
vn 0.330601 -0.076174 -0.940691
vn 0.543103 -0.023011 -0.839351
vn 0.669017 -0.434148 -0.603267
vn 0.891835 -0.008714 -0.452277
vn 0.544150 -0.021020 -0.838724
vn 0.608107 0.254411 -0.751985
vn 0.530698 0.362739 -0.766016
vn 0.365725 -0.048982 -0.929433
vn 0.532425 0.362763 -0.764805
vn 0.771943 -0.300573 -0.560143
vn 0.562511 -0.551191 -0.616254
vn 0.802357 -0.477541 -0.358019
vn 0.771275 -0.516150 -0.372456
vn 0.187363 -0.604034 -0.774621
vn -0.051423 -0.130748 -0.990081
vn -0.076630 -0.674329 -0.734445
vn 0.126521 -0.676917 -0.725104
vn -0.124768 0.474792 -0.871209
vn 0.195073 0.345549 -0.917901
vn -0.405592 -0.273764 -0.872094
vn -0.070529 0.334233 -0.939848
vn 0.161710 -0.033914 -0.986255
vn 0.630495 -0.163174 -0.758848
vn 0.779130 -0.276996 -0.562343
vn 0.693318 0.043250 -0.719333
vn -0.304592 -0.536069 -0.787307
vn 0.469719 -0.371934 -0.800643
vn 0.242063 -0.215966 -0.945920
vn 0.348664 -0.553268 -0.756524
vn -0.312173 -0.324457 -0.892903
vn 0.416176 0.055308 -0.907600
vn -0.594630 0.332143 -0.732186
vn -0.627028 0.098338 -0.772765
vn 0.524971 0.612803 -0.590659
vn -0.149646 0.172992 -0.973489
vn 0.051819 0.618172 -0.784333
vn 0.024222 0.648420 -0.760898
vn 0.352418 -0.026641 -0.935463
vn -0.094299 0.547304 -0.831604
vn -0.438930 -0.122774 -0.890094
vn 0.299262 -0.163401 -0.940076
vn 0.076403 0.619152 -0.781546
vn -0.379750 0.171274 -0.909096
vn -0.319881 -0.168925 -0.932277
vn -0.181145 -0.184780 -0.965941
vn 0.168292 -0.021127 -0.985511
vn 0.682792 -0.464751 -0.563739
vn 0.385504 -0.443178 -0.809308
vn 0.347313 -0.494588 -0.796716
vn -0.027044 0.601377 -0.798508
vn -0.513385 0.055256 -0.856378
vn 0.023864 0.017348 -0.999565
vn -0.259375 0.564938 -0.783307
vn 0.751084 0.244297 -0.613344
vn 0.733557 -0.048468 -0.677897
vn -0.079385 0.036638 -0.996171
vn 0.701944 0.061750 -0.709551
vn 0.566849 0.017038 -0.823646
vn -0.063448 0.076326 -0.995062
vn 0.418097 -0.547556 -0.724829
vn 0.234632 -0.544942 -0.804976
vn 0.547353 -0.193507 0.814223
vn 0.863514 -0.124087 0.488821
vn 0.709211 0.114397 0.695653
vn 0.717301 -0.019123 0.696501
vn 0.989192 -0.104243 -0.103114
vn 0.761837 0.254632 0.595623
vn 0.833336 0.477827 0.277906
vn 0.767766 0.229142 0.598355
vn 0.887389 0.380775 0.259908
vn 0.693485 0.470704 0.545451
vn 0.831538 0.543436 -0.114986
vn 0.694907 0.690419 0.201062
vn 0.944340 0.318787 -0.081224
vn 0.995504 -0.054618 -0.077385
vn 0.777488 0.234139 0.583687
vn 0.995692 -0.059298 -0.071283
vn 0.667487 -0.254125 -0.699916
vn 0.901962 0.240630 -0.358554
vn 0.828608 0.154038 -0.538221
vn 0.925786 0.081630 -0.369131
vn 0.907082 0.170393 -0.384928
vn 0.952472 -0.190362 -0.237821
vn 0.973065 0.218862 0.072416
vn 0.916377 -0.131395 -0.378137
vn 0.825923 -0.187201 -0.531796
vn 0.982760 -0.163568 -0.086185
vn 0.488195 0.852320 -0.187662
vn 0.899516 -0.314345 -0.303411
vn 0.853216 0.513882 0.089146
vn 0.522723 0.844080 -0.119539
vn 0.789801 0.085674 -0.607350
vn 0.544065 0.705113 -0.454763
vn 0.614568 0.717797 -0.327221
vn 0.845637 0.529573 0.066709
vn 0.579085 0.776143 -0.249525
vn 0.610955 0.720902 -0.327161
vn 0.562680 0.765494 0.312106
vn 0.481580 0.860861 -0.164312
vn 0.802969 0.594905 -0.036454
vn 0.417763 0.907694 -0.039562
vn 0.790575 0.604310 -0.098992
vn 0.558090 0.728652 -0.396991
vn 0.881289 0.311765 -0.355152
vn 0.843470 0.341365 -0.414763
vn 0.844551 0.531302 0.066729
vn 0.681974 0.695280 0.226930
vn 0.504651 0.828244 -0.243596
vn 0.756536 0.611972 0.230529
vn 0.961197 0.019567 -0.275167
vn 0.511728 0.779012 -0.362318
vn 0.634962 0.729924 -0.253049
vn 0.622434 0.756022 -0.202501
vn 0.921879 0.374370 -0.099931
vn 0.936883 -0.207628 -0.281320
vn 0.938644 0.178238 0.295259
vn 0.947024 0.130477 0.293465
vn 0.883216 0.322466 0.340508
vn 0.908663 0.352749 0.223381
vn 0.846510 0.495474 -0.194749
vn 0.938948 0.263816 0.220856
vn 0.695532 0.573380 -0.432979
vn 0.739763 0.040044 -0.671675
vn 0.952874 0.033738 -0.301483
vn 0.656050 0.311985 -0.687214
s off
f 1//1 163//1 165//1
f 43//2 164//2 163//2
f 45//3 165//3 164//3
f 163//4 164//4 165//4
f 13//5 166//5 168//5
f 44//6 167//6 166//6
f 43//7 168//7 167//7
f 166//8 167//8 168//8
f 15//9 169//9 171//9
f 45//10 170//10 169//10
f 44//11 171//11 170//11
f 169//12 170//12 171//12
f 43//13 167//13 164//13
f 44//14 170//14 167//14
f 45//15 164//15 170//15
f 167//16 170//16 164//16
f 12//17 172//17 174//17
f 46//18 173//18 172//18
f 48//19 174//19 173//19
f 172//20 173//20 174//20
f 14//21 175//21 177//21
f 47//22 176//22 175//22
f 46//23 177//23 176//23
f 175//24 176//24 177//24
f 13//25 178//25 180//25
f 48//26 179//26 178//26
f 47//27 180//27 179//27
f 178//28 179//28 180//28
f 46//29 176//29 173//29
f 47//30 179//30 176//30
f 48//31 173//31 179//31
f 176//32 179//32 173//32
f 6//33 181//33 183//33
f 49//34 182//34 181//34
f 51//35 183//35 182//35
f 181//36 182//36 183//36
f 15//37 184//37 186//37
f 50//38 185//38 184//38
f 49//39 186//39 185//39
f 184//40 185//40 186//40
f 14//41 187//41 189//41
f 51//42 188//42 187//42
f 50//43 189//43 188//43
f 187//44 188//44 189//44
f 49//45 185//45 182//45
f 50//46 188//46 185//46
f 51//47 182//47 188//47
f 185//48 188//48 182//48
f 13//49 180//49 166//49
f 47//50 190//50 180//50
f 44//51 166//51 190//51
f 180//52 190//52 166//52
f 14//53 189//53 175//53
f 50//54 191//54 189//54
f 47//55 175//55 191//55
f 189//56 191//56 175//56
f 15//57 171//57 184//57
f 44//58 192//58 171//58
f 50//59 184//59 192//59
f 171//60 192//60 184//60
f 47//61 191//61 190//61
f 50//62 192//62 191//62
f 44//63 190//63 192//63
f 191//64 192//64 190//64
f 1//65 165//65 194//65
f 45//66 193//66 165//66
f 53//67 194//67 193//67
f 165//68 193//68 194//68
f 15//69 195//69 169//69
f 52//70 196//70 195//70
f 45//71 169//71 196//71
f 195//72 196//72 169//72
f 17//73 197//73 199//73
f 53//74 198//74 197//74
f 52//75 199//75 198//75
f 197//76 198//76 199//76
f 45//77 196//77 193//77
f 52//78 198//78 196//78
f 53//79 193//79 198//79
f 196//80 198//80 193//80
f 6//81 200//81 181//81
f 54//82 201//82 200//82
f 49//83 181//83 201//83
f 200//84 201//84 181//84
f 16//85 202//85 204//85
f 55//86 203//86 202//86
f 54//87 204//87 203//87
f 202//88 203//88 204//88
f 15//89 186//89 206//89
f 49//90 205//90 186//90
f 55//91 206//91 205//91
f 186//92 205//92 206//92
f 54//93 203//93 201//93
f 55//94 205//94 203//94
f 49//95 201//95 205//95
f 203//96 205//96 201//96
f 2//97 207//97 209//97
f 56//98 208//98 207//98
f 58//99 209//99 208//99
f 207//100 208//100 209//100
f 17//101 210//101 212//101
f 57//102 211//102 210//102
f 56//103 212//103 211//103
f 210//104 211//104 212//104
f 16//105 213//105 215//105
f 58//106 214//106 213//106
f 57//107 215//107 214//107
f 213//108 214//108 215//108
f 56//109 211//109 208//109
f 57//110 214//110 211//110
f 58//111 208//111 214//111
f 211//112 214//112 208//112
f 15//113 206//113 195//113
f 55//114 216//114 206//114
f 52//115 195//115 216//115
f 206//116 216//116 195//116
f 16//117 215//117 202//117
f 57//118 217//118 215//118
f 55//119 202//119 217//119
f 215//120 217//120 202//120
f 17//121 199//121 210//121
f 52//122 218//122 199//122
f 57//123 210//123 218//123
f 199//124 218//124 210//124
f 55//125 217//125 216//125
f 57//126 218//126 217//126
f 52//127 216//127 218//127
f 217//128 218//128 216//128
f 1//129 194//129 220//129
f 53//130 219//130 194//130
f 60//131 220//131 219//131
f 194//132 219//132 220//132
f 17//133 221//133 197//133
f 59//134 222//134 221//134
f 53//135 197//135 222//135
f 221//136 222//136 197//136
f 19//137 223//137 225//137
f 60//138 224//138 223//138
f 59//139 225//139 224//139
f 223//140 224//140 225//140
f 53//141 222//141 219//141
f 59//142 224//142 222//142
f 60//143 219//143 224//143
f 222//144 224//144 219//144
f 2//145 226//145 207//145
f 61//146 227//146 226//146
f 56//147 207//147 227//147
f 226//148 227//148 207//148
f 18//149 228//149 230//149
f 62//150 229//150 228//150
f 61//151 230//151 229//151
f 228//152 229//152 230//152
f 17//153 212//153 232//153
f 56//154 231//154 212//154
f 62//155 232//155 231//155
f 212//156 231//156 232//156
f 61//157 229//157 227//157
f 62//158 231//158 229//158
f 56//159 227//159 231//159
f 229//160 231//160 227//160
f 8//161 233//161 235//161
f 63//162 234//162 233//162
f 65//163 235//163 234//163
f 233//164 234//164 235//164
f 19//165 236//165 238//165
f 64//166 237//166 236//166
f 63//167 238//167 237//167
f 236//168 237//168 238//168
f 18//169 239//169 241//169
f 65//170 240//170 239//170
f 64//171 241//171 240//171
f 239//172 240//172 241//172
f 63//173 237//173 234//173
f 64//174 240//174 237//174
f 65//175 234//175 240//175
f 237//176 240//176 234//176
f 17//177 232//177 221//177
f 62//178 242//178 232//178
f 59//179 221//179 242//179
f 232//180 242//180 221//180
f 18//181 241//181 228//181
f 64//182 243//182 241//182
f 62//183 228//183 243//183
f 241//184 243//184 228//184
f 19//185 225//185 236//185
f 59//186 244//186 225//186
f 64//187 236//187 244//187
f 225//188 244//188 236//188
f 62//189 243//189 242//189
f 64//190 244//190 243//190
f 59//191 242//191 244//191
f 243//192 244//192 242//192
f 1//193 220//193 246//193
f 60//194 245//194 220//194
f 67//195 246//195 245//195
f 220//196 245//196 246//196
f 19//197 247//197 223//197
f 66//198 248//198 247//198
f 60//199 223//199 248//199
f 247//200 248//200 223//200
f 21//201 249//201 251//201
f 67//202 250//202 249//202
f 66//203 251//203 250//203
f 249//204 250//204 251//204
f 60//205 248//205 245//205
f 66//206 250//206 248//206
f 67//207 245//207 250//207
f 248//208 250//208 245//208
f 8//209 252//209 233//209
f 68//210 253//210 252//210
f 63//211 233//211 253//211
f 252//212 253//212 233//212
f 20//213 254//213 256//213
f 69//214 255//214 254//214
f 68//215 256//215 255//215
f 254//216 255//216 256//216
f 19//217 238//217 258//217
f 63//218 257//218 238//218
f 69//219 258//219 257//219
f 238//220 257//220 258//220
f 68//221 255//221 253//221
f 69//222 257//222 255//222
f 63//223 253//223 257//223
f 255//224 257//224 253//224
f 11//225 259//225 261//225
f 70//226 260//226 259//226
f 72//227 261//227 260//227
f 259//228 260//228 261//228
f 21//229 262//229 264//229
f 71//230 263//230 262//230
f 70//231 264//231 263//231
f 262//232 263//232 264//232
f 20//233 265//233 267//233
f 72//234 266//234 265//234
f 71//235 267//235 266//235
f 265//236 266//236 267//236
f 70//237 263//237 260//237
f 71//238 266//238 263//238
f 72//239 260//239 266//239
f 263//240 266//240 260//240
f 19//241 258//241 247//241
f 69//242 268//242 258//242
f 66//243 247//243 268//243
f 258//244 268//244 247//244
f 20//245 267//245 254//245
f 71//246 269//246 267//246
f 69//247 254//247 269//247
f 267//248 269//248 254//248
f 21//249 251//249 262//249
f 66//250 270//250 251//250
f 71//251 262//251 270//251
f 251//252 270//252 262//252
f 69//253 269//253 268//253
f 71//254 270//254 269//254
f 66//255 268//255 270//255
f 269//256 270//256 268//256
f 1//257 246//257 163//257
f 67//258 271//258 246//258
f 43//259 163//259 271//259
f 246//260 271//260 163//260
f 21//261 272//261 249//261
f 73//262 273//262 272//262
f 67//263 249//263 273//263
f 272//264 273//264 249//264
f 13//265 168//265 275//265
f 43//266 274//266 168//266
f 73//267 275//267 274//267
f 168//268 274//268 275//268
f 67//269 273//269 271//269
f 73//270 274//270 273//270
f 43//271 271//271 274//271
f 273//272 274//272 271//272
f 11//273 276//273 259//273
f 74//274 277//274 276//274
f 70//275 259//275 277//275
f 276//276 277//276 259//276
f 22//277 278//277 280//277
f 75//278 279//278 278//278
f 74//279 280//279 279//279
f 278//280 279//280 280//280
f 21//281 264//281 282//281
f 70//282 281//282 264//282
f 75//283 282//283 281//283
f 264//284 281//284 282//284
f 74//285 279//285 277//285
f 75//286 281//286 279//286
f 70//287 277//287 281//287
f 279//288 281//288 277//288
f 12//289 174//289 284//289
f 48//290 283//290 174//290
f 77//291 284//291 283//291
f 174//292 283//292 284//292
f 13//293 285//293 178//293
f 76//294 286//294 285//294
f 48//295 178//295 286//295
f 285//296 286//296 178//296
f 22//297 287//297 289//297
f 77//298 288//298 287//298
f 76//299 289//299 288//299
f 287//300 288//300 289//300
f 48//301 286//301 283//301
f 76//302 288//302 286//302
f 77//303 283//303 288//303
f 286//304 288//304 283//304
f 21//305 282//305 272//305
f 75//306 290//306 282//306
f 73//307 272//307 290//307
f 282//308 290//308 272//308
f 22//309 289//309 278//309
f 76//310 291//310 289//310
f 75//311 278//311 291//311
f 289//312 291//312 278//312
f 13//313 275//313 285//313
f 73//314 292//314 275//314
f 76//315 285//315 292//315
f 275//316 292//316 285//316
f 75//317 291//317 290//317
f 76//318 292//318 291//318
f 73//319 290//319 292//319
f 291//320 292//320 290//320
f 2//321 209//321 294//321
f 58//322 293//322 209//322
f 79//323 294//323 293//323
f 209//324 293//324 294//324
f 16//325 295//325 213//325
f 78//326 296//326 295//326
f 58//327 213//327 296//327
f 295//328 296//328 213//328
f 24//329 297//329 299//329
f 79//330 298//330 297//330
f 78//331 299//331 298//331
f 297//332 298//332 299//332
f 58//333 296//333 293//333
f 78//334 298//334 296//334
f 79//335 293//335 298//335
f 296//336 298//336 293//336
f 6//337 300//337 200//337
f 80//338 301//338 300//338
f 54//339 200//339 301//339
f 300//340 301//340 200//340
f 23//341 302//341 304//341
f 81//342 303//342 302//342
f 80//343 304//343 303//343
f 302//344 303//344 304//344
f 16//345 204//345 306//345
f 54//346 305//346 204//346
f 81//347 306//347 305//347
f 204//348 305//348 306//348
f 80//349 303//349 301//349
f 81//350 305//350 303//350
f 54//351 301//351 305//351
f 303//352 305//352 301//352
f 10//353 307//353 309//353
f 82//354 308//354 307//354
f 84//355 309//355 308//355
f 307//356 308//356 309//356
f 24//357 310//357 312//357
f 83//358 311//358 310//358
f 82//359 312//359 311//359
f 310//360 311//360 312//360
f 23//361 313//361 315//361
f 84//362 314//362 313//362
f 83//363 315//363 314//363
f 313//364 314//364 315//364
f 82//365 311//365 308//365
f 83//366 314//366 311//366
f 84//367 308//367 314//367
f 311//368 314//368 308//368
f 16//369 306//369 295//369
f 81//370 316//370 306//370
f 78//371 295//371 316//371
f 306//372 316//372 295//372
f 23//373 315//373 302//373
f 83//374 317//374 315//374
f 81//375 302//375 317//375
f 315//376 317//376 302//376
f 24//377 299//377 310//377
f 78//378 318//378 299//378
f 83//379 310//379 318//379
f 299//380 318//380 310//380
f 81//381 317//381 316//381
f 83//382 318//382 317//382
f 78//383 316//383 318//383
f 317//384 318//384 316//384
f 6//385 183//385 320//385
f 51//386 319//386 183//386
f 86//387 320//387 319//387
f 183//388 319//388 320//388
f 14//389 321//389 187//389
f 85//390 322//390 321//390
f 51//391 187//391 322//391
f 321//392 322//392 187//392
f 26//393 323//393 325//393
f 86//394 324//394 323//394
f 85//395 325//395 324//395
f 323//396 324//396 325//396
f 51//397 322//397 319//397
f 85//398 324//398 322//398
f 86//399 319//399 324//399
f 322//400 324//400 319//400
f 12//401 326//401 172//401
f 87//402 327//402 326//402
f 46//403 172//403 327//403
f 326//404 327//404 172//404
f 25//405 328//405 330//405
f 88//406 329//406 328//406
f 87//407 330//407 329//407
f 328//408 329//408 330//408
f 14//409 177//409 332//409
f 46//410 331//410 177//410
f 88//411 332//411 331//411
f 177//412 331//412 332//412
f 87//413 329//413 327//413
f 88//414 331//414 329//414
f 46//415 327//415 331//415
f 329//416 331//416 327//416
f 5//417 333//417 335//417
f 89//418 334//418 333//418
f 91//419 335//419 334//419
f 333//420 334//420 335//420
f 26//421 336//421 338//421
f 90//422 337//422 336//422
f 89//423 338//423 337//423
f 336//424 337//424 338//424
f 25//425 339//425 341//425
f 91//426 340//426 339//426
f 90//427 341//427 340//427
f 339//428 340//428 341//428
f 89//429 337//429 334//429
f 90//430 340//430 337//430
f 91//431 334//431 340//431
f 337//432 340//432 334//432
f 14//433 332//433 321//433
f 88//434 342//434 332//434
f 85//435 321//435 342//435
f 332//436 342//436 321//436
f 25//437 341//437 328//437
f 90//438 343//438 341//438
f 88//439 328//439 343//439
f 341//440 343//440 328//440
f 26//441 325//441 336//441
f 85//442 344//442 325//442
f 90//443 336//443 344//443
f 325//444 344//444 336//444
f 88//445 343//445 342//445
f 90//446 344//446 343//446
f 85//447 342//447 344//447
f 343//448 344//448 342//448
f 12//449 284//449 346//449
f 77//450 345//450 284//450
f 93//451 346//451 345//451
f 284//452 345//452 346//452
f 22//453 347//453 287//453
f 92//454 348//454 347//454
f 77//455 287//455 348//455
f 347//456 348//456 287//456
f 28//457 349//457 351//457
f 93//458 350//458 349//458
f 92//459 351//459 350//459
f 349//460 350//460 351//460
f 77//461 348//461 345//461
f 92//462 350//462 348//462
f 93//463 345//463 350//463
f 348//464 350//464 345//464
f 11//465 352//465 276//465
f 94//466 353//466 352//466
f 74//467 276//467 353//467
f 352//468 353//468 276//468
f 27//469 354//469 356//469
f 95//470 355//470 354//470
f 94//471 356//471 355//471
f 354//472 355//472 356//472
f 22//473 280//473 358//473
f 74//474 357//474 280//474
f 95//475 358//475 357//475
f 280//476 357//476 358//476
f 94//477 355//477 353//477
f 95//478 357//478 355//478
f 74//479 353//479 357//479
f 355//480 357//480 353//480
f 3//481 359//481 361//481
f 96//482 360//482 359//482
f 98//483 361//483 360//483
f 359//484 360//484 361//484
f 28//485 362//485 364//485
f 97//486 363//486 362//486
f 96//487 364//487 363//487
f 362//488 363//488 364//488
f 27//489 365//489 367//489
f 98//490 366//490 365//490
f 97//491 367//491 366//491
f 365//492 366//492 367//492
f 96//493 363//493 360//493
f 97//494 366//494 363//494
f 98//495 360//495 366//495
f 363//496 366//496 360//496
f 22//497 358//497 347//497
f 95//498 368//498 358//498
f 92//499 347//499 368//499
f 358//500 368//500 347//500
f 27//501 367//501 354//501
f 97//502 369//502 367//502
f 95//503 354//503 369//503
f 367//504 369//504 354//504
f 28//505 351//505 362//505
f 92//506 370//506 351//506
f 97//507 362//507 370//507
f 351//508 370//508 362//508
f 95//509 369//509 368//509
f 97//510 370//510 369//510
f 92//511 368//511 370//511
f 369//512 370//512 368//512
f 11//513 261//513 372//513
f 72//514 371//514 261//514
f 100//515 372//515 371//515
f 261//516 371//516 372//516
f 20//517 373//517 265//517
f 99//518 374//518 373//518
f 72//519 265//519 374//519
f 373//520 374//520 265//520
f 30//521 375//521 377//521
f 100//522 376//522 375//522
f 99//523 377//523 376//523
f 375//524 376//524 377//524
f 72//525 374//525 371//525
f 99//526 376//526 374//526
f 100//527 371//527 376//527
f 374//528 376//528 371//528
f 8//529 378//529 252//529
f 101//530 379//530 378//530
f 68//531 252//531 379//531
f 378//532 379//532 252//532
f 29//533 380//533 382//533
f 102//534 381//534 380//534
f 101//535 382//535 381//535
f 380//536 381//536 382//536
f 20//537 256//537 384//537
f 68//538 383//538 256//538
f 102//539 384//539 383//539
f 256//540 383//540 384//540
f 101//541 381//541 379//541
f 102//542 383//542 381//542
f 68//543 379//543 383//543
f 381//544 383//544 379//544
f 7//545 385//545 387//545
f 103//546 386//546 385//546
f 105//547 387//547 386//547
f 385//548 386//548 387//548
f 30//549 388//549 390//549
f 104//550 389//550 388//550
f 103//551 390//551 389//551
f 388//552 389//552 390//552
f 29//553 391//553 393//553
f 105//554 392//554 391//554
f 104//555 393//555 392//555
f 391//556 392//556 393//556
f 103//557 389//557 386//557
f 104//558 392//558 389//558
f 105//559 386//559 392//559
f 389//560 392//560 386//560
f 20//561 384//561 373//561
f 102//562 394//562 384//562
f 99//563 373//563 394//563
f 384//564 394//564 373//564
f 29//565 393//565 380//565
f 104//566 395//566 393//566
f 102//567 380//567 395//567
f 393//568 395//568 380//568
f 30//569 377//569 388//569
f 99//570 396//570 377//570
f 104//571 388//571 396//571
f 377//572 396//572 388//572
f 102//573 395//573 394//573
f 104//574 396//574 395//574
f 99//575 394//575 396//575
f 395//576 396//576 394//576
f 8//577 235//577 398//577
f 65//578 397//578 235//578
f 107//579 398//579 397//579
f 235//580 397//580 398//580
f 18//581 399//581 239//581
f 106//582 400//582 399//582
f 65//583 239//583 400//583
f 399//584 400//584 239//584
f 32//585 401//585 403//585
f 107//586 402//586 401//586
f 106//587 403//587 402//587
f 401//588 402//588 403//588
f 65//589 400//589 397//589
f 106//590 402//590 400//590
f 107//591 397//591 402//591
f 400//592 402//592 397//592
f 2//593 404//593 226//593
f 108//594 405//594 404//594
f 61//595 226//595 405//595
f 404//596 405//596 226//596
f 31//597 406//597 408//597
f 109//598 407//598 406//598
f 108//599 408//599 407//599
f 406//600 407//600 408//600
f 18//601 230//601 410//601
f 61//602 409//602 230//602
f 109//603 410//603 409//603
f 230//604 409//604 410//604
f 108//605 407//605 405//605
f 109//606 409//606 407//606
f 61//607 405//607 409//607
f 407//608 409//608 405//608
f 9//609 411//609 413//609
f 110//610 412//610 411//610
f 112//611 413//611 412//611
f 411//612 412//612 413//612
f 32//613 414//613 416//613
f 111//614 415//614 414//614
f 110//615 416//615 415//615
f 414//616 415//616 416//616
f 31//617 417//617 419//617
f 112//618 418//618 417//618
f 111//619 419//619 418//619
f 417//620 418//620 419//620
f 110//621 415//621 412//621
f 111//622 418//622 415//622
f 112//623 412//623 418//623
f 415//624 418//624 412//624
f 18//625 410//625 399//625
f 109//626 420//626 410//626
f 106//627 399//627 420//627
f 410//628 420//628 399//628
f 31//629 419//629 406//629
f 111//630 421//630 419//630
f 109//631 406//631 421//631
f 419//632 421//632 406//632
f 32//633 403//633 414//633
f 106//634 422//634 403//634
f 111//635 414//635 422//635
f 403//636 422//636 414//636
f 109//637 421//637 420//637
f 111//638 422//638 421//638
f 106//639 420//639 422//639
f 421//640 422//640 420//640
f 4//641 423//641 425//641
f 113//642 424//642 423//642
f 115//643 425//643 424//643
f 423//644 424//644 425//644
f 33//645 426//645 428//645
f 114//646 427//646 426//646
f 113//647 428//647 427//647
f 426//648 427//648 428//648
f 35//649 429//649 431//649
f 115//650 430//650 429//650
f 114//651 431//651 430//651
f 429//652 430//652 431//652
f 113//653 427//653 424//653
f 114//654 430//654 427//654
f 115//655 424//655 430//655
f 427//656 430//656 424//656
f 10//657 432//657 434//657
f 116//658 433//658 432//658
f 118//659 434//659 433//659
f 432//660 433//660 434//660
f 34//661 435//661 437//661
f 117//662 436//662 435//662
f 116//663 437//663 436//663
f 435//664 436//664 437//664
f 33//665 438//665 440//665
f 118//666 439//666 438//666
f 117//667 440//667 439//667
f 438//668 439//668 440//668
f 116//669 436//669 433//669
f 117//670 439//670 436//670
f 118//671 433//671 439//671
f 436//672 439//672 433//672
f 5//673 441//673 443//673
f 119//674 442//674 441//674
f 121//675 443//675 442//675
f 441//676 442//676 443//676
f 35//677 444//677 446//677
f 120//678 445//678 444//678
f 119//679 446//679 445//679
f 444//680 445//680 446//680
f 34//681 447//681 449//681
f 121//682 448//682 447//682
f 120//683 449//683 448//683
f 447//684 448//684 449//684
f 119//685 445//685 442//685
f 120//686 448//686 445//686
f 121//687 442//687 448//687
f 445//688 448//688 442//688
f 33//689 440//689 426//689
f 117//690 450//690 440//690
f 114//691 426//691 450//691
f 440//692 450//692 426//692
f 34//693 449//693 435//693
f 120//694 451//694 449//694
f 117//695 435//695 451//695
f 449//696 451//696 435//696
f 35//697 431//697 444//697
f 114//698 452//698 431//698
f 120//699 444//699 452//699
f 431//700 452//700 444//700
f 117//701 451//701 450//701
f 120//702 452//702 451//702
f 114//703 450//703 452//703
f 451//704 452//704 450//704
f 4//705 425//705 454//705
f 115//706 453//706 425//706
f 123//707 454//707 453//707
f 425//708 453//708 454//708
f 35//709 455//709 429//709
f 122//710 456//710 455//710
f 115//711 429//711 456//711
f 455//712 456//712 429//712
f 37//713 457//713 459//713
f 123//714 458//714 457//714
f 122//715 459//715 458//715
f 457//716 458//716 459//716
f 115//717 456//717 453//717
f 122//718 458//718 456//718
f 123//719 453//719 458//719
f 456//720 458//720 453//720
f 5//721 460//721 441//721
f 124//722 461//722 460//722
f 119//723 441//723 461//723
f 460//724 461//724 441//724
f 36//725 462//725 464//725
f 125//726 463//726 462//726
f 124//727 464//727 463//727
f 462//728 463//728 464//728
f 35//729 446//729 466//729
f 119//730 465//730 446//730
f 125//731 466//731 465//731
f 446//732 465//732 466//732
f 124//733 463//733 461//733
f 125//734 465//734 463//734
f 119//735 461//735 465//735
f 463//736 465//736 461//736
f 3//737 467//737 469//737
f 126//738 468//738 467//738
f 128//739 469//739 468//739
f 467//740 468//740 469//740
f 37//741 470//741 472//741
f 127//742 471//742 470//742
f 126//743 472//743 471//743
f 470//744 471//744 472//744
f 36//745 473//745 475//745
f 128//746 474//746 473//746
f 127//747 475//747 474//747
f 473//748 474//748 475//748
f 126//749 471//749 468//749
f 127//750 474//750 471//750
f 128//751 468//751 474//751
f 471//752 474//752 468//752
f 35//753 466//753 455//753
f 125//754 476//754 466//754
f 122//755 455//755 476//755
f 466//756 476//756 455//756
f 36//757 475//757 462//757
f 127//758 477//758 475//758
f 125//759 462//759 477//759
f 475//760 477//760 462//760
f 37//761 459//761 470//761
f 122//762 478//762 459//762
f 127//763 470//763 478//763
f 459//764 478//764 470//764
f 125//765 477//765 476//765
f 127//766 478//766 477//766
f 122//767 476//767 478//767
f 477//768 478//768 476//768
f 4//769 454//769 480//769
f 123//770 479//770 454//770
f 130//771 480//771 479//771
f 454//772 479//772 480//772
f 37//773 481//773 457//773
f 129//774 482//774 481//774
f 123//775 457//775 482//775
f 481//776 482//776 457//776
f 39//777 483//777 485//777
f 130//778 484//778 483//778
f 129//779 485//779 484//779
f 483//780 484//780 485//780
f 123//781 482//781 479//781
f 129//782 484//782 482//782
f 130//783 479//783 484//783
f 482//784 484//784 479//784
f 3//785 486//785 467//785
f 131//786 487//786 486//786
f 126//787 467//787 487//787
f 486//788 487//788 467//788
f 38//789 488//789 490//789
f 132//790 489//790 488//790
f 131//791 490//791 489//791
f 488//792 489//792 490//792
f 37//793 472//793 492//793
f 126//794 491//794 472//794
f 132//795 492//795 491//795
f 472//796 491//796 492//796
f 131//797 489//797 487//797
f 132//798 491//798 489//798
f 126//799 487//799 491//799
f 489//800 491//800 487//800
f 7//801 493//801 495//801
f 133//802 494//802 493//802
f 135//803 495//803 494//803
f 493//804 494//804 495//804
f 39//805 496//805 498//805
f 134//806 497//806 496//806
f 133//807 498//807 497//807
f 496//808 497//808 498//808
f 38//809 499//809 501//809
f 135//810 500//810 499//810
f 134//811 501//811 500//811
f 499//812 500//812 501//812
f 133//813 497//813 494//813
f 134//814 500//814 497//814
f 135//815 494//815 500//815
f 497//816 500//816 494//816
f 37//817 492//817 481//817
f 132//818 502//818 492//818
f 129//819 481//819 502//819
f 492//820 502//820 481//820
f 38//821 501//821 488//821
f 134//822 503//822 501//822
f 132//823 488//823 503//823
f 501//824 503//824 488//824
f 39//825 485//825 496//825
f 129//826 504//826 485//826
f 134//827 496//827 504//827
f 485//828 504//828 496//828
f 132//829 503//829 502//829
f 134//830 504//830 503//830
f 129//831 502//831 504//831
f 503//832 504//832 502//832
f 4//833 480//833 506//833
f 130//834 505//834 480//834
f 137//835 506//835 505//835
f 480//836 505//836 506//836
f 39//837 507//837 483//837
f 136//838 508//838 507//838
f 130//839 483//839 508//839
f 507//840 508//840 483//840
f 41//841 509//841 511//841
f 137//842 510//842 509//842
f 136//843 511//843 510//843
f 509//844 510//844 511//844
f 130//845 508//845 505//845
f 136//846 510//846 508//846
f 137//847 505//847 510//847
f 508//848 510//848 505//848
f 7//849 512//849 493//849
f 138//850 513//850 512//850
f 133//851 493//851 513//851
f 512//852 513//852 493//852
f 40//853 514//853 516//853
f 139//854 515//854 514//854
f 138//855 516//855 515//855
f 514//856 515//856 516//856
f 39//857 498//857 518//857
f 133//858 517//858 498//858
f 139//859 518//859 517//859
f 498//860 517//860 518//860
f 138//861 515//861 513//861
f 139//862 517//862 515//862
f 133//863 513//863 517//863
f 515//864 517//864 513//864
f 9//865 519//865 521//865
f 140//866 520//866 519//866
f 142//867 521//867 520//867
f 519//868 520//868 521//868
f 41//869 522//869 524//869
f 141//870 523//870 522//870
f 140//871 524//871 523//871
f 522//872 523//872 524//872
f 40//873 525//873 527//873
f 142//874 526//874 525//874
f 141//875 527//875 526//875
f 525//876 526//876 527//876
f 140//877 523//877 520//877
f 141//878 526//878 523//878
f 142//879 520//879 526//879
f 523//880 526//880 520//880
f 39//881 518//881 507//881
f 139//882 528//882 518//882
f 136//883 507//883 528//883
f 518//884 528//884 507//884
f 40//885 527//885 514//885
f 141//886 529//886 527//886
f 139//887 514//887 529//887
f 527//888 529//888 514//888
f 41//889 511//889 522//889
f 136//890 530//890 511//890
f 141//891 522//891 530//891
f 511//892 530//892 522//892
f 139//893 529//893 528//893
f 141//894 530//894 529//894
f 136//895 528//895 530//895
f 529//896 530//896 528//896
f 4//897 506//897 423//897
f 137//898 531//898 506//898
f 113//899 423//899 531//899
f 506//900 531//900 423//900
f 41//901 532//901 509//901
f 143//902 533//902 532//902
f 137//903 509//903 533//903
f 532//904 533//904 509//904
f 33//905 428//905 535//905
f 113//906 534//906 428//906
f 143//907 535//907 534//907
f 428//908 534//908 535//908
f 137//909 533//909 531//909
f 143//910 534//910 533//910
f 113//911 531//911 534//911
f 533//912 534//912 531//912
f 9//913 536//913 519//913
f 144//914 537//914 536//914
f 140//915 519//915 537//915
f 536//916 537//916 519//916
f 42//917 538//917 540//917
f 145//918 539//918 538//918
f 144//919 540//919 539//919
f 538//920 539//920 540//920
f 41//921 524//921 542//921
f 140//922 541//922 524//922
f 145//923 542//923 541//923
f 524//924 541//924 542//924
f 144//925 539//925 537//925
f 145//926 541//926 539//926
f 140//927 537//927 541//927
f 539//928 541//928 537//928
f 10//929 434//929 544//929
f 118//930 543//930 434//930
f 147//931 544//931 543//931
f 434//932 543//932 544//932
f 33//933 545//933 438//933
f 146//934 546//934 545//934
f 118//935 438//935 546//935
f 545//936 546//936 438//936
f 42//937 547//937 549//937
f 147//938 548//938 547//938
f 146//939 549//939 548//939
f 547//940 548//940 549//940
f 118//941 546//941 543//941
f 146//942 548//942 546//942
f 147//943 543//943 548//943
f 546//944 548//944 543//944
f 41//945 542//945 532//945
f 145//946 550//946 542//946
f 143//947 532//947 550//947
f 542//948 550//948 532//948
f 42//949 549//949 538//949
f 146//950 551//950 549//950
f 145//951 538//951 551//951
f 549//952 551//952 538//952
f 33//953 535//953 545//953
f 143//954 552//954 535//954
f 146//955 545//955 552//955
f 535//956 552//956 545//956
f 145//957 551//957 550//957
f 146//958 552//958 551//958
f 143//959 550//959 552//959
f 551//960 552//960 550//960
f 5//961 443//961 333//961
f 121//962 553//962 443//962
f 89//963 333//963 553//963
f 443//964 553//964 333//964
f 34//965 554//965 447//965
f 148//966 555//966 554//966
f 121//967 447//967 555//967
f 554//968 555//968 447//968
f 26//969 338//969 557//969
f 89//970 556//970 338//970
f 148//971 557//971 556//971
f 338//972 556//972 557//972
f 121//973 555//973 553//973
f 148//974 556//974 555//974
f 89//975 553//975 556//975
f 555//976 556//976 553//976
f 10//977 309//977 432//977
f 84//978 558//978 309//978
f 116//979 432//979 558//979
f 309//980 558//980 432//980
f 23//981 559//981 313//981
f 149//982 560//982 559//982
f 84//983 313//983 560//983
f 559//984 560//984 313//984
f 34//985 437//985 562//985
f 116//986 561//986 437//986
f 149//987 562//987 561//987
f 437//988 561//988 562//988
f 84//989 560//989 558//989
f 149//990 561//990 560//990
f 116//991 558//991 561//991
f 560//992 561//992 558//992
f 6//993 320//993 300//993
f 86//994 563//994 320//994
f 80//995 300//995 563//995
f 320//996 563//996 300//996
f 26//997 564//997 323//997
f 150//998 565//998 564//998
f 86//999 323//999 565//999
f 564//1000 565//1000 323//1000
f 23//1001 304//1001 567//1001
f 80//1002 566//1002 304//1002
f 150//1003 567//1003 566//1003
f 304//1004 566//1004 567//1004
f 86//1005 565//1005 563//1005
f 150//1006 566//1006 565//1006
f 80//1007 563//1007 566//1007
f 565//1008 566//1008 563//1008
f 34//1009 562//1009 554//1009
f 149//1010 568//1010 562//1010
f 148//1011 554//1011 568//1011
f 562//1012 568//1012 554//1012
f 23//1013 567//1013 559//1013
f 150//1014 569//1014 567//1014
f 149//1015 559//1015 569//1015
f 567//1016 569//1016 559//1016
f 26//1017 557//1017 564//1017
f 148//1018 570//1018 557//1018
f 150//1019 564//1019 570//1019
f 557//1020 570//1020 564//1020
f 149//1021 569//1021 568//1021
f 150//1022 570//1022 569//1022
f 148//1023 568//1023 570//1023
f 569//1024 570//1024 568//1024
f 3//1025 469//1025 359//1025
f 128//1026 571//1026 469//1026
f 96//1027 359//1027 571//1027
f 469//1028 571//1028 359//1028
f 36//1029 572//1029 473//1029
f 151//1030 573//1030 572//1030
f 128//1031 473//1031 573//1031
f 572//1032 573//1032 473//1032
f 28//1033 364//1033 575//1033
f 96//1034 574//1034 364//1034
f 151//1035 575//1035 574//1035
f 364//1036 574//1036 575//1036
f 128//1037 573//1037 571//1037
f 151//1038 574//1038 573//1038
f 96//1039 571//1039 574//1039
f 573//1040 574//1040 571//1040
f 5//1041 335//1041 460//1041
f 91//1042 576//1042 335//1042
f 124//1043 460//1043 576//1043
f 335//1044 576//1044 460//1044
f 25//1045 577//1045 339//1045
f 152//1046 578//1046 577//1046
f 91//1047 339//1047 578//1047
f 577//1048 578//1048 339//1048
f 36//1049 464//1049 580//1049
f 124//1050 579//1050 464//1050
f 152//1051 580//1051 579//1051
f 464//1052 579//1052 580//1052
f 91//1053 578//1053 576//1053
f 152//1054 579//1054 578//1054
f 124//1055 576//1055 579//1055
f 578//1056 579//1056 576//1056
f 12//1057 346//1057 326//1057
f 93//1058 581//1058 346//1058
f 87//1059 326//1059 581//1059
f 346//1060 581//1060 326//1060
f 28//1061 582//1061 349//1061
f 153//1062 583//1062 582//1062
f 93//1063 349//1063 583//1063
f 582//1064 583//1064 349//1064
f 25//1065 330//1065 585//1065
f 87//1066 584//1066 330//1066
f 153//1067 585//1067 584//1067
f 330//1068 584//1068 585//1068
f 93//1069 583//1069 581//1069
f 153//1070 584//1070 583//1070
f 87//1071 581//1071 584//1071
f 583//1072 584//1072 581//1072
f 36//1073 580//1073 572//1073
f 152//1074 586//1074 580//1074
f 151//1075 572//1075 586//1075
f 580//1076 586//1076 572//1076
f 25//1077 585//1077 577//1077
f 153//1078 587//1078 585//1078
f 152//1079 577//1079 587//1079
f 585//1080 587//1080 577//1080
f 28//1081 575//1081 582//1081
f 151//1082 588//1082 575//1082
f 153//1083 582//1083 588//1083
f 575//1084 588//1084 582//1084
f 152//1085 587//1085 586//1085
f 153//1086 588//1086 587//1086
f 151//1087 586//1087 588//1087
f 587//1088 588//1088 586//1088
f 7//1089 495//1089 385//1089
f 135//1090 589//1090 495//1090
f 103//1091 385//1091 589//1091
f 495//1092 589//1092 385//1092
f 38//1093 590//1093 499//1093
f 154//1094 591//1094 590//1094
f 135//1095 499//1095 591//1095
f 590//1096 591//1096 499//1096
f 30//1097 390//1097 593//1097
f 103//1098 592//1098 390//1098
f 154//1099 593//1099 592//1099
f 390//1100 592//1100 593//1100
f 135//1101 591//1101 589//1101
f 154//1102 592//1102 591//1102
f 103//1103 589//1103 592//1103
f 591//1104 592//1104 589//1104
f 3//1105 361//1105 486//1105
f 98//1106 594//1106 361//1106
f 131//1107 486//1107 594//1107
f 361//1108 594//1108 486//1108
f 27//1109 595//1109 365//1109
f 155//1110 596//1110 595//1110
f 98//1111 365//1111 596//1111
f 595//1112 596//1112 365//1112
f 38//1113 490//1113 598//1113
f 131//1114 597//1114 490//1114
f 155//1115 598//1115 597//1115
f 490//1116 597//1116 598//1116
f 98//1117 596//1117 594//1117
f 155//1118 597//1118 596//1118
f 131//1119 594//1119 597//1119
f 596//1120 597//1120 594//1120
f 11//1121 372//1121 352//1121
f 100//1122 599//1122 372//1122
f 94//1123 352//1123 599//1123
f 372//1124 599//1124 352//1124
f 30//1125 600//1125 375//1125
f 156//1126 601//1126 600//1126
f 100//1127 375//1127 601//1127
f 600//1128 601//1128 375//1128
f 27//1129 356//1129 603//1129
f 94//1130 602//1130 356//1130
f 156//1131 603//1131 602//1131
f 356//1132 602//1132 603//1132
f 100//1133 601//1133 599//1133
f 156//1134 602//1134 601//1134
f 94//1135 599//1135 602//1135
f 601//1136 602//1136 599//1136
f 38//1137 598//1137 590//1137
f 155//1138 604//1138 598//1138
f 154//1139 590//1139 604//1139
f 598//1140 604//1140 590//1140
f 27//1141 603//1141 595//1141
f 156//1142 605//1142 603//1142
f 155//1143 595//1143 605//1143
f 603//1144 605//1144 595//1144
f 30//1145 593//1145 600//1145
f 154//1146 606//1146 593//1146
f 156//1147 600//1147 606//1147
f 593//1148 606//1148 600//1148
f 155//1149 605//1149 604//1149
f 156//1150 606//1150 605//1150
f 154//1151 604//1151 606//1151
f 605//1152 606//1152 604//1152
f 9//1153 521//1153 411//1153
f 142//1154 607//1154 521//1154
f 110//1155 411//1155 607//1155
f 521//1156 607//1156 411//1156
f 40//1157 608//1157 525//1157
f 157//1158 609//1158 608//1158
f 142//1159 525//1159 609//1159
f 608//1160 609//1160 525//1160
f 32//1161 416//1161 611//1161
f 110//1162 610//1162 416//1162
f 157//1163 611//1163 610//1163
f 416//1164 610//1164 611//1164
f 142//1165 609//1165 607//1165
f 157//1166 610//1166 609//1166
f 110//1167 607//1167 610//1167
f 609//1168 610//1168 607//1168
f 7//1169 387//1169 512//1169
f 105//1170 612//1170 387//1170
f 138//1171 512//1171 612//1171
f 387//1172 612//1172 512//1172
f 29//1173 613//1173 391//1173
f 158//1174 614//1174 613//1174
f 105//1175 391//1175 614//1175
f 613//1176 614//1176 391//1176
f 40//1177 516//1177 616//1177
f 138//1178 615//1178 516//1178
f 158//1179 616//1179 615//1179
f 516//1180 615//1180 616//1180
f 105//1181 614//1181 612//1181
f 158//1182 615//1182 614//1182
f 138//1183 612//1183 615//1183
f 614//1184 615//1184 612//1184
f 8//1185 398//1185 378//1185
f 107//1186 617//1186 398//1186
f 101//1187 378//1187 617//1187
f 398//1188 617//1188 378//1188
f 32//1189 618//1189 401//1189
f 159//1190 619//1190 618//1190
f 107//1191 401//1191 619//1191
f 618//1192 619//1192 401//1192
f 29//1193 382//1193 621//1193
f 101//1194 620//1194 382//1194
f 159//1195 621//1195 620//1195
f 382//1196 620//1196 621//1196
f 107//1197 619//1197 617//1197
f 159//1198 620//1198 619//1198
f 101//1199 617//1199 620//1199
f 619//1200 620//1200 617//1200
f 40//1201 616//1201 608//1201
f 158//1202 622//1202 616//1202
f 157//1203 608//1203 622//1203
f 616//1204 622//1204 608//1204
f 29//1205 621//1205 613//1205
f 159//1206 623//1206 621//1206
f 158//1207 613//1207 623//1207
f 621//1208 623//1208 613//1208
f 32//1209 611//1209 618//1209
f 157//1210 624//1210 611//1210
f 159//1211 618//1211 624//1211
f 611//1212 624//1212 618//1212
f 158//1213 623//1213 622//1213
f 159//1214 624//1214 623//1214
f 157//1215 622//1215 624//1215
f 623//1216 624//1216 622//1216
f 10//1217 544//1217 307//1217
f 147//1218 625//1218 544//1218
f 82//1219 307//1219 625//1219
f 544//1220 625//1220 307//1220
f 42//1221 626//1221 547//1221
f 160//1222 627//1222 626//1222
f 147//1223 547//1223 627//1223
f 626//1224 627//1224 547//1224
f 24//1225 312//1225 629//1225
f 82//1226 628//1226 312//1226
f 160//1227 629//1227 628//1227
f 312//1228 628//1228 629//1228
f 147//1229 627//1229 625//1229
f 160//1230 628//1230 627//1230
f 82//1231 625//1231 628//1231
f 627//1232 628//1232 625//1232
f 9//1233 413//1233 536//1233
f 112//1234 630//1234 413//1234
f 144//1235 536//1235 630//1235
f 413//1236 630//1236 536//1236
f 31//1237 631//1237 417//1237
f 161//1238 632//1238 631//1238
f 112//1239 417//1239 632//1239
f 631//1240 632//1240 417//1240
f 42//1241 540//1241 634//1241
f 144//1242 633//1242 540//1242
f 161//1243 634//1243 633//1243
f 540//1244 633//1244 634//1244
f 112//1245 632//1245 630//1245
f 161//1246 633//1246 632//1246
f 144//1247 630//1247 633//1247
f 632//1248 633//1248 630//1248
f 2//1249 294//1249 404//1249
f 79//1250 635//1250 294//1250
f 108//1251 404//1251 635//1251
f 294//1252 635//1252 404//1252
f 24//1253 636//1253 297//1253
f 162//1254 637//1254 636//1254
f 79//1255 297//1255 637//1255
f 636//1256 637//1256 297//1256
f 31//1257 408//1257 639//1257
f 108//1258 638//1258 408//1258
f 162//1259 639//1259 638//1259
f 408//1260 638//1260 639//1260
f 79//1261 637//1261 635//1261
f 162//1262 638//1262 637//1262
f 108//1263 635//1263 638//1263
f 637//1264 638//1264 635//1264
f 42//1265 634//1265 626//1265
f 161//1266 640//1266 634//1266
f 160//1267 626//1267 640//1267
f 634//1268 640//1268 626//1268
f 31//1269 639//1269 631//1269
f 162//1270 641//1270 639//1270
f 161//1271 631//1271 641//1271
f 639//1272 641//1272 631//1272
f 24//1273 629//1273 636//1273
f 160//1274 642//1274 629//1274
f 162//1275 636//1275 642//1275
f 629//1276 642//1276 636//1276
f 161//1277 641//1277 640//1277
f 162//1278 642//1278 641//1278
f 160//1279 640//1279 642//1279
f 641//1280 642//1280 640//1280
