# Fractured Arcana procedural boulder
o Boulder_Wedge
v -0.260327 0.393629 0.000369
v 0.213066 0.327543 0.000369
v -0.184815 -0.185448 0.000369
v 0.245720 -0.172683 0.000369
v 0.000015 -0.164695 0.244717
v 0.000015 0.245549 0.257560
v 0.000015 -0.168590 -0.252122
v 0.000015 0.206776 -0.210595
v 0.394659 0.029828 -0.154843
v 0.378187 0.029828 0.149101
v -0.349033 0.029828 -0.136910
v -0.354880 0.029828 0.139947
v -0.371111 0.227919 0.090578
v -0.242736 0.159398 0.250320
v -0.119654 0.300404 0.123587
v 0.117381 0.295194 0.121215
v 0.000015 0.395564 0.000369
v 0.150343 0.369722 -0.154417
v -0.145570 0.359000 -0.149534
v -0.236466 0.156051 -0.243126
v -0.331138 0.206583 -0.080125
v -0.512455 0.029828 0.000369
v 0.223414 0.149068 0.230392
v 0.341742 0.212226 0.083432
v -0.195825 -0.074703 0.202017
v 0.000015 0.029828 0.296763
v -0.358240 -0.155767 -0.086712
v -0.340271 -0.148657 0.083082
v 0.000015 0.029828 -0.314734
v -0.240799 -0.098709 -0.247588
v 0.322800 0.202116 -0.078091
v 0.208626 0.141175 -0.214429
v 0.382567 -0.164239 0.093355
v 0.199098 -0.076434 0.205355
v 0.110184 -0.183453 0.113804
v -0.121807 -0.187412 0.125804
v 0.000015 -0.174721 0.000369
v -0.107630 -0.181883 -0.110470
v 0.142643 -0.181031 -0.146489
v 0.233135 -0.094601 -0.239664
v 0.297397 -0.128783 -0.071916
v 0.481950 0.029828 0.000369
v -0.285823 0.279630 0.042481
v -0.209593 0.241776 0.096888
v -0.183641 0.345184 0.070373
v -0.302897 0.089681 0.190862
v -0.262072 0.169719 0.142818
v -0.384981 0.129997 0.123593
v -0.078689 0.323422 0.219278
v -0.182170 0.247269 0.187957
v -0.126006 0.211530 0.266564
v -0.063957 0.353260 0.066238
v -0.134124 0.437629 0.000369
v 0.070965 0.294493 0.197709
v 0.000015 0.320499 0.132738
v 0.107454 0.356454 0.000369
v 0.057843 0.322195 0.059911
v 0.151873 0.290583 0.058252
v -0.067874 0.373067 -0.069535
v -0.186001 0.349237 -0.070535
v 0.183451 0.344806 -0.069552
v 0.073614 0.401926 -0.075412
v -0.068978 0.287198 -0.191532
v 0.000015 0.371394 -0.155179
v 0.074321 0.307011 -0.206305
v -0.256161 0.288864 -0.117595
v -0.340277 0.327219 -0.049767
v -0.113422 0.193386 -0.239246
v -0.187201 0.253273 -0.192400
v -0.395775 0.132806 -0.126311
v -0.289411 0.184311 -0.156940
v -0.320704 0.093200 -0.201323
v -0.360454 0.222231 0.000369
v -0.411487 0.029828 -0.074022
v -0.417602 0.129514 -0.045028
v -0.423711 0.130973 0.046429
v -0.414863 0.029828 0.075369
v 0.219689 0.251953 0.101523
v 0.263137 0.259777 0.039134
v 0.114111 0.194335 0.241373
v 0.185700 0.251445 0.191560
v 0.397825 0.133331 0.127694
v 0.336116 0.209223 0.183046
v 0.287854 0.086702 0.181382
v -0.127762 0.098030 0.294561
v 0.000015 0.129390 0.258612
v -0.305959 -0.030630 0.192787
v -0.233032 0.029828 0.240327
v 0.000015 -0.072232 0.265089
v -0.126171 -0.037525 0.290899
v -0.125114 -0.147707 0.264681
v -0.405759 -0.067032 0.044478
v -0.345777 -0.060142 0.111045
v -0.393251 -0.072494 -0.125503
v -0.391001 -0.063509 -0.042136
v -0.278083 -0.181778 0.041340
v -0.311096 -0.135588 0.000369
v -0.263850 -0.177442 -0.038507
v -0.204566 0.029828 -0.210281
v -0.277149 -0.024938 -0.173932
v 0.000015 0.124172 -0.244341
v -0.113600 0.090471 -0.261218
v -0.141355 -0.164024 -0.298249
v -0.121495 -0.035029 -0.279395
v 0.000015 -0.085711 -0.299315
v 0.176553 0.240528 -0.181405
v 0.089032 0.158175 -0.187661
v 0.277177 0.272047 -0.040465
v 0.265777 0.298556 -0.122009
v 0.292649 0.087650 -0.183660
v 0.267462 0.172579 -0.144994
v 0.384244 0.129798 -0.122610
v 0.316192 -0.187451 0.046950
v 0.259751 -0.186163 0.119971
v 0.172770 -0.186672 0.066218
v 0.279880 -0.025471 0.176367
v 0.302078 -0.131150 0.164545
v 0.429646 -0.081955 0.137879
v 0.060641 -0.175600 0.168993
v 0.166711 -0.160976 0.172008
v 0.102357 -0.117732 0.216545
v 0.064783 -0.179350 0.067057
v 0.104634 -0.182368 0.000369
v -0.071495 -0.186705 0.199269
v 0.000015 -0.185718 0.138483
v -0.091904 -0.187541 0.000369
v -0.064489 -0.179818 0.066787
v -0.140310 -0.181136 0.053856
v 0.068846 -0.170360 -0.070503
v 0.191566 -0.178820 -0.072645
v -0.157718 -0.187111 -0.059755
v -0.056713 -0.187450 -0.058042
v 0.058500 -0.171904 -0.162302
v 0.000015 -0.181854 -0.110425
v -0.062480 -0.178422 -0.173458
v 0.240103 -0.181697 -0.110186
v 0.310987 -0.187185 -0.045447
v 0.098306 -0.111891 -0.207251
v 0.164950 -0.159606 -0.169458
v 0.375844 -0.067957 -0.119922
v 0.318858 -0.139235 -0.172929
v 0.334854 -0.036334 -0.210202
v 0.308522 -0.134329 0.000369
v 0.410931 0.029828 -0.073916
v 0.370863 -0.058695 -0.039944
v 0.364646 -0.057211 0.040005
v 0.445214 0.029828 0.080850
v 0.116388 -0.032287 0.268303
v 0.209684 0.029828 0.216255
v 0.103254 0.084932 0.238062
v -0.245901 -0.183343 0.113607
v -0.192045 -0.176890 0.198125
v -0.271692 -0.115198 0.148047
v -0.192895 -0.177300 -0.198264
v -0.234237 -0.179778 -0.107500
v -0.303216 -0.131734 -0.164444
v 0.261817 0.029828 -0.269198
v 0.126072 -0.037456 -0.289862
v 0.111867 0.089529 -0.257156
v 0.384689 0.121650 0.042184
v 0.411128 0.127962 -0.044321
v 0.319567 0.200390 0.000369
v -0.275629 0.332925 0.023472
v -0.221332 0.295080 0.052895
v -0.228093 0.381560 0.039682
v -0.262940 0.223008 0.088342
v -0.247814 0.262012 0.072475
v -0.352206 0.273142 0.070415
v -0.127570 0.277771 0.083416
v -0.183749 0.270737 0.078799
v -0.181025 0.290858 0.119240
v -0.334489 0.059713 0.167557
v -0.334406 0.107447 0.153740
v -0.367687 0.077998 0.131426
v -0.251742 0.164205 0.188706
v -0.283156 0.132902 0.166483
v -0.275004 0.122625 0.219169
v -0.394477 0.184698 0.111932
v -0.319024 0.151567 0.134117
v -0.326891 0.204316 0.124976
v -0.039142 0.286588 0.241250
v -0.102217 0.266595 0.242443
v -0.067004 0.243543 0.281526
v -0.166217 0.302904 0.171532
v -0.136142 0.287018 0.205947
v -0.100603 0.307891 0.164253
v -0.191421 0.191464 0.268368
v -0.148905 0.221593 0.214858
v -0.211573 0.206931 0.218232
v -0.265408 0.229871 0.134478
v -0.239533 0.218056 0.175049
v -0.211275 0.259653 0.148152
v -0.158985 0.384138 0.037555
v -0.197248 0.416312 0.000369
v -0.084920 0.303665 0.087823
v -0.119453 0.343631 0.067012
v -0.060061 0.402333 0.000369
v -0.088936 0.367104 0.034518
v -0.034353 0.386292 0.035756
v 0.036985 0.272238 0.227787
v 0.000015 0.303840 0.204678
v 0.061337 0.314262 0.129898
v 0.035712 0.326258 0.174008
v 0.102473 0.312974 0.167249
v -0.032998 0.303980 0.160958
v -0.057400 0.296143 0.121647
v 0.157293 0.337969 0.000369
v 0.130094 0.319691 0.030791
v 0.202072 0.341389 0.035192
v 0.027714 0.317111 0.028888
v 0.073471 0.308345 0.028568
v 0.058662 0.393470 0.000369
v 0.138798 0.299531 0.090704
v 0.111632 0.323005 0.062632
v 0.088245 0.314283 0.091215
v -0.034076 0.356350 0.105676
v 0.030322 0.320101 0.093985
v 0.000015 0.379412 0.071564
v -0.161709 0.390208 -0.037455
v -0.232874 0.388931 -0.039769
v -0.032221 0.364182 -0.032824
v -0.096899 0.397295 -0.036837
v -0.169811 0.359860 -0.110174
v -0.129071 0.368893 -0.071640
v -0.106011 0.371662 -0.108803
v 0.193113 0.327574 -0.032911
v 0.151555 0.367513 -0.035073
v 0.116963 0.406873 -0.120048
v 0.137318 0.390474 -0.076224
v 0.175672 0.371191 -0.113969
v 0.094796 0.389203 -0.036018
v 0.035212 0.394884 -0.035872
v -0.032096 0.240388 -0.197170
v 0.000015 0.303224 -0.203481
v 0.033155 0.247129 -0.203494
v -0.073751 0.371988 -0.155449
v -0.040367 0.365167 -0.196063
v -0.108895 0.330807 -0.177022
v 0.118930 0.358453 -0.193317
v 0.042015 0.378597 -0.203929
v 0.081528 0.407916 -0.171810
v 0.000015 0.378103 -0.070561
v 0.038279 0.396314 -0.117828
v -0.036939 0.383769 -0.113781
v -0.278032 0.363026 -0.065613
v -0.317111 0.378538 -0.026212
v -0.195487 0.311711 -0.127999
v -0.237492 0.341192 -0.100999
v -0.340994 0.265397 -0.067448
v -0.272739 0.285363 -0.078990
v -0.273369 0.230670 -0.091094
v -0.048896 0.185801 -0.204825
v -0.078907 0.212609 -0.186510
v -0.199935 0.197190 -0.205513
v -0.147814 0.220188 -0.212549
v -0.178451 0.180513 -0.249473
v -0.121361 0.259097 -0.182892
v -0.150572 0.277203 -0.154685
v -0.375513 0.079024 -0.133479
v -0.343476 0.109552 -0.157163
v -0.314647 0.057940 -0.156903
v -0.297039 0.188383 -0.112860
v -0.344233 0.161187 -0.143949
v -0.380188 0.179088 -0.107154
v -0.270096 0.120969 -0.214527
v -0.308577 0.142155 -0.180658
v -0.275435 0.176851 -0.205693
v -0.212173 0.260629 -0.148043
v -0.233539 0.213346 -0.169942
v -0.266447 0.230654 -0.134266
v -0.362617 0.346742 0.000369
v -0.370153 0.227408 -0.043491
v -0.341224 0.264111 -0.022216
v -0.359488 0.276650 0.024161
v -0.344479 0.213704 0.041186
v -0.393238 0.029828 -0.109944
v -0.402456 0.079337 -0.098894
v -0.457822 0.083101 -0.023892
v -0.418066 0.079443 -0.060231
v -0.488814 0.029828 -0.042959
v -0.404886 0.130616 -0.084351
v -0.411495 0.183866 -0.069780
v -0.377664 0.076288 0.093517
v -0.384693 0.029828 0.108284
v -0.407297 0.182295 0.069801
v -0.411161 0.132178 0.086401
v -0.475695 0.029828 0.042533
v -0.432672 0.081176 0.063085
v -0.476721 0.085300 0.025630
v -0.408623 0.184297 -0.023080
v -0.416005 0.129133 0.000369
v -0.395422 0.179306 0.023059
v 0.231264 0.306945 0.055245
v 0.257059 0.312471 0.021913
v 0.170199 0.275204 0.112111
v 0.193463 0.283431 0.082932
v 0.281501 0.224277 0.056347
v 0.250804 0.264783 0.073336
v 0.242472 0.207949 0.081484
v 0.059956 0.220971 0.251831
v 0.093325 0.245929 0.221314
v 0.218111 0.212377 0.224932
v 0.159293 0.234930 0.229774
v 0.172145 0.175162 0.241338
v 0.133551 0.282066 0.201988
v 0.159475 0.291777 0.164557
v 0.400936 0.082350 0.143266
v 0.367626 0.115150 0.168961
v 0.337289 0.059960 0.168941
v 0.351396 0.217379 0.134304
v 0.382225 0.175672 0.160600
v 0.413376 0.192105 0.117268
v 0.277588 0.123487 0.221200
v 0.334379 0.151536 0.196513
v 0.289647 0.184421 0.217039
v 0.216730 0.265552 0.151946
v 0.276213 0.246853 0.201774
v 0.286455 0.245710 0.145096
v -0.062868 0.177599 0.281312
v 0.000015 0.190910 0.269632
v -0.171624 0.121441 0.252371
v -0.129214 0.157146 0.285692
v 0.000015 0.078830 0.259599
v -0.058908 0.114181 0.273252
v -0.062110 0.062988 0.293804
v -0.317172 0.001490 0.158902
v -0.314683 0.029828 0.198273
v -0.230850 -0.030240 0.238081
v -0.271507 -0.000850 0.217719
v -0.270222 -0.061357 0.215365
v -0.299438 0.063661 0.240077
v -0.227813 0.089105 0.234953
v 0.000015 -0.125392 0.259857
v -0.060222 -0.111725 0.269490
v -0.060983 -0.158043 0.256268
v -0.059977 -0.002194 0.283728
v -0.060485 -0.056783 0.280555
v 0.000015 -0.023322 0.281540
v -0.165784 -0.110162 0.232477
v -0.116181 -0.084651 0.256917
v -0.165752 -0.058652 0.243750
v -0.176921 0.061308 0.257617
v -0.177921 -0.001830 0.259070
v -0.121682 0.029828 0.280562
v -0.393337 -0.018560 0.097382
v -0.348887 -0.015880 0.124726
v -0.480147 -0.026043 0.025812
v -0.423363 -0.020416 0.061735
v -0.343835 -0.105161 0.097610
v -0.347597 -0.056700 0.073101
v -0.351792 -0.101862 0.060339
v -0.396790 -0.022155 -0.141062
v -0.394042 -0.018647 -0.096819
v -0.360507 -0.105125 -0.061088
v -0.377759 -0.064208 -0.078675
v -0.387443 -0.122281 -0.109206
v -0.399617 -0.017598 -0.057556
v -0.495219 -0.027797 -0.025873
v -0.212191 -0.178501 0.018155
v -0.296471 -0.185595 0.000369
v -0.225879 -0.183273 -0.018565
v -0.318219 -0.138953 0.038075
v -0.310707 -0.169425 0.020933
v -0.311378 -0.170358 0.062295
v -0.295657 -0.164276 -0.058432
v -0.311924 -0.169866 -0.020276
v -0.329271 -0.143951 -0.038647
v -0.407782 -0.067515 0.000369
v -0.337264 -0.097667 -0.018985
v -0.367592 -0.109131 0.021462
v -0.271671 0.029828 -0.170487
v -0.290848 0.003842 -0.145008
v -0.206152 0.083469 -0.211914
v -0.261969 0.059428 -0.209347
v -0.251687 -0.055102 -0.199881
v -0.237072 0.003041 -0.189417
v -0.197823 -0.021647 -0.203337
v 0.000015 0.158342 -0.214454
v -0.046974 0.140248 -0.209563
v -0.064361 0.064189 -0.303700
v -0.059000 0.114312 -0.272939
v 0.000015 0.085560 -0.294467
v -0.114860 0.143004 -0.253262
v -0.162876 0.116772 -0.238790
v -0.067523 -0.170493 -0.282969
v -0.065572 -0.124295 -0.292656
v 0.000015 -0.146028 -0.297690
v -0.165517 -0.058527 -0.242669
v -0.122364 -0.090742 -0.269832
v -0.194267 -0.133755 -0.271614
v 0.000015 -0.027590 -0.303383
v -0.065519 -0.063990 -0.303131
v -0.059156 -0.001756 -0.279116
v -0.158014 0.057944 -0.229390
v -0.115002 0.029828 -0.264446
v -0.157895 0.001733 -0.229217
v 0.091780 0.242352 -0.216920
v 0.049002 0.186039 -0.205138
v 0.169288 0.307897 -0.173924
v 0.127512 0.270658 -0.192133
v 0.124296 0.134762 -0.173616
v 0.139774 0.209794 -0.200924
v 0.192772 0.191168 -0.198105
v 0.249718 0.304399 -0.020560
v 0.199488 0.268866 -0.046967
v 0.322065 0.266423 -0.107375
v 0.266863 0.279829 -0.077272
v 0.303637 0.239569 -0.060013
v 0.212853 0.308850 -0.090470
v 0.221004 0.348457 -0.144733
v 0.318640 0.058294 -0.158883
v 0.319370 0.103950 -0.146093
v 0.357357 0.076641 -0.126996
v 0.264196 0.170836 -0.197262
v 0.276764 0.130564 -0.161978
v 0.265750 0.119493 -0.211045
v 0.327291 0.158309 -0.092186
v 0.308013 0.147354 -0.128751
v 0.317998 0.199553 -0.120837
v 0.233501 0.283794 -0.162938
v 0.268748 0.232365 -0.135413
v 0.246791 0.223734 -0.179582
v 0.288705 -0.182541 0.024565
v 0.257651 -0.184679 0.061506
v 0.196776 -0.185700 0.034279
v 0.290653 -0.169524 0.097603
v 0.294896 -0.187449 0.086165
v 0.317909 -0.172604 0.063588
v 0.144455 -0.187555 0.094386
v 0.207829 -0.187234 0.089063
v 0.177995 -0.185135 0.117231
v 0.334859 -0.000087 0.167726
v 0.333990 -0.047688 0.153535
v 0.391407 -0.021446 0.139870
v 0.248984 -0.103061 0.186619
v 0.290098 -0.075762 0.170537
v 0.241341 -0.051601 0.192363
v 0.415605 -0.132940 0.117899
v 0.352115 -0.104527 0.147977
v 0.351559 -0.153195 0.134367
v 0.032318 -0.168607 0.199080
v 0.079750 -0.150983 0.189171
v 0.052829 -0.137688 0.221932
v 0.153745 -0.184277 0.158657
v 0.113367 -0.169837 0.171512
v 0.095635 -0.186391 0.156111
v 0.147780 -0.094934 0.207229
v 0.131367 -0.138325 0.189552
v 0.182364 -0.122801 0.188125
v 0.287509 -0.171160 0.145629
v 0.232183 -0.149276 0.169667
v 0.222637 -0.181509 0.156077
v 0.148429 -0.178141 0.035079
v 0.153648 -0.186085 0.000369
v 0.093774 -0.185884 0.096908
v 0.116146 -0.185410 0.065150
v 0.054399 -0.175491 0.000369
v 0.089640 -0.174329 0.034776
v 0.032428 -0.175932 0.033743
v -0.037990 -0.183481 0.234162
v 0.000015 -0.182916 0.184563
v -0.063546 -0.186872 0.134630
v -0.031432 -0.185935 0.153340
v -0.096353 -0.186654 0.157331
v 0.032086 -0.186653 0.156368
v 0.063895 -0.186711 0.135301
v -0.147920 -0.187291 0.000369
v -0.117526 -0.186057 0.027858
v -0.163842 -0.184305 0.028609
v -0.035424 -0.158728 0.036860
v -0.076145 -0.187355 0.029607
v -0.052482 -0.180030 0.000369
v -0.126845 -0.182780 0.082944
v -0.095833 -0.184100 0.053836
v -0.088642 -0.187486 0.091656
v 0.036390 -0.170154 0.112728
v -0.036377 -0.170066 0.112783
v 0.000015 -0.156115 0.076005
v 0.153441 -0.173377 -0.035514
v 0.218491 -0.175633 -0.037285
v 0.033729 -0.169482 -0.034345
v 0.086232 -0.179545 -0.032730
v 0.180463 -0.168945 -0.117087
v 0.134733 -0.167191 -0.074782
v 0.107210 -0.171577 -0.110005
v -0.176220 -0.187183 -0.030005
v -0.130678 -0.187193 -0.030197
v -0.086914 -0.187551 -0.089139
v -0.103084 -0.187108 -0.057144
v -0.124940 -0.181716 -0.080967
v -0.078406 -0.186586 -0.029738
v -0.032339 -0.176187 -0.032946
v 0.034117 -0.174475 -0.209409
v 0.000015 -0.178441 -0.173495
v -0.037342 -0.182339 -0.229436
v 0.064091 -0.186603 -0.134979
v 0.032415 -0.186948 -0.157230
v 0.102633 -0.187542 -0.166774
v -0.087410 -0.181340 -0.142028
v -0.025639 -0.169267 -0.124421
v -0.048436 -0.174981 -0.101975
v 0.000015 -0.176292 -0.067924
v -0.027096 -0.185692 -0.083378
v 0.030741 -0.186927 -0.094541
v 0.287005 -0.172408 -0.067735
v 0.302592 -0.177362 -0.024992
v 0.212799 -0.185075 -0.139346
v 0.221781 -0.187230 -0.094281
v 0.325359 -0.174985 -0.064333
v 0.297018 -0.187515 -0.086045
v 0.298588 -0.172482 -0.099521
v 0.060840 -0.157667 -0.254803
v 0.087525 -0.163314 -0.206844
v 0.187671 -0.127185 -0.192853
v 0.123290 -0.128794 -0.177182
v 0.144720 -0.092351 -0.202209
v 0.112870 -0.169341 -0.170026
v 0.151065 -0.183206 -0.155160
v 0.406236 -0.023389 -0.144418
v 0.376575 -0.057572 -0.172329
v 0.348115 -0.001272 -0.173615
v 0.337476 -0.147474 -0.128262
v 0.349548 -0.103547 -0.146164
v 0.354407 -0.109299 -0.099855
v 0.287770 -0.067267 -0.228563
v 0.332208 -0.091090 -0.194502
v 0.270101 -0.114332 -0.201680
v 0.207586 -0.175438 -0.144813
v 0.232499 -0.149468 -0.169161
v 0.257649 -0.157809 -0.129805
v 0.296661 -0.185619 0.000369
v 0.298031 -0.129106 -0.034942
v 0.285381 -0.158989 -0.018518
v 0.307279 -0.168140 0.020704
v 0.337756 -0.147592 0.040386
v 0.463337 0.029828 -0.129599
v 0.421022 -0.021962 -0.103466
v 0.432159 -0.020455 -0.022530
v 0.401635 -0.017834 -0.057845
v 0.437271 0.029828 -0.038388
v 0.375341 -0.063598 -0.078163
v 0.333577 -0.095033 -0.056492
v 0.448046 -0.025286 0.110868
v 0.447579 0.029828 0.125916
v 0.372556 -0.109623 0.063874
v 0.430893 -0.077426 0.090523
v 0.436306 0.029828 0.039039
v 0.424676 -0.020568 0.061921
v 0.430684 -0.020284 0.023189
v 0.302516 -0.084520 -0.016989
v 0.371952 -0.058955 0.000369
v 0.329393 -0.094680 0.019268
v 0.054346 -0.097845 0.243101
v 0.148711 -0.049540 0.218685
v 0.105933 -0.074524 0.234223
v 0.060475 -0.056723 0.280361
v 0.067770 -0.006337 0.320391
v 0.266579 0.029828 0.168003
v 0.230745 0.089860 0.237941
v 0.244675 0.057470 0.196215
v 0.221953 0.004752 0.178026
v 0.209866 -0.024772 0.216443
v 0.057251 0.164326 0.256078
v 0.058708 0.061155 0.277588
v 0.051342 0.103306 0.238069
v 0.115616 0.143719 0.255600
v 0.162681 0.116651 0.239195
v 0.186665 -0.003381 0.271739
v 0.167915 0.059700 0.244478
v 0.121390 0.029828 0.279820
v -0.196328 -0.179218 0.046961
v -0.178629 -0.185318 0.117667
v -0.178247 -0.178635 0.076451
v -0.265353 -0.183331 0.077578
v -0.286339 -0.167817 0.096170
v -0.097261 -0.175224 0.230708
v -0.185024 -0.125042 0.190896
v -0.161291 -0.166315 0.232696
v -0.131516 -0.183289 0.198963
v -0.157626 -0.185570 0.162685
v -0.311001 -0.042359 0.143007
v -0.329829 -0.144196 0.126096
v -0.313660 -0.089865 0.131869
v -0.299631 -0.079243 0.176147
v -0.258329 -0.108065 0.193633
v -0.239482 -0.185832 0.167880
v -0.243426 -0.155813 0.177888
v -0.256909 -0.157445 0.130184
v -0.107140 -0.183215 -0.253363
v -0.136921 -0.175075 -0.140630
v -0.137958 -0.185851 -0.207951
v -0.168548 -0.171352 -0.242412
v -0.234429 -0.159196 -0.241029
v -0.198624 -0.180181 -0.046769
v -0.281442 -0.165771 -0.093795
v -0.231587 -0.171313 -0.067017
v -0.177463 -0.178247 -0.075379
v -0.172743 -0.183452 -0.113065
v -0.353104 -0.052131 -0.161579
v -0.291686 -0.125846 -0.217851
v -0.319113 -0.086335 -0.186839
v -0.333154 -0.097303 -0.139304
v -0.331676 -0.145003 -0.126063
v -0.209689 -0.176425 -0.146305
v -0.270043 -0.163844 -0.136082
v -0.269444 -0.168564 -0.196123
v 0.331784 0.029828 -0.208271
v 0.260016 -0.037820 -0.267343
v 0.298289 -0.003872 -0.238396
v 0.301759 0.063920 -0.241174
v 0.227067 0.088903 -0.233417
v 0.063631 -0.119662 -0.283843
v 0.061760 -0.003129 -0.291266
v 0.063704 -0.061346 -0.294578
v 0.107615 -0.076181 -0.237199
v 0.172566 -0.062272 -0.252972
v 0.049080 0.145126 -0.218837
v 0.142136 0.105685 -0.208294
v 0.094538 0.122953 -0.208327
v 0.053180 0.105936 -0.245842
v 0.059412 0.061531 -0.280177
v 0.192603 -0.004437 -0.279635
v 0.121723 0.029828 -0.279848
v 0.175903 0.061121 -0.255354
v 0.380388 0.076619 0.094181
v 0.449224 0.082097 0.024171
v 0.421548 0.079852 0.061468
v 0.381518 0.124791 0.080192
v 0.358713 0.164097 0.061514
v 0.405847 0.079751 -0.099723
v 0.350925 0.161182 -0.059449
v 0.408670 0.131550 -0.085136
v 0.446735 0.082841 -0.064382
v 0.487545 0.086556 -0.025465
v 0.305476 0.296778 0.000369
v 0.320939 0.201123 0.038393
v 0.277760 0.220517 0.018750
v 0.282877 0.224030 -0.018352
v 0.317862 0.199480 -0.037292
v 0.399211 0.125117 0.000369
v 0.348578 0.161587 -0.019632
v 0.346884 0.160947 0.020272
vn -0.640146 0.408902 0.650394
vn -0.233155 0.365943 0.900957
vn -0.514939 0.089987 0.852490
vn -0.415939 0.105483 0.903254
vn 0.036872 0.394041 0.918353
vn -0.294942 0.455968 0.839704
vn 0.088073 0.903630 0.419160
vn 0.021083 0.369703 0.928911
vn -0.102636 0.875151 -0.472839
vn -0.095324 0.112084 0.989116
vn -0.792854 0.565229 -0.227814
vn -0.075875 0.894752 -0.440069
vn -0.269634 0.641295 0.718358
vn -0.160351 0.621885 0.766515
vn -0.521627 0.096697 0.847676
vn -0.158743 0.594075 0.788591
vn -0.754883 -0.085691 0.650238
vn -0.697541 0.200361 0.687962
vn -0.526964 -0.047417 0.848564
vn -0.665256 0.208670 0.716862
vn -0.805745 0.569615 0.162215
vn -0.765657 0.595231 0.243866
vn -0.830824 0.507862 0.227613
vn -0.764504 0.600121 0.235347
vn -0.309420 0.550407 0.775443
vn -0.208980 0.169043 0.963199
vn -0.192856 0.139562 0.971251
vn -0.225067 0.133697 0.965127
vn -0.457400 0.586129 0.668758
vn -0.310164 0.633348 0.708992
vn -0.287142 0.471057 0.834059
vn -0.431050 0.487871 0.759064
vn 0.263371 0.562711 0.783576
vn -0.114565 0.415303 0.902440
vn -0.462683 0.515744 0.721064
vn -0.222198 0.738966 0.636048
vn -0.090381 0.986132 -0.139196
vn -0.602471 0.379972 0.701890
vn -0.530386 0.847296 -0.027932
vn -0.020360 0.900862 0.433627
vn -0.581912 0.681298 0.444085
vn -0.272350 0.914682 0.298633
vn -0.110742 0.646958 0.754442
vn -0.194176 0.912674 0.359614
vn -0.481206 0.494336 0.723929
vn -0.509713 0.212967 0.833569
vn -0.745316 0.510062 0.429350
vn -0.647449 0.225458 0.727996
vn 0.049452 0.852069 0.521088
vn -0.201517 0.123547 0.971662
vn -0.305459 0.939329 -0.156064
vn -0.358437 0.920413 -0.156085
vn -0.772123 0.614785 0.160825
vn -0.479985 0.722901 0.497019
vn -0.931116 0.272566 0.242343
vn -0.756945 0.316595 0.571665
vn -0.138242 0.972968 -0.184991
vn -0.794990 0.564209 -0.222843
vn -0.686413 0.379892 0.620096
vn -0.701364 0.711963 0.034592
vn -0.838953 0.028822 0.543440
vn -0.472859 0.681993 0.557933
vn -0.395546 0.863115 -0.313969
vn -0.508416 0.683804 0.523379
vn -0.294450 0.818816 0.492789
vn -0.000510 0.644496 0.764607
vn -0.210049 0.622016 0.754305
vn -0.007785 0.752235 0.658849
vn -0.454592 0.811336 -0.367532
vn -0.060166 0.419623 0.905702
vn 0.056486 0.234734 0.970417
vn -0.255930 0.263213 0.930171
vn 0.105042 0.932229 0.346287
vn 0.262925 0.551721 0.791501
vn -0.285388 0.775481 0.563190
vn -0.286004 0.777425 0.560190
vn 0.055937 0.622355 0.780734
vn -0.142585 0.861069 0.488088
vn 0.161049 0.511804 0.843872
vn 0.199171 0.696034 0.689832
vn 0.244931 0.550804 0.797887
vn 0.160503 0.698057 0.697822
vn 0.294955 0.702819 0.647339
vn 0.249823 0.744763 0.618803
vn 0.272720 0.923868 -0.268498
vn 0.089110 0.973013 -0.212850
vn 0.210550 0.723890 0.657002
vn 0.176863 0.970928 -0.161305
vn 0.060336 0.976268 -0.207990
vn 0.041398 0.957142 -0.286646
vn -0.400505 0.913883 0.066427
vn 0.045499 0.973897 -0.222382
vn 0.160517 0.698492 0.697383
vn -0.331438 0.930345 0.156865
vn 0.211074 0.964893 -0.156299
vn -0.342262 0.902529 0.261340
vn 0.174365 0.932667 -0.315799
vn 0.261794 0.705882 0.658175
vn -0.221802 0.576198 0.786638
vn -0.292545 0.912292 0.286601
vn 0.012333 0.345469 0.938349
vn 0.175866 0.929850 -0.323187
vn 0.261128 0.344188 0.901857
vn 0.068758 0.324483 0.943389
vn 0.268571 0.909336 0.317770
vn 0.629516 0.775974 0.039674
vn -0.028180 0.962287 0.270573
vn 0.252288 0.848429 0.465317
vn -0.146861 0.575375 0.804596
vn 0.006509 0.915860 -0.401445
vn 0.620181 0.731455 0.283459
vn -0.184391 0.960822 -0.206931
vn 0.072368 0.984455 0.160032
vn -0.320918 0.357030 0.877235
vn -0.703530 0.511920 0.492934
vn -0.655787 0.420394 0.627066
vn 0.345860 0.906785 0.241084
vn 0.105765 0.983632 0.145880
vn 0.104203 0.991998 0.071291
vn 0.103089 0.992044 0.072260
vn 0.578183 0.451244 0.679767
vn -0.363108 0.786470 0.499618
vn 0.503399 0.629348 -0.592039
vn 0.626778 0.610406 -0.484307
vn 0.504674 0.771841 0.386737
vn 0.640653 0.535408 0.550365
vn -0.384753 0.896098 0.221299
vn 0.419257 0.500548 0.757414
vn -0.320224 0.890489 -0.323242
vn -0.231435 0.685346 -0.690463
vn 0.014256 0.623016 -0.782079
vn 0.003605 0.824592 -0.565717
vn 0.077288 0.685921 -0.723560
vn 0.454558 0.859584 -0.233437
vn 0.377235 0.791588 -0.480709
vn 0.416056 0.750428 -0.513572
vn -0.177628 0.975378 -0.130712
vn -0.321908 0.939110 0.120201
vn -0.069088 0.997115 0.031445
vn -0.180956 0.982716 -0.039044
vn -0.063220 0.644525 -0.761965
vn -0.032696 0.788936 -0.613605
vn -0.252729 0.694097 -0.674060
vn -0.082825 0.808231 -0.583012
vn 0.182682 0.977154 -0.108618
vn 0.680016 0.716084 0.157485
vn 0.281489 0.758985 0.587116
vn 0.607085 0.655954 0.448521
vn 0.512762 0.784132 -0.349590
vn 0.173558 0.946109 0.273412
vn 0.648340 0.699026 0.301691
vn 0.511333 0.855405 0.082584
vn 0.035673 0.999237 0.015906
vn 0.539138 0.710630 0.452035
vn 0.092276 0.960986 0.260752
vn 0.094849 0.995236 -0.022540
vn 0.682340 0.712923 0.161717
vn 0.175418 0.960529 0.215899
vn 0.280621 0.759916 0.586327
vn 0.325900 0.869071 0.372162
vn -0.120243 0.267019 -0.956160
vn -0.167623 -0.013344 -0.985761
vn -0.036865 -0.021557 -0.999088
vn -0.090848 -0.053450 -0.994429
vn -0.168887 0.566616 -0.806488
vn 0.008529 0.987275 -0.158792
vn -0.291169 0.051345 -0.955293
vn -0.493722 0.695094 -0.522573
vn 0.500976 0.634656 -0.588417
vn 0.163151 0.106175 -0.980871
vn -0.437906 0.863662 -0.249653
vn 0.252205 0.539877 -0.803072
vn -0.171969 0.005872 -0.985085
vn -0.160161 0.987060 0.007861
vn -0.038763 0.015661 -0.999126
vn -0.103273 0.051642 -0.993312
vn -0.394834 0.827598 -0.398982
vn -0.313216 0.939772 -0.136838
vn -0.066253 0.953189 0.295027
vn -0.415003 0.909622 -0.018971
vn 0.520622 0.782898 -0.340622
vn -0.429926 0.889770 -0.153209
vn -0.133520 0.990847 -0.019863
vn -0.129210 0.985683 0.108323
vn -0.186353 0.974869 -0.122080
vn -0.162714 0.978974 0.123024
vn 0.008752 0.960190 -0.279212
vn -0.179648 0.976697 -0.117430
vn -0.298249 0.946500 0.123232
vn -0.171253 0.891517 -0.419369
vn -0.069832 0.979658 0.188130
vn -0.146153 0.957042 0.250420
vn -0.154006 0.963694 -0.218119
vn 0.057470 0.653115 -0.755075
vn -0.484367 0.536009 -0.691435
vn -0.186052 0.837272 -0.514160
vn -0.709008 0.544162 -0.448549
vn -0.294292 0.382736 -0.875731
vn -0.242690 0.957247 0.157417
vn -0.240113 0.447058 -0.861676
vn -0.249551 0.163886 -0.954393
vn -0.236732 0.269703 -0.933391
vn -0.917754 0.095857 -0.385408
vn -0.223179 0.213072 -0.951205
vn 0.111737 0.897814 -0.425963
vn -0.851695 0.408115 -0.328721
vn -0.319017 0.139722 -0.937393
vn -0.626757 0.090594 -0.773930
vn -0.197124 0.195389 -0.960711
vn 0.368756 0.769282 -0.521751
vn -0.199618 -0.039358 -0.979083
vn -0.345724 0.233833 -0.908734
vn -0.384209 0.785199 -0.485640
vn -0.246126 0.273299 -0.929909
vn -0.023014 0.690561 -0.722907
vn -0.406318 0.770648 -0.490925
vn -0.554335 0.086027 -0.827836
vn -0.222902 0.117955 -0.967678
vn 0.003115 0.843010 -0.537889
vn -0.627388 0.171242 -0.759645
vn 0.273837 0.831997 -0.482487
vn 0.066761 0.575739 -0.814903
vn -0.137260 -0.048350 -0.989354
vn 0.362352 0.396549 -0.843475
vn -0.400556 -0.152583 -0.903478
vn -0.535352 -0.089754 -0.839846
vn -0.842525 -0.471913 -0.259710
vn -0.419735 -0.238863 -0.875652
vn -0.129677 0.803085 -0.581583
vn -0.414849 0.896656 -0.154620
vn -0.506186 0.469816 -0.723221
vn -0.130028 0.835658 -0.533637
vn -0.677467 0.051266 -0.733765
vn -0.444806 0.439576 -0.780334
vn -0.789058 0.531789 -0.307553
vn -0.640767 0.059774 -0.765405
vn -0.421694 0.219003 -0.879893
vn -0.411636 0.581815 -0.701460
vn -0.740722 0.408594 -0.533275
vn -0.658327 0.177553 -0.731492
vn -0.460603 0.083809 -0.883641
vn -0.277995 0.910062 -0.307418
vn -0.308312 0.433051 -0.847001
vn -0.207231 0.415253 -0.885788
vn -0.201144 0.752262 -0.627409
vn -0.492632 0.827976 -0.267898
vn -0.617153 0.309289 -0.723507
vn -0.213528 0.797670 -0.564029
vn -0.379349 0.582403 -0.718958
vn -0.964352 0.214706 -0.154682
vn -0.838666 0.509602 -0.192213
vn -0.833784 0.535615 -0.133866
vn -0.694495 0.536087 -0.479882
vn -0.453325 0.562800 -0.691196
vn -0.393944 0.316724 -0.862841
vn -0.473834 0.537268 -0.697728
vn -0.473848 0.415040 0.776666
vn -0.672622 0.537211 -0.508905
vn -0.185304 0.361379 0.913820
vn -0.076644 0.701769 0.708270
vn -0.670193 0.047328 -0.740676
vn -0.825329 0.509838 0.242687
vn -0.999905 0.012942 -0.004714
vn -0.789077 0.614147 0.013448
vn -0.855472 0.134670 -0.500031
vn -0.061383 0.994481 0.085088
vn -0.932174 -0.130989 0.337481
vn -0.971184 -0.194201 0.138158
vn -0.923549 -0.141712 -0.356336
vn -0.894161 0.192608 -0.404200
vn -0.241547 0.302232 0.922123
vn -0.932940 -0.152381 -0.326196
vn -0.508537 -0.215578 -0.833616
vn -0.889674 -0.064773 -0.451978
vn -0.772046 -0.210954 -0.599536
vn -0.788877 -0.009740 -0.614474
vn -0.725184 0.563507 -0.395687
vn -0.645530 0.227354 -0.729110
vn -0.364911 0.204116 -0.908392
vn -0.538450 0.543679 -0.643804
vn -0.296438 0.884061 -0.361332
vn -0.908125 0.379262 -0.177397
vn -0.950680 -0.033612 -0.308348
vn -0.758744 0.082639 -0.646126
vn -0.927128 -0.018902 -0.374269
vn -0.947458 0.100943 -0.303537
vn -0.977283 0.013660 -0.211497
vn -0.925424 0.062149 -0.373802
vn -0.726162 -0.072131 0.683730
vn -0.928083 -0.270025 0.256414
vn -0.700807 0.310210 0.642370
vn -0.945965 0.219105 0.239045
vn -0.810484 0.544663 0.215542
vn -0.941816 0.168875 0.290626
vn -0.818108 -0.019516 0.574734
vn -0.946137 0.165180 0.278462
vn -0.741015 0.183146 0.646030
vn -0.474504 0.045740 0.879064
vn -0.587638 0.349771 0.729618
vn -0.620245 0.218120 0.753472
vn -0.762991 -0.391837 0.514110
vn -0.923355 0.260489 0.282068
vn -0.480726 0.042807 0.875826
vn -0.488288 -0.184043 0.853055
vn -0.278975 0.676421 -0.681636
vn -0.988616 0.138180 0.059530
vn -0.668927 0.706424 0.231304
vn -0.736303 0.675524 0.039060
vn -0.730823 0.610131 -0.306005
vn -0.616121 0.776155 -0.134084
vn -0.748116 0.662802 0.031885
vn -0.635317 0.721812 -0.274515
vn -0.558238 0.667287 -0.493050
vn -0.606655 0.696636 0.382973
vn -0.883478 0.396320 -0.249793
vn -0.504873 0.843743 -0.182210
vn -0.988396 0.147566 0.036012
vn -0.883929 0.437407 -0.165363
vn -0.673125 0.689576 0.267184
vn -0.924119 0.247427 0.291178
vn 0.411429 0.884082 -0.221642
vn -0.061816 0.462519 0.884452
vn 0.734309 0.285920 0.615662
vn 0.494567 0.710548 0.500525
vn 0.383978 0.837595 0.388582
vn 0.448051 0.700989 0.554855
vn 0.258092 0.952983 -0.158785
vn 0.309986 0.821417 0.478731
vn -0.047114 0.869506 0.491670
vn 0.819665 0.529723 0.218042
vn 0.669459 0.008346 0.742802
vn 0.527792 0.044227 0.848222
vn -0.155436 0.847494 0.507537
vn 0.328974 0.668195 0.667302
vn 0.840899 0.489111 0.231644
vn 0.296384 0.489309 0.820203
vn 0.286290 0.508995 0.811765
vn 0.382744 0.464656 0.798500
vn 0.337915 0.532711 0.775908
vn 0.332633 0.518490 0.787733
vn 0.258216 0.104466 0.960423
vn 0.336454 0.757279 0.559756
vn 0.067836 0.203560 0.976710
vn 0.163983 0.221258 0.961330
vn 0.327575 0.912179 -0.246219
vn 0.116095 0.791357 0.600230
vn 0.506132 0.682288 0.527553
vn 0.330533 0.832366 0.444876
vn -0.063821 0.339192 0.938550
vn 0.488874 0.625462 0.608111
vn 0.027683 0.447263 0.893974
vn -0.028616 0.495972 0.867867
vn 0.393942 -0.068795 0.916557
vn 0.729986 0.240005 0.639936
vn 0.189248 -0.104386 0.976365
vn 0.434427 -0.239115 0.868388
vn 0.335392 0.928783 -0.157718
vn 0.654315 0.685279 0.319789
vn 0.827218 -0.121560 0.548574
vn 0.439361 0.688529 0.576966
vn 0.181512 0.031195 0.982894
vn 0.545454 -0.540850 0.640282
vn 0.516432 0.179904 0.837217
vn 0.406049 -0.017969 0.913675
vn 0.825940 -0.123235 0.550124
vn 0.532036 0.177273 0.827957
vn 0.279673 -0.403964 0.870974
vn 0.612233 -0.038577 0.789736
vn 0.309963 0.922940 -0.228266
vn 0.440447 0.679341 0.586943
vn 0.375658 0.900092 -0.220716
vn 0.368306 0.905486 -0.210821
vn 0.146595 0.097185 0.984411
vn 0.452315 0.302471 0.839001
vn -0.056741 0.620830 0.781889
vn 0.210878 0.274751 0.938106
vn -0.041042 0.994822 -0.092974
vn 0.489372 0.558415 -0.669842
vn 0.422516 0.863033 0.276865
vn 0.229798 0.758865 -0.609358
vn 0.009099 0.939732 0.341792
vn 0.548458 0.832115 0.082329
vn 0.243962 0.939832 -0.239162
vn 0.276358 0.960568 0.030569
vn 0.324217 0.204088 0.923705
vn -0.236585 -0.017988 0.971444
vn 0.215012 -0.172188 0.961312
vn 0.180950 0.008158 0.983459
vn -0.168614 -0.264583 0.949508
vn -0.663269 0.095071 0.742318
vn -0.076826 0.334851 0.939134
vn -0.410650 -0.311836 0.856811
vn 0.273719 0.581202 0.766344
vn 0.236464 0.018961 0.971455
vn 0.199636 0.354273 0.913584
vn 0.392503 0.321408 0.861765
vn -0.040683 0.333662 0.941815
vn 0.260155 0.149499 0.953923
vn 0.265282 -0.105248 0.958409
vn 0.101935 -0.119161 0.987628
vn -0.594147 -0.288356 0.750893
vn -0.972334 -0.156072 0.173804
vn -0.706504 0.222311 0.671886
vn -0.907406 -0.311792 0.281780
vn 0.031116 -0.614718 0.788133
vn -0.475975 -0.050132 0.878029
vn -0.560407 -0.044069 0.827044
vn -0.472764 -0.044272 0.880076
vn -0.479127 -0.283329 0.830760
vn -0.839431 0.453853 0.298952
vn 0.040411 0.086683 0.995416
vn -0.059537 0.355434 0.932803
vn -0.492064 -0.148834 0.857742
vn -0.206706 -0.399100 0.893304
vn -0.960816 0.211390 0.179296
vn -0.621113 -0.482865 0.617301
vn 0.136224 -0.356111 0.924461
vn 0.135651 -0.097038 0.985993
vn 0.081386 -0.274815 0.958046
vn 0.090736 -0.274735 0.957229
vn -0.061782 -0.274816 0.959510
vn 0.138459 -0.058769 0.988623
vn 0.158840 -0.314753 0.935789
vn 0.015921 -0.058183 0.998179
vn -0.778932 -0.133605 0.612711
vn -0.506330 0.175689 0.844253
vn -0.478701 -0.578026 0.660857
vn -0.348249 -0.200197 0.915775
vn 0.196553 -0.192672 0.961376
vn -0.046325 -0.590707 0.805555
vn -0.151158 0.141872 0.978276
vn -0.301678 -0.189621 0.934363
vn -0.157122 -0.242630 0.957311
vn -0.350941 0.115146 0.929291
vn -0.653193 0.122713 0.747182
vn -0.352511 0.112092 0.929070
vn -0.372915 -0.743728 0.554801
vn -0.647783 -0.324566 0.689227
vn -0.346025 -0.047618 0.937016
vn -0.210434 -0.296262 0.931637
vn -0.129701 -0.155611 0.979266
vn -0.100124 -0.208612 0.972860
vn 0.027062 0.149875 0.988334
vn -0.131003 -0.155627 0.979091
vn -0.308047 0.026770 0.950995
vn -0.431713 0.164876 0.886815
vn -0.477479 -0.217311 0.851346
vn -0.370186 0.027237 0.928558
vn -0.692664 -0.308003 0.652189
vn -0.737018 -0.020549 0.675561
vn -0.488946 -0.288779 0.823127
vn -0.517031 -0.099192 0.850200
vn -0.746828 -0.135350 0.651098
vn -0.443896 -0.453704 0.772728
vn -0.469150 -0.156476 0.869146
vn -0.507837 -0.209606 0.835564
vn -0.970242 -0.144424 0.194353
vn -0.997524 -0.055801 0.042792
vn -0.400326 -0.214566 0.890899
vn -0.976927 0.031026 0.211309
vn -0.762835 -0.045956 0.644958
vn -0.333993 -0.435584 0.835892
vn -0.651624 -0.757616 -0.037461
vn -0.442907 -0.795018 0.414464
vn -0.456968 0.479642 -0.749082
vn -0.996591 -0.049716 0.065838
vn -0.886407 -0.107224 -0.450318
vn -0.997702 0.032626 0.059377
vn -0.777639 -0.311224 0.546275
vn -0.830026 -0.475343 -0.291729
vn -0.948971 -0.007496 0.315275
vn -0.844016 -0.132472 0.519700
vn -0.876963 -0.044400 -0.478503
vn -0.344232 -0.383666 -0.856916
vn -0.260621 -0.350981 -0.899383
vn -0.281544 -0.243872 -0.928041
vn -0.920593 -0.194055 0.338898
vn -0.904754 -0.278138 -0.322583
vn -0.950837 -0.282241 -0.127473
vn -0.918656 -0.376268 -0.120391
vn -0.132938 -0.975318 0.176304
vn 0.070943 -0.995619 0.060911
vn -0.029333 -0.973060 -0.228679
vn 0.061121 -0.992465 0.106193
vn -0.720688 -0.514964 -0.464135
vn -0.972123 -0.129834 -0.195243
vn -0.339335 -0.940286 -0.026719
vn -0.973388 -0.228205 -0.020934
vn -0.295721 -0.870990 0.392334
vn -0.239219 -0.940879 -0.239835
vn -0.855462 -0.251849 0.452501
vn -0.630197 -0.683267 -0.368780
vn -0.495535 -0.815727 0.298386
vn -0.999545 0.006416 0.029464
vn -0.296855 -0.853582 -0.428106
vn -0.731732 -0.680979 0.028918
vn -0.881690 -0.386781 0.270228
vn -0.346956 -0.911024 -0.222838
vn -0.488493 -0.871983 0.031956
vn -0.447731 -0.879663 0.160407
vn -0.778317 -0.310869 0.545513
vn -0.824138 -0.336014 0.455952
vn -0.609025 -0.651961 0.451704
vn -0.792832 -0.349121 0.499532
vn -0.775995 -0.419826 -0.470720
vn -0.578092 -0.726831 0.370845
vn -0.468345 -0.867824 -0.165938
vn -0.568341 -0.735645 0.368530
vn -0.438390 -0.862053 -0.254322
vn -0.513347 -0.643832 -0.567410
vn -0.729008 -0.683281 0.040923
vn -0.451823 -0.710070 -0.540052
vn -0.268592 -0.318081 -0.909221
vn -0.583762 -0.672816 -0.454467
vn -0.847274 0.117331 -0.518035
vn -0.499549 -0.389865 -0.773599
vn -0.238462 -0.466000 -0.852045
vn -0.032433 -0.031369 -0.998982
vn -0.195172 -0.107837 -0.974823
vn -0.009175 -0.085085 -0.996331
vn -0.425880 0.617331 -0.661460
vn -0.507287 0.274523 -0.816883
vn -0.425275 -0.175476 -0.887890
vn -0.199028 0.221818 -0.954560
vn -0.456402 -0.649205 -0.608466
vn -0.226840 -0.412055 -0.882470
vn -0.417810 0.098600 -0.903168
vn -0.679070 -0.492288 -0.544533
vn -0.149936 0.078510 -0.985574
vn -0.314954 0.624856 -0.714394
vn 0.477875 0.110811 -0.871411
vn -0.139756 0.096605 -0.985462
vn 0.021325 0.341673 -0.939577
vn -0.388048 0.511863 -0.766430
vn 0.161226 0.781854 -0.602255
vn -0.053062 0.526434 -0.848559
vn -0.034565 -0.173412 -0.984243
vn 0.098610 0.264103 -0.959440
vn -0.351440 0.131934 -0.926868
vn -0.178171 -0.204848 -0.962441
vn 0.031758 0.922905 -0.383715
vn -0.265182 0.138149 -0.954250
vn 0.535013 0.212234 -0.817752
vn 0.298573 0.862089 -0.409458
vn 0.222215 -0.873756 -0.432632
vn 0.180567 -0.209150 -0.961068
vn -0.085331 -0.026848 -0.995991
vn -0.139917 -0.197542 -0.970258
vn -0.158272 0.406685 -0.899754
vn -0.594570 -0.127005 -0.793950
vn -0.218100 0.401459 -0.889530
vn -0.232834 0.425467 -0.874509
vn -0.437835 -0.174369 -0.881984
vn 0.034918 -0.069761 -0.996952
vn -0.193616 0.370364 -0.908484
vn -0.209310 0.370588 -0.904905
vn -0.136548 0.388721 -0.911181
vn -0.448685 -0.144386 -0.881949
vn 0.000638 -0.171131 -0.985248
vn -0.444957 -0.152877 -0.882407
vn -0.191067 -0.454037 -0.870255
vn -0.484396 -0.176936 -0.856769
vn -0.359204 -0.039004 -0.932444
vn -0.417407 -0.176922 -0.891330
vn -0.337557 -0.352085 -0.872978
vn -0.120806 0.234425 -0.964599
vn -0.635025 0.055697 -0.770481
vn -0.416618 -0.346240 -0.840563
vn -0.263012 0.586545 -0.766022
vn -0.459912 -0.177603 -0.870022
vn -0.694129 0.239357 -0.678891
vn -0.624159 0.244599 -0.742022
vn -0.608442 0.056207 -0.791605
vn -0.702374 0.225898 -0.675012
vn -0.377852 -0.003652 -0.925859
vn -0.633232 -0.003725 -0.773953
vn 0.136385 0.061993 -0.988714
vn -0.214206 0.101650 -0.971485
vn 0.176603 -0.328296 -0.927919
vn -0.225624 -0.032317 -0.973678
vn 0.651675 0.402539 -0.642870
vn 0.291038 0.136524 -0.946920
vn 0.265700 0.012980 -0.963968
vn 0.380807 0.024767 -0.924323
vn -0.439922 0.149624 -0.885484
vn 0.127217 -0.362281 -0.923346
vn 0.177629 0.367278 -0.912992
vn -0.065631 -0.329272 -0.941951
vn 0.407321 0.254012 -0.877250
vn 0.324526 0.198934 -0.924721
vn 0.089662 -0.329605 -0.939852
vn 0.436530 0.214148 -0.873832
vn 0.412782 0.876792 -0.246671
vn 0.047062 0.552109 -0.832442
vn 0.971133 0.149891 -0.185561
vn 0.303949 0.252923 -0.918502
vn 0.860970 0.218926 0.459131
vn 0.395514 0.850600 0.346479
vn 0.751610 0.655667 -0.071999
vn 0.472860 0.674812 0.566597
vn 0.309051 0.923537 -0.227085
vn 0.811015 0.554263 0.187207
vn 0.468985 0.678360 0.565581
vn 0.637046 0.573910 0.514587
vn -0.058435 0.973258 0.222157
vn 0.375549 0.858127 0.350115
vn 0.778663 0.324197 0.537196
vn 0.200658 0.689793 0.695645
vn 0.279490 0.645506 -0.710779
vn 0.770043 0.160640 -0.617437
vn 0.378514 -0.115678 -0.918339
vn 0.557883 0.215575 -0.801432
vn 0.155329 0.260497 -0.952898
vn 0.967852 0.242003 -0.068537
vn 0.839562 0.458213 -0.291849
vn 0.966778 0.093161 -0.238035
vn 0.983143 0.138991 -0.118794
vn 0.236352 0.889476 -0.391115
vn 0.403692 0.061176 -0.912847
vn 0.892312 -0.104092 -0.439254
vn 0.566129 0.528968 -0.632211
vn 0.548780 0.414889 -0.725746
vn 0.165311 0.402933 -0.900176
vn 0.538825 0.430355 -0.724198
vn 0.231341 0.356505 -0.905199
vn 0.685794 0.316984 -0.655140
vn 0.214627 0.130616 -0.967923
vn 0.271948 0.309126 -0.911310
vn 0.993267 -0.038418 -0.109293
vn 0.365391 0.139628 -0.920322
vn 0.352326 0.200907 -0.914058
vn 0.377013 0.160697 -0.912161
vn 0.107607 0.339266 -0.934515
vn 0.107887 0.350257 -0.930419
vn 0.940416 0.332774 -0.069850
vn 0.109888 0.347413 -0.931251
vn 0.744850 0.164374 -0.646668
vn 0.889981 0.053429 -0.452856
vn 0.092882 0.284933 -0.954037
vn 0.824661 0.313034 -0.471110
vn -0.006803 -0.930235 -0.366902
vn -0.077241 -0.989494 -0.122213
vn 0.022727 -0.999653 -0.013341
vn 0.030971 -0.999014 -0.031797
vn 0.063286 -0.988100 0.140192
vn 0.658405 -0.287916 0.695419
vn 0.741353 -0.536923 0.402628
vn 0.751649 -0.219073 0.622118
vn -0.032187 -0.987873 0.151893
vn 0.002654 -0.999585 -0.028682
vn -0.014529 -0.998153 0.058980
vn 0.012382 -0.996103 0.087329
vn -0.054622 -0.998068 -0.029611
vn -0.001245 -0.999325 0.036705
vn 0.020337 -0.998236 -0.055786
vn -0.005878 -0.994679 -0.102854
vn 0.425081 -0.053091 0.903597
vn 0.273637 -0.279380 0.920364
vn 0.191895 0.089116 0.977361
vn 0.339550 -0.274413 0.899668
vn 0.324095 -0.057266 0.944290
vn 0.375186 -0.019113 0.926753
vn 0.397902 -0.025460 0.917075
vn 0.389575 -0.044819 0.919904
vn 0.375135 -0.783908 0.494734
vn 0.234164 -0.409953 0.881536
vn 0.421148 -0.248720 0.872223
vn 0.316515 -0.258816 0.912597
vn 0.377929 -0.030476 0.925333
vn 0.328990 -0.030951 0.943826
vn 0.143539 -0.050885 0.988336
vn 0.349978 0.020011 0.936544
vn 0.552898 -0.700400 0.451381
vn 0.389933 -0.745622 0.540371
vn 0.356550 -0.726263 0.587719
vn 0.385664 -0.700042 0.601003
vn 0.038742 -0.997681 -0.055968
vn 0.079963 -0.528680 0.845047
vn 0.043226 -0.704939 0.707950
vn -0.007641 -0.676729 0.736192
vn 0.176406 -0.398184 0.900183
vn 0.397949 -0.471192 0.787156
vn 0.158220 -0.438394 0.884747
vn 0.153486 -0.422041 0.893490
vn 0.034703 -0.649525 0.759548
vn 0.080068 -0.529289 0.844655
vn 0.164282 -0.691122 0.703819
vn 0.127978 -0.546795 0.827428
vn 0.068776 -0.949036 0.307572
vn 0.282810 -0.492202 0.823259
vn 0.474724 -0.880134 0.001093
vn 0.267529 -0.963428 -0.015307
vn 0.135495 -0.387722 0.911763
vn 0.107908 -0.423893 0.899261
vn 0.168109 -0.392761 0.904145
vn 0.134417 -0.383951 0.913517
vn -0.025108 -0.999667 0.006006
vn -0.016230 -0.993641 0.111419
vn 0.052800 -0.518409 0.853501
vn 0.041805 -0.998105 0.045144
vn 0.186103 -0.474523 0.860345
vn 0.106121 -0.412824 0.904608
vn 0.199757 -0.924542 0.324528
vn 0.210169 -0.432013 0.877037
vn 0.141959 -0.975257 -0.169473
vn -0.155167 -0.976986 -0.146362
vn -0.073894 -0.974491 0.211910
vn -0.148146 -0.968653 0.199409
vn -0.024275 -0.985920 0.165445
vn -0.120223 -0.987754 -0.099437
vn -0.021250 -0.998386 -0.052673
vn -0.034889 -0.998611 -0.039484
vn -0.014154 -0.999646 -0.022514
vn -0.133650 -0.976362 0.169868
vn 0.030126 -0.990933 -0.130939
vn 0.027912 -0.999597 0.005178
vn -0.016808 -0.967596 -0.251944
vn -0.122552 -0.962000 -0.244001
vn -0.064415 -0.977608 0.200331
vn -0.060300 -0.953521 -0.295232
vn 0.346576 -0.881438 0.320861
vn 0.059977 -0.997601 0.034583
vn 0.211503 -0.889168 0.405766
vn 0.308054 -0.924256 0.225508
vn 0.006417 -0.999801 0.018886
vn 0.016865 -0.999635 0.021085
vn 0.010600 -0.999916 -0.007509
vn 0.012784 -0.999524 0.028084
vn 0.045266 -0.997530 -0.053714
vn 0.005759 -0.758805 0.651293
vn -0.016650 -0.999610 -0.022406
vn 0.004161 -0.999951 0.009019
vn 0.060228 -0.997542 0.035820
vn -0.009627 -0.999341 -0.034985
vn 0.200095 -0.915526 0.348963
vn -0.016606 -0.993477 0.112813
vn -0.049735 -0.995773 0.077223
vn -0.004460 -0.998751 0.049760
vn -0.034792 -0.987089 0.156351
vn -0.036278 -0.995737 0.084806
vn 0.088754 -0.877722 0.470880
vn 0.576855 -0.816703 -0.015301
vn 0.186322 -0.977962 -0.094200
vn 0.532731 -0.815298 0.226908
vn -0.100288 -0.990388 -0.095253
vn -0.066486 -0.997458 -0.025619
vn 0.183746 -0.975338 -0.122281
vn -0.106564 -0.991939 -0.068570
vn -0.032350 -0.999193 0.023790
vn 0.059598 -0.981799 0.180328
vn -0.065877 -0.989383 0.129543
vn -0.035598 -0.993877 0.104598
vn 0.094016 -0.994224 0.051757
vn -0.040677 -0.828680 -0.558242
vn -0.254925 -0.966287 0.036084
vn -0.323266 -0.906645 -0.271097
vn 0.007803 -0.999922 0.009746
vn 0.312374 -0.949901 0.010486
vn 0.049417 -0.820400 -0.569651
vn 0.385090 -0.898190 -0.212039
vn -0.232932 -0.953424 0.191639
vn -0.305937 -0.930451 0.201650
vn 0.365914 -0.890056 -0.271859
vn -0.225351 -0.937100 0.266573
vn -0.001432 -0.854959 -0.518694
vn 0.346508 -0.937958 -0.012908
vn -0.340318 -0.940046 -0.022287
vn -0.001406 -0.934533 -0.355874
vn 0.143992 -0.989221 -0.026604
vn -0.071306 -0.940360 -0.332625
vn -0.031365 -0.993055 0.113390
vn -0.041751 -0.941884 -0.333335
vn -0.013969 -0.986611 -0.162490
vn -0.181514 -0.971463 -0.152683
vn -0.135615 -0.990720 -0.009087
vn -0.186176 -0.980747 -0.058935
vn 0.063880 -0.949235 0.308013
vn -0.191620 -0.967152 -0.167027
vn 0.053211 -0.995183 0.082337
vn 0.044373 -0.995023 0.089223
vn 0.085202 -0.987636 -0.131590
vn 0.030363 -0.967938 -0.249348
vn -0.197951 -0.978386 -0.059805
vn 0.081757 -0.977793 -0.192966
vn -0.049838 -0.997835 0.042907
vn -0.000228 -0.999997 -0.002563
vn -0.004465 -0.999974 -0.005709
vn -0.000231 -0.999994 -0.003320
vn -0.170849 -0.980737 -0.094681
vn -0.007191 -0.999922 0.010231
vn 0.011068 -0.973040 -0.230372
vn -0.166045 -0.983611 -0.070274
vn 0.100459 -0.993482 -0.053860
vn 0.186894 -0.980966 0.052694
vn 0.229079 -0.951655 0.204633
vn 0.221575 -0.974906 0.021511
vn 0.000201 -0.999996 -0.002955
vn -0.006898 -0.999658 0.025239
vn 0.011836 -0.999582 -0.026383
vn 0.011532 -0.999896 0.008648
vn 0.180867 -0.944418 -0.274522
vn 0.111761 -0.993729 -0.003613
vn -0.000259 -0.997569 0.069681
vn 0.110673 -0.993846 -0.004658
vn 0.090255 -0.986237 0.138533
vn -0.043928 -0.995985 0.078001
vn -0.134832 -0.098579 -0.985953
vn -0.005311 -0.999719 0.023083
vn 0.108261 -0.992747 0.052273
vn 0.177875 -0.982790 0.049850
vn -0.199593 -0.881848 -0.427207
vn 0.203307 -0.978191 -0.042524
vn 0.213618 -0.623833 -0.751798
vn -0.366379 -0.917679 -0.153724
vn -0.000187 -0.982989 0.183664
vn -0.271518 -0.961689 0.037842
vn 0.099716 -0.993596 -0.053134
vn 0.223778 -0.951783 0.209839
vn 0.089451 -0.989795 0.110923
vn 0.102538 -0.989909 0.097806
vn 0.162368 -0.903053 -0.397657
vn -0.187509 -0.928764 -0.319746
vn 0.033917 -0.998983 -0.029695
vn 0.079935 -0.821367 -0.564772
vn 0.117767 -0.927526 0.354722
vn 0.240656 -0.934437 0.262511
vn -0.111579 -0.988717 -0.099940
vn 0.228588 -0.956575 0.180863
vn 0.221603 -0.955908 0.192696
vn -0.059129 -0.978396 -0.198104
vn 0.093325 -0.882765 0.460453
vn 0.064497 -0.898802 0.433583
vn -0.035578 -0.993980 0.103623
vn 0.064916 -0.997071 0.040438
vn -0.604524 -0.786014 0.129351
vn -0.003792 -0.993499 -0.113778
vn -0.099469 -0.868801 0.485068
vn 0.215926 -0.972296 -0.089535
vn -0.345336 -0.930707 -0.120526
vn -0.423203 -0.905103 0.041073
vn 0.753007 0.365974 -0.546849
vn 0.502302 -0.848625 -0.165918
vn 0.234142 -0.662347 -0.711670
vn 0.648363 -0.544584 -0.532027
vn 0.040120 -0.911122 0.410179
vn 0.029047 -0.953990 -0.298427
vn -0.657392 -0.716934 0.232038
vn -0.069958 -0.787888 0.611832
vn 0.159687 -0.952654 -0.258747
vn 0.849962 -0.182111 -0.494368
vn 0.206744 -0.976921 -0.053694
vn 0.209661 -0.950677 -0.228595
vn -0.325491 -0.598047 -0.732390
vn -0.196185 -0.479647 -0.855248
vn 0.350499 -0.661452 -0.663047
vn -0.197105 -0.473591 -0.858406
vn 0.022968 -0.964201 0.264177
vn -0.135328 -0.100039 -0.985738
vn 0.114172 -0.563041 -0.818505
vn 0.247787 -0.303761 -0.919962
vn 0.715135 -0.155325 -0.681510
vn 0.045272 -0.184887 -0.981716
vn 0.021422 -0.984183 -0.175856
vn 0.763006 -0.297357 -0.573934
vn 0.421153 -0.085268 -0.902973
vn 0.792789 -0.599884 -0.107821
vn 0.721025 0.350832 -0.597528
vn 0.506640 0.237174 -0.828893
vn 0.502047 -0.648477 0.572212
vn 0.820133 -0.394355 -0.414567
vn 0.845250 -0.512205 -0.152311
vn 0.939323 -0.314232 -0.137591
vn 0.425914 -0.563987 -0.707472
vn 0.494945 -0.261515 -0.828637
vn 0.268381 -0.454902 -0.849138
vn 0.297567 -0.555290 -0.776600
vn 0.833165 -0.544576 -0.096299
vn 0.821508 -0.406806 -0.399542
vn 0.577627 -0.250666 -0.776862
vn 0.671317 -0.623068 -0.401397
vn -0.074330 -0.981914 0.174126
vn 0.223123 -0.597759 -0.770000
vn 0.729553 0.006636 -0.683892
vn 0.217412 -0.390006 -0.894778
vn 0.077378 -0.851958 -0.517862
vn 0.053226 -0.708380 -0.703822
vn 0.097411 -0.626357 -0.773426
vn 0.031996 -0.697138 -0.716223
vn 0.694304 -0.370747 0.616838
vn 0.232921 -0.713662 -0.660632
vn 0.129313 -0.964147 -0.231729
vn 0.117231 -0.822289 -0.556864
vn 0.113288 -0.735225 -0.668289
vn 0.101815 -0.957994 -0.268108
vn 0.418447 -0.739932 -0.526691
vn 0.412123 -0.801535 -0.433240
vn -0.144218 -0.979198 -0.142734
vn -0.936114 -0.205084 -0.285711
vn -0.217025 -0.974745 0.052660
vn -0.938556 -0.196735 -0.283564
vn 0.856213 0.516524 -0.010155
vn 0.800374 -0.511067 -0.313386
vn 0.765342 0.085847 0.637873
vn 0.759151 0.035853 0.649926
vn 0.345994 -0.770787 -0.534955
vn 0.964375 0.139995 -0.224460
vn 0.672052 -0.399633 -0.623409
vn 0.643219 -0.728641 -0.235271
vn 0.821498 0.517618 0.239191
vn 0.785025 -0.340199 -0.517687
vn 0.915664 -0.104817 -0.388038
vn 0.875620 0.028980 -0.482131
vn 0.342981 -0.108174 -0.933093
vn 0.706610 -0.241760 0.665021
vn 0.734075 -0.634120 -0.242952
vn 0.694865 -0.682336 -0.227115
vn 0.626784 -0.291606 -0.722570
vn 0.552739 -0.646577 -0.525755
vn 0.756423 -0.336640 -0.560801
vn 0.717231 -0.274868 -0.640334
vn 0.483826 -0.735440 0.474384
vn 0.897282 -0.437827 0.056512
vn 0.647642 -0.742477 0.171135
vn 0.671109 -0.545629 0.501898
vn 0.917856 -0.046092 0.394228
vn 0.821327 -0.545699 0.166236
vn 0.695984 -0.713264 0.082834
vn 0.729475 -0.580056 0.362493
vn 0.315652 -0.088709 0.944719
vn 0.454078 0.258914 0.852512
vn 0.998366 0.022767 -0.052405
vn 0.430443 -0.234347 0.871665
vn 0.710829 -0.228737 -0.665133
vn 0.524293 -0.286117 -0.802031
vn 0.964106 -0.265518 -0.000004
vn 0.570351 -0.484255 -0.663474
vn 0.616751 -0.299447 0.727977
vn 0.931430 -0.305052 -0.198447
vn 0.500590 -0.862741 0.071326
vn 0.976096 -0.157029 0.150262
vn 0.950449 -0.310844 -0.004698
vn 0.500404 -0.344783 -0.794180
vn 0.878005 -0.193353 -0.437861
vn 0.890970 -0.122511 -0.437222
vn 0.686136 -0.727247 -0.018111
vn 0.450198 -0.709087 0.542695
vn 0.959135 0.017229 -0.282423
vn 0.698832 -0.326549 0.636396
vn 0.704538 -0.709213 0.025383
vn 0.509090 -0.850644 0.131269
vn 0.533253 -0.845723 -0.019861
vn 0.544192 -0.838705 0.020698
vn 0.705373 -0.232213 -0.669721
vn 0.782192 -0.120342 -0.611304
vn 0.661090 -0.226043 -0.715447
vn 0.676620 -0.178193 -0.714445
vn 0.348869 -0.937044 -0.015469
vn 0.674796 -0.721302 0.156122
vn 0.781339 -0.119273 -0.612604
vn 0.406582 -0.755865 -0.513185
vn 0.505849 -0.310080 0.804964
vn 0.276785 -0.459077 0.844179
vn 0.335865 -0.092254 0.937381
vn 0.458142 -0.430613 0.777610
vn 0.123501 -0.245214 0.961570
vn 0.558509 -0.600215 0.572546
vn 0.364408 -0.378302 0.850937
vn 0.447080 -0.227504 0.865079
vn -0.434356 -0.248012 0.865924
vn -0.155725 -0.314911 0.936259
vn 0.410953 -0.602828 0.683898
vn -0.298220 -0.566894 0.767917
vn 0.321526 -0.381230 0.866767
vn 0.416883 -0.631049 0.654206
vn -0.015577 -0.670092 0.742114
vn 0.403715 -0.646608 0.647234
vn 0.415086 -0.035188 0.909101
vn 0.099301 -0.262903 0.959698
vn 0.077255 0.167246 0.982884
vn -0.004728 -0.020032 0.999788
vn 0.234454 0.151447 0.960258
vn 0.683783 -0.447956 0.576001
vn 0.571624 -0.523966 0.631431
vn 0.594978 -0.526479 0.607307
vn 0.426176 -0.273872 0.862188
vn 0.184021 0.301328 0.935595
vn 0.952960 0.004222 0.303067
vn 0.746196 0.393363 0.537082
vn 0.517813 -0.374620 0.769110
vn 0.690233 -0.483292 0.538523
vn 0.120159 0.176661 0.976910
vn 0.430563 -0.454589 0.779721
vn 0.178852 0.212263 0.960706
vn 0.149507 -0.174330 0.973271
vn 0.218815 0.062558 0.973759
vn 0.256359 0.060087 0.964712
vn -0.062115 0.603112 0.795234
vn 0.242810 0.685741 0.686150
vn 0.379417 0.018055 0.925049
vn -0.018640 0.682113 0.731009
vn 0.176819 -0.064568 0.982123
vn 0.090429 0.271978 0.958045
vn 0.148213 -0.311216 0.938711
vn 0.286068 -0.081236 0.954760
vn 0.221637 -0.295695 0.929216
vn -0.094154 -0.266380 0.959258
vn 0.103866 0.271993 0.956677
vn -0.088910 -0.274005 0.957610
vn 0.130058 -0.233899 0.963523
vn 0.922717 0.004404 0.385452
vn 0.311808 -0.815941 0.486844
vn 0.347493 -0.816219 0.461558
vn 0.071290 0.134820 0.988302
vn -0.064992 0.086245 0.994152
vn 0.288214 -0.413159 0.863847
vn 0.056650 0.097378 0.993634
vn -0.009311 0.534656 0.845018
vn 0.669878 -0.187169 0.718492
vn 0.292893 0.636853 0.713185
vn 0.242543 0.542596 0.804215
vn 0.698001 0.448658 0.558122
vn 0.170744 0.630185 0.757439
vn 0.027818 -0.184406 0.982456
vn 0.334037 0.455813 0.825017
vn -0.149919 -0.977119 0.150872
vn -0.055165 -0.983052 0.174832
vn 0.034266 -0.998456 -0.043722
vn -0.128932 -0.990570 0.046343
vn -0.021626 -0.994246 -0.104917
vn -0.019309 -0.986895 -0.160206
vn -0.077820 -0.996760 -0.020333
vn -0.059212 -0.985288 -0.160315
vn -0.387916 -0.852378 0.350675
vn -0.289433 -0.955269 0.060737
vn -0.434932 -0.869383 0.234538
vn -0.355725 -0.874929 0.328572
vn -0.039585 -0.998246 0.044032
vn 0.053438 -0.998145 -0.029177
vn 0.035028 -0.997868 -0.055067
vn 0.053663 -0.998473 -0.013136
vn 0.082695 -0.610059 0.788029
vn -0.048950 -0.795396 0.604110
vn -0.147427 -0.961856 0.230431
vn -0.139804 -0.718475 0.681358
vn -0.827173 -0.284539 0.484584
vn -0.761670 0.189537 0.619624
vn -0.647373 -0.048836 0.760607
vn -0.895551 -0.069947 0.439427
vn -0.014549 -0.999253 0.035800
vn -0.056955 -0.997846 0.032535
vn -0.106009 -0.984715 0.138201
vn -0.011446 -0.997415 0.070940
vn -0.094757 -0.810154 0.578508
vn -0.102631 -0.921999 0.373342
vn -0.055704 -0.951711 0.301898
vn -0.117449 -0.924865 0.361705
vn -0.606984 -0.321595 0.726738
vn -0.568516 -0.279144 0.773866
vn -0.971631 -0.188497 0.142835
vn -0.593043 -0.346846 0.726635
vn -0.955087 -0.161295 0.248580
vn -0.356156 0.006704 0.934403
vn -0.673747 -0.237847 0.699639
vn -0.775595 0.166103 0.608985
vn 0.091644 -0.400778 0.911580
vn -0.685230 -0.314116 0.657108
vn -0.627782 -0.719656 0.296622
vn -0.598117 -0.458202 0.657500
vn -0.628727 -0.143985 0.764180
vn -0.579866 -0.731283 0.359139
vn -0.974623 -0.174752 0.139900
vn -0.951849 -0.018479 0.306010
vn -0.038611 -0.999177 0.012427
vn 0.019311 -0.966622 0.255480
vn -0.026752 -0.998732 -0.042642
vn 0.002767 -0.999972 -0.006882
vn -0.014194 -0.218606 0.975710
vn -0.871775 -0.375765 0.314339
vn -0.299380 0.171413 0.938610
vn -0.039767 -0.324108 0.945184
vn -0.368381 -0.911299 0.183929
vn -0.499547 -0.607590 0.617484
vn -0.127265 -0.423720 0.896808
vn -0.184693 -0.884044 0.429366
vn -0.460985 -0.334562 0.821925
vn -0.871630 -0.415165 0.260575
vn -0.895899 -0.435861 0.085965
vn -0.938049 -0.214069 0.272468
vn 0.163577 -0.939756 -0.300170
vn -0.009880 -0.997812 0.065377
vn 0.000937 -0.919219 -0.393744
vn 0.104867 -0.956890 -0.270860
vn -0.127661 -0.986886 -0.098785
vn -0.124461 -0.979454 0.158682
vn 0.102819 -0.994642 -0.010785
vn -0.119523 -0.980065 0.158703
vn -0.538813 -0.146708 -0.829553
vn -0.596360 -0.705443 -0.383021
vn -0.181277 -0.956439 -0.228830
vn -0.138060 -0.664724 -0.734222
vn 0.094928 -0.995462 0.006657
vn -0.189544 -0.953817 -0.233036
vn -0.224414 -0.946114 -0.233466
vn -0.220793 -0.953498 -0.205163
vn -0.069925 -0.996860 0.037166
vn -0.062640 -0.983730 -0.168378
vn -0.205660 -0.969917 -0.130249
vn -0.129019 -0.964502 -0.230413
vn -0.130113 -0.991445 -0.010390
vn -0.220448 -0.951758 0.213448
vn -0.150019 -0.918000 -0.367110
vn -0.109438 -0.993992 -0.001971
vn 0.023304 -0.999541 0.019335
vn -0.101965 -0.915029 -0.390288
vn -0.047316 -0.990274 0.130839
vn -0.051541 -0.990135 0.130291
vn -0.077035 -0.953278 -0.292106
vn -0.092324 -0.973421 0.209590
vn -0.235095 -0.942480 -0.237617
vn -0.152075 -0.972169 -0.178215
vn -0.072414 0.145335 -0.986729
vn -0.330215 0.586283 -0.739750
vn -0.558941 -0.280495 -0.780326
vn -0.135826 0.417116 -0.898647
vn -0.620096 0.503444 -0.601685
vn -0.875158 -0.422637 -0.235533
vn -0.355576 0.418699 -0.835617
vn -0.353690 0.413140 -0.839177
vn -0.452217 -0.734377 -0.506152
vn -0.338038 -0.328154 -0.882069
vn -0.753574 -0.197404 -0.627023
vn -0.374562 -0.258762 -0.890363
vn -0.278378 0.376061 -0.883789
vn -0.818327 -0.457905 -0.347367
vn -0.393879 -0.540546 -0.743418
vn -0.780837 -0.517463 -0.350036
vn 0.033297 -0.967485 -0.250728
vn -0.070869 -0.988941 -0.130278
vn 0.016807 -0.999611 0.022261
vn 0.037156 -0.968548 -0.246036
vn -0.152901 -0.922108 -0.355441
vn -0.326038 -0.792319 -0.515684
vn -0.316117 -0.940038 -0.128055
vn -0.308702 -0.942752 -0.126180
vn -0.441620 -0.142572 -0.885802
vn -0.116524 -0.950189 -0.289073
vn -0.808459 -0.540005 -0.234072
vn -0.573477 -0.588479 -0.569928
vn -0.235872 -0.943984 -0.230776
vn -0.715442 -0.697044 0.047662
vn -0.113922 -0.993286 -0.020097
vn -0.191304 -0.978659 0.075028
vn 0.167211 0.313893 -0.934618
vn 0.921094 0.053998 -0.385578
vn 0.794404 0.593208 -0.130485
vn 0.894132 0.447363 -0.019881
vn 0.421891 -0.550792 -0.720164
vn 0.624028 -0.038004 -0.780477
vn 0.472394 -0.211106 -0.855732
vn 0.705578 -0.221479 -0.673132
vn 0.203689 0.396946 -0.894955
vn 0.804795 0.582710 -0.112937
vn 0.101220 0.558288 -0.823449
vn 0.084295 0.516574 -0.852083
vn 0.638348 0.052037 -0.767987
vn 0.608979 -0.063575 -0.790635
vn 0.798614 0.590347 -0.117068
vn 0.702656 -0.065007 -0.708554
vn 0.139998 -0.887337 -0.439356
vn 0.222993 -0.026268 -0.974466
vn 0.869653 -0.338459 -0.359374
vn 0.394562 -0.576018 -0.715908
vn 0.260079 -0.187273 -0.947253
vn 0.052977 0.058483 -0.996882
vn 0.100400 -0.069451 -0.992520
vn 0.168646 0.061598 -0.983750
vn -0.271950 -0.755079 -0.596573
vn 0.348285 -0.653998 -0.671553
vn 0.031504 -0.810470 -0.584932
vn 0.070892 -0.874728 -0.479402
vn 0.141057 -0.179402 -0.973611
vn 0.345981 -0.809641 -0.474108
vn 0.815786 -0.481441 -0.320480
vn 0.774174 -0.115532 -0.622341
vn 0.143172 0.078590 -0.986573
vn 0.536420 0.268877 -0.799974
vn 0.109428 0.654408 -0.748181
vn 0.000804 0.317500 -0.948258
vn -0.384994 0.600076 -0.701205
vn 0.302563 0.833158 -0.462929
vn 0.579999 0.477774 -0.659798
vn 0.291131 0.801533 -0.522291
vn 0.342339 0.321101 -0.883005
vn 0.246639 0.767744 -0.591386
vn 0.019229 0.613267 -0.789642
vn 0.407177 0.593768 -0.694007
vn 0.421193 0.507044 -0.751999
vn 0.132982 0.839230 -0.527266
vn 0.173216 0.571063 -0.802423
vn 0.431187 0.542111 -0.721244
vn -0.029201 -0.426788 -0.903880
vn 0.365293 -0.491124 -0.790796
vn 0.164224 -0.031395 -0.985923
vn -0.035783 -0.408147 -0.912215
vn 0.427270 0.167868 -0.888404
vn 0.196363 0.376546 -0.905348
vn 0.103086 0.152938 -0.982845
vn 0.092466 0.171561 -0.980825
vn -0.225992 0.261168 -0.938466
vn 0.063346 0.544021 -0.836677
vn 0.365303 0.792506 -0.488353
vn -0.073050 0.697466 -0.712885
vn 0.076249 0.151598 -0.985497
vn 0.192406 0.376260 -0.906316
vn -0.027160 0.341091 -0.939638
vn 0.187794 0.382843 -0.904524
vn 0.316741 -0.031866 0.947977
vn 0.580860 0.813432 -0.030490
vn 0.923256 -0.059595 -0.379535
vn 0.640871 0.684154 -0.348163
vn 0.645356 0.057170 0.761740
vn 0.554331 0.697989 0.453352
vn 0.913668 0.356816 -0.194663
vn 0.803549 -0.029498 0.594508
vn 0.480778 0.498142 -0.721601
vn 0.919940 -0.290172 -0.263648
vn 0.858482 0.512005 0.029312
vn 0.696267 0.064238 -0.714903
vn 0.510373 0.509788 0.692557
vn 0.748262 0.663360 0.007610
vn 0.945947 -0.110711 -0.304839
vn 0.598058 0.210530 0.773307
vn 0.265054 0.640137 -0.721090
vn 0.491052 -0.178014 -0.852748
vn 0.669362 0.393824 0.629966
vn 0.303556 0.721791 -0.621990
vn 0.770487 0.265450 -0.579557
vn 0.473119 0.879643 0.048856
vn 0.321914 0.912478 -0.252500
vn 0.321097 0.894758 -0.310330
vn 0.606574 -0.378269 -0.699271
vn 0.736518 -0.399220 -0.546044
vn 0.494070 0.647742 -0.579935
vn 0.644277 -0.426339 -0.634936
vn 0.830461 0.108593 -0.546390
vn 0.786482 0.617574 0.006949
vn 0.636336 -0.302109 -0.709793
vn 0.635928 0.176872 -0.751207
vn 0.417326 0.876832 -0.238757
vn 0.470128 0.322711 0.821485
vn 0.336470 0.683880 -0.647376
vn 0.211930 0.952733 -0.217683
vn 0.339340 0.864860 -0.369953
vn 0.421839 0.906081 -0.032680
vn 0.905017 0.404852 -0.130534
vn 0.455916 0.879974 -0.133365
vn 0.907018 0.398679 0.135547
vn 0.789112 0.331747 0.516959
vn 0.557283 0.829088 -0.045264
vn 0.660447 0.533709 0.528171
vn 0.715398 -0.093090 0.692488
vn 0.481115 0.864046 0.148162
vn 0.850554 -0.133324 -0.508707
vn 0.942640 -0.318532 0.099840
vn 0.766349 0.202116 0.609802
vn 0.436020 0.883253 0.172482
vn 0.556229 0.789752 0.258653
vn 0.463785 0.775842 0.427752
vn 0.787182 0.601948 0.134174
vn 0.787229 0.614591 -0.050491
vn 0.479319 0.877428 0.019321
vn 0.767353 0.640055 0.038719
vn 0.748618 0.474737 -0.462814
vn 0.764432 0.588099 -0.264166
vn 0.830900 0.554932 -0.040680
vn 0.752561 0.604164 -0.261988
vn 0.522446 0.830732 0.192184
vn 0.810827 0.583646 0.043773
vn 0.612143 0.741725 0.274090
vn 0.574252 0.817820 0.037490
s off
f 1//1 163//1 165//1
f 43//2 164//2 163//2
f 45//3 165//3 164//3
f 163//4 164//4 165//4
f 13//5 166//5 168//5
f 44//6 167//6 166//6
f 43//7 168//7 167//7
f 166//8 167//8 168//8
f 15//9 169//9 171//9
f 45//10 170//10 169//10
f 44//11 171//11 170//11
f 169//12 170//12 171//12
f 43//13 167//13 164//13
f 44//14 170//14 167//14
f 45//15 164//15 170//15
f 167//16 170//16 164//16
f 12//17 172//17 174//17
f 46//18 173//18 172//18
f 48//19 174//19 173//19
f 172//20 173//20 174//20
f 14//21 175//21 177//21
f 47//22 176//22 175//22
f 46//23 177//23 176//23
f 175//24 176//24 177//24
f 13//25 178//25 180//25
f 48//26 179//26 178//26
f 47//27 180//27 179//27
f 178//28 179//28 180//28
f 46//29 176//29 173//29
f 47//30 179//30 176//30
f 48//31 173//31 179//31
f 176//32 179//32 173//32
f 6//33 181//33 183//33
f 49//34 182//34 181//34
f 51//35 183//35 182//35
f 181//36 182//36 183//36
f 15//37 184//37 186//37
f 50//38 185//38 184//38
f 49//39 186//39 185//39
f 184//40 185//40 186//40
f 14//41 187//41 189//41
f 51//42 188//42 187//42
f 50//43 189//43 188//43
f 187//44 188//44 189//44
f 49//45 185//45 182//45
f 50//46 188//46 185//46
f 51//47 182//47 188//47
f 185//48 188//48 182//48
f 13//49 180//49 166//49
f 47//50 190//50 180//50
f 44//51 166//51 190//51
f 180//52 190//52 166//52
f 14//53 189//53 175//53
f 50//54 191//54 189//54
f 47//55 175//55 191//55
f 189//56 191//56 175//56
f 15//57 171//57 184//57
f 44//58 192//58 171//58
f 50//59 184//59 192//59
f 171//60 192//60 184//60
f 47//61 191//61 190//61
f 50//62 192//62 191//62
f 44//63 190//63 192//63
f 191//64 192//64 190//64
f 1//65 165//65 194//65
f 45//66 193//66 165//66
f 53//67 194//67 193//67
f 165//68 193//68 194//68
f 15//69 195//69 169//69
f 52//70 196//70 195//70
f 45//71 169//71 196//71
f 195//72 196//72 169//72
f 17//73 197//73 199//73
f 53//74 198//74 197//74
f 52//75 199//75 198//75
f 197//76 198//76 199//76
f 45//77 196//77 193//77
f 52//78 198//78 196//78
f 53//79 193//79 198//79
f 196//80 198//80 193//80
f 6//81 200//81 181//81
f 54//82 201//82 200//82
f 49//83 181//83 201//83
f 200//84 201//84 181//84
f 16//85 202//85 204//85
f 55//86 203//86 202//86
f 54//87 204//87 203//87
f 202//88 203//88 204//88
f 15//89 186//89 206//89
f 49//90 205//90 186//90
f 55//91 206//91 205//91
f 186//92 205//92 206//92
f 54//93 203//93 201//93
f 55//94 205//94 203//94
f 49//95 201//95 205//95
f 203//96 205//96 201//96
f 2//97 207//97 209//97
f 56//98 208//98 207//98
f 58//99 209//99 208//99
f 207//100 208//100 209//100
f 17//101 210//101 212//101
f 57//102 211//102 210//102
f 56//103 212//103 211//103
f 210//104 211//104 212//104
f 16//105 213//105 215//105
f 58//106 214//106 213//106
f 57//107 215//107 214//107
f 213//108 214//108 215//108
f 56//109 211//109 208//109
f 57//110 214//110 211//110
f 58//111 208//111 214//111
f 211//112 214//112 208//112
f 15//113 206//113 195//113
f 55//114 216//114 206//114
f 52//115 195//115 216//115
f 206//116 216//116 195//116
f 16//117 215//117 202//117
f 57//118 217//118 215//118
f 55//119 202//119 217//119
f 215//120 217//120 202//120
f 17//121 199//121 210//121
f 52//122 218//122 199//122
f 57//123 210//123 218//123
f 199//124 218//124 210//124
f 55//125 217//125 216//125
f 57//126 218//126 217//126
f 52//127 216//127 218//127
f 217//128 218//128 216//128
f 1//129 194//129 220//129
f 53//130 219//130 194//130
f 60//131 220//131 219//131
f 194//132 219//132 220//132
f 17//133 221//133 197//133
f 59//134 222//134 221//134
f 53//135 197//135 222//135
f 221//136 222//136 197//136
f 19//137 223//137 225//137
f 60//138 224//138 223//138
f 59//139 225//139 224//139
f 223//140 224//140 225//140
f 53//141 222//141 219//141
f 59//142 224//142 222//142
f 60//143 219//143 224//143
f 222//144 224//144 219//144
f 2//145 226//145 207//145
f 61//146 227//146 226//146
f 56//147 207//147 227//147
f 226//148 227//148 207//148
f 18//149 228//149 230//149
f 62//150 229//150 228//150
f 61//151 230//151 229//151
f 228//152 229//152 230//152
f 17//153 212//153 232//153
f 56//154 231//154 212//154
f 62//155 232//155 231//155
f 212//156 231//156 232//156
f 61//157 229//157 227//157
f 62//158 231//158 229//158
f 56//159 227//159 231//159
f 229//160 231//160 227//160
f 8//161 233//161 235//161
f 63//162 234//162 233//162
f 65//163 235//163 234//163
f 233//164 234//164 235//164
f 19//165 236//165 238//165
f 64//166 237//166 236//166
f 63//167 238//167 237//167
f 236//168 237//168 238//168
f 18//169 239//169 241//169
f 65//170 240//170 239//170
f 64//171 241//171 240//171
f 239//172 240//172 241//172
f 63//173 237//173 234//173
f 64//174 240//174 237//174
f 65//175 234//175 240//175
f 237//176 240//176 234//176
f 17//177 232//177 221//177
f 62//178 242//178 232//178
f 59//179 221//179 242//179
f 232//180 242//180 221//180
f 18//181 241//181 228//181
f 64//182 243//182 241//182
f 62//183 228//183 243//183
f 241//184 243//184 228//184
f 19//185 225//185 236//185
f 59//186 244//186 225//186
f 64//187 236//187 244//187
f 225//188 244//188 236//188
f 62//189 243//189 242//189
f 64//190 244//190 243//190
f 59//191 242//191 244//191
f 243//192 244//192 242//192
f 1//193 220//193 246//193
f 60//194 245//194 220//194
f 67//195 246//195 245//195
f 220//196 245//196 246//196
f 19//197 247//197 223//197
f 66//198 248//198 247//198
f 60//199 223//199 248//199
f 247//200 248//200 223//200
f 21//201 249//201 251//201
f 67//202 250//202 249//202
f 66//203 251//203 250//203
f 249//204 250//204 251//204
f 60//205 248//205 245//205
f 66//206 250//206 248//206
f 67//207 245//207 250//207
f 248//208 250//208 245//208
f 8//209 252//209 233//209
f 68//210 253//210 252//210
f 63//211 233//211 253//211
f 252//212 253//212 233//212
f 20//213 254//213 256//213
f 69//214 255//214 254//214
f 68//215 256//215 255//215
f 254//216 255//216 256//216
f 19//217 238//217 258//217
f 63//218 257//218 238//218
f 69//219 258//219 257//219
f 238//220 257//220 258//220
f 68//221 255//221 253//221
f 69//222 257//222 255//222
f 63//223 253//223 257//223
f 255//224 257//224 253//224
f 11//225 259//225 261//225
f 70//226 260//226 259//226
f 72//227 261//227 260//227
f 259//228 260//228 261//228
f 21//229 262//229 264//229
f 71//230 263//230 262//230
f 70//231 264//231 263//231
f 262//232 263//232 264//232
f 20//233 265//233 267//233
f 72//234 266//234 265//234
f 71//235 267//235 266//235
f 265//236 266//236 267//236
f 70//237 263//237 260//237
f 71//238 266//238 263//238
f 72//239 260//239 266//239
f 263//240 266//240 260//240
f 19//241 258//241 247//241
f 69//242 268//242 258//242
f 66//243 247//243 268//243
f 258//244 268//244 247//244
f 20//245 267//245 254//245
f 71//246 269//246 267//246
f 69//247 254//247 269//247
f 267//248 269//248 254//248
f 21//249 251//249 262//249
f 66//250 270//250 251//250
f 71//251 262//251 270//251
f 251//252 270//252 262//252
f 69//253 269//253 268//253
f 71//254 270//254 269//254
f 66//255 268//255 270//255
f 269//256 270//256 268//256
f 1//257 246//257 163//257
f 67//258 271//258 246//258
f 43//259 163//259 271//259
f 246//260 271//260 163//260
f 21//261 272//261 249//261
f 73//262 273//262 272//262
f 67//263 249//263 273//263
f 272//264 273//264 249//264
f 13//265 168//265 275//265
f 43//266 274//266 168//266
f 73//267 275//267 274//267
f 168//268 274//268 275//268
f 67//269 273//269 271//269
f 73//270 274//270 273//270
f 43//271 271//271 274//271
f 273//272 274//272 271//272
f 11//273 276//273 259//273
f 74//274 277//274 276//274
f 70//275 259//275 277//275
f 276//276 277//276 259//276
f 22//277 278//277 280//277
f 75//278 279//278 278//278
f 74//279 280//279 279//279
f 278//280 279//280 280//280
f 21//281 264//281 282//281
f 70//282 281//282 264//282
f 75//283 282//283 281//283
f 264//284 281//284 282//284
f 74//285 279//285 277//285
f 75//286 281//286 279//286
f 70//287 277//287 281//287
f 279//288 281//288 277//288
f 12//289 174//289 284//289
f 48//290 283//290 174//290
f 77//291 284//291 283//291
f 174//292 283//292 284//292
f 13//293 285//293 178//293
f 76//294 286//294 285//294
f 48//295 178//295 286//295
f 285//296 286//296 178//296
f 22//297 287//297 289//297
f 77//298 288//298 287//298
f 76//299 289//299 288//299
f 287//300 288//300 289//300
f 48//301 286//301 283//301
f 76//302 288//302 286//302
f 77//303 283//303 288//303
f 286//304 288//304 283//304
f 21//305 282//305 272//305
f 75//306 290//306 282//306
f 73//307 272//307 290//307
f 282//308 290//308 272//308
f 22//309 289//309 278//309
f 76//310 291//310 289//310
f 75//311 278//311 291//311
f 289//312 291//312 278//312
f 13//313 275//313 285//313
f 73//314 292//314 275//314
f 76//315 285//315 292//315
f 275//316 292//316 285//316
f 75//317 291//317 290//317
f 76//318 292//318 291//318
f 73//319 290//319 292//319
f 291//320 292//320 290//320
f 2//321 209//321 294//321
f 58//322 293//322 209//322
f 79//323 294//323 293//323
f 209//324 293//324 294//324
f 16//325 295//325 213//325
f 78//326 296//326 295//326
f 58//327 213//327 296//327
f 295//328 296//328 213//328
f 24//329 297//329 299//329
f 79//330 298//330 297//330
f 78//331 299//331 298//331
f 297//332 298//332 299//332
f 58//333 296//333 293//333
f 78//334 298//334 296//334
f 79//335 293//335 298//335
f 296//336 298//336 293//336
f 6//337 300//337 200//337
f 80//338 301//338 300//338
f 54//339 200//339 301//339
f 300//340 301//340 200//340
f 23//341 302//341 304//341
f 81//342 303//342 302//342
f 80//343 304//343 303//343
f 302//344 303//344 304//344
f 16//345 204//345 306//345
f 54//346 305//346 204//346
f 81//347 306//347 305//347
f 204//348 305//348 306//348
f 80//349 303//349 301//349
f 81//350 305//350 303//350
f 54//351 301//351 305//351
f 303//352 305//352 301//352
f 10//353 307//353 309//353
f 82//354 308//354 307//354
f 84//355 309//355 308//355
f 307//356 308//356 309//356
f 24//357 310//357 312//357
f 83//358 311//358 310//358
f 82//359 312//359 311//359
f 310//360 311//360 312//360
f 23//361 313//361 315//361
f 84//362 314//362 313//362
f 83//363 315//363 314//363
f 313//364 314//364 315//364
f 82//365 311//365 308//365
f 83//366 314//366 311//366
f 84//367 308//367 314//367
f 311//368 314//368 308//368
f 16//369 306//369 295//369
f 81//370 316//370 306//370
f 78//371 295//371 316//371
f 306//372 316//372 295//372
f 23//373 315//373 302//373
f 83//374 317//374 315//374
f 81//375 302//375 317//375
f 315//376 317//376 302//376
f 24//377 299//377 310//377
f 78//378 318//378 299//378
f 83//379 310//379 318//379
f 299//380 318//380 310//380
f 81//381 317//381 316//381
f 83//382 318//382 317//382
f 78//383 316//383 318//383
f 317//384 318//384 316//384
f 6//385 183//385 320//385
f 51//386 319//386 183//386
f 86//387 320//387 319//387
f 183//388 319//388 320//388
f 14//389 321//389 187//389
f 85//390 322//390 321//390
f 51//391 187//391 322//391
f 321//392 322//392 187//392
f 26//393 323//393 325//393
f 86//394 324//394 323//394
f 85//395 325//395 324//395
f 323//396 324//396 325//396
f 51//397 322//397 319//397
f 85//398 324//398 322//398
f 86//399 319//399 324//399
f 322//400 324//400 319//400
f 12//401 326//401 172//401
f 87//402 327//402 326//402
f 46//403 172//403 327//403
f 326//404 327//404 172//404
f 25//405 328//405 330//405
f 88//406 329//406 328//406
f 87//407 330//407 329//407
f 328//408 329//408 330//408
f 14//409 177//409 332//409
f 46//410 331//410 177//410
f 88//411 332//411 331//411
f 177//412 331//412 332//412
f 87//413 329//413 327//413
f 88//414 331//414 329//414
f 46//415 327//415 331//415
f 329//416 331//416 327//416
f 5//417 333//417 335//417
f 89//418 334//418 333//418
f 91//419 335//419 334//419
f 333//420 334//420 335//420
f 26//421 336//421 338//421
f 90//422 337//422 336//422
f 89//423 338//423 337//423
f 336//424 337//424 338//424
f 25//425 339//425 341//425
f 91//426 340//426 339//426
f 90//427 341//427 340//427
f 339//428 340//428 341//428
f 89//429 337//429 334//429
f 90//430 340//430 337//430
f 91//431 334//431 340//431
f 337//432 340//432 334//432
f 14//433 332//433 321//433
f 88//434 342//434 332//434
f 85//435 321//435 342//435
f 332//436 342//436 321//436
f 25//437 341//437 328//437
f 90//438 343//438 341//438
f 88//439 328//439 343//439
f 341//440 343//440 328//440
f 26//441 325//441 336//441
f 85//442 344//442 325//442
f 90//443 336//443 344//443
f 325//444 344//444 336//444
f 88//445 343//445 342//445
f 90//446 344//446 343//446
f 85//447 342//447 344//447
f 343//448 344//448 342//448
f 12//449 284//449 346//449
f 77//450 345//450 284//450
f 93//451 346//451 345//451
f 284//452 345//452 346//452
f 22//453 347//453 287//453
f 92//454 348//454 347//454
f 77//455 287//455 348//455
f 347//456 348//456 287//456
f 28//457 349//457 351//457
f 93//458 350//458 349//458
f 92//459 351//459 350//459
f 349//460 350//460 351//460
f 77//461 348//461 345//461
f 92//462 350//462 348//462
f 93//463 345//463 350//463
f 348//464 350//464 345//464
f 11//465 352//465 276//465
f 94//466 353//466 352//466
f 74//467 276//467 353//467
f 352//468 353//468 276//468
f 27//469 354//469 356//469
f 95//470 355//470 354//470
f 94//471 356//471 355//471
f 354//472 355//472 356//472
f 22//473 280//473 358//473
f 74//474 357//474 280//474
f 95//475 358//475 357//475
f 280//476 357//476 358//476
f 94//477 355//477 353//477
f 95//478 357//478 355//478
f 74//479 353//479 357//479
f 355//480 357//480 353//480
f 3//481 359//481 361//481
f 96//482 360//482 359//482
f 98//483 361//483 360//483
f 359//484 360//484 361//484
f 28//485 362//485 364//485
f 97//486 363//486 362//486
f 96//487 364//487 363//487
f 362//488 363//488 364//488
f 27//489 365//489 367//489
f 98//490 366//490 365//490
f 97//491 367//491 366//491
f 365//492 366//492 367//492
f 96//493 363//493 360//493
f 97//494 366//494 363//494
f 98//495 360//495 366//495
f 363//496 366//496 360//496
f 22//497 358//497 347//497
f 95//498 368//498 358//498
f 92//499 347//499 368//499
f 358//500 368//500 347//500
f 27//501 367//501 354//501
f 97//502 369//502 367//502
f 95//503 354//503 369//503
f 367//504 369//504 354//504
f 28//505 351//505 362//505
f 92//506 370//506 351//506
f 97//507 362//507 370//507
f 351//508 370//508 362//508
f 95//509 369//509 368//509
f 97//510 370//510 369//510
f 92//511 368//511 370//511
f 369//512 370//512 368//512
f 11//513 261//513 372//513
f 72//514 371//514 261//514
f 100//515 372//515 371//515
f 261//516 371//516 372//516
f 20//517 373//517 265//517
f 99//518 374//518 373//518
f 72//519 265//519 374//519
f 373//520 374//520 265//520
f 30//521 375//521 377//521
f 100//522 376//522 375//522
f 99//523 377//523 376//523
f 375//524 376//524 377//524
f 72//525 374//525 371//525
f 99//526 376//526 374//526
f 100//527 371//527 376//527
f 374//528 376//528 371//528
f 8//529 378//529 252//529
f 101//530 379//530 378//530
f 68//531 252//531 379//531
f 378//532 379//532 252//532
f 29//533 380//533 382//533
f 102//534 381//534 380//534
f 101//535 382//535 381//535
f 380//536 381//536 382//536
f 20//537 256//537 384//537
f 68//538 383//538 256//538
f 102//539 384//539 383//539
f 256//540 383//540 384//540
f 101//541 381//541 379//541
f 102//542 383//542 381//542
f 68//543 379//543 383//543
f 381//544 383//544 379//544
f 7//545 385//545 387//545
f 103//546 386//546 385//546
f 105//547 387//547 386//547
f 385//548 386//548 387//548
f 30//549 388//549 390//549
f 104//550 389//550 388//550
f 103//551 390//551 389//551
f 388//552 389//552 390//552
f 29//553 391//553 393//553
f 105//554 392//554 391//554
f 104//555 393//555 392//555
f 391//556 392//556 393//556
f 103//557 389//557 386//557
f 104//558 392//558 389//558
f 105//559 386//559 392//559
f 389//560 392//560 386//560
f 20//561 384//561 373//561
f 102//562 394//562 384//562
f 99//563 373//563 394//563
f 384//564 394//564 373//564
f 29//565 393//565 380//565
f 104//566 395//566 393//566
f 102//567 380//567 395//567
f 393//568 395//568 380//568
f 30//569 377//569 388//569
f 99//570 396//570 377//570
f 104//571 388//571 396//571
f 377//572 396//572 388//572
f 102//573 395//573 394//573
f 104//574 396//574 395//574
f 99//575 394//575 396//575
f 395//576 396//576 394//576
f 8//577 235//577 398//577
f 65//578 397//578 235//578
f 107//579 398//579 397//579
f 235//580 397//580 398//580
f 18//581 399//581 239//581
f 106//582 400//582 399//582
f 65//583 239//583 400//583
f 399//584 400//584 239//584
f 32//585 401//585 403//585
f 107//586 402//586 401//586
f 106//587 403//587 402//587
f 401//588 402//588 403//588
f 65//589 400//589 397//589
f 106//590 402//590 400//590
f 107//591 397//591 402//591
f 400//592 402//592 397//592
f 2//593 404//593 226//593
f 108//594 405//594 404//594
f 61//595 226//595 405//595
f 404//596 405//596 226//596
f 31//597 406//597 408//597
f 109//598 407//598 406//598
f 108//599 408//599 407//599
f 406//600 407//600 408//600
f 18//601 230//601 410//601
f 61//602 409//602 230//602
f 109//603 410//603 409//603
f 230//604 409//604 410//604
f 108//605 407//605 405//605
f 109//606 409//606 407//606
f 61//607 405//607 409//607
f 407//608 409//608 405//608
f 9//609 411//609 413//609
f 110//610 412//610 411//610
f 112//611 413//611 412//611
f 411//612 412//612 413//612
f 32//613 414//613 416//613
f 111//614 415//614 414//614
f 110//615 416//615 415//615
f 414//616 415//616 416//616
f 31//617 417//617 419//617
f 112//618 418//618 417//618
f 111//619 419//619 418//619
f 417//620 418//620 419//620
f 110//621 415//621 412//621
f 111//622 418//622 415//622
f 112//623 412//623 418//623
f 415//624 418//624 412//624
f 18//625 410//625 399//625
f 109//626 420//626 410//626
f 106//627 399//627 420//627
f 410//628 420//628 399//628
f 31//629 419//629 406//629
f 111//630 421//630 419//630
f 109//631 406//631 421//631
f 419//632 421//632 406//632
f 32//633 403//633 414//633
f 106//634 422//634 403//634
f 111//635 414//635 422//635
f 403//636 422//636 414//636
f 109//637 421//637 420//637
f 111//638 422//638 421//638
f 106//639 420//639 422//639
f 421//640 422//640 420//640
f 4//641 423//641 425//641
f 113//642 424//642 423//642
f 115//643 425//643 424//643
f 423//644 424//644 425//644
f 33//645 426//645 428//645
f 114//646 427//646 426//646
f 113//647 428//647 427//647
f 426//648 427//648 428//648
f 35//649 429//649 431//649
f 115//650 430//650 429//650
f 114//651 431//651 430//651
f 429//652 430//652 431//652
f 113//653 427//653 424//653
f 114//654 430//654 427//654
f 115//655 424//655 430//655
f 427//656 430//656 424//656
f 10//657 432//657 434//657
f 116//658 433//658 432//658
f 118//659 434//659 433//659
f 432//660 433//660 434//660
f 34//661 435//661 437//661
f 117//662 436//662 435//662
f 116//663 437//663 436//663
f 435//664 436//664 437//664
f 33//665 438//665 440//665
f 118//666 439//666 438//666
f 117//667 440//667 439//667
f 438//668 439//668 440//668
f 116//669 436//669 433//669
f 117//670 439//670 436//670
f 118//671 433//671 439//671
f 436//672 439//672 433//672
f 5//673 441//673 443//673
f 119//674 442//674 441//674
f 121//675 443//675 442//675
f 441//676 442//676 443//676
f 35//677 444//677 446//677
f 120//678 445//678 444//678
f 119//679 446//679 445//679
f 444//680 445//680 446//680
f 34//681 447//681 449//681
f 121//682 448//682 447//682
f 120//683 449//683 448//683
f 447//684 448//684 449//684
f 119//685 445//685 442//685
f 120//686 448//686 445//686
f 121//687 442//687 448//687
f 445//688 448//688 442//688
f 33//689 440//689 426//689
f 117//690 450//690 440//690
f 114//691 426//691 450//691
f 440//692 450//692 426//692
f 34//693 449//693 435//693
f 120//694 451//694 449//694
f 117//695 435//695 451//695
f 449//696 451//696 435//696
f 35//697 431//697 444//697
f 114//698 452//698 431//698
f 120//699 444//699 452//699
f 431//700 452//700 444//700
f 117//701 451//701 450//701
f 120//702 452//702 451//702
f 114//703 450//703 452//703
f 451//704 452//704 450//704
f 4//705 425//705 454//705
f 115//706 453//706 425//706
f 123//707 454//707 453//707
f 425//708 453//708 454//708
f 35//709 455//709 429//709
f 122//710 456//710 455//710
f 115//711 429//711 456//711
f 455//712 456//712 429//712
f 37//713 457//713 459//713
f 123//714 458//714 457//714
f 122//715 459//715 458//715
f 457//716 458//716 459//716
f 115//717 456//717 453//717
f 122//718 458//718 456//718
f 123//719 453//719 458//719
f 456//720 458//720 453//720
f 5//721 460//721 441//721
f 124//722 461//722 460//722
f 119//723 441//723 461//723
f 460//724 461//724 441//724
f 36//725 462//725 464//725
f 125//726 463//726 462//726
f 124//727 464//727 463//727
f 462//728 463//728 464//728
f 35//729 446//729 466//729
f 119//730 465//730 446//730
f 125//731 466//731 465//731
f 446//732 465//732 466//732
f 124//733 463//733 461//733
f 125//734 465//734 463//734
f 119//735 461//735 465//735
f 463//736 465//736 461//736
f 3//737 467//737 469//737
f 126//738 468//738 467//738
f 128//739 469//739 468//739
f 467//740 468//740 469//740
f 37//741 470//741 472//741
f 127//742 471//742 470//742
f 126//743 472//743 471//743
f 470//744 471//744 472//744
f 36//745 473//745 475//745
f 128//746 474//746 473//746
f 127//747 475//747 474//747
f 473//748 474//748 475//748
f 126//749 471//749 468//749
f 127//750 474//750 471//750
f 128//751 468//751 474//751
f 471//752 474//752 468//752
f 35//753 466//753 455//753
f 125//754 476//754 466//754
f 122//755 455//755 476//755
f 466//756 476//756 455//756
f 36//757 475//757 462//757
f 127//758 477//758 475//758
f 125//759 462//759 477//759
f 475//760 477//760 462//760
f 37//761 459//761 470//761
f 122//762 478//762 459//762
f 127//763 470//763 478//763
f 459//764 478//764 470//764
f 125//765 477//765 476//765
f 127//766 478//766 477//766
f 122//767 476//767 478//767
f 477//768 478//768 476//768
f 4//769 454//769 480//769
f 123//770 479//770 454//770
f 130//771 480//771 479//771
f 454//772 479//772 480//772
f 37//773 481//773 457//773
f 129//774 482//774 481//774
f 123//775 457//775 482//775
f 481//776 482//776 457//776
f 39//777 483//777 485//777
f 130//778 484//778 483//778
f 129//779 485//779 484//779
f 483//780 484//780 485//780
f 123//781 482//781 479//781
f 129//782 484//782 482//782
f 130//783 479//783 484//783
f 482//784 484//784 479//784
f 3//785 486//785 467//785
f 131//786 487//786 486//786
f 126//787 467//787 487//787
f 486//788 487//788 467//788
f 38//789 488//789 490//789
f 132//790 489//790 488//790
f 131//791 490//791 489//791
f 488//792 489//792 490//792
f 37//793 472//793 492//793
f 126//794 491//794 472//794
f 132//795 492//795 491//795
f 472//796 491//796 492//796
f 131//797 489//797 487//797
f 132//798 491//798 489//798
f 126//799 487//799 491//799
f 489//800 491//800 487//800
f 7//801 493//801 495//801
f 133//802 494//802 493//802
f 135//803 495//803 494//803
f 493//804 494//804 495//804
f 39//805 496//805 498//805
f 134//806 497//806 496//806
f 133//807 498//807 497//807
f 496//808 497//808 498//808
f 38//809 499//809 501//809
f 135//810 500//810 499//810
f 134//811 501//811 500//811
f 499//812 500//812 501//812
f 133//813 497//813 494//813
f 134//814 500//814 497//814
f 135//815 494//815 500//815
f 497//816 500//816 494//816
f 37//817 492//817 481//817
f 132//818 502//818 492//818
f 129//819 481//819 502//819
f 492//820 502//820 481//820
f 38//821 501//821 488//821
f 134//822 503//822 501//822
f 132//823 488//823 503//823
f 501//824 503//824 488//824
f 39//825 485//825 496//825
f 129//826 504//826 485//826
f 134//827 496//827 504//827
f 485//828 504//828 496//828
f 132//829 503//829 502//829
f 134//830 504//830 503//830
f 129//831 502//831 504//831
f 503//832 504//832 502//832
f 4//833 480//833 506//833
f 130//834 505//834 480//834
f 137//835 506//835 505//835
f 480//836 505//836 506//836
f 39//837 507//837 483//837
f 136//838 508//838 507//838
f 130//839 483//839 508//839
f 507//840 508//840 483//840
f 41//841 509//841 511//841
f 137//842 510//842 509//842
f 136//843 511//843 510//843
f 509//844 510//844 511//844
f 130//845 508//845 505//845
f 136//846 510//846 508//846
f 137//847 505//847 510//847
f 508//848 510//848 505//848
f 7//849 512//849 493//849
f 138//850 513//850 512//850
f 133//851 493//851 513//851
f 512//852 513//852 493//852
f 40//853 514//853 516//853
f 139//854 515//854 514//854
f 138//855 516//855 515//855
f 514//856 515//856 516//856
f 39//857 498//857 518//857
f 133//858 517//858 498//858
f 139//859 518//859 517//859
f 498//860 517//860 518//860
f 138//861 515//861 513//861
f 139//862 517//862 515//862
f 133//863 513//863 517//863
f 515//864 517//864 513//864
f 9//865 519//865 521//865
f 140//866 520//866 519//866
f 142//867 521//867 520//867
f 519//868 520//868 521//868
f 41//869 522//869 524//869
f 141//870 523//870 522//870
f 140//871 524//871 523//871
f 522//872 523//872 524//872
f 40//873 525//873 527//873
f 142//874 526//874 525//874
f 141//875 527//875 526//875
f 525//876 526//876 527//876
f 140//877 523//877 520//877
f 141//878 526//878 523//878
f 142//879 520//879 526//879
f 523//880 526//880 520//880
f 39//881 518//881 507//881
f 139//882 528//882 518//882
f 136//883 507//883 528//883
f 518//884 528//884 507//884
f 40//885 527//885 514//885
f 141//886 529//886 527//886
f 139//887 514//887 529//887
f 527//888 529//888 514//888
f 41//889 511//889 522//889
f 136//890 530//890 511//890
f 141//891 522//891 530//891
f 511//892 530//892 522//892
f 139//893 529//893 528//893
f 141//894 530//894 529//894
f 136//895 528//895 530//895
f 529//896 530//896 528//896
f 4//897 506//897 423//897
f 137//898 531//898 506//898
f 113//899 423//899 531//899
f 506//900 531//900 423//900
f 41//901 532//901 509//901
f 143//902 533//902 532//902
f 137//903 509//903 533//903
f 532//904 533//904 509//904
f 33//905 428//905 535//905
f 113//906 534//906 428//906
f 143//907 535//907 534//907
f 428//908 534//908 535//908
f 137//909 533//909 531//909
f 143//910 534//910 533//910
f 113//911 531//911 534//911
f 533//912 534//912 531//912
f 9//913 536//913 519//913
f 144//914 537//914 536//914
f 140//915 519//915 537//915
f 536//916 537//916 519//916
f 42//917 538//917 540//917
f 145//918 539//918 538//918
f 144//919 540//919 539//919
f 538//920 539//920 540//920
f 41//921 524//921 542//921
f 140//922 541//922 524//922
f 145//923 542//923 541//923
f 524//924 541//924 542//924
f 144//925 539//925 537//925
f 145//926 541//926 539//926
f 140//927 537//927 541//927
f 539//928 541//928 537//928
f 10//929 434//929 544//929
f 118//930 543//930 434//930
f 147//931 544//931 543//931
f 434//932 543//932 544//932
f 33//933 545//933 438//933
f 146//934 546//934 545//934
f 118//935 438//935 546//935
f 545//936 546//936 438//936
f 42//937 547//937 549//937
f 147//938 548//938 547//938
f 146//939 549//939 548//939
f 547//940 548//940 549//940
f 118//941 546//941 543//941
f 146//942 548//942 546//942
f 147//943 543//943 548//943
f 546//944 548//944 543//944
f 41//945 542//945 532//945
f 145//946 550//946 542//946
f 143//947 532//947 550//947
f 542//948 550//948 532//948
f 42//949 549//949 538//949
f 146//950 551//950 549//950
f 145//951 538//951 551//951
f 549//952 551//952 538//952
f 33//953 535//953 545//953
f 143//954 552//954 535//954
f 146//955 545//955 552//955
f 535//956 552//956 545//956
f 145//957 551//957 550//957
f 146//958 552//958 551//958
f 143//959 550//959 552//959
f 551//960 552//960 550//960
f 5//961 443//961 333//961
f 121//962 553//962 443//962
f 89//963 333//963 553//963
f 443//964 553//964 333//964
f 34//965 554//965 447//965
f 148//966 555//966 554//966
f 121//967 447//967 555//967
f 554//968 555//968 447//968
f 26//969 338//969 557//969
f 89//970 556//970 338//970
f 148//971 557//971 556//971
f 338//972 556//972 557//972
f 121//973 555//973 553//973
f 148//974 556//974 555//974
f 89//975 553//975 556//975
f 555//976 556//976 553//976
f 10//977 309//977 432//977
f 84//978 558//978 309//978
f 116//979 432//979 558//979
f 309//980 558//980 432//980
f 23//981 559//981 313//981
f 149//982 560//982 559//982
f 84//983 313//983 560//983
f 559//984 560//984 313//984
f 34//985 437//985 562//985
f 116//986 561//986 437//986
f 149//987 562//987 561//987
f 437//988 561//988 562//988
f 84//989 560//989 558//989
f 149//990 561//990 560//990
f 116//991 558//991 561//991
f 560//992 561//992 558//992
f 6//993 320//993 300//993
f 86//994 563//994 320//994
f 80//995 300//995 563//995
f 320//996 563//996 300//996
f 26//997 564//997 323//997
f 150//998 565//998 564//998
f 86//999 323//999 565//999
f 564//1000 565//1000 323//1000
f 23//1001 304//1001 567//1001
f 80//1002 566//1002 304//1002
f 150//1003 567//1003 566//1003
f 304//1004 566//1004 567//1004
f 86//1005 565//1005 563//1005
f 150//1006 566//1006 565//1006
f 80//1007 563//1007 566//1007
f 565//1008 566//1008 563//1008
f 34//1009 562//1009 554//1009
f 149//1010 568//1010 562//1010
f 148//1011 554//1011 568//1011
f 562//1012 568//1012 554//1012
f 23//1013 567//1013 559//1013
f 150//1014 569//1014 567//1014
f 149//1015 559//1015 569//1015
f 567//1016 569//1016 559//1016
f 26//1017 557//1017 564//1017
f 148//1018 570//1018 557//1018
f 150//1019 564//1019 570//1019
f 557//1020 570//1020 564//1020
f 149//1021 569//1021 568//1021
f 150//1022 570//1022 569//1022
f 148//1023 568//1023 570//1023
f 569//1024 570//1024 568//1024
f 3//1025 469//1025 359//1025
f 128//1026 571//1026 469//1026
f 96//1027 359//1027 571//1027
f 469//1028 571//1028 359//1028
f 36//1029 572//1029 473//1029
f 151//1030 573//1030 572//1030
f 128//1031 473//1031 573//1031
f 572//1032 573//1032 473//1032
f 28//1033 364//1033 575//1033
f 96//1034 574//1034 364//1034
f 151//1035 575//1035 574//1035
f 364//1036 574//1036 575//1036
f 128//1037 573//1037 571//1037
f 151//1038 574//1038 573//1038
f 96//1039 571//1039 574//1039
f 573//1040 574//1040 571//1040
f 5//1041 335//1041 460//1041
f 91//1042 576//1042 335//1042
f 124//1043 460//1043 576//1043
f 335//1044 576//1044 460//1044
f 25//1045 577//1045 339//1045
f 152//1046 578//1046 577//1046
f 91//1047 339//1047 578//1047
f 577//1048 578//1048 339//1048
f 36//1049 464//1049 580//1049
f 124//1050 579//1050 464//1050
f 152//1051 580//1051 579//1051
f 464//1052 579//1052 580//1052
f 91//1053 578//1053 576//1053
f 152//1054 579//1054 578//1054
f 124//1055 576//1055 579//1055
f 578//1056 579//1056 576//1056
f 12//1057 346//1057 326//1057
f 93//1058 581//1058 346//1058
f 87//1059 326//1059 581//1059
f 346//1060 581//1060 326//1060
f 28//1061 582//1061 349//1061
f 153//1062 583//1062 582//1062
f 93//1063 349//1063 583//1063
f 582//1064 583//1064 349//1064
f 25//1065 330//1065 585//1065
f 87//1066 584//1066 330//1066
f 153//1067 585//1067 584//1067
f 330//1068 584//1068 585//1068
f 93//1069 583//1069 581//1069
f 153//1070 584//1070 583//1070
f 87//1071 581//1071 584//1071
f 583//1072 584//1072 581//1072
f 36//1073 580//1073 572//1073
f 152//1074 586//1074 580//1074
f 151//1075 572//1075 586//1075
f 580//1076 586//1076 572//1076
f 25//1077 585//1077 577//1077
f 153//1078 587//1078 585//1078
f 152//1079 577//1079 587//1079
f 585//1080 587//1080 577//1080
f 28//1081 575//1081 582//1081
f 151//1082 588//1082 575//1082
f 153//1083 582//1083 588//1083
f 575//1084 588//1084 582//1084
f 152//1085 587//1085 586//1085
f 153//1086 588//1086 587//1086
f 151//1087 586//1087 588//1087
f 587//1088 588//1088 586//1088
f 7//1089 495//1089 385//1089
f 135//1090 589//1090 495//1090
f 103//1091 385//1091 589//1091
f 495//1092 589//1092 385//1092
f 38//1093 590//1093 499//1093
f 154//1094 591//1094 590//1094
f 135//1095 499//1095 591//1095
f 590//1096 591//1096 499//1096
f 30//1097 390//1097 593//1097
f 103//1098 592//1098 390//1098
f 154//1099 593//1099 592//1099
f 390//1100 592//1100 593//1100
f 135//1101 591//1101 589//1101
f 154//1102 592//1102 591//1102
f 103//1103 589//1103 592//1103
f 591//1104 592//1104 589//1104
f 3//1105 361//1105 486//1105
f 98//1106 594//1106 361//1106
f 131//1107 486//1107 594//1107
f 361//1108 594//1108 486//1108
f 27//1109 595//1109 365//1109
f 155//1110 596//1110 595//1110
f 98//1111 365//1111 596//1111
f 595//1112 596//1112 365//1112
f 38//1113 490//1113 598//1113
f 131//1114 597//1114 490//1114
f 155//1115 598//1115 597//1115
f 490//1116 597//1116 598//1116
f 98//1117 596//1117 594//1117
f 155//1118 597//1118 596//1118
f 131//1119 594//1119 597//1119
f 596//1120 597//1120 594//1120
f 11//1121 372//1121 352//1121
f 100//1122 599//1122 372//1122
f 94//1123 352//1123 599//1123
f 372//1124 599//1124 352//1124
f 30//1125 600//1125 375//1125
f 156//1126 601//1126 600//1126
f 100//1127 375//1127 601//1127
f 600//1128 601//1128 375//1128
f 27//1129 356//1129 603//1129
f 94//1130 602//1130 356//1130
f 156//1131 603//1131 602//1131
f 356//1132 602//1132 603//1132
f 100//1133 601//1133 599//1133
f 156//1134 602//1134 601//1134
f 94//1135 599//1135 602//1135
f 601//1136 602//1136 599//1136
f 38//1137 598//1137 590//1137
f 155//1138 604//1138 598//1138
f 154//1139 590//1139 604//1139
f 598//1140 604//1140 590//1140
f 27//1141 603//1141 595//1141
f 156//1142 605//1142 603//1142
f 155//1143 595//1143 605//1143
f 603//1144 605//1144 595//1144
f 30//1145 593//1145 600//1145
f 154//1146 606//1146 593//1146
f 156//1147 600//1147 606//1147
f 593//1148 606//1148 600//1148
f 155//1149 605//1149 604//1149
f 156//1150 606//1150 605//1150
f 154//1151 604//1151 606//1151
f 605//1152 606//1152 604//1152
f 9//1153 521//1153 411//1153
f 142//1154 607//1154 521//1154
f 110//1155 411//1155 607//1155
f 521//1156 607//1156 411//1156
f 40//1157 608//1157 525//1157
f 157//1158 609//1158 608//1158
f 142//1159 525//1159 609//1159
f 608//1160 609//1160 525//1160
f 32//1161 416//1161 611//1161
f 110//1162 610//1162 416//1162
f 157//1163 611//1163 610//1163
f 416//1164 610//1164 611//1164
f 142//1165 609//1165 607//1165
f 157//1166 610//1166 609//1166
f 110//1167 607//1167 610//1167
f 609//1168 610//1168 607//1168
f 7//1169 387//1169 512//1169
f 105//1170 612//1170 387//1170
f 138//1171 512//1171 612//1171
f 387//1172 612//1172 512//1172
f 29//1173 613//1173 391//1173
f 158//1174 614//1174 613//1174
f 105//1175 391//1175 614//1175
f 613//1176 614//1176 391//1176
f 40//1177 516//1177 616//1177
f 138//1178 615//1178 516//1178
f 158//1179 616//1179 615//1179
f 516//1180 615//1180 616//1180
f 105//1181 614//1181 612//1181
f 158//1182 615//1182 614//1182
f 138//1183 612//1183 615//1183
f 614//1184 615//1184 612//1184
f 8//1185 398//1185 378//1185
f 107//1186 617//1186 398//1186
f 101//1187 378//1187 617//1187
f 398//1188 617//1188 378//1188
f 32//1189 618//1189 401//1189
f 159//1190 619//1190 618//1190
f 107//1191 401//1191 619//1191
f 618//1192 619//1192 401//1192
f 29//1193 382//1193 621//1193
f 101//1194 620//1194 382//1194
f 159//1195 621//1195 620//1195
f 382//1196 620//1196 621//1196
f 107//1197 619//1197 617//1197
f 159//1198 620//1198 619//1198
f 101//1199 617//1199 620//1199
f 619//1200 620//1200 617//1200
f 40//1201 616//1201 608//1201
f 158//1202 622//1202 616//1202
f 157//1203 608//1203 622//1203
f 616//1204 622//1204 608//1204
f 29//1205 621//1205 613//1205
f 159//1206 623//1206 621//1206
f 158//1207 613//1207 623//1207
f 621//1208 623//1208 613//1208
f 32//1209 611//1209 618//1209
f 157//1210 624//1210 611//1210
f 159//1211 618//1211 624//1211
f 611//1212 624//1212 618//1212
f 158//1213 623//1213 622//1213
f 159//1214 624//1214 623//1214
f 157//1215 622//1215 624//1215
f 623//1216 624//1216 622//1216
f 10//1217 544//1217 307//1217
f 147//1218 625//1218 544//1218
f 82//1219 307//1219 625//1219
f 544//1220 625//1220 307//1220
f 42//1221 626//1221 547//1221
f 160//1222 627//1222 626//1222
f 147//1223 547//1223 627//1223
f 626//1224 627//1224 547//1224
f 24//1225 312//1225 629//1225
f 82//1226 628//1226 312//1226
f 160//1227 629//1227 628//1227
f 312//1228 628//1228 629//1228
f 147//1229 627//1229 625//1229
f 160//1230 628//1230 627//1230
f 82//1231 625//1231 628//1231
f 627//1232 628//1232 625//1232
f 9//1233 413//1233 536//1233
f 112//1234 630//1234 413//1234
f 144//1235 536//1235 630//1235
f 413//1236 630//1236 536//1236
f 31//1237 631//1237 417//1237
f 161//1238 632//1238 631//1238
f 112//1239 417//1239 632//1239
f 631//1240 632//1240 417//1240
f 42//1241 540//1241 634//1241
f 144//1242 633//1242 540//1242
f 161//1243 634//1243 633//1243
f 540//1244 633//1244 634//1244
f 112//1245 632//1245 630//1245
f 161//1246 633//1246 632//1246
f 144//1247 630//1247 633//1247
f 632//1248 633//1248 630//1248
f 2//1249 294//1249 404//1249
f 79//1250 635//1250 294//1250
f 108//1251 404//1251 635//1251
f 294//1252 635//1252 404//1252
f 24//1253 636//1253 297//1253
f 162//1254 637//1254 636//1254
f 79//1255 297//1255 637//1255
f 636//1256 637//1256 297//1256
f 31//1257 408//1257 639//1257
f 108//1258 638//1258 408//1258
f 162//1259 639//1259 638//1259
f 408//1260 638//1260 639//1260
f 79//1261 637//1261 635//1261
f 162//1262 638//1262 637//1262
f 108//1263 635//1263 638//1263
f 637//1264 638//1264 635//1264
f 42//1265 634//1265 626//1265
f 161//1266 640//1266 634//1266
f 160//1267 626//1267 640//1267
f 634//1268 640//1268 626//1268
f 31//1269 639//1269 631//1269
f 162//1270 641//1270 639//1270
f 161//1271 631//1271 641//1271
f 639//1272 641//1272 631//1272
f 24//1273 629//1273 636//1273
f 160//1274 642//1274 629//1274
f 162//1275 636//1275 642//1275
f 629//1276 642//1276 636//1276
f 161//1277 641//1277 640//1277
f 162//1278 642//1278 641//1278
f 160//1279 640//1279 642//1279
f 641//1280 642//1280 640//1280
