# Fractured Arcana procedural boulder
o Boulder_Spire
v -0.152659 0.622339 -0.002999
v 0.148038 0.608981 -0.002999
v -0.150548 -0.297647 -0.002999
v 0.165174 -0.298967 -0.002999
v -0.000261 -0.206361 0.286062
v -0.000261 0.378754 0.217217
v -0.000261 -0.176397 -0.265981
v -0.000261 0.413002 -0.253026
v 0.233627 0.125745 -0.159596
v 0.253482 0.125745 0.166891
v -0.223321 0.125745 -0.152347
v -0.229244 0.125745 0.150314
v -0.241062 0.425458 0.096643
v -0.152328 0.315016 0.263555
v -0.083009 0.562029 0.142048
v 0.074337 0.519056 0.127761
v -0.000261 0.683418 -0.002999
v 0.089026 0.596503 -0.159507
v -0.080067 0.546520 -0.142890
v -0.132106 0.289847 -0.234107
v -0.235285 0.418268 -0.100252
v -0.244607 0.125745 -0.002999
v 0.140057 0.300392 0.242959
v 0.226265 0.407690 0.090736
v -0.117359 -0.020002 0.202259
v -0.000261 0.125745 0.314703
v -0.241094 -0.174009 -0.102656
v -0.236045 -0.167724 0.094567
v -0.000261 0.125745 -0.280056
v -0.113401 -0.015075 -0.201319
v 0.223239 0.403925 -0.095483
v 0.127689 0.284998 -0.227279
v 0.220077 -0.148499 0.088176
v 0.123133 -0.027837 0.213293
v 0.086105 -0.289051 0.148389
v -0.097361 -0.299852 0.167204
v -0.000261 -0.256806 -0.002999
v -0.089477 -0.293586 -0.159384
v 0.085958 -0.288784 -0.154129
v 0.115465 -0.018293 -0.205852
v 0.226735 -0.156785 -0.096929
v 0.264625 0.125745 -0.002999
v -0.204953 0.542884 0.048340
v -0.159070 0.500201 0.121492
v -0.117973 0.597072 0.073384
v -0.201121 0.218293 0.212037
v -0.185193 0.355922 0.168114
v -0.218641 0.258239 0.115990
v -0.037390 0.448718 0.172808
v -0.107551 0.424347 0.185066
v -0.069213 0.357574 0.244949
v -0.043285 0.632985 0.072417
v -0.075535 0.659374 -0.002999
v 0.035614 0.437807 0.166868
v -0.000261 0.569751 0.144615
v 0.071886 0.637209 -0.002999
v 0.047590 0.689885 0.080877
v 0.122406 0.616910 0.076599
v -0.044038 0.641852 -0.079734
v -0.127737 0.636166 -0.085718
v 0.132777 0.658436 -0.089327
v 0.039195 0.590912 -0.072161
v -0.041342 0.483095 -0.197519
v -0.000261 0.522393 -0.134869
v 0.038723 0.464852 -0.187589
v -0.164535 0.513087 -0.131775
v -0.194083 0.520731 -0.051612
v -0.068001 0.353500 -0.246590
v -0.115757 0.447184 -0.205449
v -0.185293 0.238006 -0.103819
v -0.195595 0.368867 -0.183737
v -0.190775 0.213526 -0.206959
v -0.263150 0.452951 -0.002999
v -0.264196 0.125745 -0.084226
v -0.243654 0.261224 -0.048041
v -0.223998 0.250282 0.038404
v -0.251475 0.125745 0.074312
v 0.151831 0.484363 0.116227
v 0.187220 0.507809 0.044023
v 0.069178 0.359212 0.246701
v 0.102409 0.411489 0.176968
v 0.262027 0.284879 0.139914
v 0.190976 0.363769 0.173948
v 0.223955 0.229055 0.237041
v -0.083848 0.229781 0.324622
v -0.000261 0.290476 0.308935
v -0.193863 0.036541 0.204267
v -0.138265 0.125745 0.238905
v -0.000261 0.004673 0.226263
v -0.064752 0.045475 0.249778
v -0.061999 -0.081831 0.219009
v -0.255719 -0.016449 0.044274
v -0.217283 -0.005926 0.115251
v -0.274782 -0.040811 -0.152579
v -0.269577 -0.024163 -0.052838
v -0.200945 -0.267447 0.047334
v -0.249293 -0.184214 -0.002999
v -0.206218 -0.273474 -0.054655
v -0.118531 0.125745 -0.210311
v -0.160488 0.051919 -0.174535
v -0.000261 0.259240 -0.255786
v -0.073048 0.216340 -0.288293
v -0.063159 -0.085729 -0.229177
v -0.068437 0.040890 -0.270218
v -0.000261 0.014357 -0.213923
v 0.121906 0.465750 -0.217142
v 0.069605 0.360647 -0.254234
v 0.171466 0.475705 -0.046070
v 0.162730 0.510060 -0.130769
v 0.195548 0.215966 -0.212628
v 0.198979 0.373729 -0.187352
v 0.255136 0.280698 -0.142159
v 0.211215 -0.279121 0.050041
v 0.175691 -0.270835 0.134930
v 0.124196 -0.298815 0.077760
v 0.207090 0.030206 0.218986
v 0.204066 -0.128571 0.186059
v 0.258609 -0.031315 0.138052
v 0.045664 -0.261616 0.214458
v 0.125559 -0.223555 0.217547
v 0.067516 -0.102133 0.240722
v 0.043109 -0.299825 0.073022
v 0.084286 -0.282932 -0.002999
v -0.046837 -0.265156 0.217541
v -0.000261 -0.296630 0.157868
v -0.076741 -0.298615 -0.002999
v -0.048006 -0.294951 0.080692
v -0.132585 -0.299710 0.082865
v 0.047372 -0.295254 -0.086494
v 0.122140 -0.297708 -0.082425
v -0.122770 -0.297775 -0.082495
v -0.048939 -0.292077 -0.088325
v 0.039273 -0.217774 -0.190193
v -0.000261 -0.299845 -0.178215
v -0.043150 -0.242851 -0.206083
v 0.169568 -0.262224 -0.136130
v 0.210080 -0.278015 -0.055755
v 0.063815 -0.089689 -0.233412
v 0.113478 -0.190804 -0.202369
v 0.175515 0.019099 -0.098775
v 0.197143 -0.119954 -0.185652
v 0.191401 0.037435 -0.208188
v 0.218136 -0.146083 -0.002999
v 0.224462 0.125745 -0.072158
v 0.220551 0.002835 -0.043862
v 0.254949 -0.016311 0.044229
v 0.260580 0.125745 0.077275
v 0.059968 0.050781 0.233070
v 0.156169 0.125745 0.271202
v 0.075821 0.220440 0.295204
v -0.172315 -0.265482 0.131875
v -0.132145 -0.238043 0.228177
v -0.195265 -0.116967 0.177433
v -0.113550 -0.189553 -0.201581
v -0.152255 -0.230796 -0.122149
v -0.174139 -0.090673 -0.163885
v 0.140045 0.125745 -0.248937
v 0.056508 0.055088 -0.225505
v 0.069150 0.212137 -0.275057
v 0.236003 0.257255 0.040723
v 0.232052 0.255056 -0.045990
v 0.226395 0.407853 -0.002999
v -0.178827 0.583607 0.022479
v -0.171805 0.605110 0.066301
v -0.139113 0.625007 0.037740
v -0.199883 0.467722 0.110694
v -0.180648 0.519829 0.086349
v -0.228121 0.492794 0.074143
v -0.109676 0.621577 0.118244
v -0.143296 0.563004 0.100926
v -0.125340 0.546284 0.136813
v -0.193138 0.165927 0.161113
v -0.200448 0.234092 0.153295
v -0.221749 0.193406 0.131392
v -0.172776 0.340466 0.216705
v -0.193345 0.289634 0.189824
v -0.181450 0.268309 0.242400
v -0.219233 0.326202 0.102422
v -0.203142 0.306268 0.141792
v -0.204373 0.379794 0.129449
v -0.019806 0.424604 0.201689
v -0.048003 0.383579 0.189452
v -0.031401 0.357307 0.219400
v -0.091310 0.474520 0.156597
v -0.073085 0.446515 0.184184
v -0.061833 0.522533 0.167729
v -0.112817 0.347353 0.265247
v -0.087205 0.386818 0.210182
v -0.124113 0.367481 0.214097
v -0.172842 0.429052 0.145447
v -0.155886 0.410897 0.190192
v -0.139729 0.479494 0.163065
v -0.096524 0.625954 0.035327
v -0.116944 0.658833 -0.002999
v -0.066690 0.625165 0.113443
v -0.084571 0.642148 0.077066
v -0.039977 0.700000 -0.002999
v -0.060053 0.654411 0.036078
v -0.023525 0.688402 0.037779
v 0.018397 0.411022 0.192387
v -0.000261 0.451167 0.174141
v 0.038975 0.550122 0.138089
v 0.018246 0.484117 0.150255
v 0.055786 0.486926 0.152408
v -0.019999 0.507959 0.160450
v -0.040845 0.564709 0.142939
v 0.114546 0.650260 -0.002999
v 0.104773 0.671527 0.038819
v 0.134099 0.608852 0.036421
v 0.022998 0.688267 0.037770
v 0.061271 0.669791 0.037215
v 0.038629 0.688045 -0.002999
v 0.098051 0.571261 0.105941
v 0.084714 0.646215 0.077696
v 0.068378 0.641777 0.117316
v -0.021753 0.605770 0.110022
v 0.022057 0.624188 0.114359
v -0.000261 0.638357 0.073216
v -0.104338 0.666557 -0.044437
v -0.151252 0.668654 -0.047300
v -0.023420 0.685856 -0.043594
v -0.062848 0.679121 -0.043903
v -0.105697 0.603544 -0.119833
v -0.079733 0.612515 -0.078470
v -0.061367 0.585148 -0.110111
v 0.143838 0.643869 -0.045277
v 0.101694 0.655527 -0.043592
v 0.070318 0.656362 -0.126715
v 0.084673 0.645965 -0.083657
v 0.114744 0.646906 -0.130437
v 0.055957 0.622802 -0.039741
v 0.022295 0.671266 -0.042536
v -0.023542 0.481721 -0.246808
v -0.000261 0.498776 -0.206055
v 0.021444 0.457612 -0.230296
v -0.036775 0.520691 -0.134303
v -0.019749 0.503122 -0.164381
v -0.055300 0.480432 -0.155613
v 0.059952 0.513770 -0.169958
v 0.019180 0.502206 -0.163989
v 0.038684 0.546979 -0.143043
v -0.000261 0.658439 -0.082201
v 0.021009 0.600793 -0.114849
v -0.020264 0.572512 -0.108190
v -0.168613 0.596189 -0.071010
v -0.180177 0.587069 -0.028671
v -0.133486 0.573673 -0.151917
v -0.151551 0.588238 -0.112922
v -0.224356 0.486729 -0.078867
v -0.179599 0.517538 -0.091828
v -0.197716 0.464008 -0.115458
v -0.034646 0.381435 -0.248572
v -0.059641 0.446432 -0.242365
v -0.133717 0.386226 -0.236931
v -0.093734 0.406422 -0.232188
v -0.106189 0.334305 -0.255451
v -0.079420 0.474417 -0.206465
v -0.103688 0.521938 -0.184294
v -0.210882 0.190086 -0.130798
v -0.211541 0.240096 -0.167955
v -0.212594 0.169980 -0.183666
v -0.218293 0.397119 -0.144480
v -0.199007 0.302589 -0.144840
v -0.218905 0.325902 -0.108263
v -0.155052 0.247538 -0.212646
v -0.185527 0.282999 -0.188016
v -0.157999 0.322074 -0.203884
v -0.146470 0.496592 -0.177090
v -0.161006 0.420278 -0.202547
v -0.193130 0.464707 -0.168896
v -0.219874 0.573291 -0.002999
v -0.265026 0.455285 -0.056405
v -0.237352 0.505324 -0.029712
v -0.249358 0.524545 0.025066
v -0.243875 0.428959 0.046139
v -0.252603 0.125745 -0.123502
v -0.212977 0.186763 -0.092311
v -0.248032 0.192973 -0.025350
v -0.238157 0.191578 -0.061701
v -0.265423 0.125745 -0.043010
v -0.223345 0.255234 -0.082462
v -0.246358 0.340557 -0.074416
v -0.235791 0.193307 0.095891
v -0.246600 0.125745 0.114637
v -0.237021 0.332408 0.065708
v -0.226673 0.257166 0.077648
v -0.236212 0.125745 0.032604
v -0.229115 0.189076 0.053471
v -0.232074 0.188643 0.017912
v -0.261279 0.355824 -0.028497
v -0.222224 0.249295 -0.002999
v -0.254737 0.350057 0.021859
v 0.153757 0.556132 0.059221
v 0.166147 0.552432 0.020745
v 0.103385 0.474219 0.112854
v 0.127745 0.517058 0.090006
v 0.210586 0.465388 0.068383
v 0.191386 0.544427 0.091926
v 0.189165 0.450253 0.104887
v 0.031635 0.362923 0.224794
v 0.047720 0.384868 0.190414
v 0.120897 0.362221 0.209374
v 0.086132 0.385161 0.208829
v 0.109319 0.341494 0.258155
v 0.069715 0.433968 0.176863
v 0.089301 0.468826 0.153992
v 0.272680 0.209124 0.162612
v 0.259827 0.266512 0.200062
v 0.258821 0.179720 0.217445
v 0.215806 0.394673 0.137206
v 0.255879 0.353657 0.179802
v 0.239184 0.344944 0.112279
v 0.186529 0.272716 0.249986
v 0.219895 0.312613 0.216859
v 0.167040 0.333977 0.210064
v 0.129662 0.455283 0.151699
v 0.147234 0.396000 0.180100
v 0.166918 0.419558 0.140801
v -0.036273 0.323084 0.270901
v -0.000261 0.334419 0.251654
v -0.114192 0.267549 0.281765
v -0.075994 0.299733 0.281655
v -0.000261 0.215165 0.342351
v -0.042965 0.268300 0.333674
v -0.043226 0.179221 0.342471
v -0.226845 0.078540 0.189793
v -0.205011 0.125745 0.216202
v -0.134356 0.044387 0.232053
v -0.163514 0.082734 0.219471
v -0.157907 0.001705 0.210514
v -0.186625 0.174845 0.250966
v -0.161398 0.223509 0.279453
v -0.000261 -0.078461 0.246201
v -0.031486 -0.045361 0.234491
v -0.036383 -0.142861 0.254977
v -0.035326 0.082101 0.278950
v -0.030626 0.024378 0.236400
v -0.000261 0.059262 0.253767
v -0.091782 -0.054448 0.215115
v -0.058014 -0.006936 0.214074
v -0.086546 0.018349 0.212667
v -0.118570 0.174829 0.289826
v -0.101038 0.083934 0.246433
v -0.074413 0.125745 0.287645
v -0.231617 0.059380 0.094138
v -0.222370 0.057894 0.131770
v -0.233017 0.062591 0.017997
v -0.243904 0.058322 0.057120
v -0.230817 -0.085317 0.107999
v -0.242272 -0.014730 0.083204
v -0.242885 -0.086036 0.067409
v -0.258211 0.046945 -0.159515
v -0.296678 0.040717 -0.127454
v -0.267537 -0.107554 -0.080562
v -0.277726 -0.035310 -0.101832
v -0.267514 -0.118911 -0.131665
v -0.282920 0.047525 -0.072746
v -0.251714 0.057518 -0.025682
v -0.171061 -0.282290 0.021371
v -0.207178 -0.274505 -0.002999
v -0.177562 -0.288797 -0.028298
v -0.247632 -0.182146 0.046897
v -0.230117 -0.238808 0.022898
v -0.223056 -0.231228 0.072429
v -0.221005 -0.228368 -0.077733
v -0.226225 -0.233669 -0.028458
v -0.229926 -0.160109 -0.049325
v -0.257055 -0.017193 -0.002999
v -0.261510 -0.104538 -0.028519
v -0.254515 -0.098372 0.021837
v -0.165435 0.125745 -0.179831
v -0.183390 0.087593 -0.158818
v -0.124288 0.200994 -0.220404
v -0.158429 0.167417 -0.218541
v -0.131227 0.022697 -0.180378
v -0.145200 0.087559 -0.200513
v -0.121478 0.052201 -0.215477
v -0.000261 0.346970 -0.272969
v -0.035961 0.321371 -0.274523
v -0.034290 0.168099 -0.276621
v -0.035705 0.244065 -0.282436
v -0.000261 0.197838 -0.281431
v -0.074374 0.296012 -0.281565
v -0.103644 0.254421 -0.261401
v -0.035131 -0.133553 -0.252037
v -0.030197 -0.038295 -0.230683
v -0.000261 -0.060349 -0.230097
v -0.091609 0.012048 -0.231320
v -0.062150 -0.016439 -0.235621
v -0.086691 -0.044425 -0.208982
v -0.000261 0.067627 -0.227457
v -0.031378 0.021870 -0.248322
v -0.032827 0.085211 -0.264859
v -0.098922 0.166678 -0.247195
v -0.073620 0.125745 -0.290534
v -0.101867 0.083590 -0.254484
v 0.056384 0.431656 -0.231336
v 0.034469 0.383999 -0.251035
v 0.103885 0.524689 -0.185553
v 0.076852 0.465407 -0.201208
v 0.099938 0.323023 -0.241795
v 0.101410 0.431036 -0.252287
v 0.132534 0.384936 -0.235772
v 0.160976 0.539174 -0.026006
v 0.161761 0.578499 -0.068453
v 0.194541 0.459464 -0.113947
v 0.169691 0.497031 -0.087179
v 0.185021 0.424207 -0.065727
v 0.157815 0.608984 -0.117853
v 0.134943 0.580324 -0.154129
v 0.239572 0.175709 -0.207065
v 0.222820 0.246482 -0.177168
v 0.248781 0.201824 -0.154110
v 0.161480 0.327056 -0.208982
v 0.190700 0.287832 -0.193703
v 0.165985 0.256551 -0.228160
v 0.226688 0.333504 -0.112261
v 0.211259 0.313955 -0.153956
v 0.212086 0.390043 -0.140791
v 0.152169 0.512372 -0.184498
v 0.187215 0.455229 -0.164257
v 0.164505 0.427645 -0.207538
v 0.201211 -0.299979 0.025748
v 0.163164 -0.289496 0.063021
v 0.137043 -0.298236 0.037285
v 0.199468 -0.216143 0.110755
v 0.191480 -0.273031 0.091972
v 0.206876 -0.207916 0.067127
v 0.104150 -0.294290 0.112699
v 0.151628 -0.291902 0.107359
v 0.131606 -0.284565 0.144400
v 0.234217 0.076896 0.196510
v 0.246495 -0.007807 0.189654
v 0.252936 0.048397 0.150632
v 0.173891 -0.091014 0.218789
v 0.224498 -0.065030 0.221456
v 0.165785 -0.004904 0.221890
v 0.251171 -0.104427 0.118050
v 0.245993 -0.093372 0.172747
v 0.221733 -0.150560 0.141052
v 0.023722 -0.237761 0.248157
v 0.063794 -0.219672 0.255207
v 0.037368 -0.154062 0.265736
v 0.106928 -0.268402 0.184889
v 0.083341 -0.239009 0.211888
v 0.062153 -0.263341 0.170063
v 0.091864 -0.055637 0.216555
v 0.096422 -0.164569 0.234059
v 0.132949 -0.134255 0.230500
v 0.179337 -0.189895 0.151483
v 0.152403 -0.153980 0.186516
v 0.150048 -0.249050 0.175973
v 0.102166 -0.299561 0.037781
v 0.111428 -0.299777 -0.002999
v 0.067635 -0.299786 0.116013
v 0.079950 -0.297890 0.073172
v 0.044731 -0.254107 -0.002999
v 0.068216 -0.280236 0.041754
v 0.024921 -0.278553 0.041141
v -0.026085 -0.258596 0.267440
v -0.000261 -0.275458 0.227538
v -0.048804 -0.299915 0.171561
v -0.024070 -0.290908 0.194160
v -0.076737 -0.298115 0.209053
v 0.022861 -0.286291 0.188471
v 0.040411 -0.283132 0.143253
v -0.113914 -0.300000 -0.002999
v -0.106551 -0.297110 0.039320
v -0.142476 -0.299827 0.038726
v -0.024860 -0.284765 0.040120
v -0.064392 -0.293947 0.038914
v -0.042857 -0.275151 -0.002999
v -0.112817 -0.299767 0.121725
v -0.091613 -0.295702 0.083753
v -0.072005 -0.298935 0.122759
v 0.021015 -0.294779 0.108881
v -0.021882 -0.296441 0.110696
v -0.000261 -0.296199 0.079836
v 0.107619 -0.295477 -0.045951
v 0.142205 -0.299864 -0.044799
v 0.025219 -0.274963 -0.047663
v 0.066620 -0.286187 -0.046710
v 0.097089 -0.283656 -0.110873
v 0.084811 -0.299993 -0.083788
v 0.067250 -0.299625 -0.121336
v -0.131598 -0.294063 -0.041533
v -0.099266 -0.299935 -0.042418
v -0.067969 -0.299713 -0.121684
v -0.083416 -0.299729 -0.081967
v -0.110243 -0.298823 -0.124871
v -0.065039 -0.292405 -0.045335
v -0.026727 -0.261121 -0.049390
v 0.022524 -0.221934 -0.241611
v -0.000261 -0.277313 -0.235548
v -0.024259 -0.237947 -0.254312
v 0.043999 -0.295582 -0.162155
v 0.022560 -0.283972 -0.191980
v 0.062237 -0.263675 -0.176293
v -0.061506 -0.258474 -0.172819
v -0.025346 -0.296978 -0.210728
v -0.047678 -0.299886 -0.173511
v -0.000261 -0.269670 -0.096074
v -0.024825 -0.297722 -0.132171
v 0.025592 -0.291018 -0.138951
v 0.164105 -0.290359 -0.069400
v 0.193548 -0.298654 -0.030653
v 0.122441 -0.269521 -0.140155
v 0.144725 -0.284508 -0.108342
v 0.221492 -0.229781 -0.078074
v 0.197758 -0.279889 -0.101081
v 0.210059 -0.232433 -0.122786
v 0.033203 -0.123090 -0.241988
v 0.052569 -0.159565 -0.215959
v 0.115195 -0.099602 -0.205378
v 0.085701 -0.132377 -0.213771
v 0.088849 -0.049702 -0.215369
v 0.074934 -0.205465 -0.196275
v 0.101392 -0.254884 -0.181184
v 0.201914 0.063984 -0.125673
v 0.205223 0.014531 -0.163430
v 0.225665 0.078677 -0.195232
v 0.207946 -0.133400 -0.138105
v 0.192800 -0.046040 -0.140782
v 0.181167 -0.040342 -0.090346
v 0.152955 0.005190 -0.210513
v 0.199103 -0.043475 -0.202095
v 0.162982 -0.077435 -0.210895
v 0.141629 -0.232083 -0.171947
v 0.143533 -0.137728 -0.181504
v 0.185960 -0.201533 -0.163178
v 0.232403 -0.294531 -0.002999
v 0.244447 -0.178831 -0.052359
v 0.239910 -0.251429 -0.030059
v 0.236838 -0.247823 0.023714
v 0.226679 -0.156716 0.042776
v 0.237512 0.125745 -0.116545
v 0.198951 0.068601 -0.086641
v 0.230430 0.063151 -0.023809
v 0.201396 0.069940 -0.052759
v 0.224174 0.125745 -0.036865
v 0.193636 0.013197 -0.072065
v 0.216767 -0.063693 -0.065980
v 0.255793 0.052295 0.104508
v 0.246789 0.125745 0.114976
v 0.245319 -0.088616 0.068267
v 0.259384 -0.024966 0.089485
v 0.257386 0.125745 0.035877
v 0.225456 0.063282 0.052697
v 0.264569 0.053888 0.020890
v 0.244988 -0.090434 -0.026956
v 0.254184 -0.015886 -0.002999
v 0.229674 -0.076935 0.019462
v 0.032100 -0.051582 0.243126
v 0.083538 0.021445 0.206452
v 0.059558 -0.011682 0.221839
v 0.030246 0.023905 0.237518
v 0.033395 0.083855 0.267623
v 0.213656 0.125745 0.226015
v 0.164686 0.225821 0.286131
v 0.186530 0.174957 0.251546
v 0.175209 0.079515 0.236119
v 0.142673 0.039025 0.247545
v 0.037978 0.335285 0.287837
v 0.036733 0.171790 0.294463
v 0.040134 0.260592 0.315470
v 0.079197 0.308291 0.295656
v 0.120896 0.276543 0.299826
v 0.114290 0.078220 0.280525
v 0.113760 0.173050 0.279213
v 0.075348 0.125745 0.293353
v -0.160144 -0.285921 0.061590
v -0.141811 -0.294952 0.155224
v -0.152122 -0.291877 0.107338
v -0.172516 -0.245351 0.082321
v -0.204583 -0.223424 0.113371
v -0.058973 -0.191330 0.233670
v -0.142927 -0.152713 0.247077
v -0.101385 -0.177906 0.244949
v -0.085347 -0.244171 0.215703
v -0.116126 -0.284758 0.200097
v -0.208310 0.013143 0.159434
v -0.218846 -0.146317 0.138840
v -0.207727 -0.058858 0.145065
v -0.194167 -0.038842 0.190645
v -0.170253 -0.085836 0.213491
v -0.150072 -0.248115 0.175381
v -0.154676 -0.157189 0.188690
v -0.182467 -0.194478 0.153726
v -0.060960 -0.202063 -0.247680
v -0.103574 -0.259190 -0.184094
v -0.078066 -0.216665 -0.202987
v -0.091368 -0.147826 -0.226386
v -0.115332 -0.098852 -0.204704
v -0.156753 -0.282007 -0.066219
v -0.208046 -0.228694 -0.121342
v -0.167787 -0.237174 -0.085977
v -0.137682 -0.273677 -0.102846
v -0.124493 -0.272385 -0.141865
v -0.213711 0.010219 -0.169650
v -0.146402 -0.056149 -0.189115
v -0.177179 -0.024423 -0.179679
v -0.220437 -0.070168 -0.160134
v -0.233468 -0.164517 -0.154327
v -0.142528 -0.232897 -0.172397
v -0.171193 -0.174665 -0.150028
v -0.142426 -0.134744 -0.179481
v 0.197775 0.125745 -0.215012
v 0.121984 0.051577 -0.217279
v 0.157334 0.084224 -0.217759
v 0.170060 0.170618 -0.235102
v 0.137278 0.209191 -0.244086
v 0.030837 -0.044661 -0.239518
v 0.029500 0.088702 -0.242304
v 0.028135 0.030953 -0.226870
v 0.060999 -0.014993 -0.233254
v 0.089812 0.013635 -0.228133
v 0.032930 0.307624 -0.255442
v 0.102581 0.253747 -0.260048
v 0.064972 0.275610 -0.248186
v 0.031400 0.231436 -0.252611
v 0.033580 0.167865 -0.275110
v 0.097195 0.085312 -0.244211
v 0.063823 0.125745 -0.254179
v 0.113638 0.173000 -0.284909
v 0.268572 0.202860 0.109873
v 0.254398 0.194842 0.019973
v 0.268720 0.200180 0.063373
v 0.241912 0.266314 0.083262
v 0.229570 0.326358 0.063696
v 0.258877 0.200079 -0.111802
v 0.251095 0.345147 -0.075942
v 0.252956 0.272724 -0.093194
v 0.249477 0.194855 -0.064623
v 0.255541 0.195152 -0.026074
v 0.176987 0.486955 -0.002999
v 0.224904 0.405997 0.042418
v 0.204143 0.452991 0.020030
v 0.196062 0.440055 -0.025119
v 0.223688 0.404484 -0.048172
v 0.241505 0.260318 -0.002999
v 0.248328 0.344868 -0.027283
v 0.232431 0.330855 0.019731
vn -0.742987 0.637034 0.205324
vn -0.865458 0.490486 -0.102008
vn 0.039976 0.797829 0.601556
vn -0.652136 0.716675 -0.247174
vn -0.606559 0.354378 0.711690
vn -0.575485 0.510821 0.638654
vn -0.492826 0.567656 0.659461
vn -0.474942 0.510292 0.716961
vn -0.218500 0.276271 0.935912
vn -0.843020 0.522114 -0.129283
vn -0.751516 0.368045 0.547510
vn -0.791652 0.296448 0.534233
vn -0.754039 0.223389 0.617676
vn -0.680656 0.376713 0.628327
vn -0.007574 0.632075 0.774870
vn -0.583120 0.242715 0.775281
vn -0.548318 0.281006 0.787644
vn -0.992938 -0.111218 -0.041282
vn -0.841204 0.162821 0.515621
vn -0.719255 0.002547 0.694742
vn -0.815469 0.278675 0.507297
vn -0.927911 0.214066 0.305215
vn -0.937412 0.192517 0.290164
vn -0.929126 0.218035 0.298640
vn -0.743380 -0.125234 0.657041
vn -0.909524 0.073741 0.409059
vn -0.877350 0.065120 0.475412
vn -0.914958 0.051864 0.400203
vn -0.993259 0.114290 0.019366
vn -0.943581 0.201975 0.262413
vn -0.887658 0.039983 0.458763
vn -0.980150 -0.004998 0.198196
vn -0.120418 0.272004 0.954732
vn -0.696655 0.282053 0.659634
vn 0.345628 0.792032 0.503217
vn -0.704902 0.291613 0.646588
vn -0.597931 0.186334 0.779589
vn -0.330450 0.544426 0.770976
vn 0.290657 0.161141 0.943161
vn -0.671288 0.250373 0.697628
vn -0.589359 0.698915 0.405184
vn 0.099573 0.786259 0.609822
vn -0.163519 0.485939 0.858560
vn -0.388661 0.824913 0.410441
vn 0.287130 0.192954 0.938256
vn -0.258689 0.436465 0.861730
vn 0.331079 0.799514 0.501163
vn 0.468253 0.257356 0.845285
vn -0.498041 0.205144 0.842538
vn -0.764638 0.305098 0.567665
vn -0.496637 0.361766 0.788972
vn -0.662345 0.188485 0.725102
vn -0.377558 0.734549 0.563815
vn -0.034714 0.462423 0.885980
vn -0.881201 0.336368 0.332178
vn -0.163087 0.381604 0.909825
vn -0.185807 0.178282 0.966277
vn -0.755471 0.374155 0.537840
vn 0.163374 0.446336 0.879826
vn 0.158289 0.331477 0.930090
vn -0.854585 0.279917 0.437414
vn -0.003967 0.368552 0.929599
vn -0.782678 0.329325 0.528167
vn -0.808404 0.371101 0.456911
vn -0.701901 0.686907 0.188398
vn 0.016964 0.791832 0.610504
vn -0.009877 0.756344 0.654099
vn 0.019535 0.763963 0.644964
vn 0.069102 0.396823 0.915290
vn 0.239192 0.919574 0.311721
vn -0.783201 0.595082 -0.180205
vn -0.026764 0.900690 0.433636
vn 0.383086 0.917564 0.106407
vn -0.703006 0.615294 0.356645
vn -0.561235 0.573259 0.596984
vn -0.623816 0.648563 0.436141
vn -0.803416 0.595417 -0.000926
vn 0.241359 0.880571 0.407848
vn -0.585670 0.741992 0.326249
vn -0.608316 0.783044 -0.129593
vn 0.355436 0.432201 0.828775
vn 0.350981 0.517749 0.780223
vn -0.072904 0.743287 0.664989
vn 0.372385 0.521887 0.767439
vn 0.511764 0.317071 0.798476
vn 0.216719 0.110718 0.969935
vn -0.077600 0.310742 0.947321
vn -0.071178 0.202380 0.976717
vn -0.051318 0.524923 0.849601
vn 0.216282 0.138119 0.966512
vn -0.073139 0.269440 0.960236
vn 0.284580 0.376572 0.881594
vn 0.329421 0.425852 0.842693
vn 0.332008 0.133255 0.933817
vn -0.049365 0.217819 0.974740
vn 0.439710 0.352011 0.826283
vn 0.748439 0.607243 0.266637
vn -0.255829 0.836229 -0.485050
vn 0.893939 0.411481 0.177644
vn 0.905689 0.423925 -0.003919
vn -0.117990 0.991722 -0.050646
vn 0.415473 0.868724 -0.269630
vn 0.816827 0.534376 -0.217337
vn 0.431000 0.887980 0.160408
vn 0.549384 0.097307 0.829885
vn 0.323374 0.383516 0.865069
vn 0.722616 0.587783 0.363781
vn 0.868821 0.302348 0.392091
vn -0.007708 0.775969 -0.630724
vn 0.758284 0.649053 -0.061117
vn 0.483658 0.598141 0.638985
vn -0.053262 0.849185 0.525402
vn -0.045960 0.422079 0.905393
vn -0.112046 0.652733 0.749256
vn 0.390544 0.837402 0.382405
vn 0.284145 0.515792 0.808220
vn 0.356150 0.096398 0.929443
vn -0.247806 0.514632 0.820821
vn 0.323459 0.354917 0.877159
vn -0.162131 0.267297 0.949877
vn 0.002848 0.992805 -0.119712
vn -0.084056 0.549525 0.831238
vn -0.705313 0.598497 0.379913
vn 0.001845 0.578461 0.815708
vn -0.310023 0.555807 0.771339
vn -0.656031 0.529211 0.538107
vn -0.108325 0.774857 0.622786
vn -0.380110 0.791410 0.478735
vn -0.583153 0.570695 0.578135
vn -0.012846 0.983684 0.179444
vn 0.072699 0.783057 -0.617686
vn 0.032096 0.980758 0.192571
vn 0.380170 0.910581 -0.162210
vn -0.106986 0.660499 -0.743166
vn -0.749814 0.656262 0.084255
vn -0.152833 0.912199 -0.380177
vn 0.375191 0.487421 -0.788449
vn 0.448539 0.772722 -0.449126
vn -0.456537 0.524516 -0.718649
vn 0.424831 0.792021 -0.438431
vn -0.275880 0.896318 0.347137
vn -0.436726 0.499128 -0.748426
vn 0.404198 0.612069 -0.679702
vn -0.135189 0.483192 -0.865014
vn 0.710063 0.576107 0.404860
vn 0.267683 0.932811 0.241267
vn -0.285912 0.934561 0.211780
vn 0.267882 0.962618 0.040078
vn 0.030684 0.487591 -0.872533
vn -0.673503 0.635274 0.377916
vn -0.264720 0.952428 -0.151008
vn 0.218277 0.962735 0.159677
vn -0.110706 0.930502 -0.349157
vn 0.724674 0.474089 -0.500088
vn 0.610195 0.383850 -0.693053
vn 0.724309 0.474219 -0.500492
vn -0.262151 0.957880 -0.117229
vn -0.776024 0.601316 -0.190280
vn -0.584250 0.809052 -0.063929
vn -0.578255 0.814239 0.051344
vn 0.440809 0.227894 -0.868189
vn -0.381228 0.909992 -0.163036
vn 0.702841 0.597711 -0.385688
vn 0.540888 0.619935 -0.568437
vn 0.356445 0.303680 -0.883587
vn -0.047765 0.850491 -0.523816
vn -0.556344 0.820210 -0.133175
vn -0.521998 0.574097 -0.630817
vn -0.543334 0.290432 -0.787679
vn -0.247327 0.421735 -0.872335
vn -0.483112 0.534781 -0.693262
vn -0.262706 0.500392 -0.824981
vn -0.392203 0.877828 -0.274946
vn 0.025135 0.829356 -0.558155
vn 0.703273 0.604408 -0.374296
vn 0.024356 0.995423 -0.092412
vn 0.304406 0.945342 -0.116900
vn 0.755952 0.360457 -0.546450
vn -0.297116 0.685300 -0.664895
vn 0.282642 0.853954 -0.436893
vn -0.531178 0.273328 -0.801961
vn -0.386460 0.325232 -0.863060
vn -0.632398 0.650860 0.420065
vn -0.499710 0.267495 -0.823854
vn 0.426938 0.455970 -0.780907
vn 0.171874 0.423864 -0.889268
vn -0.035141 0.458627 -0.887934
vn 0.165464 0.401246 -0.900901
vn 0.850709 0.458981 -0.256185
vn -0.361528 0.321557 -0.875156
vn -0.174446 0.322054 -0.930511
vn -0.376601 0.347414 -0.858764
vn -0.843265 0.384678 0.375403
vn -0.615639 0.374376 -0.693420
vn -0.942768 0.266799 -0.200016
vn -0.937722 0.288141 -0.194041
vn 0.381007 0.488607 -0.784918
vn -0.833103 0.265648 -0.485151
vn -0.307452 0.580655 -0.753865
vn -0.342625 0.816970 -0.463863
vn -0.661730 0.317758 -0.679076
vn -0.597912 0.752868 -0.275120
vn -0.824132 0.437644 -0.359546
vn -0.534767 0.486107 -0.691176
vn -0.710456 0.579576 -0.399180
vn -0.897331 0.246826 -0.365889
vn -0.912330 0.219005 -0.345963
vn -0.885169 0.230600 -0.404103
vn -0.159970 0.035063 -0.986499
vn -0.104694 0.054563 -0.993007
vn -0.690135 0.672241 -0.267968
vn -0.155288 0.034558 -0.987265
vn -0.600550 -0.033443 -0.798888
vn -0.143941 0.487251 -0.861318
vn 0.072926 0.294745 -0.952789
vn -0.046037 0.313860 -0.948353
vn 0.689912 0.377464 -0.617691
vn -0.219704 0.975503 -0.011177
vn -0.251248 0.300901 -0.919964
vn 0.721598 0.559039 -0.408378
vn -0.365048 0.075026 -0.927961
vn -0.318925 0.393356 -0.862298
vn -0.030923 0.779978 -0.625043
vn -0.648014 0.385024 -0.657141
vn -0.977784 0.204481 -0.046105
vn -0.889316 0.265117 0.372598
vn -0.834713 0.132305 -0.534556
vn -0.999539 0.008471 0.029143
vn -0.944857 -0.141964 -0.295114
vn -0.902378 -0.182616 -0.390340
vn -0.897189 -0.356291 -0.260977
vn -0.907900 -0.183794 -0.376745
vn -0.730847 0.051110 -0.680625
vn -0.396129 0.269286 -0.877819
vn -0.485122 -0.013316 -0.874345
vn -0.574012 0.073174 -0.815571
vn -0.924045 0.044913 0.379637
vn -0.961778 -0.100066 -0.254891
vn -0.793625 0.215131 -0.569102
vn -0.851551 0.323418 -0.412628
vn 0.433876 0.644139 -0.629950
vn -0.331609 0.306071 -0.892388
vn -0.848989 0.287736 -0.443200
vn -0.350280 0.343561 -0.871361
vn -0.775359 -0.031438 -0.630738
vn -0.474802 -0.002552 -0.880089
vn -0.353202 0.509354 -0.784733
vn -0.790793 -0.015881 -0.611877
vn -0.743789 0.445155 -0.498612
vn -0.836545 0.544066 -0.064684
vn -0.825399 0.107066 -0.554305
vn -0.943137 0.323429 -0.076717
vn -0.265861 0.350241 -0.898136
vn -0.621157 0.135505 -0.771882
vn -0.552643 0.687783 -0.470681
vn -0.393045 0.357472 -0.847189
vn -0.808004 0.586012 0.060988
vn -0.591638 0.371468 -0.715525
vn -0.505792 0.669765 0.543682
vn -0.285025 0.955796 0.072211
vn -0.635775 0.320792 -0.702056
vn -0.885276 0.462229 0.051298
vn -0.485238 0.767627 -0.418680
vn -0.688728 0.598883 -0.408648
vn -0.975176 0.210436 0.068904
vn -0.553663 0.569201 0.607839
vn -0.925415 0.030193 0.377750
vn -0.907260 0.040249 0.418640
vn -0.524661 0.424859 -0.737716
vn -0.907263 0.293030 -0.301674
vn -0.546971 0.640915 0.538563
vn -0.881343 0.350964 -0.316322
vn -0.657241 0.350526 -0.667208
vn -0.760812 0.608881 -0.224563
vn -0.880451 0.474085 -0.006980
vn -0.838975 0.544168 0.001330
vn -0.881975 0.107621 0.458844
vn -0.964969 -0.024935 -0.261177
vn -0.926288 0.375807 -0.027572
vn -0.915903 0.305367 -0.260524
vn -0.791942 -0.088036 -0.604217
vn -0.558163 -0.253399 -0.790091
vn -0.859954 -0.187166 -0.474813
vn -0.799474 -0.161057 -0.578708
vn -0.647320 0.463160 -0.605359
vn -0.858304 0.032700 -0.512098
vn -0.469387 0.055681 -0.881235
vn -0.774025 -0.026215 -0.632613
vn -0.877880 0.216679 0.427056
vn -0.922035 0.130760 0.364354
vn -0.974941 0.188671 0.117872
vn -0.902215 0.243163 0.356202
vn -0.897447 -0.173765 0.405455
vn -0.988854 -0.142723 -0.042389
vn -0.978423 0.032220 0.204083
vn -0.902205 -0.056216 0.427629
vn -0.966642 0.116846 0.227928
vn -0.917460 0.213436 -0.335727
vn -0.991371 0.102886 0.081223
vn -0.993086 0.084404 0.081591
vn -0.961370 0.193262 0.196003
vn -0.994835 0.063732 -0.079009
vn -0.944971 0.275642 -0.176216
vn -0.982050 0.093406 -0.163871
vn -0.847267 -0.054920 -0.528321
vn -0.955149 -0.122227 -0.269723
vn -0.999030 -0.028138 0.033857
vn -0.955400 -0.112597 -0.273006
vn -0.933682 0.069248 0.351343
vn -0.988411 0.144728 -0.045799
vn -0.860211 0.209711 0.464821
vn -0.894759 0.268362 0.356914
vn -0.996856 -0.060352 0.051339
vn -0.928562 0.013683 0.370924
vn -0.929780 -0.240190 0.278958
vn -0.925591 0.010985 0.378365
vn -0.899371 -0.242685 0.363641
vn -0.953544 -0.299362 -0.033715
vn -0.991092 -0.051355 0.122880
vn -0.941896 -0.324930 0.085159
vn 0.861810 0.404490 0.306058
vn 0.894349 0.410446 0.177971
vn 0.833027 0.507862 0.219413
vn 0.871300 0.428408 0.239378
vn 0.560560 0.089463 0.823267
vn -0.169992 0.537273 0.826100
vn 0.648751 0.135243 0.748887
vn 0.592983 0.089603 0.800214
vn 0.698766 0.415481 0.582324
vn 0.895936 0.311854 -0.316301
vn 0.384910 0.116922 0.915518
vn 0.851817 0.051654 0.521286
vn 0.666484 0.134107 0.733359
vn -0.238033 0.494871 0.835729
vn 0.625429 0.592713 -0.507473
vn -0.323838 0.709081 0.626365
vn 0.091303 0.573583 0.814043
vn -0.185995 0.865369 0.465342
vn 0.450530 0.446795 0.772915
vn 0.546512 0.566165 0.617075
vn 0.801780 0.457391 0.384632
vn 0.387415 0.603678 0.696766
vn 0.169215 0.776087 0.607499
vn 0.490657 0.753961 0.436806
vn 0.232783 0.503773 0.831880
vn -0.225052 0.359067 0.905772
vn 0.280206 0.411578 0.867230
vn 0.204328 0.454172 0.867167
vn -0.234573 0.847694 0.475805
vn 0.405061 0.592369 0.696437
vn -0.226529 0.352103 0.908134
vn -0.397708 0.405324 0.823129
vn 0.967827 -0.216241 0.128650
vn 0.982710 0.163962 0.086014
vn 0.632727 0.145013 0.760676
vn 0.963056 0.042112 0.265988
vn 0.914389 0.286475 0.286051
vn 0.056135 0.745068 0.664622
vn 0.935951 0.235493 -0.261797
vn 0.813315 0.516557 -0.267746
vn 0.228221 0.581484 0.780892
vn 0.540088 0.222300 0.811719
vn 0.190069 0.691800 0.696625
vn 0.125712 0.569400 0.812392
vn 0.996865 0.057741 0.054096
vn 0.033584 0.653382 0.756283
vn 0.581116 0.217642 0.784178
vn 0.574967 0.209905 0.790793
vn 0.836382 0.428010 0.342452
vn 0.185739 0.401790 0.896697
vn -0.208399 0.816212 0.538858
vn 0.321282 0.918523 0.230421
vn 0.310245 0.526208 0.791740
vn 0.471330 0.501133 0.725751
vn 0.144840 0.581105 0.800836
vn 0.287305 0.489502 0.823312
vn 0.763466 0.556518 0.327731
vn 0.582719 0.403224 0.705584
vn 0.351789 0.585598 0.730287
vn 0.354196 0.591142 0.724636
vn 0.094496 0.452751 0.886615
vn 0.521812 0.590693 0.615463
vn 0.590679 0.402676 0.699250
vn 0.635978 0.478544 0.605416
vn -0.344635 0.575849 0.741367
vn 0.369117 0.757590 0.538340
vn 0.075362 0.791173 0.606932
vn 0.035355 0.830816 0.555424
vn -0.206108 0.201743 0.957507
vn -0.425707 0.507817 0.748930
vn 0.269388 0.493300 0.827095
vn -0.167909 0.202587 0.964762
vn 0.242341 -0.286583 0.926899
vn 0.303825 0.386392 0.870857
vn -0.299366 0.094639 0.949433
vn -0.079380 0.098198 0.991996
vn -0.091864 0.541209 0.835855
vn -0.588529 0.470096 0.657757
vn -0.011039 0.753955 0.656833
vn -0.267851 0.739852 0.617150
vn -0.676695 0.451810 0.581336
vn -0.577253 -0.178743 0.796762
vn -0.981689 0.032824 -0.187640
vn -0.920969 0.381396 0.079700
vn -0.046339 -0.429539 0.901858
vn -0.498637 -0.096506 0.861422
vn -0.285992 -0.124811 0.950069
vn -0.531345 -0.129315 0.837228
vn -0.753783 0.184299 0.630749
vn -0.896646 0.089391 0.433630
vn -0.200517 -0.415439 0.887245
vn -0.821538 0.096982 0.561844
vn -0.239320 -0.158081 0.957986
vn -0.121905 -0.348368 0.929397
vn -0.913366 0.056542 0.403194
vn -0.465494 -0.388672 0.795141
vn -0.286040 0.285112 0.914818
vn -0.116643 0.231629 0.965786
vn -0.616378 0.191447 0.763823
vn -0.139893 0.210327 0.967570
vn 0.088976 -0.673004 0.734267
vn -0.053774 -0.595331 0.801679
vn 0.006138 -0.449950 0.893033
vn 0.200184 -0.570734 0.796360
vn -0.384196 0.058617 0.921389
vn -0.066573 0.069131 0.995384
vn -0.503167 -0.529792 0.682747
vn -0.018323 0.034922 0.999222
vn 0.299071 -0.029790 0.953766
vn -0.026091 -0.565095 0.824613
vn -0.528718 0.083793 0.844651
vn -0.622294 -0.013747 0.782663
vn -0.222468 0.188248 0.956593
vn -0.634103 -0.419463 0.649588
vn -0.773136 0.091077 0.627667
vn -0.134260 0.092120 0.986655
vn 0.163305 -0.378471 0.911093
vn -0.563841 -0.473106 0.676944
vn -0.298020 -0.094317 0.949888
vn 0.126985 -0.431712 0.893028
vn -0.153304 -0.549598 0.821243
vn -0.672190 -0.301326 0.676286
vn -0.298403 -0.436358 0.848851
vn -0.416186 -0.521176 0.745094
vn -0.618437 -0.432509 0.656104
vn -0.510622 -0.416343 0.752279
vn -0.337159 -0.342291 0.877018
vn -0.465768 -0.452798 0.760286
vn -0.879931 -0.206135 0.428053
vn -0.960543 -0.252726 0.116131
vn -0.963242 -0.136647 0.231286
vn -0.935131 -0.278692 0.218770
vn -0.968253 -0.101792 0.228308
vn -0.950672 0.192061 -0.243587
vn -0.938950 -0.017821 -0.343591
vn -0.963678 0.012941 -0.266752
vn -0.958502 0.014401 0.284722
vn -0.796676 0.081101 0.598940
vn -0.942343 -0.064633 0.328347
vn -0.956814 -0.055006 0.285450
vn -0.931160 -0.184715 0.314360
vn -0.942316 0.093684 0.321347
vn -0.791517 0.023698 0.610688
vn -0.945992 0.090060 0.311429
vn -0.656971 0.351550 -0.666934
vn -0.644891 0.061570 -0.761790
vn -0.854287 0.454545 -0.252153
vn -0.631159 0.359118 -0.687512
vn -0.915364 -0.393126 0.086954
vn -0.979626 -0.084532 0.182173
vn -0.993412 -0.104842 -0.046259
vn -0.990926 -0.131300 0.028734
vn -0.885480 -0.060916 0.460667
vn -0.973071 0.228676 -0.028965
vn -0.833289 -0.001567 0.552835
vn -0.830654 -0.025638 0.556199
vn -0.967569 -0.250945 -0.028921
vn -0.973194 -0.128089 0.191012
vn -0.944481 0.256263 0.205635
vn -0.954135 -0.150662 0.258702
vn -0.449658 -0.876159 0.173646
vn -0.315910 -0.933435 0.169999
vn -0.452546 -0.891356 -0.026205
vn -0.312029 -0.935905 0.163459
vn -0.905063 -0.292677 0.308546
vn -0.948968 -0.312213 0.044532
vn -0.767169 -0.608644 0.202497
vn -0.913890 -0.361088 0.185526
vn -0.938939 -0.229431 0.256428
vn -0.918327 -0.371275 -0.137223
vn -0.873407 -0.173069 -0.455200
vn -0.990117 -0.082073 -0.113717
vn -0.762148 -0.621437 0.181509
vn -0.921041 -0.374406 -0.107257
vn -0.899806 -0.435548 -0.025420
vn -0.871313 -0.477352 -0.113791
vn -0.917171 -0.036391 0.396828
vn -0.965092 0.136798 0.223346
vn -0.958873 0.282931 0.022655
vn -0.912013 0.177462 0.369782
vn -0.851397 -0.435805 0.291886
vn -0.823184 -0.283741 -0.491792
vn -0.990923 -0.063616 0.118428
vn -0.840934 -0.525820 0.127844
vn -0.971523 -0.002577 0.236933
vn -0.959276 -0.087642 0.268531
vn -0.996816 -0.071085 0.036133
vn -0.968593 -0.005211 0.248595
vn -0.968856 -0.022625 0.246587
vn -0.983424 -0.102993 0.149233
vn -0.999337 -0.022519 0.028606
vn -0.990609 0.010705 0.136308
vn -0.513425 -0.409445 -0.754155
vn -0.257348 -0.352357 -0.899787
vn -0.662069 -0.097671 -0.743051
vn -0.269239 -0.364315 -0.891507
vn -0.481133 -0.174825 -0.859039
vn 0.071164 -0.127238 -0.989316
vn -0.231527 0.081089 -0.969443
vn -0.130862 0.078234 -0.988309
vn -0.891327 -0.193305 -0.410084
vn -0.509510 -0.353307 -0.784585
vn -0.443247 0.080467 -0.892780
vn -0.802687 -0.327613 -0.498360
vn -0.743359 -0.383868 -0.547781
vn -0.034763 -0.225556 -0.973610
vn -0.794473 -0.096254 -0.599624
vn -0.877137 -0.239307 -0.416370
vn -0.362881 0.269413 -0.892040
vn 0.177676 -0.189151 -0.965740
vn -0.365427 0.375921 -0.851555
vn -0.240522 0.389411 -0.889105
vn -0.123719 -0.018924 -0.992137
vn 0.205700 -0.070890 -0.976044
vn 0.467469 0.340696 -0.815720
vn -0.072858 -0.077478 -0.994328
vn -0.669404 0.033948 -0.742123
vn -0.066339 0.523965 -0.849153
vn -0.619025 0.055852 -0.783383
vn -0.604752 0.039977 -0.795410
vn 0.575232 0.085183 -0.813543
vn 0.092249 0.085308 -0.992075
vn -0.195071 0.525460 -0.828154
vn 0.114141 0.101540 -0.988262
vn -0.019059 0.295359 -0.955196
vn -0.360536 0.221777 -0.905996
vn 0.172380 0.208429 -0.962727
vn 0.171371 0.207048 -0.963204
vn -0.586163 -0.341621 -0.734649
vn -0.557076 -0.473016 -0.682585
vn -0.704575 -0.055535 -0.707453
vn -0.466278 -0.360191 -0.807990
vn 0.439431 -0.602769 -0.666010
vn 0.711302 -0.173075 -0.681245
vn 0.409162 -0.221716 -0.885115
vn 0.704423 -0.164160 -0.690536
vn 0.089275 -0.093515 -0.991607
vn 0.250449 -0.479940 -0.840793
vn 0.708150 -0.185808 -0.681175
vn -0.044685 -0.281866 -0.958413
vn -0.780482 -0.161810 -0.603876
vn -0.748857 -0.145000 -0.646674
vn -0.801963 -0.139269 -0.580912
vn -0.801135 -0.137422 -0.582494
vn -0.270345 -0.139940 -0.952539
vn 0.377430 -0.193751 -0.905542
vn 0.312747 0.021516 -0.949593
vn 0.442017 -0.118375 -0.889161
vn -0.677783 -0.228441 -0.698874
vn -0.911573 0.065040 -0.405961
vn -0.698561 -0.309111 -0.645340
vn -0.731224 -0.302762 -0.611266
vn -0.855878 0.018187 -0.516858
vn -0.628794 -0.217169 -0.746630
vn -0.910272 0.068084 -0.408375
vn -0.827057 0.078142 -0.556660
vn 0.308920 0.308160 -0.899781
vn 0.551540 0.756524 -0.351390
vn 0.131687 0.326349 -0.936031
vn 0.193234 0.297593 -0.934933
vn -0.377919 0.245565 -0.892679
vn -0.311893 0.372976 -0.873849
vn -0.308025 0.438054 -0.844529
vn -0.393164 0.398138 -0.828799
vn 0.354624 -0.096227 -0.930044
vn 0.272605 -0.096698 -0.957254
vn 0.712264 0.245285 -0.657659
vn 0.352863 -0.095224 -0.930817
vn -0.241479 0.723626 -0.646570
vn -0.223557 0.755485 -0.615844
vn -0.410101 0.209847 -0.887570
vn -0.280817 0.728299 -0.625079
vn 0.984769 0.168845 0.041499
vn 0.983980 0.121341 0.130614
vn 0.942263 0.306324 -0.135297
vn 0.961064 0.193616 0.197150
vn 0.678927 0.522350 0.515954
vn 0.842301 0.538361 0.026397
vn 0.971019 0.226706 0.075677
vn 0.871127 0.298290 0.390078
vn 0.241356 0.389502 -0.888839
vn 0.659297 0.597270 -0.456723
vn 0.795718 0.117112 -0.594237
vn 0.576943 0.423541 -0.698391
vn 0.995418 0.095396 0.006501
vn 0.988191 0.067076 -0.137766
vn 0.914634 0.372604 0.156881
vn 0.994758 0.100792 -0.017254
vn 0.978881 -0.189445 -0.076823
vn 0.492975 0.434988 -0.753499
vn 0.709384 0.049379 -0.703091
vn 0.881039 0.345179 -0.323453
vn 0.177940 0.268853 -0.946602
vn 0.482435 0.018252 -0.875742
vn 0.680387 0.229200 -0.696090
vn 0.677577 0.233035 -0.697556
vn 0.956574 0.111050 -0.269507
vn 0.602340 0.613590 -0.510582
vn 0.958262 0.038597 -0.283275
vn 0.928042 0.053686 -0.368585
vn 0.664342 0.231922 -0.710537
vn 0.901177 -0.055070 -0.429939
vn 0.485538 0.357626 -0.797720
vn 0.732038 0.330392 -0.595787
vn 0.236869 0.374189 -0.896591
vn 0.934403 0.312936 -0.170184
vn 0.146621 0.501731 -0.852507
vn 0.129655 0.431790 -0.892607
vn 0.880270 0.347421 -0.323147
vn 0.913696 0.227343 -0.336861
vn 0.858759 0.484790 -0.165865
vn 0.939972 0.300260 -0.162159
vn 0.564588 -0.097025 -0.819650
vn 0.424773 0.256043 -0.868337
vn 0.502172 -0.002693 -0.864763
vn 0.668967 -0.009454 -0.743232
vn 0.865596 0.477886 -0.149563
vn 0.768255 0.274734 -0.578192
vn 0.453290 0.294759 -0.841217
vn 0.771626 0.269082 -0.576358
vn -0.027326 -0.999626 -0.000929
vn 0.314487 -0.780359 0.540497
vn 0.256134 -0.964281 0.067501
vn 0.027361 -0.954664 0.296427
vn 0.960290 -0.254135 0.115143
vn 0.906779 -0.241450 0.345621
vn 0.900990 -0.048553 0.431114
vn 0.974777 -0.180311 0.131524
vn 0.113511 -0.973151 0.200229
vn 0.068206 -0.983675 0.166530
vn 0.346974 -0.866379 0.359161
vn 0.074931 -0.969687 0.232580
vn 0.270766 -0.926308 0.261990
vn 0.485956 -0.845367 0.221813
vn 0.235644 -0.971802 0.008574
vn 0.448398 -0.891220 0.068299
vn 0.899333 -0.096012 0.426593
vn 0.612185 0.024775 0.790327
vn 0.976422 0.035899 0.212866
vn 0.942395 0.111072 0.315523
vn -0.170636 -0.051498 0.983988
vn 0.228432 -0.528820 0.817416
vn 0.041711 0.033529 0.998567
vn -0.032596 -0.039034 0.998706
vn 0.831096 -0.554086 -0.047613
vn 0.983836 -0.132924 0.119995
vn 0.638741 -0.562142 0.525363
vn 0.867286 -0.465583 0.176201
vn 0.675669 0.142269 0.723347
vn 0.623877 -0.523751 0.580054
vn 0.966116 -0.055478 0.252076
vn 0.889621 -0.093549 0.447017
vn 0.708478 -0.253807 0.658514
vn 0.213121 -0.726631 0.653136
vn 0.544776 0.085546 0.834207
vn -0.085607 -0.191396 0.977772
vn -0.280678 -0.757909 0.588892
vn 0.121539 -0.616788 0.777689
vn 0.512723 -0.829183 0.222643
vn -0.279698 -0.761505 0.584705
vn -0.035988 0.156273 0.987058
vn 0.529478 0.156141 0.833830
vn 0.224877 -0.158072 0.961480
vn -0.034259 0.157163 0.986978
vn 0.463390 -0.712351 0.527091
vn -0.025646 -0.281215 0.959302
vn 0.419539 0.097921 0.902440
vn 0.816184 -0.291930 0.498619
vn 0.951799 -0.303882 -0.041642
vn 0.644806 -0.555836 0.524663
vn 0.847689 -0.142683 0.510944
vn 0.610314 -0.493463 0.619687
vn 0.102969 0.168013 0.980392
vn 0.881265 -0.138471 0.451883
vn 0.257546 -0.508898 0.821397
vn 0.683352 -0.503961 0.528255
vn 0.125972 -0.892522 0.433054
vn 0.352502 -0.717325 0.600988
vn 0.420619 -0.641721 0.641306
vn 0.434032 -0.713899 0.549513
vn 0.279714 -0.554648 0.783662
vn 0.836338 -0.080846 0.542220
vn 0.798822 -0.154867 0.581291
vn 0.741572 -0.092061 0.664527
vn 0.015063 -0.999475 0.028669
vn 0.037933 -0.999278 -0.002260
vn -0.523859 -0.844074 -0.114499
vn 0.038160 -0.999174 0.013970
vn 0.164918 -0.960451 0.224355
vn 0.052538 -0.998196 -0.029061
vn -0.032183 -0.993389 0.110189
vn 0.148742 -0.988876 -0.000994
vn 0.053011 -0.883465 -0.465488
vn -0.581297 -0.797672 -0.160668
vn -0.024868 -0.838060 -0.545011
vn -0.026813 -0.869339 -0.493489
vn -0.024194 -0.999196 0.031974
vn 0.047382 -0.863152 -0.502716
vn -0.501914 -0.855289 -0.128693
vn -0.499732 -0.821392 -0.274924
vn 0.486130 -0.496673 0.719023
vn -0.257027 -0.938564 0.230292
vn 0.382003 -0.618579 0.686611
vn 0.495183 -0.637735 0.589990
vn -0.005249 -0.999015 0.044056
vn 0.132391 -0.962066 0.238541
vn 0.298832 -0.483057 0.823016
vn 0.184020 -0.965649 0.183462
vn -0.168948 -0.722522 0.670387
vn 0.571551 -0.783844 0.242732
vn 0.335089 -0.939984 0.064389
vn 0.551911 -0.818992 0.156990
vn -0.291981 -0.771452 0.565340
vn 0.123129 -0.964680 0.232877
vn 0.372350 -0.813878 0.446048
vn 0.132540 -0.932160 0.336913
vn -0.064037 -0.997158 -0.039699
vn 0.037162 -0.997405 0.061659
vn 0.075655 -0.997031 -0.014306
vn 0.074408 -0.995707 0.055062
vn 0.370975 -0.861414 -0.346907
vn 0.228051 -0.967105 -0.112697
vn 0.567662 -0.819751 -0.075951
vn 0.224471 -0.927027 -0.300390
vn 0.020609 -0.999748 -0.008863
vn 0.098329 -0.993821 -0.051489
vn 0.010970 -0.996054 -0.088073
vn 0.022675 -0.995324 -0.093897
vn 0.075367 -0.993228 0.088423
vn 0.015107 -0.999437 -0.029957
vn 0.097379 -0.995247 -0.001212
vn 0.074874 -0.997172 0.006415
vn -0.161403 -0.905558 0.392319
vn 0.350462 -0.929228 0.117102
vn -0.116743 -0.990865 0.067505
vn -0.157688 -0.904799 0.395567
vn 0.000526 -0.999793 -0.020321
vn 0.031158 -0.996575 -0.076605
vn 0.058796 -0.997790 -0.030946
vn 0.040257 -0.998421 -0.039183
vn 0.117738 -0.862537 -0.492105
vn -0.148666 -0.859643 -0.488787
vn -0.029887 -0.965308 -0.259398
vn 0.123218 -0.930747 -0.344278
vn 0.037801 -0.999058 -0.021328
vn -0.026600 -0.999296 -0.026450
vn -0.067592 -0.992881 0.098072
vn 0.039544 -0.999020 0.019893
vn 0.015068 -0.999800 0.013162
vn -0.526941 -0.849040 -0.038277
vn -0.126161 -0.991955 0.010454
vn -0.122445 -0.988556 -0.088115
vn 0.054824 -0.913688 0.402702
vn -0.254080 -0.909104 0.330111
vn -0.564386 -0.774467 0.285777
vn -0.238046 -0.836018 0.494377
vn 0.476801 -0.878816 -0.018522
vn 0.071054 -0.868053 -0.491361
vn -0.129004 -0.990351 0.050631
vn 0.523965 -0.813289 -0.253025
vn -0.220931 -0.961921 0.160926
vn -0.140578 -0.948416 0.284157
vn 0.057818 -0.994797 0.083876
vn -0.218574 -0.944692 0.244504
vn -0.063598 -0.990316 -0.123405
vn -0.177113 -0.982873 0.050916
vn 0.037230 -0.999233 0.012179
vn -0.180087 -0.981259 -0.068550
vn -0.009095 -0.987817 -0.155352
vn 0.231528 -0.968688 0.089662
vn -0.049707 -0.998714 0.009988
vn -0.020432 -0.999756 -0.008340
vn 0.391706 -0.909551 -0.138863
vn 0.568921 -0.821570 0.036760
vn 0.629993 -0.741677 0.230269
vn 0.631467 -0.775260 -0.014885
vn -0.049227 -0.998477 -0.024926
vn 0.229801 -0.970055 0.078649
vn 0.207078 -0.974563 -0.085702
vn 0.220874 -0.971725 0.083462
vn 0.344880 -0.302886 -0.888436
vn 0.883733 -0.391653 -0.256172
vn -0.720242 -0.602765 -0.343404
vn 0.328888 -0.235451 -0.914547
vn 0.240376 -0.504771 -0.829112
vn 0.263465 -0.819766 -0.508497
vn 0.400150 -0.076371 -0.913262
vn 0.538308 -0.579018 -0.612342
vn -0.331567 -0.095033 -0.938633
vn -0.807340 -0.218514 -0.548137
vn -0.007290 -0.996585 -0.082251
vn -0.817683 -0.264479 -0.511317
vn 0.854349 -0.202773 -0.478509
vn 0.373971 -0.853127 -0.363757
vn -0.636484 -0.144332 -0.757665
vn 0.363907 -0.873232 -0.324095
vn -0.257576 -0.937460 0.234144
vn 0.435280 -0.809054 0.394920
vn -0.492293 -0.854515 0.165687
vn -0.258294 -0.965588 0.030383
vn -0.169568 -0.983496 -0.063101
vn 0.005744 -0.998776 0.049118
vn 0.087678 -0.980748 0.174488
vn 0.051820 -0.998377 0.023625
vn 0.194771 -0.958989 -0.205923
vn -0.204748 -0.978797 0.005971
vn 0.018948 -0.978073 0.207401
vn -0.211992 -0.976977 0.023993
vn 0.437168 -0.829643 0.347241
vn 0.147124 -0.981348 0.123740
vn -0.489668 -0.861592 0.133734
vn 0.181103 -0.832449 0.523670
vn 0.020797 -0.999734 0.010012
vn 0.221835 -0.959567 -0.173263
vn 0.352973 -0.823314 -0.444482
vn 0.099679 -0.954767 -0.280149
vn 0.471897 -0.881491 -0.016943
vn 0.173940 -0.838283 -0.516746
vn 0.007845 -0.893792 -0.448413
vn 0.006706 -0.902803 -0.430001
vn 0.962355 -0.130681 -0.238317
vn 0.915712 -0.325612 -0.235475
vn 0.564296 -0.459860 -0.685637
vn 0.917136 -0.335878 -0.214585
vn 0.244838 -0.933466 -0.262098
vn 0.145835 -0.831334 -0.536299
vn 0.268328 -0.962757 -0.033142
vn 0.112410 -0.972889 -0.202115
vn 0.656012 -0.073736 -0.751140
vn 0.533786 -0.284791 -0.796220
vn 0.906328 -0.326025 -0.268843
vn 0.740676 -0.082561 -0.666771
vn 0.343617 -0.006618 -0.939086
vn 0.311545 -0.037190 -0.949503
vn 0.624358 -0.038856 -0.780171
vn 0.304286 -0.029990 -0.952109
vn 0.046559 -0.635972 -0.770307
vn -0.053395 -0.313788 -0.947991
vn -0.033120 -0.308081 -0.950783
vn -0.047689 -0.314999 -0.947893
vn 0.286514 -0.275328 -0.917662
vn -0.069055 -0.222612 -0.972458
vn -0.017687 -0.401318 -0.915768
vn 0.276069 -0.262031 -0.924730
vn 0.910817 -0.335830 0.240063
vn 0.870017 -0.261090 0.418214
vn 0.745463 -0.471270 -0.471371
vn 0.944233 -0.157568 0.289130
vn 0.907307 0.366690 -0.205750
vn 0.971063 0.163010 -0.174540
vn 0.970067 0.122018 0.209957
vn 0.963780 0.173311 0.202712
vn -0.117411 -0.009658 -0.993036
vn 0.113513 -0.063858 -0.991482
vn 0.406904 -0.201966 -0.890864
vn 0.209883 0.029985 -0.977267
vn 0.907481 -0.029438 0.419061
vn 0.994765 -0.003549 0.102124
vn 0.962792 0.072045 -0.260462
vn 0.981606 -0.166190 0.093968
vn 0.546093 -0.660196 -0.515678
vn 0.395486 -0.354682 -0.847226
vn 0.166749 -0.686490 -0.707761
vn 0.509857 -0.693531 -0.508980
vn -0.112203 -0.005420 -0.993671
vn 0.083468 -0.458276 -0.884882
vn 0.613791 -0.037569 -0.788574
vn 0.114265 -0.464848 -0.877986
vn 0.898008 -0.048484 -0.437301
vn 0.563726 -0.458453 -0.687048
vn 0.940680 -0.203701 -0.271344
vn 0.833418 -0.067072 -0.548558
vn 0.668534 -0.088284 -0.738423
vn 0.014087 -0.267365 -0.963492
vn 0.467524 -0.462118 -0.753570
vn 0.260534 -0.102492 -0.960009
vn -0.010467 -0.999702 -0.022065
vn 0.386384 -0.820907 -0.420499
vn 0.519676 -0.742176 0.423217
vn 0.134618 -0.990026 -0.041550
vn 0.881696 -0.176367 -0.437614
vn 0.899902 0.075691 0.429473
vn 0.776711 -0.406423 -0.481186
vn 0.886569 -0.185560 -0.423750
vn 0.942871 -0.275722 0.187006
vn 0.771517 -0.103619 0.627714
vn 0.978649 0.140519 -0.150004
vn 0.808179 -0.032906 0.588017
vn 0.777763 -0.425764 -0.462397
vn 0.980527 0.191584 0.043167
vn 0.841332 -0.326332 0.430891
vn 0.989189 -0.131295 0.065315
vn 0.868688 -0.489116 -0.078395
vn 0.858176 -0.447073 0.252307
vn 0.885528 -0.448739 0.120308
vn 0.851507 -0.509255 0.124884
vn 0.639010 -0.095338 -0.763267
vn 0.714668 0.112470 -0.690362
vn 0.925062 -0.379740 0.007550
vn 0.694419 -0.079761 -0.715136
vn 0.664683 0.298826 -0.684763
vn 0.827415 -0.000956 -0.561591
vn 0.743476 0.172520 -0.646128
vn 0.614230 0.123087 -0.779468
vn 0.916668 -0.396447 -0.050490
vn 0.740182 0.123655 -0.660938
vn 0.781651 -0.227735 -0.580653
vn 0.991356 -0.112742 -0.067100
vn 0.991595 0.019876 -0.127842
vn 0.995940 0.060341 0.066796
vn 0.937085 0.066029 0.342800
vn 0.991245 0.111430 0.070822
vn 0.862510 -0.444176 -0.242456
vn 0.976497 -0.172858 -0.128742
vn 0.994791 -0.101906 0.002545
vn 0.973199 -0.159975 -0.165203
vn 0.981332 0.059985 0.182730
vn 0.880812 -0.468563 -0.067967
vn 0.645632 0.159791 0.746744
vn 0.612727 -0.102198 0.783659
vn 0.998877 0.042250 0.021457
vn 0.936537 0.349683 -0.024902
vn 0.811904 -0.248737 -0.528149
vn 0.867309 0.133547 -0.479522
vn 0.940851 0.193263 -0.278297
vn 0.842852 0.125994 -0.523188
vn 0.822230 -0.161838 0.545661
vn 0.845852 0.142538 -0.514021
vn 0.756374 -0.206900 -0.620557
vn 0.989803 -0.141386 -0.017302
vn 0.786510 0.074987 -0.613008
vn 0.800242 0.084187 -0.593739
vn 0.925436 -0.325754 0.193526
vn 0.974193 -0.096245 -0.204170
vn 0.907418 -0.236369 -0.347450
vn 0.934353 -0.131832 -0.331065
vn 0.789831 0.097169 -0.605579
vn 0.925487 -0.378333 -0.018396
vn 0.888681 -0.268930 0.371379
vn 0.902837 -0.228448 0.364277
vn 0.101646 0.296003 0.949763
vn 0.372593 0.218158 0.901987
vn -0.100786 0.232034 0.967472
vn -0.082416 0.210673 0.974076
vn -0.011066 0.128775 0.991612
vn 0.661945 -0.136846 0.736955
vn 0.442111 0.220410 0.869458
vn 0.367265 0.159769 0.916292
vn 0.186883 -0.663780 0.724204
vn -0.045762 -0.449487 0.892114
vn 0.487794 -0.412085 0.769574
vn -0.041587 -0.446636 0.893749
vn 0.376422 0.220948 0.899716
vn 0.295244 -0.170946 0.940004
vn -0.378228 0.059345 0.923808
vn 0.540059 0.075533 0.838231
vn 0.947410 -0.263637 0.181410
vn 0.335889 -0.133005 0.932463
vn 0.731127 -0.099902 0.674888
vn 0.496958 -0.285741 0.819381
vn 0.197299 0.539173 0.818758
vn 0.708428 -0.162737 0.686765
vn 0.342416 0.014996 0.939429
vn 0.850978 0.008385 0.525134
vn 0.076967 -0.472303 0.878070
vn 0.225644 -0.186361 0.956219
vn 0.621646 -0.294732 0.725734
vn 0.535009 -0.198152 0.821280
vn 0.529466 -0.142046 0.836354
vn 0.733716 -0.192361 0.651658
vn 0.356046 -0.092883 0.929841
vn 0.461501 -0.194641 0.865524
vn 0.116061 0.609284 0.784412
vn -0.510640 0.682186 0.523325
vn -0.150057 0.899843 0.409591
vn -0.398663 0.824502 0.401577
vn 0.664983 -0.220613 0.713531
vn 0.270314 -0.231429 0.934543
vn 0.150446 0.400948 0.903663
vn 0.684461 -0.192553 0.703162
vn 0.788504 0.425473 0.444110
vn 0.107486 0.699952 0.706055
vn -0.100455 -0.001260 0.994941
vn 0.342437 0.549829 0.761857
vn 0.106542 0.347698 0.931534
vn 0.474196 -0.022756 0.880125
vn 0.327310 0.687558 0.648176
vn 0.050163 0.347806 0.936224
vn -0.490493 -0.279489 0.825411
vn 0.517955 -0.299227 0.801365
vn -0.190773 -0.739266 0.645826
vn -0.238315 -0.720520 0.651196
vn 0.730179 0.506593 0.458478
vn 0.153763 -0.203205 0.966987
vn 0.020306 -0.149202 0.988598
vn 0.074227 -0.199722 0.977037
vn 0.677296 -0.238171 0.696093
vn 0.178543 -0.638586 0.748552
vn 0.005389 -0.019573 0.999794
vn -0.294141 -0.268779 0.917191
vn 0.201366 0.014675 0.979406
vn 0.366997 -0.020013 0.930007
vn -0.393273 -0.525825 0.754218
vn 0.329202 0.014902 0.944142
vn -0.549305 -0.833263 0.062741
vn -0.515581 -0.848706 0.117790
vn -0.421680 -0.906156 0.032658
vn -0.554414 -0.828794 0.075671
vn -0.119833 -0.992032 0.038881
vn -0.734380 -0.668894 0.115178
vn -0.237181 -0.964121 0.119228
vn -0.188892 -0.981743 -0.022370
vn -0.837432 -0.324576 0.439726
vn -0.317952 -0.663404 0.677349
vn -0.705525 -0.657567 -0.264271
vn -0.311823 -0.897527 0.311789
vn -0.419313 -0.906749 -0.044533
vn -0.857177 -0.478354 -0.190852
vn -0.480379 -0.510808 0.712959
vn -0.931276 -0.344523 0.118441
vn -0.622392 0.028846 0.782174
vn -0.756195 0.066257 0.650983
vn -0.886677 -0.233006 0.399390
vn -0.702045 0.014201 0.711991
vn -0.035889 0.325949 0.944706
vn -0.087315 -0.225930 0.970223
vn 0.082792 0.227992 0.970137
vn 0.181124 0.217669 0.959070
vn -0.356947 -0.909361 0.213660
vn -0.123619 -0.140833 0.982285
vn 0.170948 -0.463879 0.869249
vn -0.270177 -0.160173 0.949394
vn 0.294289 0.134816 0.946160
vn 0.196970 -0.355568 0.913660
vn -0.175026 -0.237518 0.955485
vn 0.125573 -0.374978 0.918489
vn -0.995053 -0.088438 -0.045268
vn -0.956225 -0.142394 0.255650
vn -0.764365 -0.436810 0.474282
vn -0.958360 -0.284262 0.027242
vn -0.932155 0.000124 0.362060
vn -0.875880 0.077455 0.476272
vn -0.876286 0.106460 0.469882
vn -0.869740 0.075865 0.487644
vn 0.201973 0.004825 0.979379
vn -0.323604 -0.166992 0.931340
vn -0.778145 -0.094078 0.620999
vn -0.567768 0.107826 0.816096
vn -0.974079 -0.051832 0.220192
vn -0.953214 -0.037330 0.299982
vn -0.941334 -0.056336 0.332742
vn -0.947300 -0.070056 0.312593
vn -0.188327 -0.928914 0.318829
vn -0.792798 -0.489853 0.362651
vn -0.761970 -0.364713 0.535151
vn -0.771438 -0.361446 0.523680
vn -0.246948 0.352417 0.902673
vn -0.575485 -0.377755 0.725340
vn -0.963920 -0.167605 0.206800
vn -0.937476 -0.277624 0.209912
vn -0.826900 -0.308305 0.470302
vn -0.733839 -0.293468 0.612663
vn -0.684915 -0.314161 0.657414
vn -0.702585 -0.336986 0.626749
vn -0.936707 -0.096678 0.336503
vn -0.538879 -0.326485 0.776542
vn -0.806600 -0.276161 0.522621
vn -0.698266 -0.138159 0.702379
vn -0.393261 -0.020924 -0.919189
vn -0.688932 -0.642663 -0.335196
vn -0.486129 0.128298 -0.864418
vn -0.174747 0.003260 -0.984608
vn 0.231702 -0.503159 -0.832553
vn -0.242318 -0.268798 -0.932217
vn -0.520641 -0.625508 -0.581096
vn 0.231123 -0.507422 -0.830124
vn -0.229941 0.044571 -0.972183
vn -0.455746 0.167742 -0.874161
vn -0.712155 -0.038126 -0.700986
vn -0.450210 0.167966 -0.876982
vn -0.562633 -0.697788 -0.443323
vn -0.309250 -0.359078 -0.880583
vn -0.392154 0.137261 -0.909602
vn -0.850063 -0.309185 -0.426376
vn -0.160131 -0.972483 -0.169216
vn -0.228416 -0.928846 -0.291669
vn -0.424618 -0.905323 -0.009457
vn -0.186303 -0.944285 -0.271324
vn -0.863804 -0.435435 -0.253453
vn -0.039709 -0.980973 -0.190042
vn -0.212742 -0.499429 -0.839828
vn -0.169589 -0.984574 -0.043050
vn -0.617115 -0.633033 -0.467373
vn -0.745552 -0.634226 -0.204719
vn -0.852756 -0.425898 -0.302355
vn -0.760443 -0.587599 -0.276503
vn -0.275868 -0.443677 -0.852671
vn -0.786193 -0.455280 -0.417876
vn -0.543407 -0.711915 -0.444844
vn -0.769210 -0.406572 -0.492966
vn -0.052397 0.113457 -0.992160
vn -0.271229 0.236884 -0.932910
vn -0.245591 -0.030203 -0.968903
vn -0.083255 0.170081 -0.981907
vn -0.544603 0.195187 -0.815665
vn -0.488874 -0.223455 -0.843250
vn -0.107600 0.090233 -0.990091
vn -0.156963 0.138554 -0.977837
vn -0.830855 -0.512526 -0.216786
vn -0.275365 -0.272500 -0.921910
vn -0.101396 -0.047159 -0.993728
vn -0.533689 0.021676 -0.845403
vn -0.170949 0.103392 -0.979840
vn -0.181829 -0.235916 -0.954611
vn -0.189675 -0.099751 -0.976767
vn -0.336175 -0.082922 -0.938142
vn -0.617675 -0.609870 -0.496525
vn -0.853235 -0.501194 -0.144201
vn -0.443268 -0.277529 -0.852344
vn -0.583829 -0.646437 -0.491184
vn -0.866828 -0.451791 -0.210937
vn 0.041803 -0.161214 -0.986034
vn -0.029946 -0.452723 -0.891148
vn -0.013957 -0.461455 -0.887054
vn -0.396557 0.046175 -0.916848
vn -0.652782 -0.038873 -0.756548
vn -0.575321 -0.128117 -0.807831
vn -0.579647 -0.127960 -0.804758
vn -0.908604 -0.385904 -0.159740
vn -0.597156 -0.150919 -0.787800
vn -0.668245 -0.052861 -0.742061
vn -0.678129 -0.052203 -0.733087
vn 0.988964 -0.145278 -0.029071
vn 0.456150 -0.101246 -0.884125
vn 0.152144 0.029865 -0.987907
vn 0.370549 -0.164574 -0.914116
vn -0.022933 -0.159281 -0.986967
vn 0.395765 -0.440357 -0.805888
vn 0.141897 -0.098168 -0.985002
vn 0.074394 -0.095132 -0.992681
vn 0.150293 0.232080 -0.961016
vn 0.560216 0.093059 -0.823103
vn 0.334965 0.065742 -0.939934
vn 0.362555 0.092111 -0.927399
vn 0.156465 -0.087318 -0.983816
vn 0.678156 -0.239383 -0.694838
vn 0.624112 0.036035 -0.780504
vn 0.298996 -0.229960 -0.926132
vn 0.209631 0.288849 -0.934142
vn -0.373660 0.196270 -0.906563
vn 0.231324 0.037590 -0.972150
vn -0.299564 0.021000 -0.953845
vn 0.104740 -0.667338 -0.737353
vn 0.261674 -0.254957 -0.930873
vn -0.285586 -0.235980 -0.928846
vn -0.291524 -0.240529 -0.925829
vn 0.510224 -0.177354 -0.841557
vn 0.560235 0.022879 -0.828018
vn 0.063255 0.113680 -0.991502
vn 0.351732 -0.190068 -0.916602
vn -0.472791 0.128914 -0.871694
vn -0.043266 0.107053 -0.993311
vn 0.194465 0.009414 -0.980864
vn 0.041086 0.166265 -0.985225
vn 0.284106 0.277207 -0.917845
vn -0.051832 0.058575 -0.996937
vn 0.278831 -0.184586 -0.942434
vn 0.502962 0.039691 -0.863397
vn 0.666385 0.213647 -0.714342
vn -0.066322 0.385288 -0.920410
vn 0.287651 -0.083521 -0.954087
vn -0.158644 0.245898 -0.956225
vn 0.167486 -0.018801 -0.985695
vn 0.395789 0.353927 -0.847400
vn -0.370357 0.298595 -0.879589
vn 0.435380 0.313587 -0.843864
vn 0.145358 -0.078058 -0.986295
vn -0.341760 0.347210 -0.873295
vn 0.066274 -0.038382 -0.997063
vn 0.182336 -0.040169 -0.982415
vn 0.503022 -0.185012 -0.844239
vn -0.297613 -0.179671 -0.937627
vn 0.319356 -0.436736 -0.840995
vn 0.549195 -0.236370 -0.801570
vn 0.541933 -0.345430 -0.766150
vn 0.301925 -0.241492 -0.922238
vn 0.095159 -0.382772 -0.918929
vn 0.098374 -0.385304 -0.917531
vn 0.644686 0.242293 -0.725034
vn 0.840205 0.059193 -0.539029
vn 0.053495 0.300516 -0.952275
vn 0.687411 0.298038 -0.662299
vn -0.157867 -0.357242 -0.920574
vn -0.373321 -0.196112 -0.906737
vn 0.330747 -0.447618 -0.830809
vn -0.194038 -0.382817 -0.903217
vn 0.965507 -0.228695 -0.124479
vn 0.912672 -0.235714 0.333870
vn 0.989580 0.112072 -0.090394
vn 0.960748 -0.274183 -0.042272
vn 0.979599 0.084343 0.182407
vn 0.869189 0.366523 -0.331922
vn 0.989530 -0.122477 -0.076356
vn 0.950293 -0.030239 -0.309885
vn 0.964633 0.117622 -0.235899
vn 0.909359 0.171434 -0.379047
vn 0.975133 0.146170 -0.166583
vn 0.963949 0.120918 -0.237025
vn 0.994217 -0.106982 0.009350
vn 0.881773 0.421250 -0.212192
vn 0.896394 0.213756 -0.388312
vn 0.924588 0.380495 -0.018971
vn 0.978105 -0.188465 -0.088269
vn 0.971397 -0.042878 -0.233558
vn 0.920504 -0.281833 0.270632
vn 0.938192 -0.254691 -0.234367
vn 0.789176 0.178644 -0.587612
vn 0.921380 -0.067508 0.382755
vn 0.899576 0.422958 0.108948
vn 0.794830 0.159871 -0.585394
vn 0.632760 -0.168461 -0.755802
vn 0.940003 -0.341080 0.007672
vn 0.936396 0.317397 -0.149741
vn 0.910263 -0.389578 -0.140182
vn 0.996217 0.067040 0.055291
vn 0.889936 0.121543 0.439591
vn 0.925114 -0.350716 0.145472
vn 0.979691 0.029037 0.198398
vn 0.956837 0.234102 -0.172219
vn 0.910914 0.265375 -0.315931
vn 0.959940 0.215338 -0.179289
vn 0.960743 0.220241 -0.168720
vn 0.967821 0.249055 -0.035981
vn 0.905238 0.422301 0.046972
vn 0.902346 0.373048 -0.215887
vn 0.927709 0.312757 -0.203809
vn 0.459682 0.887959 -0.014853
vn 0.851342 0.367132 -0.374741
vn 0.756012 0.647829 -0.093616
vn 0.557361 0.710877 -0.428956
vn 0.831950 0.417017 -0.365999
vn 0.788359 0.539503 -0.295680
vn 0.858958 0.457662 -0.229643
vn 0.833558 0.473351 -0.284815
vn 0.990095 0.138059 0.025508
vn 0.928386 0.284590 -0.238973
vn 0.961554 0.237636 0.137636
vn 0.979090 0.201804 0.025664
vn 0.905317 0.424518 -0.013608
vn 0.930894 0.355892 -0.082322
vn 0.980441 -0.189068 0.054668
vn 0.915942 0.397610 0.054373
vn 0.998277 0.050496 -0.029880
vn 0.995046 0.068775 0.071789
vn 0.995393 0.088740 0.036303
vn 0.994329 0.077659 0.072650
vn 0.971070 -0.134946 -0.197009
vn 0.914665 0.178724 0.362555
vn 0.987821 0.085101 0.130257
vn 0.945625 0.016978 0.324814
s off
f 1//1 163//1 165//1
f 43//2 164//2 163//2
f 45//3 165//3 164//3
f 163//4 164//4 165//4
f 13//5 166//5 168//5
f 44//6 167//6 166//6
f 43//7 168//7 167//7
f 166//8 167//8 168//8
f 15//9 169//9 171//9
f 45//10 170//10 169//10
f 44//11 171//11 170//11
f 169//12 170//12 171//12
f 43//13 167//13 164//13
f 44//14 170//14 167//14
f 45//15 164//15 170//15
f 167//16 170//16 164//16
f 12//17 172//17 174//17
f 46//18 173//18 172//18
f 48//19 174//19 173//19
f 172//20 173//20 174//20
f 14//21 175//21 177//21
f 47//22 176//22 175//22
f 46//23 177//23 176//23
f 175//24 176//24 177//24
f 13//25 178//25 180//25
f 48//26 179//26 178//26
f 47//27 180//27 179//27
f 178//28 179//28 180//28
f 46//29 176//29 173//29
f 47//30 179//30 176//30
f 48//31 173//31 179//31
f 176//32 179//32 173//32
f 6//33 181//33 183//33
f 49//34 182//34 181//34
f 51//35 183//35 182//35
f 181//36 182//36 183//36
f 15//37 184//37 186//37
f 50//38 185//38 184//38
f 49//39 186//39 185//39
f 184//40 185//40 186//40
f 14//41 187//41 189//41
f 51//42 188//42 187//42
f 50//43 189//43 188//43
f 187//44 188//44 189//44
f 49//45 185//45 182//45
f 50//46 188//46 185//46
f 51//47 182//47 188//47
f 185//48 188//48 182//48
f 13//49 180//49 166//49
f 47//50 190//50 180//50
f 44//51 166//51 190//51
f 180//52 190//52 166//52
f 14//53 189//53 175//53
f 50//54 191//54 189//54
f 47//55 175//55 191//55
f 189//56 191//56 175//56
f 15//57 171//57 184//57
f 44//58 192//58 171//58
f 50//59 184//59 192//59
f 171//60 192//60 184//60
f 47//61 191//61 190//61
f 50//62 192//62 191//62
f 44//63 190//63 192//63
f 191//64 192//64 190//64
f 1//65 165//65 194//65
f 45//66 193//66 165//66
f 53//67 194//67 193//67
f 165//68 193//68 194//68
f 15//69 195//69 169//69
f 52//70 196//70 195//70
f 45//71 169//71 196//71
f 195//72 196//72 169//72
f 17//73 197//73 199//73
f 53//74 198//74 197//74
f 52//75 199//75 198//75
f 197//76 198//76 199//76
f 45//77 196//77 193//77
f 52//78 198//78 196//78
f 53//79 193//79 198//79
f 196//80 198//80 193//80
f 6//81 200//81 181//81
f 54//82 201//82 200//82
f 49//83 181//83 201//83
f 200//84 201//84 181//84
f 16//85 202//85 204//85
f 55//86 203//86 202//86
f 54//87 204//87 203//87
f 202//88 203//88 204//88
f 15//89 186//89 206//89
f 49//90 205//90 186//90
f 55//91 206//91 205//91
f 186//92 205//92 206//92
f 54//93 203//93 201//93
f 55//94 205//94 203//94
f 49//95 201//95 205//95
f 203//96 205//96 201//96
f 2//97 207//97 209//97
f 56//98 208//98 207//98
f 58//99 209//99 208//99
f 207//100 208//100 209//100
f 17//101 210//101 212//101
f 57//102 211//102 210//102
f 56//103 212//103 211//103
f 210//104 211//104 212//104
f 16//105 213//105 215//105
f 58//106 214//106 213//106
f 57//107 215//107 214//107
f 213//108 214//108 215//108
f 56//109 211//109 208//109
f 57//110 214//110 211//110
f 58//111 208//111 214//111
f 211//112 214//112 208//112
f 15//113 206//113 195//113
f 55//114 216//114 206//114
f 52//115 195//115 216//115
f 206//116 216//116 195//116
f 16//117 215//117 202//117
f 57//118 217//118 215//118
f 55//119 202//119 217//119
f 215//120 217//120 202//120
f 17//121 199//121 210//121
f 52//122 218//122 199//122
f 57//123 210//123 218//123
f 199//124 218//124 210//124
f 55//125 217//125 216//125
f 57//126 218//126 217//126
f 52//127 216//127 218//127
f 217//128 218//128 216//128
f 1//129 194//129 220//129
f 53//130 219//130 194//130
f 60//131 220//131 219//131
f 194//132 219//132 220//132
f 17//133 221//133 197//133
f 59//134 222//134 221//134
f 53//135 197//135 222//135
f 221//136 222//136 197//136
f 19//137 223//137 225//137
f 60//138 224//138 223//138
f 59//139 225//139 224//139
f 223//140 224//140 225//140
f 53//141 222//141 219//141
f 59//142 224//142 222//142
f 60//143 219//143 224//143
f 222//144 224//144 219//144
f 2//145 226//145 207//145
f 61//146 227//146 226//146
f 56//147 207//147 227//147
f 226//148 227//148 207//148
f 18//149 228//149 230//149
f 62//150 229//150 228//150
f 61//151 230//151 229//151
f 228//152 229//152 230//152
f 17//153 212//153 232//153
f 56//154 231//154 212//154
f 62//155 232//155 231//155
f 212//156 231//156 232//156
f 61//157 229//157 227//157
f 62//158 231//158 229//158
f 56//159 227//159 231//159
f 229//160 231//160 227//160
f 8//161 233//161 235//161
f 63//162 234//162 233//162
f 65//163 235//163 234//163
f 233//164 234//164 235//164
f 19//165 236//165 238//165
f 64//166 237//166 236//166
f 63//167 238//167 237//167
f 236//168 237//168 238//168
f 18//169 239//169 241//169
f 65//170 240//170 239//170
f 64//171 241//171 240//171
f 239//172 240//172 241//172
f 63//173 237//173 234//173
f 64//174 240//174 237//174
f 65//175 234//175 240//175
f 237//176 240//176 234//176
f 17//177 232//177 221//177
f 62//178 242//178 232//178
f 59//179 221//179 242//179
f 232//180 242//180 221//180
f 18//181 241//181 228//181
f 64//182 243//182 241//182
f 62//183 228//183 243//183
f 241//184 243//184 228//184
f 19//185 225//185 236//185
f 59//186 244//186 225//186
f 64//187 236//187 244//187
f 225//188 244//188 236//188
f 62//189 243//189 242//189
f 64//190 244//190 243//190
f 59//191 242//191 244//191
f 243//192 244//192 242//192
f 1//193 220//193 246//193
f 60//194 245//194 220//194
f 67//195 246//195 245//195
f 220//196 245//196 246//196
f 19//197 247//197 223//197
f 66//198 248//198 247//198
f 60//199 223//199 248//199
f 247//200 248//200 223//200
f 21//201 249//201 251//201
f 67//202 250//202 249//202
f 66//203 251//203 250//203
f 249//204 250//204 251//204
f 60//205 248//205 245//205
f 66//206 250//206 248//206
f 67//207 245//207 250//207
f 248//208 250//208 245//208
f 8//209 252//209 233//209
f 68//210 253//210 252//210
f 63//211 233//211 253//211
f 252//212 253//212 233//212
f 20//213 254//213 256//213
f 69//214 255//214 254//214
f 68//215 256//215 255//215
f 254//216 255//216 256//216
f 19//217 238//217 258//217
f 63//218 257//218 238//218
f 69//219 258//219 257//219
f 238//220 257//220 258//220
f 68//221 255//221 253//221
f 69//222 257//222 255//222
f 63//223 253//223 257//223
f 255//224 257//224 253//224
f 11//225 259//225 261//225
f 70//226 260//226 259//226
f 72//227 261//227 260//227
f 259//228 260//228 261//228
f 21//229 262//229 264//229
f 71//230 263//230 262//230
f 70//231 264//231 263//231
f 262//232 263//232 264//232
f 20//233 265//233 267//233
f 72//234 266//234 265//234
f 71//235 267//235 266//235
f 265//236 266//236 267//236
f 70//237 263//237 260//237
f 71//238 266//238 263//238
f 72//239 260//239 266//239
f 263//240 266//240 260//240
f 19//241 258//241 247//241
f 69//242 268//242 258//242
f 66//243 247//243 268//243
f 258//244 268//244 247//244
f 20//245 267//245 254//245
f 71//246 269//246 267//246
f 69//247 254//247 269//247
f 267//248 269//248 254//248
f 21//249 251//249 262//249
f 66//250 270//250 251//250
f 71//251 262//251 270//251
f 251//252 270//252 262//252
f 69//253 269//253 268//253
f 71//254 270//254 269//254
f 66//255 268//255 270//255
f 269//256 270//256 268//256
f 1//257 246//257 163//257
f 67//258 271//258 246//258
f 43//259 163//259 271//259
f 246//260 271//260 163//260
f 21//261 272//261 249//261
f 73//262 273//262 272//262
f 67//263 249//263 273//263
f 272//264 273//264 249//264
f 13//265 168//265 275//265
f 43//266 274//266 168//266
f 73//267 275//267 274//267
f 168//268 274//268 275//268
f 67//269 273//269 271//269
f 73//270 274//270 273//270
f 43//271 271//271 274//271
f 273//272 274//272 271//272
f 11//273 276//273 259//273
f 74//274 277//274 276//274
f 70//275 259//275 277//275
f 276//276 277//276 259//276
f 22//277 278//277 280//277
f 75//278 279//278 278//278
f 74//279 280//279 279//279
f 278//280 279//280 280//280
f 21//281 264//281 282//281
f 70//282 281//282 264//282
f 75//283 282//283 281//283
f 264//284 281//284 282//284
f 74//285 279//285 277//285
f 75//286 281//286 279//286
f 70//287 277//287 281//287
f 279//288 281//288 277//288
f 12//289 174//289 284//289
f 48//290 283//290 174//290
f 77//291 284//291 283//291
f 174//292 283//292 284//292
f 13//293 285//293 178//293
f 76//294 286//294 285//294
f 48//295 178//295 286//295
f 285//296 286//296 178//296
f 22//297 287//297 289//297
f 77//298 288//298 287//298
f 76//299 289//299 288//299
f 287//300 288//300 289//300
f 48//301 286//301 283//301
f 76//302 288//302 286//302
f 77//303 283//303 288//303
f 286//304 288//304 283//304
f 21//305 282//305 272//305
f 75//306 290//306 282//306
f 73//307 272//307 290//307
f 282//308 290//308 272//308
f 22//309 289//309 278//309
f 76//310 291//310 289//310
f 75//311 278//311 291//311
f 289//312 291//312 278//312
f 13//313 275//313 285//313
f 73//314 292//314 275//314
f 76//315 285//315 292//315
f 275//316 292//316 285//316
f 75//317 291//317 290//317
f 76//318 292//318 291//318
f 73//319 290//319 292//319
f 291//320 292//320 290//320
f 2//321 209//321 294//321
f 58//322 293//322 209//322
f 79//323 294//323 293//323
f 209//324 293//324 294//324
f 16//325 295//325 213//325
f 78//326 296//326 295//326
f 58//327 213//327 296//327
f 295//328 296//328 213//328
f 24//329 297//329 299//329
f 79//330 298//330 297//330
f 78//331 299//331 298//331
f 297//332 298//332 299//332
f 58//333 296//333 293//333
f 78//334 298//334 296//334
f 79//335 293//335 298//335
f 296//336 298//336 293//336
f 6//337 300//337 200//337
f 80//338 301//338 300//338
f 54//339 200//339 301//339
f 300//340 301//340 200//340
f 23//341 302//341 304//341
f 81//342 303//342 302//342
f 80//343 304//343 303//343
f 302//344 303//344 304//344
f 16//345 204//345 306//345
f 54//346 305//346 204//346
f 81//347 306//347 305//347
f 204//348 305//348 306//348
f 80//349 303//349 301//349
f 81//350 305//350 303//350
f 54//351 301//351 305//351
f 303//352 305//352 301//352
f 10//353 307//353 309//353
f 82//354 308//354 307//354
f 84//355 309//355 308//355
f 307//356 308//356 309//356
f 24//357 310//357 312//357
f 83//358 311//358 310//358
f 82//359 312//359 311//359
f 310//360 311//360 312//360
f 23//361 313//361 315//361
f 84//362 314//362 313//362
f 83//363 315//363 314//363
f 313//364 314//364 315//364
f 82//365 311//365 308//365
f 83//366 314//366 311//366
f 84//367 308//367 314//367
f 311//368 314//368 308//368
f 16//369 306//369 295//369
f 81//370 316//370 306//370
f 78//371 295//371 316//371
f 306//372 316//372 295//372
f 23//373 315//373 302//373
f 83//374 317//374 315//374
f 81//375 302//375 317//375
f 315//376 317//376 302//376
f 24//377 299//377 310//377
f 78//378 318//378 299//378
f 83//379 310//379 318//379
f 299//380 318//380 310//380
f 81//381 317//381 316//381
f 83//382 318//382 317//382
f 78//383 316//383 318//383
f 317//384 318//384 316//384
f 6//385 183//385 320//385
f 51//386 319//386 183//386
f 86//387 320//387 319//387
f 183//388 319//388 320//388
f 14//389 321//389 187//389
f 85//390 322//390 321//390
f 51//391 187//391 322//391
f 321//392 322//392 187//392
f 26//393 323//393 325//393
f 86//394 324//394 323//394
f 85//395 325//395 324//395
f 323//396 324//396 325//396
f 51//397 322//397 319//397
f 85//398 324//398 322//398
f 86//399 319//399 324//399
f 322//400 324//400 319//400
f 12//401 326//401 172//401
f 87//402 327//402 326//402
f 46//403 172//403 327//403
f 326//404 327//404 172//404
f 25//405 328//405 330//405
f 88//406 329//406 328//406
f 87//407 330//407 329//407
f 328//408 329//408 330//408
f 14//409 177//409 332//409
f 46//410 331//410 177//410
f 88//411 332//411 331//411
f 177//412 331//412 332//412
f 87//413 329//413 327//413
f 88//414 331//414 329//414
f 46//415 327//415 331//415
f 329//416 331//416 327//416
f 5//417 333//417 335//417
f 89//418 334//418 333//418
f 91//419 335//419 334//419
f 333//420 334//420 335//420
f 26//421 336//421 338//421
f 90//422 337//422 336//422
f 89//423 338//423 337//423
f 336//424 337//424 338//424
f 25//425 339//425 341//425
f 91//426 340//426 339//426
f 90//427 341//427 340//427
f 339//428 340//428 341//428
f 89//429 337//429 334//429
f 90//430 340//430 337//430
f 91//431 334//431 340//431
f 337//432 340//432 334//432
f 14//433 332//433 321//433
f 88//434 342//434 332//434
f 85//435 321//435 342//435
f 332//436 342//436 321//436
f 25//437 341//437 328//437
f 90//438 343//438 341//438
f 88//439 328//439 343//439
f 341//440 343//440 328//440
f 26//441 325//441 336//441
f 85//442 344//442 325//442
f 90//443 336//443 344//443
f 325//444 344//444 336//444
f 88//445 343//445 342//445
f 90//446 344//446 343//446
f 85//447 342//447 344//447
f 343//448 344//448 342//448
f 12//449 284//449 346//449
f 77//450 345//450 284//450
f 93//451 346//451 345//451
f 284//452 345//452 346//452
f 22//453 347//453 287//453
f 92//454 348//454 347//454
f 77//455 287//455 348//455
f 347//456 348//456 287//456
f 28//457 349//457 351//457
f 93//458 350//458 349//458
f 92//459 351//459 350//459
f 349//460 350//460 351//460
f 77//461 348//461 345//461
f 92//462 350//462 348//462
f 93//463 345//463 350//463
f 348//464 350//464 345//464
f 11//465 352//465 276//465
f 94//466 353//466 352//466
f 74//467 276//467 353//467
f 352//468 353//468 276//468
f 27//469 354//469 356//469
f 95//470 355//470 354//470
f 94//471 356//471 355//471
f 354//472 355//472 356//472
f 22//473 280//473 358//473
f 74//474 357//474 280//474
f 95//475 358//475 357//475
f 280//476 357//476 358//476
f 94//477 355//477 353//477
f 95//478 357//478 355//478
f 74//479 353//479 357//479
f 355//480 357//480 353//480
f 3//481 359//481 361//481
f 96//482 360//482 359//482
f 98//483 361//483 360//483
f 359//484 360//484 361//484
f 28//485 362//485 364//485
f 97//486 363//486 362//486
f 96//487 364//487 363//487
f 362//488 363//488 364//488
f 27//489 365//489 367//489
f 98//490 366//490 365//490
f 97//491 367//491 366//491
f 365//492 366//492 367//492
f 96//493 363//493 360//493
f 97//494 366//494 363//494
f 98//495 360//495 366//495
f 363//496 366//496 360//496
f 22//497 358//497 347//497
f 95//498 368//498 358//498
f 92//499 347//499 368//499
f 358//500 368//500 347//500
f 27//501 367//501 354//501
f 97//502 369//502 367//502
f 95//503 354//503 369//503
f 367//504 369//504 354//504
f 28//505 351//505 362//505
f 92//506 370//506 351//506
f 97//507 362//507 370//507
f 351//508 370//508 362//508
f 95//509 369//509 368//509
f 97//510 370//510 369//510
f 92//511 368//511 370//511
f 369//512 370//512 368//512
f 11//513 261//513 372//513
f 72//514 371//514 261//514
f 100//515 372//515 371//515
f 261//516 371//516 372//516
f 20//517 373//517 265//517
f 99//518 374//518 373//518
f 72//519 265//519 374//519
f 373//520 374//520 265//520
f 30//521 375//521 377//521
f 100//522 376//522 375//522
f 99//523 377//523 376//523
f 375//524 376//524 377//524
f 72//525 374//525 371//525
f 99//526 376//526 374//526
f 100//527 371//527 376//527
f 374//528 376//528 371//528
f 8//529 378//529 252//529
f 101//530 379//530 378//530
f 68//531 252//531 379//531
f 378//532 379//532 252//532
f 29//533 380//533 382//533
f 102//534 381//534 380//534
f 101//535 382//535 381//535
f 380//536 381//536 382//536
f 20//537 256//537 384//537
f 68//538 383//538 256//538
f 102//539 384//539 383//539
f 256//540 383//540 384//540
f 101//541 381//541 379//541
f 102//542 383//542 381//542
f 68//543 379//543 383//543
f 381//544 383//544 379//544
f 7//545 385//545 387//545
f 103//546 386//546 385//546
f 105//547 387//547 386//547
f 385//548 386//548 387//548
f 30//549 388//549 390//549
f 104//550 389//550 388//550
f 103//551 390//551 389//551
f 388//552 389//552 390//552
f 29//553 391//553 393//553
f 105//554 392//554 391//554
f 104//555 393//555 392//555
f 391//556 392//556 393//556
f 103//557 389//557 386//557
f 104//558 392//558 389//558
f 105//559 386//559 392//559
f 389//560 392//560 386//560
f 20//561 384//561 373//561
f 102//562 394//562 384//562
f 99//563 373//563 394//563
f 384//564 394//564 373//564
f 29//565 393//565 380//565
f 104//566 395//566 393//566
f 102//567 380//567 395//567
f 393//568 395//568 380//568
f 30//569 377//569 388//569
f 99//570 396//570 377//570
f 104//571 388//571 396//571
f 377//572 396//572 388//572
f 102//573 395//573 394//573
f 104//574 396//574 395//574
f 99//575 394//575 396//575
f 395//576 396//576 394//576
f 8//577 235//577 398//577
f 65//578 397//578 235//578
f 107//579 398//579 397//579
f 235//580 397//580 398//580
f 18//581 399//581 239//581
f 106//582 400//582 399//582
f 65//583 239//583 400//583
f 399//584 400//584 239//584
f 32//585 401//585 403//585
f 107//586 402//586 401//586
f 106//587 403//587 402//587
f 401//588 402//588 403//588
f 65//589 400//589 397//589
f 106//590 402//590 400//590
f 107//591 397//591 402//591
f 400//592 402//592 397//592
f 2//593 404//593 226//593
f 108//594 405//594 404//594
f 61//595 226//595 405//595
f 404//596 405//596 226//596
f 31//597 406//597 408//597
f 109//598 407//598 406//598
f 108//599 408//599 407//599
f 406//600 407//600 408//600
f 18//601 230//601 410//601
f 61//602 409//602 230//602
f 109//603 410//603 409//603
f 230//604 409//604 410//604
f 108//605 407//605 405//605
f 109//606 409//606 407//606
f 61//607 405//607 409//607
f 407//608 409//608 405//608
f 9//609 411//609 413//609
f 110//610 412//610 411//610
f 112//611 413//611 412//611
f 411//612 412//612 413//612
f 32//613 414//613 416//613
f 111//614 415//614 414//614
f 110//615 416//615 415//615
f 414//616 415//616 416//616
f 31//617 417//617 419//617
f 112//618 418//618 417//618
f 111//619 419//619 418//619
f 417//620 418//620 419//620
f 110//621 415//621 412//621
f 111//622 418//622 415//622
f 112//623 412//623 418//623
f 415//624 418//624 412//624
f 18//625 410//625 399//625
f 109//626 420//626 410//626
f 106//627 399//627 420//627
f 410//628 420//628 399//628
f 31//629 419//629 406//629
f 111//630 421//630 419//630
f 109//631 406//631 421//631
f 419//632 421//632 406//632
f 32//633 403//633 414//633
f 106//634 422//634 403//634
f 111//635 414//635 422//635
f 403//636 422//636 414//636
f 109//637 421//637 420//637
f 111//638 422//638 421//638
f 106//639 420//639 422//639
f 421//640 422//640 420//640
f 4//641 423//641 425//641
f 113//642 424//642 423//642
f 115//643 425//643 424//643
f 423//644 424//644 425//644
f 33//645 426//645 428//645
f 114//646 427//646 426//646
f 113//647 428//647 427//647
f 426//648 427//648 428//648
f 35//649 429//649 431//649
f 115//650 430//650 429//650
f 114//651 431//651 430//651
f 429//652 430//652 431//652
f 113//653 427//653 424//653
f 114//654 430//654 427//654
f 115//655 424//655 430//655
f 427//656 430//656 424//656
f 10//657 432//657 434//657
f 116//658 433//658 432//658
f 118//659 434//659 433//659
f 432//660 433//660 434//660
f 34//661 435//661 437//661
f 117//662 436//662 435//662
f 116//663 437//663 436//663
f 435//664 436//664 437//664
f 33//665 438//665 440//665
f 118//666 439//666 438//666
f 117//667 440//667 439//667
f 438//668 439//668 440//668
f 116//669 436//669 433//669
f 117//670 439//670 436//670
f 118//671 433//671 439//671
f 436//672 439//672 433//672
f 5//673 441//673 443//673
f 119//674 442//674 441//674
f 121//675 443//675 442//675
f 441//676 442//676 443//676
f 35//677 444//677 446//677
f 120//678 445//678 444//678
f 119//679 446//679 445//679
f 444//680 445//680 446//680
f 34//681 447//681 449//681
f 121//682 448//682 447//682
f 120//683 449//683 448//683
f 447//684 448//684 449//684
f 119//685 445//685 442//685
f 120//686 448//686 445//686
f 121//687 442//687 448//687
f 445//688 448//688 442//688
f 33//689 440//689 426//689
f 117//690 450//690 440//690
f 114//691 426//691 450//691
f 440//692 450//692 426//692
f 34//693 449//693 435//693
f 120//694 451//694 449//694
f 117//695 435//695 451//695
f 449//696 451//696 435//696
f 35//697 431//697 444//697
f 114//698 452//698 431//698
f 120//699 444//699 452//699
f 431//700 452//700 444//700
f 117//701 451//701 450//701
f 120//702 452//702 451//702
f 114//703 450//703 452//703
f 451//704 452//704 450//704
f 4//705 425//705 454//705
f 115//706 453//706 425//706
f 123//707 454//707 453//707
f 425//708 453//708 454//708
f 35//709 455//709 429//709
f 122//710 456//710 455//710
f 115//711 429//711 456//711
f 455//712 456//712 429//712
f 37//713 457//713 459//713
f 123//714 458//714 457//714
f 122//715 459//715 458//715
f 457//716 458//716 459//716
f 115//717 456//717 453//717
f 122//718 458//718 456//718
f 123//719 453//719 458//719
f 456//720 458//720 453//720
f 5//721 460//721 441//721
f 124//722 461//722 460//722
f 119//723 441//723 461//723
f 460//724 461//724 441//724
f 36//725 462//725 464//725
f 125//726 463//726 462//726
f 124//727 464//727 463//727
f 462//728 463//728 464//728
f 35//729 446//729 466//729
f 119//730 465//730 446//730
f 125//731 466//731 465//731
f 446//732 465//732 466//732
f 124//733 463//733 461//733
f 125//734 465//734 463//734
f 119//735 461//735 465//735
f 463//736 465//736 461//736
f 3//737 467//737 469//737
f 126//738 468//738 467//738
f 128//739 469//739 468//739
f 467//740 468//740 469//740
f 37//741 470//741 472//741
f 127//742 471//742 470//742
f 126//743 472//743 471//743
f 470//744 471//744 472//744
f 36//745 473//745 475//745
f 128//746 474//746 473//746
f 127//747 475//747 474//747
f 473//748 474//748 475//748
f 126//749 471//749 468//749
f 127//750 474//750 471//750
f 128//751 468//751 474//751
f 471//752 474//752 468//752
f 35//753 466//753 455//753
f 125//754 476//754 466//754
f 122//755 455//755 476//755
f 466//756 476//756 455//756
f 36//757 475//757 462//757
f 127//758 477//758 475//758
f 125//759 462//759 477//759
f 475//760 477//760 462//760
f 37//761 459//761 470//761
f 122//762 478//762 459//762
f 127//763 470//763 478//763
f 459//764 478//764 470//764
f 125//765 477//765 476//765
f 127//766 478//766 477//766
f 122//767 476//767 478//767
f 477//768 478//768 476//768
f 4//769 454//769 480//769
f 123//770 479//770 454//770
f 130//771 480//771 479//771
f 454//772 479//772 480//772
f 37//773 481//773 457//773
f 129//774 482//774 481//774
f 123//775 457//775 482//775
f 481//776 482//776 457//776
f 39//777 483//777 485//777
f 130//778 484//778 483//778
f 129//779 485//779 484//779
f 483//780 484//780 485//780
f 123//781 482//781 479//781
f 129//782 484//782 482//782
f 130//783 479//783 484//783
f 482//784 484//784 479//784
f 3//785 486//785 467//785
f 131//786 487//786 486//786
f 126//787 467//787 487//787
f 486//788 487//788 467//788
f 38//789 488//789 490//789
f 132//790 489//790 488//790
f 131//791 490//791 489//791
f 488//792 489//792 490//792
f 37//793 472//793 492//793
f 126//794 491//794 472//794
f 132//795 492//795 491//795
f 472//796 491//796 492//796
f 131//797 489//797 487//797
f 132//798 491//798 489//798
f 126//799 487//799 491//799
f 489//800 491//800 487//800
f 7//801 493//801 495//801
f 133//802 494//802 493//802
f 135//803 495//803 494//803
f 493//804 494//804 495//804
f 39//805 496//805 498//805
f 134//806 497//806 496//806
f 133//807 498//807 497//807
f 496//808 497//808 498//808
f 38//809 499//809 501//809
f 135//810 500//810 499//810
f 134//811 501//811 500//811
f 499//812 500//812 501//812
f 133//813 497//813 494//813
f 134//814 500//814 497//814
f 135//815 494//815 500//815
f 497//816 500//816 494//816
f 37//817 492//817 481//817
f 132//818 502//818 492//818
f 129//819 481//819 502//819
f 492//820 502//820 481//820
f 38//821 501//821 488//821
f 134//822 503//822 501//822
f 132//823 488//823 503//823
f 501//824 503//824 488//824
f 39//825 485//825 496//825
f 129//826 504//826 485//826
f 134//827 496//827 504//827
f 485//828 504//828 496//828
f 132//829 503//829 502//829
f 134//830 504//830 503//830
f 129//831 502//831 504//831
f 503//832 504//832 502//832
f 4//833 480//833 506//833
f 130//834 505//834 480//834
f 137//835 506//835 505//835
f 480//836 505//836 506//836
f 39//837 507//837 483//837
f 136//838 508//838 507//838
f 130//839 483//839 508//839
f 507//840 508//840 483//840
f 41//841 509//841 511//841
f 137//842 510//842 509//842
f 136//843 511//843 510//843
f 509//844 510//844 511//844
f 130//845 508//845 505//845
f 136//846 510//846 508//846
f 137//847 505//847 510//847
f 508//848 510//848 505//848
f 7//849 512//849 493//849
f 138//850 513//850 512//850
f 133//851 493//851 513//851
f 512//852 513//852 493//852
f 40//853 514//853 516//853
f 139//854 515//854 514//854
f 138//855 516//855 515//855
f 514//856 515//856 516//856
f 39//857 498//857 518//857
f 133//858 517//858 498//858
f 139//859 518//859 517//859
f 498//860 517//860 518//860
f 138//861 515//861 513//861
f 139//862 517//862 515//862
f 133//863 513//863 517//863
f 515//864 517//864 513//864
f 9//865 519//865 521//865
f 140//866 520//866 519//866
f 142//867 521//867 520//867
f 519//868 520//868 521//868
f 41//869 522//869 524//869
f 141//870 523//870 522//870
f 140//871 524//871 523//871
f 522//872 523//872 524//872
f 40//873 525//873 527//873
f 142//874 526//874 525//874
f 141//875 527//875 526//875
f 525//876 526//876 527//876
f 140//877 523//877 520//877
f 141//878 526//878 523//878
f 142//879 520//879 526//879
f 523//880 526//880 520//880
f 39//881 518//881 507//881
f 139//882 528//882 518//882
f 136//883 507//883 528//883
f 518//884 528//884 507//884
f 40//885 527//885 514//885
f 141//886 529//886 527//886
f 139//887 514//887 529//887
f 527//888 529//888 514//888
f 41//889 511//889 522//889
f 136//890 530//890 511//890
f 141//891 522//891 530//891
f 511//892 530//892 522//892
f 139//893 529//893 528//893
f 141//894 530//894 529//894
f 136//895 528//895 530//895
f 529//896 530//896 528//896
f 4//897 506//897 423//897
f 137//898 531//898 506//898
f 113//899 423//899 531//899
f 506//900 531//900 423//900
f 41//901 532//901 509//901
f 143//902 533//902 532//902
f 137//903 509//903 533//903
f 532//904 533//904 509//904
f 33//905 428//905 535//905
f 113//906 534//906 428//906
f 143//907 535//907 534//907
f 428//908 534//908 535//908
f 137//909 533//909 531//909
f 143//910 534//910 533//910
f 113//911 531//911 534//911
f 533//912 534//912 531//912
f 9//913 536//913 519//913
f 144//914 537//914 536//914
f 140//915 519//915 537//915
f 536//916 537//916 519//916
f 42//917 538//917 540//917
f 145//918 539//918 538//918
f 144//919 540//919 539//919
f 538//920 539//920 540//920
f 41//921 524//921 542//921
f 140//922 541//922 524//922
f 145//923 542//923 541//923
f 524//924 541//924 542//924
f 144//925 539//925 537//925
f 145//926 541//926 539//926
f 140//927 537//927 541//927
f 539//928 541//928 537//928
f 10//929 434//929 544//929
f 118//930 543//930 434//930
f 147//931 544//931 543//931
f 434//932 543//932 544//932
f 33//933 545//933 438//933
f 146//934 546//934 545//934
f 118//935 438//935 546//935
f 545//936 546//936 438//936
f 42//937 547//937 549//937
f 147//938 548//938 547//938
f 146//939 549//939 548//939
f 547//940 548//940 549//940
f 118//941 546//941 543//941
f 146//942 548//942 546//942
f 147//943 543//943 548//943
f 546//944 548//944 543//944
f 41//945 542//945 532//945
f 145//946 550//946 542//946
f 143//947 532//947 550//947
f 542//948 550//948 532//948
f 42//949 549//949 538//949
f 146//950 551//950 549//950
f 145//951 538//951 551//951
f 549//952 551//952 538//952
f 33//953 535//953 545//953
f 143//954 552//954 535//954
f 146//955 545//955 552//955
f 535//956 552//956 545//956
f 145//957 551//957 550//957
f 146//958 552//958 551//958
f 143//959 550//959 552//959
f 551//960 552//960 550//960
f 5//961 443//961 333//961
f 121//962 553//962 443//962
f 89//963 333//963 553//963
f 443//964 553//964 333//964
f 34//965 554//965 447//965
f 148//966 555//966 554//966
f 121//967 447//967 555//967
f 554//968 555//968 447//968
f 26//969 338//969 557//969
f 89//970 556//970 338//970
f 148//971 557//971 556//971
f 338//972 556//972 557//972
f 121//973 555//973 553//973
f 148//974 556//974 555//974
f 89//975 553//975 556//975
f 555//976 556//976 553//976
f 10//977 309//977 432//977
f 84//978 558//978 309//978
f 116//979 432//979 558//979
f 309//980 558//980 432//980
f 23//981 559//981 313//981
f 149//982 560//982 559//982
f 84//983 313//983 560//983
f 559//984 560//984 313//984
f 34//985 437//985 562//985
f 116//986 561//986 437//986
f 149//987 562//987 561//987
f 437//988 561//988 562//988
f 84//989 560//989 558//989
f 149//990 561//990 560//990
f 116//991 558//991 561//991
f 560//992 561//992 558//992
f 6//993 320//993 300//993
f 86//994 563//994 320//994
f 80//995 300//995 563//995
f 320//996 563//996 300//996
f 26//997 564//997 323//997
f 150//998 565//998 564//998
f 86//999 323//999 565//999
f 564//1000 565//1000 323//1000
f 23//1001 304//1001 567//1001
f 80//1002 566//1002 304//1002
f 150//1003 567//1003 566//1003
f 304//1004 566//1004 567//1004
f 86//1005 565//1005 563//1005
f 150//1006 566//1006 565//1006
f 80//1007 563//1007 566//1007
f 565//1008 566//1008 563//1008
f 34//1009 562//1009 554//1009
f 149//1010 568//1010 562//1010
f 148//1011 554//1011 568//1011
f 562//1012 568//1012 554//1012
f 23//1013 567//1013 559//1013
f 150//1014 569//1014 567//1014
f 149//1015 559//1015 569//1015
f 567//1016 569//1016 559//1016
f 26//1017 557//1017 564//1017
f 148//1018 570//1018 557//1018
f 150//1019 564//1019 570//1019
f 557//1020 570//1020 564//1020
f 149//1021 569//1021 568//1021
f 150//1022 570//1022 569//1022
f 148//1023 568//1023 570//1023
f 569//1024 570//1024 568//1024
f 3//1025 469//1025 359//1025
f 128//1026 571//1026 469//1026
f 96//1027 359//1027 571//1027
f 469//1028 571//1028 359//1028
f 36//1029 572//1029 473//1029
f 151//1030 573//1030 572//1030
f 128//1031 473//1031 573//1031
f 572//1032 573//1032 473//1032
f 28//1033 364//1033 575//1033
f 96//1034 574//1034 364//1034
f 151//1035 575//1035 574//1035
f 364//1036 574//1036 575//1036
f 128//1037 573//1037 571//1037
f 151//1038 574//1038 573//1038
f 96//1039 571//1039 574//1039
f 573//1040 574//1040 571//1040
f 5//1041 335//1041 460//1041
f 91//1042 576//1042 335//1042
f 124//1043 460//1043 576//1043
f 335//1044 576//1044 460//1044
f 25//1045 577//1045 339//1045
f 152//1046 578//1046 577//1046
f 91//1047 339//1047 578//1047
f 577//1048 578//1048 339//1048
f 36//1049 464//1049 580//1049
f 124//1050 579//1050 464//1050
f 152//1051 580//1051 579//1051
f 464//1052 579//1052 580//1052
f 91//1053 578//1053 576//1053
f 152//1054 579//1054 578//1054
f 124//1055 576//1055 579//1055
f 578//1056 579//1056 576//1056
f 12//1057 346//1057 326//1057
f 93//1058 581//1058 346//1058
f 87//1059 326//1059 581//1059
f 346//1060 581//1060 326//1060
f 28//1061 582//1061 349//1061
f 153//1062 583//1062 582//1062
f 93//1063 349//1063 583//1063
f 582//1064 583//1064 349//1064
f 25//1065 330//1065 585//1065
f 87//1066 584//1066 330//1066
f 153//1067 585//1067 584//1067
f 330//1068 584//1068 585//1068
f 93//1069 583//1069 581//1069
f 153//1070 584//1070 583//1070
f 87//1071 581//1071 584//1071
f 583//1072 584//1072 581//1072
f 36//1073 580//1073 572//1073
f 152//1074 586//1074 580//1074
f 151//1075 572//1075 586//1075
f 580//1076 586//1076 572//1076
f 25//1077 585//1077 577//1077
f 153//1078 587//1078 585//1078
f 152//1079 577//1079 587//1079
f 585//1080 587//1080 577//1080
f 28//1081 575//1081 582//1081
f 151//1082 588//1082 575//1082
f 153//1083 582//1083 588//1083
f 575//1084 588//1084 582//1084
f 152//1085 587//1085 586//1085
f 153//1086 588//1086 587//1086
f 151//1087 586//1087 588//1087
f 587//1088 588//1088 586//1088
f 7//1089 495//1089 385//1089
f 135//1090 589//1090 495//1090
f 103//1091 385//1091 589//1091
f 495//1092 589//1092 385//1092
f 38//1093 590//1093 499//1093
f 154//1094 591//1094 590//1094
f 135//1095 499//1095 591//1095
f 590//1096 591//1096 499//1096
f 30//1097 390//1097 593//1097
f 103//1098 592//1098 390//1098
f 154//1099 593//1099 592//1099
f 390//1100 592//1100 593//1100
f 135//1101 591//1101 589//1101
f 154//1102 592//1102 591//1102
f 103//1103 589//1103 592//1103
f 591//1104 592//1104 589//1104
f 3//1105 361//1105 486//1105
f 98//1106 594//1106 361//1106
f 131//1107 486//1107 594//1107
f 361//1108 594//1108 486//1108
f 27//1109 595//1109 365//1109
f 155//1110 596//1110 595//1110
f 98//1111 365//1111 596//1111
f 595//1112 596//1112 365//1112
f 38//1113 490//1113 598//1113
f 131//1114 597//1114 490//1114
f 155//1115 598//1115 597//1115
f 490//1116 597//1116 598//1116
f 98//1117 596//1117 594//1117
f 155//1118 597//1118 596//1118
f 131//1119 594//1119 597//1119
f 596//1120 597//1120 594//1120
f 11//1121 372//1121 352//1121
f 100//1122 599//1122 372//1122
f 94//1123 352//1123 599//1123
f 372//1124 599//1124 352//1124
f 30//1125 600//1125 375//1125
f 156//1126 601//1126 600//1126
f 100//1127 375//1127 601//1127
f 600//1128 601//1128 375//1128
f 27//1129 356//1129 603//1129
f 94//1130 602//1130 356//1130
f 156//1131 603//1131 602//1131
f 356//1132 602//1132 603//1132
f 100//1133 601//1133 599//1133
f 156//1134 602//1134 601//1134
f 94//1135 599//1135 602//1135
f 601//1136 602//1136 599//1136
f 38//1137 598//1137 590//1137
f 155//1138 604//1138 598//1138
f 154//1139 590//1139 604//1139
f 598//1140 604//1140 590//1140
f 27//1141 603//1141 595//1141
f 156//1142 605//1142 603//1142
f 155//1143 595//1143 605//1143
f 603//1144 605//1144 595//1144
f 30//1145 593//1145 600//1145
f 154//1146 606//1146 593//1146
f 156//1147 600//1147 606//1147
f 593//1148 606//1148 600//1148
f 155//1149 605//1149 604//1149
f 156//1150 606//1150 605//1150
f 154//1151 604//1151 606//1151
f 605//1152 606//1152 604//1152
f 9//1153 521//1153 411//1153
f 142//1154 607//1154 521//1154
f 110//1155 411//1155 607//1155
f 521//1156 607//1156 411//1156
f 40//1157 608//1157 525//1157
f 157//1158 609//1158 608//1158
f 142//1159 525//1159 609//1159
f 608//1160 609//1160 525//1160
f 32//1161 416//1161 611//1161
f 110//1162 610//1162 416//1162
f 157//1163 611//1163 610//1163
f 416//1164 610//1164 611//1164
f 142//1165 609//1165 607//1165
f 157//1166 610//1166 609//1166
f 110//1167 607//1167 610//1167
f 609//1168 610//1168 607//1168
f 7//1169 387//1169 512//1169
f 105//1170 612//1170 387//1170
f 138//1171 512//1171 612//1171
f 387//1172 612//1172 512//1172
f 29//1173 613//1173 391//1173
f 158//1174 614//1174 613//1174
f 105//1175 391//1175 614//1175
f 613//1176 614//1176 391//1176
f 40//1177 516//1177 616//1177
f 138//1178 615//1178 516//1178
f 158//1179 616//1179 615//1179
f 516//1180 615//1180 616//1180
f 105//1181 614//1181 612//1181
f 158//1182 615//1182 614//1182
f 138//1183 612//1183 615//1183
f 614//1184 615//1184 612//1184
f 8//1185 398//1185 378//1185
f 107//1186 617//1186 398//1186
f 101//1187 378//1187 617//1187
f 398//1188 617//1188 378//1188
f 32//1189 618//1189 401//1189
f 159//1190 619//1190 618//1190
f 107//1191 401//1191 619//1191
f 618//1192 619//1192 401//1192
f 29//1193 382//1193 621//1193
f 101//1194 620//1194 382//1194
f 159//1195 621//1195 620//1195
f 382//1196 620//1196 621//1196
f 107//1197 619//1197 617//1197
f 159//1198 620//1198 619//1198
f 101//1199 617//1199 620//1199
f 619//1200 620//1200 617//1200
f 40//1201 616//1201 608//1201
f 158//1202 622//1202 616//1202
f 157//1203 608//1203 622//1203
f 616//1204 622//1204 608//1204
f 29//1205 621//1205 613//1205
f 159//1206 623//1206 621//1206
f 158//1207 613//1207 623//1207
f 621//1208 623//1208 613//1208
f 32//1209 611//1209 618//1209
f 157//1210 624//1210 611//1210
f 159//1211 618//1211 624//1211
f 611//1212 624//1212 618//1212
f 158//1213 623//1213 622//1213
f 159//1214 624//1214 623//1214
f 157//1215 622//1215 624//1215
f 623//1216 624//1216 622//1216
f 10//1217 544//1217 307//1217
f 147//1218 625//1218 544//1218
f 82//1219 307//1219 625//1219
f 544//1220 625//1220 307//1220
f 42//1221 626//1221 547//1221
f 160//1222 627//1222 626//1222
f 147//1223 547//1223 627//1223
f 626//1224 627//1224 547//1224
f 24//1225 312//1225 629//1225
f 82//1226 628//1226 312//1226
f 160//1227 629//1227 628//1227
f 312//1228 628//1228 629//1228
f 147//1229 627//1229 625//1229
f 160//1230 628//1230 627//1230
f 82//1231 625//1231 628//1231
f 627//1232 628//1232 625//1232
f 9//1233 413//1233 536//1233
f 112//1234 630//1234 413//1234
f 144//1235 536//1235 630//1235
f 413//1236 630//1236 536//1236
f 31//1237 631//1237 417//1237
f 161//1238 632//1238 631//1238
f 112//1239 417//1239 632//1239
f 631//1240 632//1240 417//1240
f 42//1241 540//1241 634//1241
f 144//1242 633//1242 540//1242
f 161//1243 634//1243 633//1243
f 540//1244 633//1244 634//1244
f 112//1245 632//1245 630//1245
f 161//1246 633//1246 632//1246
f 144//1247 630//1247 633//1247
f 632//1248 633//1248 630//1248
f 2//1249 294//1249 404//1249
f 79//1250 635//1250 294//1250
f 108//1251 404//1251 635//1251
f 294//1252 635//1252 404//1252
f 24//1253 636//1253 297//1253
f 162//1254 637//1254 636//1254
f 79//1255 297//1255 637//1255
f 636//1256 637//1256 297//1256
f 31//1257 408//1257 639//1257
f 108//1258 638//1258 408//1258
f 162//1259 639//1259 638//1259
f 408//1260 638//1260 639//1260
f 79//1261 637//1261 635//1261
f 162//1262 638//1262 637//1262
f 108//1263 635//1263 638//1263
f 637//1264 638//1264 635//1264
f 42//1265 634//1265 626//1265
f 161//1266 640//1266 634//1266
f 160//1267 626//1267 640//1267
f 634//1268 640//1268 626//1268
f 31//1269 639//1269 631//1269
f 162//1270 641//1270 639//1270
f 161//1271 631//1271 641//1271
f 639//1272 641//1272 631//1272
f 24//1273 629//1273 636//1273
f 160//1274 642//1274 629//1274
f 162//1275 636//1275 642//1275
f 629//1276 642//1276 636//1276
f 161//1277 641//1277 640//1277
f 162//1278 642//1278 641//1278
f 160//1279 640//1279 642//1279
f 641//1280 642//1280 640//1280
