# Fractured Arcana procedural boulder
o Boulder_Craggy
v -0.223728 0.452543 -0.005225
v 0.252387 0.505641 -0.005225
v -0.174323 -0.212793 -0.005225
v 0.239752 -0.245223 -0.005225
v -0.001297 -0.132433 0.313882
v -0.001297 0.369802 0.449604
v -0.001297 -0.141084 -0.337663
v -0.001297 0.275267 -0.314376
v 0.341015 0.074647 -0.216785
v 0.372922 0.074647 0.226056
v -0.393062 0.074647 -0.247348
v -0.368846 0.074647 0.221933
v -0.351085 0.301637 0.128382
v -0.236035 0.226977 0.374590
v -0.125806 0.416913 0.196235
v 0.152638 0.497804 0.243847
v -0.001297 0.485150 -0.005225
v 0.111327 0.384244 -0.187454
v -0.119234 0.398848 -0.196050
v -0.221933 0.217826 -0.362221
v -0.332949 0.289868 -0.131904
v -0.424064 0.074647 -0.005225
v 0.193977 0.201368 0.310736
v 0.343960 0.298697 0.126652
v -0.241405 -0.081167 0.383279
v -0.001297 0.074647 0.382066
v -0.337411 -0.143469 -0.133609
v -0.349796 -0.151506 0.127890
v -0.001297 0.074647 -0.468178
v -0.232992 -0.075708 -0.380115
v 0.325280 0.286575 -0.129966
v 0.192336 0.200303 -0.318530
v 0.319060 -0.133244 0.117141
v 0.250981 -0.089065 0.402970
v 0.155591 -0.240632 0.248626
v -0.102691 -0.201383 0.158834
v -0.001297 -0.237521 -0.005225
v -0.121433 -0.233276 -0.199608
v 0.108290 -0.217665 -0.182541
v 0.189380 -0.049090 -0.313747
v 0.298933 -0.120183 -0.119902
v 0.417683 0.074647 -0.005225
v -0.294583 0.386267 0.062676
v -0.274666 0.410717 0.192587
v -0.183817 0.455681 0.104101
v -0.316006 0.150250 0.305779
v -0.302049 0.269816 0.251648
v -0.346488 0.183841 0.168393
v -0.075776 0.412431 0.320307
v -0.191453 0.350576 0.302454
v -0.123370 0.288637 0.399974
v -0.062970 0.453739 0.094564
v -0.118758 0.508799 -0.005225
v 0.070285 0.399293 0.307646
v -0.001297 0.504330 0.247688
v 0.102990 0.460109 -0.005225
v 0.065397 0.484603 0.102689
v 0.206435 0.508317 0.119203
v -0.065460 0.469041 -0.109041
v -0.191323 0.471351 -0.119047
v 0.221221 0.539185 -0.138509
v 0.075528 0.546877 -0.129530
v -0.066230 0.369136 -0.289032
v -0.001297 0.460803 -0.232518
v 0.070057 0.398259 -0.317099
v -0.197995 0.316460 -0.147557
v -0.285046 0.376133 -0.070917
v -0.092386 0.234323 -0.307579
v -0.187696 0.345124 -0.306824
v -0.414303 0.205293 -0.212950
v -0.237236 0.227757 -0.206741
v -0.287854 0.143487 -0.288408
v -0.324376 0.284305 -0.005225
v -0.408544 0.074647 -0.120915
v -0.296520 0.160325 -0.055655
v -0.453404 0.205854 0.072004
v -0.436255 0.074647 0.118338
v 0.243891 0.376072 0.172195
v 0.323043 0.419263 0.069866
v 0.107885 0.266040 0.357187
v 0.159216 0.307562 0.254490
v 0.419321 0.207701 0.206330
v 0.296939 0.268183 0.249499
v 0.256955 0.136687 0.249987
v -0.097904 0.137339 0.344302
v -0.001297 0.194712 0.397295
v -0.349428 -0.008984 0.338807
v -0.236167 0.074647 0.374803
v -0.001297 -0.040096 0.379455
v -0.121618 -0.003433 0.430100
v -0.143545 -0.174708 0.466943
v -0.362408 -0.030152 0.056460
v -0.339184 -0.032236 0.164719
v -0.369630 -0.041867 -0.190481
v -0.409634 -0.043857 -0.074977
v -0.258494 -0.196896 0.054321
v -0.330438 -0.138944 -0.005225
v -0.237882 -0.176726 -0.059998
v -0.268568 0.074647 -0.437678
v -0.353101 -0.009867 -0.352886
v -0.001297 0.181509 -0.363482
v -0.104469 0.141599 -0.378504
v -0.108422 -0.113139 -0.360808
v -0.114788 0.000999 -0.415837
v -0.001297 -0.056669 -0.445466
v 0.198046 0.363908 -0.327770
v 0.094882 0.243246 -0.324475
v 0.265022 0.357614 -0.066882
v 0.222395 0.349646 -0.167090
v 0.349603 0.158944 -0.351994
v 0.310657 0.277085 -0.271665
v 0.401513 0.202068 -0.207822
v 0.260298 -0.200756 0.055339
v 0.268532 -0.233909 0.190026
v 0.182936 -0.246319 0.105128
v 0.327675 -0.004382 0.319875
v 0.273953 -0.103972 0.229867
v 0.324662 -0.028463 0.158720
v 0.060481 -0.202545 0.264793
v 0.186747 -0.196551 0.299038
v 0.107128 -0.115419 0.354675
v 0.066117 -0.244492 0.103853
v 0.102727 -0.246313 -0.005225
v -0.069052 -0.221412 0.290916
v -0.001297 -0.236562 0.255826
v -0.118659 -0.239884 -0.005225
v -0.073331 -0.236836 0.111328
v -0.156473 -0.230399 0.087723
v 0.078203 -0.212251 -0.133859
v 0.219505 -0.228902 -0.137481
v -0.164398 -0.237355 -0.102919
v -0.061743 -0.245117 -0.103028
v 0.064042 -0.214422 -0.290809
v -0.001297 -0.246455 -0.234493
v -0.071307 -0.227164 -0.311222
v 0.250962 -0.223079 -0.187761
v 0.318870 -0.237241 -0.079349
v 0.088989 -0.083622 -0.304916
v 0.188574 -0.198767 -0.312442
v 0.335032 -0.031743 -0.174385
v 0.278311 -0.106801 -0.244039
v 0.295962 0.003236 -0.298984
v 0.375686 -0.169990 -0.005225
v 0.453087 0.074647 -0.134306
v 0.423257 -0.048564 -0.077747
v 0.348379 -0.026833 0.054507
v 0.321441 0.074647 0.086459
v 0.112589 0.000743 0.406819
v 0.267053 0.074647 0.428975
v 0.102605 0.142073 0.370695
v -0.270447 -0.233552 0.189534
v -0.190422 -0.197868 0.300786
v -0.277030 -0.104286 0.230280
v -0.163449 -0.160645 -0.267591
v -0.270102 -0.233369 -0.199734
v -0.293597 -0.115036 -0.254878
v 0.197577 0.074647 -0.327011
v 0.115905 -0.001409 -0.429265
v 0.093839 0.136385 -0.349431
v 0.433374 0.200795 0.069026
v 0.451886 0.206167 -0.082638
v 0.319519 0.282836 -0.005225
v -0.257007 0.416499 0.028455
v -0.257048 0.447262 0.090146
v -0.196194 0.440018 0.047559
v -0.324344 0.363187 0.164611
v -0.313775 0.430571 0.137644
v -0.350686 0.368087 0.103963
v -0.160409 0.450583 0.157526
v -0.257134 0.482415 0.166360
v -0.203273 0.428704 0.203175
v -0.358163 0.113410 0.275063
v -0.341877 0.170754 0.240227
v -0.362855 0.132234 0.197282
v -0.296057 0.265927 0.341286
v -0.302190 0.207806 0.272148
v -0.293830 0.194654 0.360499
v -0.332932 0.232935 0.142156
v -0.342260 0.232827 0.219394
v -0.315334 0.278437 0.182878
v -0.041649 0.396332 0.384845
v -0.112565 0.387948 0.408800
v -0.067403 0.330939 0.430573
v -0.168694 0.408974 0.265628
v -0.152311 0.421455 0.353076
v -0.111693 0.445565 0.277334
v -0.181893 0.260034 0.392067
v -0.172463 0.342620 0.382177
v -0.232273 0.309696 0.368503
v -0.284677 0.334311 0.219775
v -0.281969 0.342779 0.316397
v -0.233012 0.381076 0.249455
v -0.146348 0.467621 0.048084
v -0.180917 0.502504 -0.005225
v -0.092691 0.432888 0.142653
v -0.119542 0.452257 0.098428
v -0.059762 0.515387 -0.005225
v -0.102741 0.542289 0.055974
v -0.036737 0.521546 0.052119
v 0.039726 0.401685 0.391335
v -0.001297 0.424889 0.332313
v 0.072691 0.491894 0.240368
v 0.038312 0.474541 0.297541
v 0.106464 0.436713 0.270591
v -0.039717 0.462532 0.288449
v -0.072019 0.473471 0.229524
v 0.175990 0.496946 -0.005225
v 0.151061 0.487419 0.050770
v 0.209235 0.469330 0.051794
v 0.027980 0.443828 0.042146
v 0.079052 0.445047 0.043248
v 0.049571 0.458117 -0.005225
v 0.194819 0.538012 0.195375
v 0.137439 0.517695 0.116391
v 0.122417 0.559578 0.194949
v -0.038892 0.512426 0.177264
v 0.035972 0.508640 0.175686
v -0.001297 0.486972 0.103312
v -0.170078 0.531911 -0.067254
v -0.218387 0.481623 -0.064019
v -0.034471 0.492962 -0.058900
v -0.096571 0.513847 -0.062701
v -0.183499 0.505138 -0.191593
v -0.143077 0.527413 -0.129508
v -0.111441 0.506386 -0.183442
v 0.243861 0.534241 -0.071620
v 0.166184 0.528391 -0.066777
v 0.101711 0.478416 -0.171896
v 0.155403 0.575061 -0.142587
v 0.172517 0.485320 -0.183013
v 0.101290 0.547561 -0.067113
v 0.036627 0.552864 -0.066587
v -0.034605 0.340176 -0.327200
v -0.001297 0.391785 -0.310859
v 0.027514 0.304329 -0.283733
v -0.065495 0.436683 -0.218320
v -0.034595 0.410826 -0.259751
v -0.102606 0.415035 -0.264526
v 0.096256 0.402416 -0.254913
v 0.032558 0.416448 -0.264007
v 0.059277 0.416248 -0.206292
v -0.001297 0.493338 -0.115437
v 0.027664 0.411891 -0.145805
v -0.033502 0.449667 -0.161552
v -0.241282 0.424292 -0.094716
v -0.271784 0.436254 -0.040850
v -0.183814 0.394594 -0.193547
v -0.209079 0.405821 -0.144580
v -0.313166 0.336575 -0.102687
v -0.241248 0.347960 -0.114933
v -0.273758 0.318005 -0.148466
v -0.047591 0.254130 -0.310416
v -0.084430 0.308725 -0.314557
v -0.202507 0.279405 -0.330788
v -0.144721 0.299187 -0.329837
v -0.164681 0.242366 -0.364653
v -0.130514 0.371398 -0.311809
v -0.147963 0.367571 -0.242535
v -0.402811 0.138598 -0.230110
v -0.349489 0.172902 -0.256162
v -0.370840 0.114787 -0.295469
v -0.293111 0.264016 -0.180016
v -0.282378 0.205047 -0.190395
v -0.341546 0.237046 -0.156433
v -0.282679 0.190080 -0.357008
v -0.280561 0.198234 -0.262659
v -0.267019 0.247084 -0.317599
v -0.191271 0.325875 -0.214026
v -0.222208 0.285688 -0.258366
v -0.233103 0.287053 -0.189276
v -0.297650 0.389525 -0.005225
v -0.361934 0.308677 -0.072372
v -0.347551 0.363672 -0.041235
v -0.276112 0.304040 0.023356
v -0.278330 0.254424 0.046357
v -0.418377 0.074647 -0.189075
v -0.430766 0.138878 -0.171672
v -0.351258 0.124155 -0.034365
v -0.298450 0.117521 -0.072908
v -0.425434 0.074647 -0.064300
v -0.307996 0.167465 -0.106067
v -0.310896 0.215546 -0.088158
v -0.379977 0.131282 0.141539
v -0.395339 0.074647 0.168471
v -0.353777 0.235061 0.089195
v -0.391851 0.192842 0.123189
v -0.460848 0.074647 0.058783
v -0.410593 0.133701 0.088001
v -0.424948 0.134580 0.030052
v -0.340641 0.230602 -0.035823
v -0.412234 0.193907 -0.005225
v -0.353580 0.236549 0.026541
v 0.253982 0.446575 0.089970
v 0.300141 0.477631 0.034478
v 0.193301 0.415773 0.195563
v 0.210928 0.412904 0.137111
v 0.346260 0.366549 0.103390
v 0.264079 0.376920 0.116108
v 0.290443 0.335225 0.148153
v 0.062770 0.323034 0.417132
v 0.106364 0.377792 0.395378
v 0.197615 0.277067 0.316622
v 0.150021 0.311546 0.337254
v 0.151216 0.231207 0.330289
v 0.124427 0.363376 0.293072
v 0.165187 0.407153 0.264153
v 0.409892 0.140139 0.225080
v 0.356653 0.175656 0.252745
v 0.311986 0.108676 0.240833
v 0.343075 0.298123 0.201049
v 0.370940 0.247336 0.239997
v 0.388485 0.260688 0.167996
v 0.226498 0.168097 0.279564
v 0.261050 0.190748 0.236615
v 0.219147 0.217701 0.253923
v 0.205305 0.347866 0.221853
v 0.235791 0.301143 0.266454
v 0.267649 0.321086 0.208316
v -0.057127 0.234153 0.386735
v -0.001297 0.267258 0.410921
v -0.160175 0.177749 0.361337
v -0.100196 0.193109 0.337908
v -0.001297 0.128473 0.362820
v -0.051826 0.162592 0.362500
v -0.053460 0.108498 0.381943
v -0.370135 0.034584 0.284466
v -0.330524 0.074647 0.320126
v -0.229800 0.002365 0.364501
v -0.270747 0.037634 0.333718
v -0.293234 -0.045115 0.359755
v -0.317755 0.118117 0.392851
v -0.248054 0.152704 0.394037
v -0.001297 -0.090976 0.352612
v -0.058457 -0.088660 0.396076
v -0.061322 -0.158070 0.390487
v -0.054715 0.039983 0.391253
v -0.060727 -0.028788 0.427270
v -0.001297 0.018051 0.381765
v -0.203045 -0.132453 0.438600
v -0.127433 -0.076440 0.432407
v -0.198348 -0.053226 0.449409
v -0.158264 0.108601 0.353398
v -0.166387 0.038936 0.371957
v -0.111670 0.074647 0.394109
v -0.393647 0.015968 0.146837
v -0.382828 0.013880 0.208468
v -0.493678 0.004992 0.035775
v -0.442008 0.011061 0.095157
v -0.323789 -0.079276 0.138092
v -0.374207 -0.038208 0.117387
v -0.349817 -0.083964 0.088135
v -0.415609 0.008658 -0.237278
v -0.382186 0.017682 -0.152844
v -0.370404 -0.093333 -0.104098
v -0.415646 -0.050749 -0.141462
v -0.354044 -0.093717 -0.161987
v -0.454140 0.009311 -0.108369
v -0.472702 0.007959 -0.044477
v -0.211754 -0.203471 0.022495
v -0.270711 -0.207230 -0.005225
v -0.212161 -0.203896 -0.032998
v -0.332830 -0.140496 0.056504
v -0.329532 -0.197493 0.028912
v -0.288545 -0.166603 0.084543
v -0.262747 -0.144936 -0.086930
v -0.258504 -0.140048 -0.031974
v -0.337327 -0.143414 -0.067791
v -0.374559 -0.033678 -0.005225
v -0.357903 -0.089241 -0.037380
v -0.351267 -0.086191 0.026332
v -0.354291 0.074647 -0.354062
v -0.411790 0.030060 -0.327632
v -0.263195 0.157493 -0.428984
v -0.297223 0.115297 -0.377472
v -0.272606 -0.036653 -0.344415
v -0.352185 0.026448 -0.446609
v -0.257737 -0.006472 -0.420152
v -0.001297 0.217868 -0.314661
v -0.048646 0.209923 -0.337642
v -0.057818 0.111325 -0.424735
v -0.055823 0.169548 -0.402031
v -0.001297 0.128272 -0.371894
v -0.103974 0.197635 -0.361466
v -0.156006 0.175043 -0.362167
v -0.055433 -0.135238 -0.362112
v -0.052325 -0.071138 -0.363469
v -0.001297 -0.071633 -0.321270
v -0.179691 -0.041119 -0.416813
v -0.109707 -0.055207 -0.381355
v -0.177715 -0.106451 -0.393327
v -0.001297 0.006065 -0.474171
v -0.051830 -0.013304 -0.372975
v -0.053744 0.040613 -0.394499
v -0.187027 0.114823 -0.429562
v -0.108019 0.074647 -0.391349
v -0.178107 0.036401 -0.409183
v 0.089867 0.331341 -0.344444
v 0.047018 0.261965 -0.323739
v 0.157651 0.392102 -0.262408
v 0.133485 0.384179 -0.325014
v 0.134438 0.213984 -0.303829
v 0.140078 0.295980 -0.325199
v 0.202312 0.281847 -0.334672
v 0.294301 0.469825 -0.044158
v 0.271617 0.472269 -0.106996
v 0.285606 0.330904 -0.156059
v 0.220426 0.327197 -0.106599
v 0.276976 0.308360 -0.092188
v 0.222004 0.430558 -0.154989
v 0.204806 0.435941 -0.217883
v 0.371712 0.115163 -0.298192
v 0.441589 0.199623 -0.324407
v 0.431319 0.143552 -0.247530
v 0.242805 0.233054 -0.292183
v 0.326959 0.219916 -0.307822
v 0.284986 0.192090 -0.363135
v 0.315441 0.225825 -0.145985
v 0.371572 0.247630 -0.250863
v 0.307878 0.275282 -0.190415
v 0.232509 0.383841 -0.262203
v 0.254346 0.308896 -0.208203
v 0.265459 0.329485 -0.310900
v 0.271648 -0.244035 0.030725
v 0.218821 -0.228802 0.076859
v 0.204022 -0.246332 0.050381
v 0.300130 -0.193430 0.153245
v 0.260000 -0.215292 0.114244
v 0.345691 -0.211009 0.103213
v 0.166511 -0.246351 0.166420
v 0.204809 -0.232509 0.133007
v 0.213523 -0.245724 0.216428
v 0.381623 0.033055 0.295526
v 0.319971 -0.016010 0.226309
v 0.355833 0.017766 0.194802
v 0.247133 -0.086568 0.286823
v 0.298249 -0.057916 0.270907
v 0.302069 -0.049804 0.374044
v 0.344174 -0.090244 0.148304
v 0.297178 -0.063822 0.191404
v 0.296211 -0.118416 0.172978
v 0.027227 -0.152751 0.270515
v 0.074447 -0.138629 0.276618
v 0.047747 -0.115498 0.318098
v 0.174200 -0.240612 0.278737
v 0.125199 -0.210350 0.294905
v 0.101201 -0.238705 0.257120
v 0.190402 -0.122137 0.416493
v 0.152501 -0.166134 0.342867
v 0.233763 -0.164558 0.375111
v 0.251056 -0.156587 0.195141
v 0.239148 -0.155055 0.270301
v 0.226636 -0.217780 0.245298
v 0.148274 -0.245730 0.049745
v 0.175146 -0.243375 -0.005225
v 0.111310 -0.237342 0.176978
v 0.118674 -0.246244 0.099942
v 0.058223 -0.234512 -0.005225
v 0.090021 -0.243231 0.049866
v 0.031828 -0.243893 0.048374
v -0.036690 -0.204093 0.336905
v -0.001297 -0.198539 0.260032
v -0.056575 -0.224001 0.178259
v -0.035677 -0.239583 0.257568
v -0.090770 -0.217258 0.223781
v 0.035270 -0.244769 0.274291
v 0.079390 -0.231751 0.262604
v -0.159100 -0.245652 -0.005225
v -0.138284 -0.245058 0.045121
v -0.175194 -0.231368 0.041871
v -0.032948 -0.246222 0.045987
v -0.093405 -0.242400 0.050342
v -0.059245 -0.238912 -0.005225
v -0.141891 -0.234105 0.138584
v -0.122469 -0.246405 0.100994
v -0.096217 -0.245188 0.148359
v 0.037443 -0.233490 0.182823
v -0.033159 -0.245044 0.149438
v -0.001297 -0.237785 0.110637
v 0.167944 -0.230107 -0.067424
v 0.240825 -0.232260 -0.070798
v 0.035533 -0.227117 -0.064817
v 0.096448 -0.233714 -0.064193
v 0.150719 -0.242850 -0.160716
v 0.144554 -0.226404 -0.133078
v 0.104781 -0.244247 -0.176862
v -0.189931 -0.241481 -0.056312
v -0.140109 -0.245672 -0.056240
v -0.098985 -0.246232 -0.163287
v -0.115755 -0.244150 -0.105558
v -0.150590 -0.241239 -0.157931
v -0.085626 -0.246445 -0.056099
v -0.034893 -0.242628 -0.059585
v 0.032675 -0.194812 -0.333623
v -0.001297 -0.228631 -0.313966
v -0.039528 -0.219888 -0.374795
v 0.057238 -0.233214 -0.199523
v 0.029881 -0.225697 -0.243547
v 0.077193 -0.188519 -0.206121
v -0.088219 -0.211452 -0.227701
v -0.031389 -0.219284 -0.235242
v -0.053206 -0.211934 -0.177526
v -0.001297 -0.243925 -0.115136
v -0.033218 -0.245140 -0.160174
v 0.035250 -0.242163 -0.182627
v 0.276317 -0.245805 -0.108748
v 0.294399 -0.246393 -0.044171
v 0.159260 -0.203548 -0.170889
v 0.220130 -0.241290 -0.153732
v 0.365762 -0.222004 -0.119934
v 0.285292 -0.231569 -0.136257
v 0.286608 -0.182382 -0.156585
v 0.042440 -0.094922 -0.293560
v 0.085288 -0.169153 -0.327405
v 0.177534 -0.107337 -0.294579
v 0.138916 -0.144867 -0.322570
v 0.143758 -0.074256 -0.324332
v 0.130990 -0.219281 -0.319093
v 0.135151 -0.196256 -0.226002
v 0.314594 0.024334 -0.182153
v 0.282156 -0.005339 -0.209506
v 0.312454 0.040568 -0.251650
v 0.286283 -0.111974 -0.177480
v 0.278876 -0.055331 -0.189797
v 0.318415 -0.077950 -0.147306
v 0.271126 -0.037110 -0.345808
v 0.272218 -0.046396 -0.257360
v 0.253254 -0.090540 -0.304468
v 0.221645 -0.213393 -0.250262
v 0.255792 -0.170955 -0.299822
v 0.308474 -0.205404 -0.251179
v 0.318444 -0.237076 -0.005225
v 0.374045 -0.168926 -0.075110
v 0.380721 -0.227874 -0.044955
v 0.334765 -0.202812 0.029726
v 0.347254 -0.151540 0.059673
v 0.391300 0.074647 -0.178283
v 0.387760 0.016460 -0.156010
v 0.465864 0.008560 -0.044124
v 0.506322 0.001407 -0.120846
v 0.490071 0.074647 -0.073664
v 0.407439 -0.049050 -0.139616
v 0.342101 -0.081633 -0.097212
v 0.331744 0.024838 0.123851
v 0.363242 0.074647 0.155466
v 0.345131 -0.083012 0.087574
v 0.357456 -0.033924 0.112733
v 0.333723 0.074647 0.041438
v 0.325416 0.027509 0.069191
v 0.359290 0.023636 0.024801
v 0.390448 -0.105390 -0.040548
v 0.375870 -0.034812 -0.005225
v 0.413422 -0.115949 0.032171
v 0.051464 -0.076092 0.365193
v 0.192261 -0.050959 0.441350
v 0.107907 -0.056159 0.373664
v 0.052248 -0.018547 0.384446
v 0.051369 0.040471 0.385675
v 0.316321 0.074647 0.308654
v 0.237688 0.150245 0.381461
v 0.277786 0.112983 0.345837
v 0.294964 0.033952 0.367444
v 0.267220 -0.010292 0.429245
v 0.053460 0.231090 0.379208
v 0.052876 0.109802 0.396865
v 0.051077 0.165803 0.375924
v 0.104648 0.201550 0.362355
v 0.153982 0.175414 0.353034
v 0.189931 0.033282 0.431676
v 0.191648 0.116384 0.435597
v 0.105427 0.074647 0.380907
v -0.200803 -0.210469 0.069172
v -0.215157 -0.245541 0.215437
v -0.209177 -0.233744 0.134197
v -0.266767 -0.218387 0.116151
v -0.312363 -0.200668 0.158312
v -0.093950 -0.185909 0.339533
v -0.253622 -0.182019 0.403045
v -0.181944 -0.204610 0.403636
v -0.120365 -0.197039 0.277280
v -0.143128 -0.204959 0.224263
v -0.363175 -0.027469 0.255576
v -0.284627 -0.109215 0.164485
v -0.306303 -0.066852 0.195707
v -0.352156 -0.080624 0.318208
v -0.327878 -0.137282 0.378694
v -0.233571 -0.221341 0.250069
v -0.295775 -0.203445 0.332217
v -0.300545 -0.197677 0.232374
v -0.097622 -0.195155 -0.363646
v -0.139955 -0.199930 -0.229578
v -0.114184 -0.184373 -0.273062
v -0.151058 -0.159814 -0.344180
v -0.215633 -0.143468 -0.352027
v -0.214611 -0.223465 -0.084771
v -0.270750 -0.166023 -0.146884
v -0.252926 -0.207499 -0.120272
v -0.203038 -0.229225 -0.140528
v -0.196256 -0.237805 -0.206384
v -0.360629 -0.026751 -0.264190
v -0.253470 -0.088997 -0.301672
v -0.293466 -0.054651 -0.274555
v -0.329295 -0.077518 -0.221303
v -0.303458 -0.121436 -0.186214
v -0.223066 -0.212317 -0.248972
v -0.262500 -0.164696 -0.212617
v -0.239032 -0.152466 -0.277645
v 0.330285 0.074647 -0.332902
v 0.200603 0.010780 -0.331907
v 0.265607 0.037984 -0.340965
v 0.286177 0.114136 -0.366841
v 0.213007 0.142438 -0.351976
v 0.044003 -0.054775 -0.323259
v 0.062808 0.033047 -0.481027
v 0.060891 -0.033590 -0.457798
v 0.103392 -0.050750 -0.368446
v 0.151195 -0.024310 -0.357052
v 0.047588 0.214312 -0.348429
v 0.136756 0.164235 -0.323738
v 0.105970 0.203133 -0.377391
v 0.044284 0.153980 -0.336939
v 0.048965 0.107264 -0.378287
v 0.160006 0.039755 -0.373754
v 0.109731 0.074647 -0.406929
v 0.140582 0.105337 -0.329376
v 0.421594 0.137895 0.158673
v 0.417265 0.133860 0.029628
v 0.405565 0.133350 0.087447
v 0.438306 0.207686 0.139316
v 0.401249 0.257846 0.102607
v 0.397682 0.134318 -0.159855
v 0.316768 0.219399 -0.090426
v 0.402979 0.196995 -0.138150
v 0.456845 0.140748 -0.109576
v 0.459810 0.139879 -0.043620
v 0.313537 0.409162 -0.005225
v 0.375179 0.318956 0.064872
v 0.337210 0.357206 0.029980
v 0.299637 0.325843 -0.036522
v 0.308963 0.275986 -0.062993
v 0.449896 0.205589 -0.005225
v 0.364099 0.242576 -0.038172
v 0.396427 0.257433 0.030638
vn -0.438899 0.795537 0.417718
vn -0.747910 0.593840 -0.296621
vn -0.062634 0.965258 -0.253680
vn -0.201633 0.876472 -0.437196
vn -0.901688 0.153900 0.404072
vn -0.694410 0.358588 0.623866
vn -0.583998 0.624518 -0.518579
vn -0.867056 0.296288 0.400534
vn 0.173571 0.814625 0.553407
vn 0.308623 0.950141 -0.044544
vn -0.229263 0.383338 0.894701
vn 0.295130 0.723611 0.623927
vn -0.608080 0.605457 -0.513479
vn -0.675941 0.393268 0.623252
vn -0.024573 0.907777 -0.418732
vn -0.525880 0.772134 -0.356735
vn -0.985288 0.142739 0.093979
vn -0.750698 0.485434 0.448114
vn -0.923302 0.363025 0.125402
vn -0.926797 0.348404 0.140224
vn -0.351567 0.233406 0.906599
vn -0.997398 0.024673 0.067737
vn -0.942804 0.304960 0.134612
vn -0.995618 -0.005953 0.093326
vn -0.853049 -0.123763 0.506942
vn -0.971587 0.205718 -0.117044
vn -0.750789 0.621766 0.222987
vn -0.891339 0.440522 -0.107026
vn -0.775673 0.446703 0.445856
vn -0.724699 0.217787 0.653743
vn -0.997618 0.016339 0.067011
vn -0.725996 0.214776 0.653300
vn -0.529971 0.616157 0.582651
vn -0.027845 0.966337 0.255767
vn -0.462925 -0.028370 0.885943
vn 0.224208 0.497631 0.837911
vn -0.497020 0.841725 -0.210878
vn -0.901050 0.419826 0.108879
vn 0.283557 0.859338 0.425598
vn -0.537230 0.843205 -0.019704
vn -0.352509 0.084613 0.931975
vn -0.198958 0.138897 0.970115
vn -0.507503 0.837049 0.204424
vn -0.296591 0.146875 0.943643
vn 0.258269 0.898147 0.355849
vn -0.912039 0.325310 0.249716
vn -0.379882 -0.040798 0.924135
vn -0.610109 0.406906 0.679849
vn -0.829391 0.032035 0.557750
vn -0.909171 0.353588 0.219964
vn -0.679940 0.323279 0.658159
vn -0.800073 0.043891 0.598295
vn -0.440242 0.085791 0.893771
vn 0.008619 0.847885 0.530111
vn -0.976379 0.202972 0.074066
vn -0.559132 0.346441 0.753226
vn 0.165618 0.963017 0.212531
vn -0.278156 0.753062 0.596261
vn -0.429085 0.595505 0.679161
vn -0.447780 0.751053 0.485193
vn -0.965070 0.261962 0.004085
vn 0.001937 0.867383 0.497638
vn -0.674553 0.324351 0.663156
vn -0.655104 0.754030 -0.047726
vn -0.665212 0.570018 0.482258
vn -0.478878 0.867371 -0.135442
vn -0.081907 0.808795 0.582358
vn -0.367461 0.650956 0.664251
vn 0.316644 0.837477 0.445385
vn 0.003272 0.916728 0.399498
vn 0.059161 0.995853 0.069118
vn 0.292832 0.928387 0.228797
vn 0.442389 0.855374 -0.269495
vn -0.098675 0.883607 -0.457714
vn 0.196432 0.464533 0.863495
vn 0.281532 0.935496 -0.213513
vn 0.073869 0.964141 0.254903
vn 0.050996 0.418149 0.906946
vn -0.859877 0.507761 -0.052818
vn -0.759107 0.388102 0.522623
vn -0.093199 0.899615 0.426623
vn 0.367460 0.923773 0.107784
vn -0.208117 0.917510 0.338913
vn -0.092855 0.902972 0.419547
vn -0.071740 0.444996 0.892654
vn 0.189979 0.901875 0.387981
vn 0.496447 0.319346 0.807192
vn 0.562010 0.634550 0.530557
vn -0.675788 0.724026 -0.138187
vn -0.262882 0.645294 0.717278
vn -0.450777 0.800163 0.395651
vn -0.263493 0.912202 0.313781
vn 0.402365 0.287684 0.869103
vn -0.189490 0.769237 0.610219
vn -0.225290 0.633063 0.740592
vn -0.186329 0.658985 0.728712
vn -0.099198 0.871635 0.480012
vn -0.449983 0.891713 -0.048615
vn 0.269080 0.838524 -0.473786
vn 0.280452 0.917811 0.281014
vn 0.423025 0.796012 0.432915
vn -0.007866 0.831645 -0.555252
vn -0.035762 0.959219 0.280391
vn -0.028891 0.960558 0.276574
vn 0.193972 0.665447 0.720802
vn 0.140250 0.929544 -0.340994
vn -0.284058 0.822464 -0.492812
vn 0.262028 0.871496 -0.414531
vn -0.508355 0.860990 0.016483
vn -0.248410 0.779119 -0.575556
vn 0.139600 0.909832 -0.390791
vn -0.417279 0.789140 -0.450707
vn -0.654835 0.732441 -0.186338
vn -0.447745 0.829300 0.334344
vn -0.765362 0.608683 -0.209107
vn -0.809360 0.581940 -0.079260
vn -0.078780 0.594742 0.800047
vn -0.387196 0.817981 -0.425426
vn 0.178337 0.972389 0.150516
vn -0.522399 0.705334 0.479170
vn 0.771000 0.632388 0.075126
vn -0.417109 0.592681 0.689021
vn 0.023890 0.822285 -0.568574
vn 0.759519 0.644118 -0.090794
vn 0.052125 0.994884 0.086533
vn 0.031033 0.953021 -0.301310
vn -0.368167 0.805472 -0.464400
vn 0.041632 0.951062 -0.306182
vn -0.736182 0.630831 0.245127
vn -0.091741 0.905899 0.413437
vn -0.661908 0.607612 -0.438960
vn -0.699662 0.685159 0.202557
vn 0.453991 0.877805 -0.152812
vn 0.295634 0.778253 -0.554007
vn -0.110874 0.992842 0.044397
vn 0.322801 0.917764 -0.231321
vn 0.109903 0.107888 -0.988070
vn -0.716083 0.659121 0.229749
vn 0.594649 0.803195 0.035651
vn 0.023511 0.936026 -0.351145
vn 0.225118 0.959184 0.171138
vn 0.622980 0.728158 -0.285801
vn -0.738978 0.568477 -0.361586
vn 0.236625 0.971058 0.032478
vn -0.103405 0.908600 0.404664
vn -0.068760 0.992940 0.096656
vn -0.398418 0.789529 0.466805
vn -0.038192 0.887399 0.459417
vn -0.167187 0.144070 -0.975342
vn -0.289177 0.421326 -0.859570
vn 0.291716 0.438553 -0.850043
vn -0.179380 0.375418 -0.909332
vn 0.291093 0.547754 0.784366
vn -0.021521 0.577253 0.816282
vn 0.081300 0.995697 -0.044464
vn 0.051734 0.547836 0.834985
vn 0.409972 0.801591 0.435172
vn -0.313048 0.942267 0.118884
vn 0.164778 0.571902 0.803602
vn 0.245834 0.840654 0.482563
vn 0.629926 0.173689 -0.756985
vn -0.428820 0.512347 -0.744053
vn -0.054615 -0.312170 -0.948455
vn 0.538999 -0.082435 -0.838263
vn -0.557830 0.827767 0.060222
vn -0.385171 0.626076 -0.677991
vn 0.091898 0.524680 -0.846325
vn 0.087704 0.873147 -0.479501
vn 0.486731 0.864680 0.124182
vn 0.234370 0.958419 -0.162803
vn 0.645852 0.703503 -0.296577
vn 0.227892 0.968312 -0.102160
vn -0.433742 0.714596 -0.548836
vn -0.097560 0.525541 -0.845156
vn -0.117221 0.911191 -0.394956
vn -0.101729 0.908709 -0.404844
vn -0.549297 0.708757 0.442648
vn -0.569583 0.706958 -0.419267
vn -0.364466 0.907732 -0.207815
vn -0.623366 0.693530 -0.361151
vn 0.435246 0.189843 -0.880068
vn 0.473988 0.825215 0.307173
vn -0.536662 0.286004 -0.793849
vn -0.693273 0.647863 -0.315670
vn -0.459588 0.136206 -0.877626
vn 0.578156 0.814305 0.051421
vn -0.354417 0.934981 -0.014120
vn 0.599729 0.637398 -0.483787
vn -0.326070 0.226284 -0.917864
vn 0.433648 0.839081 0.328468
vn -0.349361 0.789871 -0.504033
vn 0.473144 0.450520 -0.757078
vn -0.518477 0.784250 0.340784
vn -0.718308 0.528891 -0.452005
vn -0.745321 0.422389 -0.515834
vn -0.675998 0.539020 -0.502478
vn -0.039903 0.017772 -0.999046
vn -0.893380 -0.096185 -0.438886
vn -0.966548 0.256046 0.015017
vn -0.887636 0.010666 -0.460422
vn -0.467432 0.602600 -0.646824
vn -0.226116 0.702595 -0.674709
vn 0.023112 0.734331 -0.678398
vn -0.219438 0.823604 -0.522995
vn -0.684617 0.418137 -0.597043
vn -0.625036 -0.051576 -0.778890
vn -0.628056 0.198968 -0.752301
vn -0.803657 0.152023 -0.575347
vn 0.003695 -0.191990 -0.981390
vn -0.022845 -0.090932 -0.995595
vn -0.480000 0.460185 -0.746880
vn -0.140843 -0.169026 -0.975497
vn -0.250207 0.501629 -0.828109
vn -0.108714 0.362088 -0.925783
vn 0.617700 0.241576 -0.748390
vn -0.177969 0.558815 -0.809971
vn -0.726090 0.687461 -0.013803
vn 0.282205 0.616218 -0.735279
vn -0.420892 0.905380 -0.056004
vn -0.748910 0.644763 -0.153021
vn 0.261430 -0.117806 -0.958006
vn -0.208314 0.275289 -0.938521
vn 0.329247 0.281618 -0.901270
vn 0.211377 0.197399 -0.957264
vn -0.901036 -0.020581 -0.433255
vn -0.502886 0.133088 -0.854045
vn -0.135841 0.588816 -0.796771
vn -0.627214 0.581146 -0.518528
vn -0.575453 0.419623 -0.701975
vn -0.379955 0.092830 -0.920335
vn 0.101202 0.806042 -0.583141
vn -0.467897 0.069903 -0.881014
vn -0.334972 0.596352 -0.729492
vn -0.991862 0.126817 0.011312
vn -0.772703 0.556870 0.304674
vn -0.964039 0.265758 -0.001321
vn 0.088606 0.856240 -0.508922
vn -0.474480 0.875185 -0.094440
vn -0.242925 0.439165 -0.864940
vn -0.351356 0.931242 -0.096628
vn -0.076191 0.848441 -0.523777
vn -0.640975 0.756103 0.132137
vn -0.987982 0.131443 -0.081331
vn -0.698362 0.272960 -0.661652
vn -0.411396 0.513990 -0.752707
vn -0.820094 0.484323 0.304758
vn -0.911727 0.305584 -0.274541
vn -0.471447 0.858278 -0.202721
vn -0.460216 0.565108 -0.684730
vn 0.023537 0.807692 -0.589134
vn -0.253571 0.289528 -0.922971
vn -0.332576 0.561847 -0.757444
vn -0.831397 0.549601 0.081969
vn -0.980936 0.114608 -0.156939
vn -0.667663 0.743505 0.037772
vn -0.713891 0.688796 -0.126174
vn -0.515538 0.788773 0.334751
vn -0.915241 0.322608 -0.241365
vn -0.588769 0.805663 0.065253
vn -0.696435 0.637185 0.330112
vn -0.642565 0.583109 -0.497086
vn -0.878192 -0.040180 0.476618
vn -0.406428 0.730091 -0.549347
vn -0.645093 0.497210 -0.580204
vn -0.788130 -0.208137 -0.579249
vn -0.623362 0.218922 -0.750662
vn -0.580252 0.363749 0.728694
vn -0.797641 -0.223937 -0.560019
vn -0.300345 0.921691 -0.245517
vn -0.558829 0.201778 0.804361
vn -0.971710 -0.233909 0.032662
vn -0.617197 0.105191 0.779746
vn -0.916706 -0.032407 -0.398245
vn -0.964655 -0.223774 0.139160
vn -0.901286 -0.044418 -0.430941
vn -0.900730 -0.057066 -0.430615
vn -0.558710 0.829262 0.012959
vn -0.526737 0.338092 -0.779898
vn -0.324267 0.941006 -0.096738
vn -0.300875 0.781379 -0.546737
vn -0.915931 -0.036525 0.399670
vn -0.655225 0.209457 0.725816
vn -0.970228 -0.133731 0.201926
vn -0.916881 -0.186710 0.352802
vn -0.495901 0.426280 0.756550
vn -0.975453 -0.043076 0.215955
vn -0.490407 0.544492 0.680462
vn -0.502313 0.409579 0.761529
vn -0.862099 0.272564 0.427193
vn -0.869060 0.421028 0.259748
vn -0.689920 0.454905 0.563092
vn -0.890376 0.368565 0.267191
vn -0.919032 -0.171694 0.354824
vn -0.319917 0.752275 0.575964
vn -0.556433 0.505895 0.659130
vn -0.599383 0.754900 0.266206
vn -0.834809 0.270070 -0.479746
vn -0.793365 0.513068 0.327617
vn -0.860914 -0.465086 0.206210
vn -0.793131 0.573453 0.205167
vn -0.695812 0.078590 0.713911
vn -0.650657 -0.225273 0.725188
vn -0.721187 0.537746 0.436713
vn -0.868296 -0.019740 0.495654
vn -0.860097 -0.423021 -0.285108
vn -0.834241 -0.424395 -0.352039
vn -0.874465 -0.011471 0.484953
vn -0.841595 -0.399620 -0.363347
vn -0.565968 0.411981 -0.714109
vn -0.884672 -0.083184 -0.458732
vn -0.388016 0.045377 -0.920535
vn -0.654193 -0.278038 -0.703368
vn -0.525670 0.447201 -0.723659
vn -0.334069 0.655077 0.677696
vn -0.284723 0.958360 0.021877
vn -0.236616 0.971346 0.022336
vn -0.397155 0.009632 -0.917701
vn -0.417953 0.837357 -0.352347
vn -0.890606 0.396571 -0.222605
vn -0.509937 0.839885 -0.185894
vn 0.029183 0.832970 0.552548
vn 0.648587 0.670248 -0.360697
vn 0.431353 0.585434 0.686442
vn 0.015744 0.866888 0.498255
vn 0.757774 -0.008404 0.652463
vn 0.654272 0.738916 0.161034
vn 0.989856 0.069836 0.123727
vn 0.957197 -0.011438 0.289210
vn 0.509118 0.263629 0.819328
vn 0.195645 0.586173 0.786209
vn 0.709679 0.652658 0.265316
vn 0.195346 0.672296 0.714044
vn 0.665265 0.167867 0.727491
vn 0.606247 0.761373 0.229731
vn 0.392160 0.372476 0.841114
vn 0.544436 0.362729 0.756318
vn 0.630278 0.402428 0.663929
vn 0.655017 -0.236359 0.717696
vn 0.330955 0.938951 0.094021
vn 0.060001 0.326921 0.943145
vn 0.361832 -0.089531 0.927934
vn 0.594193 0.803859 0.027314
vn 0.485947 -0.068309 0.871315
vn 0.349908 -0.075743 0.933717
vn 0.225552 0.242578 0.943548
vn 0.458223 0.361199 0.812137
vn 0.652124 -0.111849 0.749816
vn 0.270881 0.342168 0.899747
vn 0.618943 -0.246445 0.745771
vn 0.868217 0.490810 0.072829
vn 0.548784 0.835704 -0.020864
vn 0.863870 0.496912 0.082506
vn 0.186558 -0.090735 0.978245
vn 0.535277 0.155686 0.830205
vn 0.055244 -0.210432 0.976046
vn 0.252432 -0.330107 0.909564
vn 0.641892 0.766675 0.013544
vn 0.278057 0.675951 0.682477
vn 0.719475 0.630076 0.292165
vn 0.725967 0.622502 0.292342
vn 0.810678 0.359156 0.462394
vn 0.746778 0.105838 0.656598
vn 0.221608 -0.259123 0.940077
vn 0.570372 0.442301 0.692132
vn 0.585917 0.027259 0.809912
vn 0.070542 -0.195447 0.978174
vn -0.123160 0.247060 0.961142
vn -0.132398 0.199075 0.970999
vn 0.894628 0.211958 0.393338
vn 0.637724 -0.112172 0.762054
vn 0.615473 0.376797 0.692255
vn 0.866903 0.305677 0.393752
vn 0.919501 -0.074195 0.386022
vn 0.171703 -0.179719 0.968617
vn 0.007114 0.899411 0.437047
vn 0.824591 -0.241327 0.511675
vn 0.567294 0.823412 0.013095
vn 0.712238 0.573564 0.404649
vn 0.272690 0.680463 0.680154
vn 0.303943 0.895332 0.325576
vn -0.059761 0.668576 0.741239
vn 0.512849 0.685871 0.516301
vn 0.410972 0.617900 0.670300
vn 0.431450 0.754132 0.495112
vn -0.061747 -0.352282 0.933855
vn -0.168572 -0.421481 0.891032
vn -0.301586 -0.176006 0.937053
vn -0.138855 -0.420788 0.896469
vn -0.075707 -0.366335 0.927398
vn 0.334155 0.120906 0.934731
vn 0.137900 -0.515884 0.845486
vn 0.403913 -0.224587 0.886800
vn 0.211385 0.329066 0.920343
vn -0.302495 -0.440044 0.845493
vn -0.490647 0.307820 0.815176
vn 0.213433 0.324737 0.921408
vn -0.316922 -0.569608 0.758358
vn -0.407044 0.087520 0.909206
vn -0.390101 -0.321142 0.862954
vn -0.575969 -0.300167 0.760368
vn -0.983864 0.159175 0.081702
vn -0.787415 0.298457 0.539353
vn -0.706836 0.260540 0.657649
vn -0.755879 0.189557 0.626670
vn -0.253804 0.245574 0.935562
vn -0.678278 -0.161905 0.716747
vn -0.135537 0.330695 0.933954
vn -0.337974 0.364821 0.867571
vn -0.377212 0.291229 0.879145
vn -0.935533 0.337085 0.105597
vn 0.094907 -0.224526 0.969835
vn -0.232841 0.439489 0.867545
vn -0.075746 0.233649 0.969366
vn -0.182519 -0.649151 0.738437
vn -0.978726 0.198089 0.053435
vn -0.535140 -0.680413 0.500663
vn 0.774443 -0.431883 0.462292
vn 0.547120 -0.390579 0.740343
vn 0.687735 -0.086428 0.720799
vn 0.600606 -0.088775 0.794601
vn 0.172801 -0.005239 0.984943
vn 0.222462 0.436991 0.871521
vn 0.622973 -0.031051 0.781627
vn 0.322162 0.416960 0.849915
vn -0.832660 -0.026105 0.553170
vn -0.186244 0.352794 0.916979
vn 0.236788 0.011849 0.971489
vn 0.186013 -0.143634 0.971992
vn 0.537288 -0.373600 0.756138
vn 0.057599 0.026959 0.997976
vn 0.484784 0.218176 0.846985
vn 0.363742 -0.419534 0.831675
vn 0.291843 0.197793 0.935791
vn 0.331996 -0.177714 0.926389
vn 0.197515 -0.106422 0.974506
vn 0.371006 -0.095792 0.923677
vn -0.857312 0.223373 0.463812
vn -0.262278 0.672531 0.692035
vn -0.033306 -0.143899 0.989032
vn -0.451511 0.660617 0.599769
vn 0.083773 0.132660 0.987615
vn -0.214958 0.636016 0.741132
vn 0.272096 0.374009 0.886612
vn 0.129141 0.131190 0.982910
vn 0.160178 0.236622 0.958307
vn -0.557671 0.405018 0.724544
vn -0.190081 0.635964 0.747943
vn -0.510160 0.276458 0.814437
vn -0.890866 0.107155 0.441448
vn -0.750618 -0.247498 0.612631
vn -0.676973 -0.729967 0.094109
vn -0.981400 -0.090672 0.169212
vn -0.752205 0.497318 -0.432276
vn -0.293143 -0.891205 0.346151
vn -0.922872 -0.055432 0.381096
vn -0.753810 0.143469 0.641239
vn -0.867735 0.251913 0.428457
vn -0.651847 -0.523764 0.548422
vn -0.912224 -0.344216 -0.222178
vn -0.671455 -0.618689 0.407887
vn -0.708905 -0.184073 0.680861
vn -0.528379 -0.822354 -0.211067
vn -0.648424 -0.529826 0.546654
vn -0.589001 -0.538770 0.602333
vn -0.889261 0.244887 -0.386322
vn -0.831661 -0.411211 0.373157
vn -0.871617 -0.473786 0.125738
vn -0.871201 -0.312885 0.378301
vn -0.869824 -0.429382 -0.242977
vn -0.736047 -0.663267 0.135317
vn -0.573641 -0.520163 -0.632745
vn -0.600584 -0.782447 -0.164546
vn -0.813050 0.581888 0.018858
vn -0.816678 0.523141 -0.243638
vn -0.679588 -0.702206 -0.212288
vn -0.825004 0.516759 -0.228753
vn -0.728144 0.249874 -0.638255
vn -0.799519 -0.585726 0.133020
vn -0.531498 0.213513 -0.819709
vn -0.532049 0.120756 -0.838059
vn -0.235254 -0.971891 0.009175
vn -0.019430 -0.984408 0.174825
vn -0.227674 -0.786307 -0.574357
vn 0.060253 -0.998157 0.007211
vn -0.382666 -0.895058 -0.228992
vn -0.998468 -0.038573 -0.039659
vn -0.202761 -0.785056 0.585299
vn -0.641879 -0.363890 0.674964
vn -0.020179 -0.999796 0.000857
vn -0.826788 -0.551076 0.112855
vn 0.010750 -0.997483 0.070089
vn 0.002366 -0.996081 0.088409
vn -0.056869 -0.981648 0.182027
vn -0.311848 -0.482165 -0.818699
vn -0.840637 -0.061510 -0.538095
vn -0.516696 -0.234033 -0.823562
vn -0.745404 0.644306 -0.171006
vn -0.482567 -0.798800 0.359231
vn -0.272996 -0.955886 0.108416
vn -0.344887 -0.930345 -0.124545
vn -0.834938 -0.550341 0.001527
vn -0.900888 -0.414497 0.128811
vn -0.718341 -0.673095 0.175866
vn -0.877091 -0.440565 0.191349
vn -0.956889 -0.147563 -0.250179
vn -0.977084 -0.210658 0.030510
vn -0.938079 -0.343488 -0.044986
vn -0.951875 -0.304672 0.033307
vn -0.751057 -0.484621 0.448392
vn -0.898915 -0.423062 0.113887
vn -0.934526 -0.293789 0.200873
vn -0.931706 -0.345003 0.113566
vn -0.893640 0.447016 -0.039798
vn -0.217744 0.775426 -0.592707
vn -0.405760 -0.018429 -0.913794
vn -0.655912 0.523457 -0.543849
vn -0.400409 0.789175 -0.465699
vn -0.867704 0.107222 -0.485380
vn -0.982855 0.178298 0.046957
vn -0.890285 0.272909 -0.364573
vn -0.798530 -0.488663 -0.351510
vn -0.262220 -0.898957 -0.350881
vn 0.206583 -0.180191 -0.961694
vn -0.201157 -0.895748 -0.396449
vn -0.618199 0.765755 -0.177339
vn -0.335454 0.698972 -0.631592
vn -0.999781 -0.014291 -0.015312
vn -0.634870 0.679239 -0.368206
vn -0.087483 0.004939 -0.996154
vn 0.153468 0.792521 -0.590218
vn -0.276570 0.508722 -0.815298
vn 0.311579 0.492899 -0.812385
vn 0.189453 0.857820 -0.477758
vn -0.554787 0.318701 -0.768532
vn 0.553210 0.130012 -0.822834
vn 0.613660 0.268513 -0.742511
vn -0.025238 -0.040145 -0.998875
vn 0.511781 0.654962 -0.555972
vn -0.113097 0.289949 -0.950336
vn 0.027912 -0.033302 -0.999055
vn 0.199347 0.820061 -0.536434
vn -0.534259 0.250220 -0.807439
vn 0.064115 0.818440 -0.571004
vn 0.042504 0.844314 -0.534160
vn 0.421164 0.208352 -0.882729
vn -0.032758 -0.019558 -0.999272
vn 0.088941 -0.988885 -0.119144
vn 0.636309 -0.047154 -0.769992
vn -0.385915 -0.322409 -0.864362
vn 0.320081 -0.474226 -0.820157
vn 0.381056 -0.301532 -0.873999
vn 0.381647 -0.302451 -0.873424
vn -0.824305 0.049284 -0.563996
vn -0.856793 -0.214551 -0.468907
vn 0.486254 -0.309029 -0.817348
vn -0.855926 -0.217641 -0.469066
vn 0.198482 -0.323707 -0.925105
vn 0.433892 -0.442317 -0.784916
vn -0.839753 -0.081060 -0.536884
vn 0.253289 -0.159004 -0.954234
vn 0.367602 0.565542 -0.738262
vn 0.215922 0.676614 -0.703968
vn 0.049089 0.101101 -0.993664
vn 0.340674 0.617726 -0.708770
vn -0.698393 -0.315028 -0.642655
vn 0.134298 0.301527 -0.943952
vn -0.631860 0.178220 -0.754315
vn -0.295158 -0.389967 -0.872243
vn -0.206768 -0.544116 -0.813133
vn 0.227024 -0.176608 -0.957742
vn -0.049189 0.098840 -0.993887
vn 0.084997 0.095888 -0.991757
vn 0.487734 0.139470 -0.861779
vn 0.072894 0.308642 -0.948381
vn 0.205296 -0.224221 -0.952669
vn 0.342528 -0.199616 -0.918056
vn 0.054093 0.698626 -0.713439
vn -0.712047 0.074501 -0.698169
vn -0.103068 -0.225467 -0.968784
vn -0.729100 0.261568 -0.632451
vn 0.187371 0.958190 0.216251
vn 0.282897 0.931870 -0.227128
vn 0.196739 0.969271 -0.147674
vn 0.141858 0.973754 -0.177987
vn -0.277165 -0.153832 -0.948428
vn 0.288588 -0.260006 -0.921474
vn -0.133098 0.076197 -0.988170
vn -0.198090 -0.234424 -0.951738
vn -0.033872 0.369445 -0.928635
vn -0.042992 -0.001110 -0.999075
vn 0.222144 -0.203500 -0.953541
vn 0.376112 0.030061 -0.926086
vn 0.732973 0.653896 0.187540
vn 0.924372 -0.172265 -0.340384
vn 0.826403 0.508357 -0.242138
vn 0.810510 0.518521 -0.272414
vn 0.593680 0.730280 0.337987
vn 0.210653 0.914232 0.346130
vn 0.365596 0.494024 -0.788847
vn 0.214296 0.911625 0.350737
vn -0.443212 0.305349 -0.842807
vn 0.590200 0.125240 -0.797483
vn 0.964616 0.043547 -0.260038
vn 0.771511 0.616227 -0.158224
vn 0.735200 -0.261145 -0.625527
vn 0.999471 -0.000039 0.032523
vn 0.636173 0.120207 -0.762125
vn 0.778012 -0.276085 -0.564335
vn 0.552046 -0.810624 -0.195281
vn 0.459496 -0.587036 -0.666523
vn 0.915694 0.256472 0.309397
vn 0.645391 -0.655616 -0.391966
vn -0.208987 0.787965 -0.579168
vn -0.077708 0.516984 -0.852461
vn 0.433776 0.628690 -0.645436
vn 0.048144 0.877152 -0.477794
vn 0.961530 -0.087024 -0.260551
vn 0.513503 0.742979 0.429297
vn 0.425456 0.904317 0.034620
vn 0.691153 0.538604 0.481885
vn -0.014286 0.583136 -0.812249
vn 0.497207 0.560600 -0.662203
vn 0.701574 0.675471 0.227008
vn 0.083222 0.868895 -0.487951
vn -0.528634 0.813801 -0.241401
vn 0.926046 0.312930 0.210982
vn 0.104108 0.935015 -0.338981
vn 0.075874 0.669175 -0.739221
vn 0.791714 0.517516 -0.324602
vn 0.522627 0.851768 0.036777
vn 0.324826 0.785761 -0.526373
vn 0.561893 0.585768 -0.584083
vn 0.562111 -0.226239 -0.795517
vn 0.287091 0.095096 -0.953171
vn 0.434448 -0.268905 -0.859619
vn 0.515165 -0.278359 -0.810630
vn 0.867818 0.431003 0.247241
vn 0.653432 0.725470 0.216148
vn 0.491302 0.727235 -0.479325
vn 0.903769 0.390156 0.176012
vn 0.034620 -0.999398 0.002311
vn 0.584433 -0.279901 0.761639
vn 0.560462 -0.799504 0.216045
vn 0.168000 -0.862594 0.477187
vn 0.756372 0.144773 0.637920
vn 0.639480 -0.726834 -0.250553
vn 0.017690 -0.970745 -0.239462
vn 0.097896 -0.907685 0.408074
vn -0.052974 -0.996651 0.062302
vn 0.423461 -0.898838 0.113010
vn 0.129124 -0.977243 -0.168295
vn 0.197390 -0.964856 -0.173463
vn 0.471005 -0.856990 -0.209099
vn 0.207754 -0.944261 -0.255360
vn 0.476200 -0.877224 0.060926
vn 0.301596 -0.953356 0.012327
vn 0.960879 -0.167465 -0.220606
vn 0.585187 -0.809205 0.052378
vn 0.750584 -0.638598 0.169752
vn 0.658678 -0.750431 -0.054742
vn 0.595678 -0.802372 -0.036983
vn 0.538514 -0.700872 0.467740
vn 0.874058 -0.485787 0.005829
vn 0.500043 -0.864586 0.049476
vn 0.611137 -0.666437 0.427053
vn 0.703256 0.103523 0.703359
vn 0.907522 -0.148657 0.392816
vn 0.562129 -0.273408 0.780550
vn 0.881582 -0.471825 -0.013955
vn 0.875196 -0.483168 0.024104
vn 0.843854 -0.514206 0.153307
vn 0.896494 -0.442567 0.020801
vn 0.234412 -0.811950 0.534592
vn -0.077768 -0.164909 0.983238
vn -0.221836 -0.905365 0.362081
vn 0.169774 -0.810169 0.561073
vn -0.032201 -0.999270 0.020578
vn 0.034918 -0.426393 0.903864
vn -0.396881 -0.595206 0.698724
vn -0.217038 -0.709602 0.670343
vn 0.400726 -0.396248 0.826079
vn -0.508014 -0.598683 0.619274
vn -0.169342 -0.866724 0.469162
vn -0.214947 -0.785647 0.580135
vn -0.427956 -0.073141 0.900835
vn 0.129039 -0.764612 0.631441
vn -0.611150 -0.651443 0.449575
vn -0.676400 -0.308056 0.669018
vn 0.918943 -0.054736 0.390573
vn 0.697210 -0.580770 0.420243
vn 0.691517 0.109058 0.714080
vn 0.554337 -0.184532 0.811578
vn 0.977164 -0.209261 -0.036871
vn 0.606436 -0.794083 -0.040845
vn 0.857248 -0.213048 0.468761
vn 0.991349 -0.125145 0.039583
vn -0.064950 -0.997053 0.040817
vn 0.413238 -0.740899 0.529437
vn 0.610961 -0.468125 0.638424
vn 0.573903 -0.703096 0.419870
vn 0.867732 -0.474746 0.147165
vn 0.660054 -0.388049 0.643232
vn 0.808421 0.144981 0.570470
vn 0.954788 -0.252801 0.156434
vn -0.028572 -0.998858 -0.038283
vn -0.010753 -0.999935 -0.003903
vn 0.040532 -0.998914 -0.022985
vn -0.010240 -0.998804 -0.047800
vn -0.151850 -0.987212 0.048511
vn -0.024736 -0.993353 0.112422
vn -0.001107 -0.999999 -0.000823
vn -0.141563 -0.984838 0.100271
vn 0.049924 -0.987684 -0.148285
vn -0.256314 -0.966581 -0.005028
vn 0.011845 -0.999766 -0.018116
vn 0.015457 -0.986173 -0.164994
vn -0.000332 -0.999946 -0.010425
vn -0.036207 -0.998569 -0.039365
vn -0.042726 -0.998028 0.045992
vn -0.042913 -0.998447 -0.035520
vn 0.776724 -0.190767 0.600257
vn 0.358030 -0.928579 0.097752
vn -0.086717 -0.170686 0.981502
vn 0.771429 -0.552745 0.315232
vn -0.382683 -0.911209 -0.152487
vn 0.074947 -0.974561 -0.211221
vn -0.415266 -0.906327 0.078266
vn -0.319939 -0.942062 -0.100784
vn -0.135478 0.315693 -0.939140
vn 0.245263 0.071032 0.966851
vn 0.095972 -0.825080 -0.556805
vn -0.250141 -0.021193 -0.967978
vn 0.492014 -0.456610 0.741235
vn 0.051711 -0.870547 -0.489361
vn -0.058114 0.251974 0.965988
vn -0.218923 0.125294 0.967664
vn -0.892600 -0.413532 -0.179600
vn 0.141056 -0.988901 -0.046659
vn -0.355732 -0.919966 0.164672
vn -0.355595 -0.921208 0.157885
vn 0.023723 -0.987912 -0.153189
vn -0.054919 -0.992564 0.108633
vn 0.016324 -0.998480 -0.052638
vn -0.070303 -0.991933 -0.105481
vn -0.262156 -0.260916 0.929084
vn -0.444907 -0.893396 0.062467
vn 0.208694 -0.973772 -0.090632
vn -0.266959 -0.948174 0.172336
vn 0.067748 -0.994816 -0.075843
vn 0.185268 -0.982271 0.028630
vn -0.457659 -0.882512 0.108268
vn 0.063960 -0.997062 -0.042145
vn -0.111523 -0.993489 0.023299
vn 0.060353 -0.998127 -0.009966
vn -0.041972 -0.991531 0.122897
vn -0.048289 -0.997720 0.047148
vn -0.483378 -0.270529 0.832562
vn 0.005935 -0.976263 -0.216506
vn -0.493091 -0.843021 0.214886
vn -0.008162 -0.810771 0.585306
vn 0.040810 -0.988910 -0.142798
vn -0.094158 -0.994426 0.047455
vn -0.011762 -0.990769 0.135048
vn 0.031491 -0.992963 0.114159
vn 0.145071 -0.988788 0.035384
vn -0.014796 -0.980576 -0.195582
vn -0.087864 -0.990467 0.106085
vn 0.178538 -0.983225 -0.037316
vn -0.028048 -0.980542 -0.194293
vn 0.039614 -0.976282 -0.212848
vn -0.031377 -0.998696 -0.040259
vn -0.038362 -0.978173 -0.204222
vn 0.049973 -0.988645 -0.141718
vn -0.100992 -0.957923 -0.268670
vn -0.252296 -0.951431 -0.176424
vn -0.106474 -0.990893 -0.082431
vn 0.328453 -0.238609 -0.913884
vn 0.001418 -0.859225 0.511596
vn -0.185135 -0.839776 0.510393
vn -0.143247 -0.864214 0.482301
vn 0.039642 -0.976287 -0.212820
vn -0.199792 -0.949909 -0.240326
vn -0.035836 -0.998409 -0.043536
vn 0.046971 -0.996232 -0.072914
vn -0.807231 -0.373982 0.456635
vn -0.082889 -0.987664 -0.132849
vn 0.141012 -0.988595 0.052875
vn -0.083738 -0.996012 -0.030785
vn -0.120201 -0.956229 -0.266793
vn -0.019333 -0.999350 0.030433
vn -0.136358 -0.990017 0.035684
vn -0.095454 -0.995400 0.008178
vn 0.023932 -0.996599 0.078850
vn 0.016190 -0.990268 0.138229
vn 0.075718 -0.997076 0.010329
vn 0.081736 -0.991174 0.104374
vn -0.143010 -0.984553 -0.101012
vn -0.016195 -0.999202 -0.036506
vn -0.014398 -0.992826 0.118698
vn -0.014080 -0.999186 -0.037794
vn 0.429877 0.205700 -0.879143
vn 0.366572 -0.714551 -0.595853
vn -0.025740 -0.991650 -0.126361
vn 0.503457 -0.752503 -0.424582
vn 0.382060 -0.299635 -0.874213
vn 0.423722 -0.811748 -0.401901
vn 0.518798 -0.836719 0.175358
vn 0.741851 -0.409593 -0.530934
vn 0.364547 -0.893282 -0.262971
vn -0.113702 -0.980318 0.161396
vn -0.659838 -0.735078 -0.155803
vn -0.125909 -0.988942 0.078361
vn 0.233317 -0.970366 -0.062871
vn -0.151739 -0.194763 -0.969042
vn -0.016453 -0.993608 0.111683
vn -0.092694 -0.992281 0.082383
vn 0.212141 -0.976446 -0.039363
vn 0.027734 -0.998811 0.040084
vn 0.376708 -0.925726 0.033497
vn 0.223566 -0.961854 0.157657
vn 0.403610 -0.753922 -0.518364
vn -0.736673 -0.603187 -0.305741
vn 0.016201 -0.999833 0.008481
vn 0.049759 -0.438887 -0.897163
vn 0.371563 -0.240627 -0.896683
vn -0.071572 -0.820916 0.566546
vn 0.289670 -0.948850 -0.125600
vn 0.011197 -0.889596 -0.456611
vn 0.022001 -0.999693 0.011376
vn 0.057214 -0.997469 0.042221
vn 0.402233 -0.894648 0.194458
vn 0.042418 -0.999095 -0.003111
vn -0.158965 -0.968043 -0.193965
vn -0.308288 -0.949939 0.050733
vn 0.248456 -0.965469 -0.078357
vn -0.287652 -0.955036 0.071851
vn 0.290494 -0.298448 -0.909143
vn -0.270924 -0.724864 -0.633382
vn -0.042965 -0.795338 0.604641
vn 0.102405 -0.270056 -0.957383
vn 0.532036 0.349436 -0.771254
vn 0.153298 -0.970295 -0.187157
vn 0.784809 -0.254532 -0.565057
vn 0.226963 -0.377169 -0.897904
vn -0.474801 -0.708631 0.521925
vn 0.218739 -0.928875 -0.298905
vn 0.393373 -0.862603 -0.318077
vn 0.236287 -0.892289 -0.384693
vn 0.525808 0.271858 -0.805989
vn -0.287183 0.255186 -0.923258
vn 0.404668 -0.682216 -0.608954
vn -0.075027 0.377511 -0.922960
vn 0.394162 -0.358633 -0.846179
vn 0.420997 0.222634 -0.879315
vn -0.334048 -0.000610 -0.942556
vn 0.624704 -0.062266 -0.778375
vn -0.296152 -0.771520 -0.563073
vn 0.050878 -0.957213 0.284875
vn 0.305481 -0.927438 0.215730
vn -0.046455 -0.969215 0.241794
vn -0.028515 0.255344 -0.966430
vn 0.135831 -0.060674 -0.988872
vn -0.371987 -0.471704 -0.799451
vn 0.115962 -0.058681 -0.991519
vn 0.828389 -0.539284 -0.151473
vn 0.585189 0.101842 -0.804476
vn 0.866136 -0.492272 0.086462
vn 0.740627 -0.648895 -0.174375
vn 0.805375 -0.535900 -0.253342
vn 0.988319 0.105285 -0.110187
vn 0.430766 -0.566582 -0.702443
vn 0.715294 -0.057890 -0.696422
vn -0.236064 -0.544020 -0.805181
vn 0.879790 -0.471513 -0.060371
vn 0.924576 0.009265 -0.380884
vn 0.935402 -0.350268 -0.048329
vn 0.384576 -0.360288 -0.849878
vn 0.992903 0.080939 -0.087133
vn 0.929310 -0.352667 0.109589
vn 0.987759 -0.108858 -0.111726
vn 0.312146 -0.914462 -0.257535
vn -0.222635 -0.968737 -0.109464
vn -0.216750 -0.974975 -0.049427
vn -0.204912 -0.977973 -0.039751
vn -0.057410 -0.301524 -0.951729
vn 0.924391 0.007134 -0.381381
vn 0.099204 0.202332 -0.974279
vn -0.115957 -0.060932 -0.991383
vn 0.972979 -0.061553 -0.222537
vn 0.579934 -0.750573 0.316729
vn 0.950461 0.297309 -0.090728
vn 0.975581 0.066614 0.209295
vn 0.413350 -0.812548 -0.410983
vn 0.742714 0.271514 -0.612092
vn 0.087887 -0.977317 -0.192685
vn 0.065163 -0.779700 -0.622753
vn 0.001310 -0.999491 0.031868
vn 0.355500 -0.934667 0.004120
vn 0.612008 -0.263569 0.745639
vn 0.218965 -0.970891 0.097083
vn 0.651317 0.427680 -0.626798
vn 0.994598 0.101486 -0.021802
vn 0.212708 -0.969919 -0.118374
vn 0.980780 0.011431 -0.194782
vn 0.899246 0.242781 0.363888
vn -0.062319 -0.992883 -0.101491
vn 0.760546 -0.455507 0.462691
vn 0.976406 -0.143685 -0.161199
vn 0.148073 -0.988972 0.003050
vn 0.751666 -0.327540 0.572465
vn 0.198623 -0.744628 0.637242
vn 0.438224 -0.735630 0.516535
vn 0.459619 -0.654547 -0.600266
vn 0.547807 -0.327942 -0.769650
vn 0.335697 -0.008131 -0.941935
vn 0.279777 -0.358015 -0.890814
vn 0.685183 0.072967 0.724707
vn 0.614548 -0.686812 0.388097
vn 0.755947 0.464745 -0.461037
vn 0.874957 -0.109671 0.471617
vn 0.719113 -0.580030 -0.382677
vn 0.248668 -0.554745 -0.793991
vn 0.394898 -0.913926 -0.093776
vn 0.318322 -0.922493 -0.218351
vn 0.288093 0.033530 -0.957015
vn 0.468537 -0.876200 -0.112900
vn 0.410342 -0.103463 -0.906044
vn 0.262041 -0.159461 -0.951791
vn 0.966977 -0.217653 -0.132597
vn 0.881609 -0.334783 -0.332695
vn 0.836714 -0.207420 -0.506840
vn 0.878050 -0.344263 -0.332431
vn 0.876068 -0.480232 -0.043376
vn 0.972770 -0.156733 -0.170744
vn 0.812411 0.162151 0.560085
vn 0.971361 -0.237256 -0.012939
vn 0.485372 -0.041570 0.873319
vn 0.964632 -0.015062 0.263169
vn 0.790005 0.175050 0.587580
vn 0.786719 0.204313 0.582520
vn 0.802366 0.248415 0.542677
vn 0.908108 0.408544 -0.091824
vn 0.986512 0.122820 -0.108207
vn 0.906840 0.412854 -0.084811
vn 0.492560 -0.039866 -0.869365
vn 0.417761 -0.654026 -0.630655
vn 0.971298 -0.236395 -0.026402
vn 0.780615 0.130923 -0.611146
vn 0.528761 -0.109891 0.841627
vn 0.909763 0.046139 0.412557
vn 0.540756 -0.688114 0.483820
vn 0.492259 -0.283192 0.823094
vn 0.863002 -0.167343 0.476681
vn 0.560567 -0.698853 0.444263
vn 0.685907 0.339270 0.643761
vn 0.503020 -0.312498 0.805801
vn 0.822472 -0.109479 0.558170
vn 0.804489 0.511495 0.301946
vn 0.865876 -0.377414 -0.328355
vn 0.917999 0.312081 -0.244711
vn 0.170385 -0.672682 0.720047
vn -0.376001 -0.695844 0.611902
vn -0.079024 -0.465152 0.881697
vn 0.064622 -0.767843 0.637371
vn 0.367395 -0.315177 0.875034
vn -0.564402 -0.380427 0.732616
vn -0.591137 -0.239068 0.770327
vn -0.596401 -0.250712 0.762529
vn -0.071797 -0.005305 0.997405
vn -0.076946 -0.039578 0.996249
vn -0.340599 -0.024641 0.939886
vn -0.064822 -0.021736 0.997660
vn -0.035310 -0.304541 0.951844
vn -0.162640 -0.486706 0.858292
vn 0.039465 -0.317520 0.947430
vn -0.030419 -0.316764 0.948016
vn 0.519233 0.760356 0.390199
vn 0.469481 0.800840 0.371811
vn 0.300694 0.176284 0.937287
vn 0.552569 0.758577 0.345296
vn 0.732457 0.679716 0.038643
vn 0.784334 0.518606 0.340393
vn 0.724023 0.689650 0.013199
vn 0.702203 0.710401 0.047341
vn 0.652815 -0.357367 0.667923
vn 0.858700 0.112250 0.500035
vn 0.911454 0.003103 0.411391
vn 0.874384 0.111393 0.472275
vn 0.713837 0.700081 0.017992
vn 0.931521 0.269297 0.244435
vn 0.873630 0.189174 0.448313
vn 0.802167 0.313321 0.508289
vn 0.211674 -0.344957 0.914439
vn 0.408294 -0.168514 0.897162
vn 0.541607 -0.366816 0.756378
vn 0.254345 -0.390659 0.884700
vn -0.429587 0.304025 0.850308
vn 0.251117 0.346104 0.903965
vn 0.106515 -0.459046 0.882004
vn -0.429529 0.304159 0.850290
vn 0.574419 0.333265 0.747648
vn 0.549596 0.039292 0.834506
vn 0.248294 0.126152 0.960435
vn 0.357050 0.367740 0.858651
vn 0.348665 -0.059777 0.935339
vn 0.159919 0.131694 0.978306
vn 0.342229 0.057980 0.937826
vn 0.281594 -0.058455 0.957751
vn 0.335686 -0.359606 0.870631
vn 0.033256 0.003247 0.999442
vn -0.341600 0.097900 0.934733
vn 0.096590 0.116193 0.988519
vn 0.057679 0.825678 0.561186
vn -0.253817 0.728307 0.636511
vn 0.390455 0.593826 0.703503
vn 0.056437 0.824176 0.563515
vn -0.166422 -0.153589 0.974020
vn -0.118288 0.318307 0.940579
vn 0.380013 0.154046 0.912064
vn 0.186939 -0.160490 0.969173
vn 0.060816 -0.048297 0.996980
vn -0.567040 0.100091 0.817586
vn -0.395565 0.269500 0.878008
vn -0.525256 -0.029279 0.850440
vn -0.453326 -0.826293 -0.334269
vn -0.472960 -0.855403 0.211172
vn -0.203880 -0.974059 -0.098194
vn -0.615138 -0.787985 0.026195
vn 0.488881 -0.800384 0.346961
vn -0.140721 -0.978248 -0.152406
vn -0.000619 -0.997369 -0.072488
vn 0.004046 -0.989655 -0.143407
vn -0.519673 -0.699365 -0.490743
vn -0.807753 -0.514916 -0.287048
vn -0.509089 -0.837487 -0.198605
vn -0.665465 -0.572335 -0.479155
vn -0.255813 -0.899252 -0.354833
vn -0.190723 -0.959390 -0.207833
vn -0.131186 -0.930836 -0.341079
vn -0.137647 -0.926782 -0.349468
vn 0.802303 -0.217680 0.555810
vn 0.395655 -0.888581 0.232124
vn -0.243891 -0.838445 0.487368
vn -0.223851 -0.787828 0.573776
vn -0.695371 0.218418 0.684655
vn -0.300109 -0.953157 -0.037752
vn -0.631097 -0.479865 0.609463
vn -0.154383 -0.467027 0.870662
vn -0.226095 -0.955009 -0.191936
vn -0.446606 -0.890253 0.089399
vn 0.053651 -0.990709 0.124972
vn -0.220158 -0.946503 0.235929
vn 0.351565 -0.910689 0.216905
vn -0.009872 -0.997862 -0.064606
vn -0.476002 -0.808311 0.346492
vn 0.252760 -0.965320 0.065337
vn -0.973793 0.200092 0.108124
vn -0.793739 -0.581296 -0.179089
vn -0.958086 -0.202032 0.203113
vn -0.954108 -0.207534 0.215890
vn -0.521510 0.067631 0.850560
vn -0.837569 -0.529047 0.136338
vn -0.815221 -0.463420 0.347356
vn -0.705954 -0.617227 0.347362
vn -0.229889 0.278055 0.932650
vn -0.465483 -0.228149 0.855145
vn -0.643594 -0.670257 -0.369516
vn -0.675300 0.383308 0.630114
vn -0.655733 -0.742976 -0.134166
vn -0.592409 -0.745447 -0.305550
vn -0.986228 -0.009907 0.165092
vn -0.751947 -0.561961 -0.344637
vn 0.455230 -0.858967 0.234396
vn 0.237573 -0.942715 0.234194
vn -0.367166 -0.842748 0.393657
vn 0.311044 -0.693428 0.649930
vn -0.187633 0.210756 0.959362
vn -0.914187 -0.193358 -0.356194
vn 0.117678 -0.967755 0.222717
vn -0.558727 -0.640878 0.526402
vn -0.538689 0.106975 0.835686
vn -0.672465 -0.727398 0.136687
vn -0.965030 0.245066 0.093056
vn -0.950075 0.278673 0.140354
vn 0.143051 -0.938960 0.312875
vn -0.967644 0.244991 0.060376
vn -0.398120 -0.821494 0.408225
vn -0.323684 -0.945355 -0.039152
vn 0.421166 0.211287 -0.882030
vn -0.422119 -0.852411 -0.308564
vn -0.010771 0.033171 -0.999392
vn -0.136911 0.121572 -0.983095
vn -0.130916 -0.701936 -0.700105
vn -0.417661 -0.748366 -0.515274
vn -0.711661 -0.702421 -0.011959
vn -0.182034 -0.886654 -0.425098
vn -0.431870 -0.437558 -0.788689
vn 0.308345 -0.556511 -0.771504
vn -0.239470 -0.969653 -0.049258
vn -0.090663 -0.698785 -0.709563
vn -0.728161 -0.683448 -0.051775
vn -0.439780 -0.894459 -0.080849
vn -0.350248 -0.013706 -0.936557
vn -0.552064 -0.833800 -0.001683
vn -0.542827 -0.650548 0.531155
vn -0.812593 -0.531431 0.239320
vn -0.345892 -0.898865 -0.269074
vn -0.748933 -0.607349 0.265001
vn -0.236831 -0.906185 0.350342
vn -0.934652 -0.225027 0.275296
vn -0.856259 -0.341134 0.387876
vn -0.939580 -0.263784 0.218193
vn 0.072293 -0.987770 -0.138148
vn -0.218865 -0.975655 0.013961
vn -0.048352 -0.991086 0.124143
vn -0.187850 -0.976259 0.107847
vn -0.670627 -0.579406 0.463193
vn -0.251760 -0.902911 0.348379
vn -0.250154 -0.967017 0.047976
vn -0.394813 -0.918670 0.012954
vn -0.943827 0.328265 0.037861
vn -0.608162 -0.768736 -0.197948
vn -0.604065 -0.762954 -0.230232
vn -0.599625 -0.772680 -0.208364
vn -0.792634 -0.532403 -0.297117
vn -0.672854 -0.227881 -0.703803
vn -0.269671 -0.909988 -0.314960
vn -0.736593 -0.568491 -0.366399
vn -0.585524 -0.540407 -0.604253
vn -0.759443 -0.473479 -0.446167
vn -0.784950 -0.596260 -0.168308
vn -0.583597 -0.687988 -0.431378
vn -0.402247 -0.892507 -0.204033
vn -0.772903 -0.195075 -0.603794
vn -0.735284 -0.640656 -0.221175
vn -0.388444 -0.722692 -0.571688
vn 0.107769 -0.630776 -0.768445
vn -0.094843 -0.879375 -0.466588
vn 0.266020 -0.583432 -0.767360
vn 0.254144 -0.750990 -0.609446
vn -0.363885 -0.751886 -0.549778
vn -0.764963 -0.621826 -0.167820
vn -0.988712 0.086496 -0.122339
vn -0.753928 -0.648068 -0.107704
vn -0.890581 -0.349031 -0.291622
vn -0.087122 -0.985351 -0.146607
vn -0.573199 -0.400918 -0.714638
vn -0.890713 -0.323502 -0.319338
vn -0.710678 -0.052938 -0.701523
vn -0.625072 -0.694550 -0.356210
vn 0.075811 -0.414285 -0.906984
vn -0.834036 -0.403003 -0.376791
vn 0.776544 -0.629727 -0.020594
vn 0.904823 -0.425309 0.020170
vn 0.768668 -0.303659 -0.562975
vn 0.741912 -0.660683 -0.114302
vn -0.328658 -0.217176 -0.919140
vn -0.165399 0.067590 -0.983908
vn 0.842675 0.096099 -0.529777
vn -0.159103 0.051884 -0.985898
vn -0.379128 0.357806 -0.853368
vn 0.194331 0.049544 -0.979684
vn -0.291364 -0.271489 -0.917279
vn -0.182566 0.043903 -0.982213
vn 0.399824 -0.542933 -0.738488
vn -0.312460 -0.228868 -0.921948
vn 0.407297 -0.289514 -0.866193
vn 0.324265 -0.381696 -0.865541
vn 0.594298 0.184751 -0.782737
vn 0.342223 -0.932872 -0.112396
vn -0.052241 -0.592596 -0.803804
vn 0.184701 -0.589127 -0.786648
vn -0.141740 0.086173 -0.986146
vn 0.567545 -0.285519 -0.772251
vn -0.025894 -0.415931 -0.909027
vn 0.037978 -0.329897 -0.943253
vn 0.459152 -0.533631 -0.710223
vn -0.011989 -0.886977 -0.461659
vn 0.509778 -0.716410 -0.476322
vn 0.463464 -0.532830 -0.708021
vn 0.327265 -0.938883 -0.106758
vn 0.610525 -0.671822 -0.419421
vn -0.319119 -0.810251 -0.491586
vn -0.056677 -0.985123 -0.162234
vn -0.188945 0.004869 -0.981976
vn 0.164621 0.455315 -0.874979
vn -0.333912 0.755990 -0.563012
vn -0.503148 0.392815 -0.769765
vn -0.148314 0.361471 -0.920512
vn 0.646274 -0.391766 -0.654866
vn 0.668633 0.653308 -0.355132
vn 0.904968 0.193746 -0.378807
vn 0.290209 0.836043 -0.465630
vn 0.556309 0.129689 -0.820793
vn 0.048072 0.664707 -0.745556
vn 0.184139 0.661726 -0.726782
vn -0.158709 0.770518 -0.617344
vn -0.334824 -0.311646 -0.889252
vn 0.404444 -0.192429 -0.894090
vn -0.461542 -0.141512 -0.875759
vn 0.604651 -0.332827 -0.723618
vn 0.839137 -0.242358 -0.486941
vn 0.744201 0.086038 -0.662391
vn 0.585503 -0.278964 -0.761160
vn 0.398059 0.768252 -0.501336
vn 0.024135 0.684658 -0.728465
vn 0.753123 0.240916 -0.612181
vn 0.169671 0.809577 -0.561958
vn -0.200448 0.435603 -0.877537
vn -0.131242 -0.316149 -0.939588
vn 0.454750 0.114088 -0.883282
vn -0.329104 0.068765 -0.941786
vn 0.651576 0.261963 -0.711916
vn 0.618393 0.614926 -0.489342
vn 0.349852 0.593883 -0.724504
vn 0.691564 0.533982 -0.486418
vn 0.863943 -0.489456 -0.118469
vn 0.680040 -0.606511 -0.411935
vn 0.980486 -0.088072 0.175760
vn 0.722838 -0.674502 0.150176
vn 0.432577 -0.455069 0.778325
vn 0.925374 -0.331216 0.184336
vn 0.564221 -0.811148 0.153929
vn 0.585093 -0.803291 0.111313
vn 0.601406 0.794636 0.082849
vn 0.767150 0.603581 0.217191
vn 0.836500 0.536545 -0.111295
vn 0.754835 0.644974 0.119303
vn 0.571189 -0.817255 -0.076398
vn 0.921574 -0.387284 -0.026685
vn 0.950808 -0.152956 0.269385
vn 0.940525 -0.278982 -0.193863
vn 0.398719 -0.754893 -0.520730
vn 0.905140 0.210370 0.369413
vn 0.569728 0.186257 -0.800449
vn 0.921455 -0.201192 0.332329
vn 0.987957 -0.149235 -0.040853
vn 0.108776 0.960911 -0.254592
vn 0.307133 0.949601 0.062669
vn 0.302892 0.947512 0.102361
vn 0.686926 -0.015978 0.726552
vn 0.844762 0.144717 -0.515203
vn 0.994686 0.093311 -0.043497
vn 0.900389 0.433694 -0.034768
vn 0.996826 -0.075085 -0.026447
vn 0.683475 0.321652 -0.655288
vn 0.611931 0.246376 -0.751558
vn 0.619891 0.209493 -0.756206
vn 0.576197 0.808002 -0.123006
vn 0.948018 0.276662 -0.157227
vn 0.820980 -0.100394 -0.562061
vn 0.964914 0.244419 -0.095921
vn 0.865585 0.135890 0.481971
vn 0.740837 0.135221 -0.657933
vn 0.936713 0.313718 -0.155400
vn 0.773366 0.609909 -0.172959
vn 0.558866 0.787236 0.260629
vn 0.785082 0.423004 -0.452453
vn 0.936697 0.283971 -0.204839
vn 0.804077 0.389079 -0.449531
vn 0.934727 0.316830 -0.160948
vn 0.863458 0.032874 -0.503349
vn 0.720580 0.135233 -0.680056
vn 0.859920 0.047439 -0.508219
vn 0.842276 -0.269004 0.467128
vn 0.990627 0.134004 0.026461
vn 0.925312 -0.331297 0.184500
vn 0.859776 -0.154654 0.486689
vn 0.970771 0.017868 0.239343
vn 0.571822 0.795909 -0.198870
vn 0.112884 0.866350 -0.486514
vn 0.571862 0.420390 -0.704447
vn 0.630898 0.584320 0.510429
vn 0.854207 0.516437 -0.060195
vn 0.495374 0.546715 -0.675061
vn 0.931637 0.357626 -0.064472
vn 0.390334 0.920518 0.016899
vn 0.446129 0.808340 -0.384130
vn 0.749099 0.629183 0.207315
vn 0.487647 0.777560 -0.396990
s off
f 1//1 163//1 165//1
f 43//2 164//2 163//2
f 45//3 165//3 164//3
f 163//4 164//4 165//4
f 13//5 166//5 168//5
f 44//6 167//6 166//6
f 43//7 168//7 167//7
f 166//8 167//8 168//8
f 15//9 169//9 171//9
f 45//10 170//10 169//10
f 44//11 171//11 170//11
f 169//12 170//12 171//12
f 43//13 167//13 164//13
f 44//14 170//14 167//14
f 45//15 164//15 170//15
f 167//16 170//16 164//16
f 12//17 172//17 174//17
f 46//18 173//18 172//18
f 48//19 174//19 173//19
f 172//20 173//20 174//20
f 14//21 175//21 177//21
f 47//22 176//22 175//22
f 46//23 177//23 176//23
f 175//24 176//24 177//24
f 13//25 178//25 180//25
f 48//26 179//26 178//26
f 47//27 180//27 179//27
f 178//28 179//28 180//28
f 46//29 176//29 173//29
f 47//30 179//30 176//30
f 48//31 173//31 179//31
f 176//32 179//32 173//32
f 6//33 181//33 183//33
f 49//34 182//34 181//34
f 51//35 183//35 182//35
f 181//36 182//36 183//36
f 15//37 184//37 186//37
f 50//38 185//38 184//38
f 49//39 186//39 185//39
f 184//40 185//40 186//40
f 14//41 187//41 189//41
f 51//42 188//42 187//42
f 50//43 189//43 188//43
f 187//44 188//44 189//44
f 49//45 185//45 182//45
f 50//46 188//46 185//46
f 51//47 182//47 188//47
f 185//48 188//48 182//48
f 13//49 180//49 166//49
f 47//50 190//50 180//50
f 44//51 166//51 190//51
f 180//52 190//52 166//52
f 14//53 189//53 175//53
f 50//54 191//54 189//54
f 47//55 175//55 191//55
f 189//56 191//56 175//56
f 15//57 171//57 184//57
f 44//58 192//58 171//58
f 50//59 184//59 192//59
f 171//60 192//60 184//60
f 47//61 191//61 190//61
f 50//62 192//62 191//62
f 44//63 190//63 192//63
f 191//64 192//64 190//64
f 1//65 165//65 194//65
f 45//66 193//66 165//66
f 53//67 194//67 193//67
f 165//68 193//68 194//68
f 15//69 195//69 169//69
f 52//70 196//70 195//70
f 45//71 169//71 196//71
f 195//72 196//72 169//72
f 17//73 197//73 199//73
f 53//74 198//74 197//74
f 52//75 199//75 198//75
f 197//76 198//76 199//76
f 45//77 196//77 193//77
f 52//78 198//78 196//78
f 53//79 193//79 198//79
f 196//80 198//80 193//80
f 6//81 200//81 181//81
f 54//82 201//82 200//82
f 49//83 181//83 201//83
f 200//84 201//84 181//84
f 16//85 202//85 204//85
f 55//86 203//86 202//86
f 54//87 204//87 203//87
f 202//88 203//88 204//88
f 15//89 186//89 206//89
f 49//90 205//90 186//90
f 55//91 206//91 205//91
f 186//92 205//92 206//92
f 54//93 203//93 201//93
f 55//94 205//94 203//94
f 49//95 201//95 205//95
f 203//96 205//96 201//96
f 2//97 207//97 209//97
f 56//98 208//98 207//98
f 58//99 209//99 208//99
f 207//100 208//100 209//100
f 17//101 210//101 212//101
f 57//102 211//102 210//102
f 56//103 212//103 211//103
f 210//104 211//104 212//104
f 16//105 213//105 215//105
f 58//106 214//106 213//106
f 57//107 215//107 214//107
f 213//108 214//108 215//108
f 56//109 211//109 208//109
f 57//110 214//110 211//110
f 58//111 208//111 214//111
f 211//112 214//112 208//112
f 15//113 206//113 195//113
f 55//114 216//114 206//114
f 52//115 195//115 216//115
f 206//116 216//116 195//116
f 16//117 215//117 202//117
f 57//118 217//118 215//118
f 55//119 202//119 217//119
f 215//120 217//120 202//120
f 17//121 199//121 210//121
f 52//122 218//122 199//122
f 57//123 210//123 218//123
f 199//124 218//124 210//124
f 55//125 217//125 216//125
f 57//126 218//126 217//126
f 52//127 216//127 218//127
f 217//128 218//128 216//128
f 1//129 194//129 220//129
f 53//130 219//130 194//130
f 60//131 220//131 219//131
f 194//132 219//132 220//132
f 17//133 221//133 197//133
f 59//134 222//134 221//134
f 53//135 197//135 222//135
f 221//136 222//136 197//136
f 19//137 223//137 225//137
f 60//138 224//138 223//138
f 59//139 225//139 224//139
f 223//140 224//140 225//140
f 53//141 222//141 219//141
f 59//142 224//142 222//142
f 60//143 219//143 224//143
f 222//144 224//144 219//144
f 2//145 226//145 207//145
f 61//146 227//146 226//146
f 56//147 207//147 227//147
f 226//148 227//148 207//148
f 18//149 228//149 230//149
f 62//150 229//150 228//150
f 61//151 230//151 229//151
f 228//152 229//152 230//152
f 17//153 212//153 232//153
f 56//154 231//154 212//154
f 62//155 232//155 231//155
f 212//156 231//156 232//156
f 61//157 229//157 227//157
f 62//158 231//158 229//158
f 56//159 227//159 231//159
f 229//160 231//160 227//160
f 8//161 233//161 235//161
f 63//162 234//162 233//162
f 65//163 235//163 234//163
f 233//164 234//164 235//164
f 19//165 236//165 238//165
f 64//166 237//166 236//166
f 63//167 238//167 237//167
f 236//168 237//168 238//168
f 18//169 239//169 241//169
f 65//170 240//170 239//170
f 64//171 241//171 240//171
f 239//172 240//172 241//172
f 63//173 237//173 234//173
f 64//174 240//174 237//174
f 65//175 234//175 240//175
f 237//176 240//176 234//176
f 17//177 232//177 221//177
f 62//178 242//178 232//178
f 59//179 221//179 242//179
f 232//180 242//180 221//180
f 18//181 241//181 228//181
f 64//182 243//182 241//182
f 62//183 228//183 243//183
f 241//184 243//184 228//184
f 19//185 225//185 236//185
f 59//186 244//186 225//186
f 64//187 236//187 244//187
f 225//188 244//188 236//188
f 62//189 243//189 242//189
f 64//190 244//190 243//190
f 59//191 242//191 244//191
f 243//192 244//192 242//192
f 1//193 220//193 246//193
f 60//194 245//194 220//194
f 67//195 246//195 245//195
f 220//196 245//196 246//196
f 19//197 247//197 223//197
f 66//198 248//198 247//198
f 60//199 223//199 248//199
f 247//200 248//200 223//200
f 21//201 249//201 251//201
f 67//202 250//202 249//202
f 66//203 251//203 250//203
f 249//204 250//204 251//204
f 60//205 248//205 245//205
f 66//206 250//206 248//206
f 67//207 245//207 250//207
f 248//208 250//208 245//208
f 8//209 252//209 233//209
f 68//210 253//210 252//210
f 63//211 233//211 253//211
f 252//212 253//212 233//212
f 20//213 254//213 256//213
f 69//214 255//214 254//214
f 68//215 256//215 255//215
f 254//216 255//216 256//216
f 19//217 238//217 258//217
f 63//218 257//218 238//218
f 69//219 258//219 257//219
f 238//220 257//220 258//220
f 68//221 255//221 253//221
f 69//222 257//222 255//222
f 63//223 253//223 257//223
f 255//224 257//224 253//224
f 11//225 259//225 261//225
f 70//226 260//226 259//226
f 72//227 261//227 260//227
f 259//228 260//228 261//228
f 21//229 262//229 264//229
f 71//230 263//230 262//230
f 70//231 264//231 263//231
f 262//232 263//232 264//232
f 20//233 265//233 267//233
f 72//234 266//234 265//234
f 71//235 267//235 266//235
f 265//236 266//236 267//236
f 70//237 263//237 260//237
f 71//238 266//238 263//238
f 72//239 260//239 266//239
f 263//240 266//240 260//240
f 19//241 258//241 247//241
f 69//242 268//242 258//242
f 66//243 247//243 268//243
f 258//244 268//244 247//244
f 20//245 267//245 254//245
f 71//246 269//246 267//246
f 69//247 254//247 269//247
f 267//248 269//248 254//248
f 21//249 251//249 262//249
f 66//250 270//250 251//250
f 71//251 262//251 270//251
f 251//252 270//252 262//252
f 69//253 269//253 268//253
f 71//254 270//254 269//254
f 66//255 268//255 270//255
f 269//256 270//256 268//256
f 1//257 246//257 163//257
f 67//258 271//258 246//258
f 43//259 163//259 271//259
f 246//260 271//260 163//260
f 21//261 272//261 249//261
f 73//262 273//262 272//262
f 67//263 249//263 273//263
f 272//264 273//264 249//264
f 13//265 168//265 275//265
f 43//266 274//266 168//266
f 73//267 275//267 274//267
f 168//268 274//268 275//268
f 67//269 273//269 271//269
f 73//270 274//270 273//270
f 43//271 271//271 274//271
f 273//272 274//272 271//272
f 11//273 276//273 259//273
f 74//274 277//274 276//274
f 70//275 259//275 277//275
f 276//276 277//276 259//276
f 22//277 278//277 280//277
f 75//278 279//278 278//278
f 74//279 280//279 279//279
f 278//280 279//280 280//280
f 21//281 264//281 282//281
f 70//282 281//282 264//282
f 75//283 282//283 281//283
f 264//284 281//284 282//284
f 74//285 279//285 277//285
f 75//286 281//286 279//286
f 70//287 277//287 281//287
f 279//288 281//288 277//288
f 12//289 174//289 284//289
f 48//290 283//290 174//290
f 77//291 284//291 283//291
f 174//292 283//292 284//292
f 13//293 285//293 178//293
f 76//294 286//294 285//294
f 48//295 178//295 286//295
f 285//296 286//296 178//296
f 22//297 287//297 289//297
f 77//298 288//298 287//298
f 76//299 289//299 288//299
f 287//300 288//300 289//300
f 48//301 286//301 283//301
f 76//302 288//302 286//302
f 77//303 283//303 288//303
f 286//304 288//304 283//304
f 21//305 282//305 272//305
f 75//306 290//306 282//306
f 73//307 272//307 290//307
f 282//308 290//308 272//308
f 22//309 289//309 278//309
f 76//310 291//310 289//310
f 75//311 278//311 291//311
f 289//312 291//312 278//312
f 13//313 275//313 285//313
f 73//314 292//314 275//314
f 76//315 285//315 292//315
f 275//316 292//316 285//316
f 75//317 291//317 290//317
f 76//318 292//318 291//318
f 73//319 290//319 292//319
f 291//320 292//320 290//320
f 2//321 209//321 294//321
f 58//322 293//322 209//322
f 79//323 294//323 293//323
f 209//324 293//324 294//324
f 16//325 295//325 213//325
f 78//326 296//326 295//326
f 58//327 213//327 296//327
f 295//328 296//328 213//328
f 24//329 297//329 299//329
f 79//330 298//330 297//330
f 78//331 299//331 298//331
f 297//332 298//332 299//332
f 58//333 296//333 293//333
f 78//334 298//334 296//334
f 79//335 293//335 298//335
f 296//336 298//336 293//336
f 6//337 300//337 200//337
f 80//338 301//338 300//338
f 54//339 200//339 301//339
f 300//340 301//340 200//340
f 23//341 302//341 304//341
f 81//342 303//342 302//342
f 80//343 304//343 303//343
f 302//344 303//344 304//344
f 16//345 204//345 306//345
f 54//346 305//346 204//346
f 81//347 306//347 305//347
f 204//348 305//348 306//348
f 80//349 303//349 301//349
f 81//350 305//350 303//350
f 54//351 301//351 305//351
f 303//352 305//352 301//352
f 10//353 307//353 309//353
f 82//354 308//354 307//354
f 84//355 309//355 308//355
f 307//356 308//356 309//356
f 24//357 310//357 312//357
f 83//358 311//358 310//358
f 82//359 312//359 311//359
f 310//360 311//360 312//360
f 23//361 313//361 315//361
f 84//362 314//362 313//362
f 83//363 315//363 314//363
f 313//364 314//364 315//364
f 82//365 311//365 308//365
f 83//366 314//366 311//366
f 84//367 308//367 314//367
f 311//368 314//368 308//368
f 16//369 306//369 295//369
f 81//370 316//370 306//370
f 78//371 295//371 316//371
f 306//372 316//372 295//372
f 23//373 315//373 302//373
f 83//374 317//374 315//374
f 81//375 302//375 317//375
f 315//376 317//376 302//376
f 24//377 299//377 310//377
f 78//378 318//378 299//378
f 83//379 310//379 318//379
f 299//380 318//380 310//380
f 81//381 317//381 316//381
f 83//382 318//382 317//382
f 78//383 316//383 318//383
f 317//384 318//384 316//384
f 6//385 183//385 320//385
f 51//386 319//386 183//386
f 86//387 320//387 319//387
f 183//388 319//388 320//388
f 14//389 321//389 187//389
f 85//390 322//390 321//390
f 51//391 187//391 322//391
f 321//392 322//392 187//392
f 26//393 323//393 325//393
f 86//394 324//394 323//394
f 85//395 325//395 324//395
f 323//396 324//396 325//396
f 51//397 322//397 319//397
f 85//398 324//398 322//398
f 86//399 319//399 324//399
f 322//400 324//400 319//400
f 12//401 326//401 172//401
f 87//402 327//402 326//402
f 46//403 172//403 327//403
f 326//404 327//404 172//404
f 25//405 328//405 330//405
f 88//406 329//406 328//406
f 87//407 330//407 329//407
f 328//408 329//408 330//408
f 14//409 177//409 332//409
f 46//410 331//410 177//410
f 88//411 332//411 331//411
f 177//412 331//412 332//412
f 87//413 329//413 327//413
f 88//414 331//414 329//414
f 46//415 327//415 331//415
f 329//416 331//416 327//416
f 5//417 333//417 335//417
f 89//418 334//418 333//418
f 91//419 335//419 334//419
f 333//420 334//420 335//420
f 26//421 336//421 338//421
f 90//422 337//422 336//422
f 89//423 338//423 337//423
f 336//424 337//424 338//424
f 25//425 339//425 341//425
f 91//426 340//426 339//426
f 90//427 341//427 340//427
f 339//428 340//428 341//428
f 89//429 337//429 334//429
f 90//430 340//430 337//430
f 91//431 334//431 340//431
f 337//432 340//432 334//432
f 14//433 332//433 321//433
f 88//434 342//434 332//434
f 85//435 321//435 342//435
f 332//436 342//436 321//436
f 25//437 341//437 328//437
f 90//438 343//438 341//438
f 88//439 328//439 343//439
f 341//440 343//440 328//440
f 26//441 325//441 336//441
f 85//442 344//442 325//442
f 90//443 336//443 344//443
f 325//444 344//444 336//444
f 88//445 343//445 342//445
f 90//446 344//446 343//446
f 85//447 342//447 344//447
f 343//448 344//448 342//448
f 12//449 284//449 346//449
f 77//450 345//450 284//450
f 93//451 346//451 345//451
f 284//452 345//452 346//452
f 22//453 347//453 287//453
f 92//454 348//454 347//454
f 77//455 287//455 348//455
f 347//456 348//456 287//456
f 28//457 349//457 351//457
f 93//458 350//458 349//458
f 92//459 351//459 350//459
f 349//460 350//460 351//460
f 77//461 348//461 345//461
f 92//462 350//462 348//462
f 93//463 345//463 350//463
f 348//464 350//464 345//464
f 11//465 352//465 276//465
f 94//466 353//466 352//466
f 74//467 276//467 353//467
f 352//468 353//468 276//468
f 27//469 354//469 356//469
f 95//470 355//470 354//470
f 94//471 356//471 355//471
f 354//472 355//472 356//472
f 22//473 280//473 358//473
f 74//474 357//474 280//474
f 95//475 358//475 357//475
f 280//476 357//476 358//476
f 94//477 355//477 353//477
f 95//478 357//478 355//478
f 74//479 353//479 357//479
f 355//480 357//480 353//480
f 3//481 359//481 361//481
f 96//482 360//482 359//482
f 98//483 361//483 360//483
f 359//484 360//484 361//484
f 28//485 362//485 364//485
f 97//486 363//486 362//486
f 96//487 364//487 363//487
f 362//488 363//488 364//488
f 27//489 365//489 367//489
f 98//490 366//490 365//490
f 97//491 367//491 366//491
f 365//492 366//492 367//492
f 96//493 363//493 360//493
f 97//494 366//494 363//494
f 98//495 360//495 366//495
f 363//496 366//496 360//496
f 22//497 358//497 347//497
f 95//498 368//498 358//498
f 92//499 347//499 368//499
f 358//500 368//500 347//500
f 27//501 367//501 354//501
f 97//502 369//502 367//502
f 95//503 354//503 369//503
f 367//504 369//504 354//504
f 28//505 351//505 362//505
f 92//506 370//506 351//506
f 97//507 362//507 370//507
f 351//508 370//508 362//508
f 95//509 369//509 368//509
f 97//510 370//510 369//510
f 92//511 368//511 370//511
f 369//512 370//512 368//512
f 11//513 261//513 372//513
f 72//514 371//514 261//514
f 100//515 372//515 371//515
f 261//516 371//516 372//516
f 20//517 373//517 265//517
f 99//518 374//518 373//518
f 72//519 265//519 374//519
f 373//520 374//520 265//520
f 30//521 375//521 377//521
f 100//522 376//522 375//522
f 99//523 377//523 376//523
f 375//524 376//524 377//524
f 72//525 374//525 371//525
f 99//526 376//526 374//526
f 100//527 371//527 376//527
f 374//528 376//528 371//528
f 8//529 378//529 252//529
f 101//530 379//530 378//530
f 68//531 252//531 379//531
f 378//532 379//532 252//532
f 29//533 380//533 382//533
f 102//534 381//534 380//534
f 101//535 382//535 381//535
f 380//536 381//536 382//536
f 20//537 256//537 384//537
f 68//538 383//538 256//538
f 102//539 384//539 383//539
f 256//540 383//540 384//540
f 101//541 381//541 379//541
f 102//542 383//542 381//542
f 68//543 379//543 383//543
f 381//544 383//544 379//544
f 7//545 385//545 387//545
f 103//546 386//546 385//546
f 105//547 387//547 386//547
f 385//548 386//548 387//548
f 30//549 388//549 390//549
f 104//550 389//550 388//550
f 103//551 390//551 389//551
f 388//552 389//552 390//552
f 29//553 391//553 393//553
f 105//554 392//554 391//554
f 104//555 393//555 392//555
f 391//556 392//556 393//556
f 103//557 389//557 386//557
f 104//558 392//558 389//558
f 105//559 386//559 392//559
f 389//560 392//560 386//560
f 20//561 384//561 373//561
f 102//562 394//562 384//562
f 99//563 373//563 394//563
f 384//564 394//564 373//564
f 29//565 393//565 380//565
f 104//566 395//566 393//566
f 102//567 380//567 395//567
f 393//568 395//568 380//568
f 30//569 377//569 388//569
f 99//570 396//570 377//570
f 104//571 388//571 396//571
f 377//572 396//572 388//572
f 102//573 395//573 394//573
f 104//574 396//574 395//574
f 99//575 394//575 396//575
f 395//576 396//576 394//576
f 8//577 235//577 398//577
f 65//578 397//578 235//578
f 107//579 398//579 397//579
f 235//580 397//580 398//580
f 18//581 399//581 239//581
f 106//582 400//582 399//582
f 65//583 239//583 400//583
f 399//584 400//584 239//584
f 32//585 401//585 403//585
f 107//586 402//586 401//586
f 106//587 403//587 402//587
f 401//588 402//588 403//588
f 65//589 400//589 397//589
f 106//590 402//590 400//590
f 107//591 397//591 402//591
f 400//592 402//592 397//592
f 2//593 404//593 226//593
f 108//594 405//594 404//594
f 61//595 226//595 405//595
f 404//596 405//596 226//596
f 31//597 406//597 408//597
f 109//598 407//598 406//598
f 108//599 408//599 407//599
f 406//600 407//600 408//600
f 18//601 230//601 410//601
f 61//602 409//602 230//602
f 109//603 410//603 409//603
f 230//604 409//604 410//604
f 108//605 407//605 405//605
f 109//606 409//606 407//606
f 61//607 405//607 409//607
f 407//608 409//608 405//608
f 9//609 411//609 413//609
f 110//610 412//610 411//610
f 112//611 413//611 412//611
f 411//612 412//612 413//612
f 32//613 414//613 416//613
f 111//614 415//614 414//614
f 110//615 416//615 415//615
f 414//616 415//616 416//616
f 31//617 417//617 419//617
f 112//618 418//618 417//618
f 111//619 419//619 418//619
f 417//620 418//620 419//620
f 110//621 415//621 412//621
f 111//622 418//622 415//622
f 112//623 412//623 418//623
f 415//624 418//624 412//624
f 18//625 410//625 399//625
f 109//626 420//626 410//626
f 106//627 399//627 420//627
f 410//628 420//628 399//628
f 31//629 419//629 406//629
f 111//630 421//630 419//630
f 109//631 406//631 421//631
f 419//632 421//632 406//632
f 32//633 403//633 414//633
f 106//634 422//634 403//634
f 111//635 414//635 422//635
f 403//636 422//636 414//636
f 109//637 421//637 420//637
f 111//638 422//638 421//638
f 106//639 420//639 422//639
f 421//640 422//640 420//640
f 4//641 423//641 425//641
f 113//642 424//642 423//642
f 115//643 425//643 424//643
f 423//644 424//644 425//644
f 33//645 426//645 428//645
f 114//646 427//646 426//646
f 113//647 428//647 427//647
f 426//648 427//648 428//648
f 35//649 429//649 431//649
f 115//650 430//650 429//650
f 114//651 431//651 430//651
f 429//652 430//652 431//652
f 113//653 427//653 424//653
f 114//654 430//654 427//654
f 115//655 424//655 430//655
f 427//656 430//656 424//656
f 10//657 432//657 434//657
f 116//658 433//658 432//658
f 118//659 434//659 433//659
f 432//660 433//660 434//660
f 34//661 435//661 437//661
f 117//662 436//662 435//662
f 116//663 437//663 436//663
f 435//664 436//664 437//664
f 33//665 438//665 440//665
f 118//666 439//666 438//666
f 117//667 440//667 439//667
f 438//668 439//668 440//668
f 116//669 436//669 433//669
f 117//670 439//670 436//670
f 118//671 433//671 439//671
f 436//672 439//672 433//672
f 5//673 441//673 443//673
f 119//674 442//674 441//674
f 121//675 443//675 442//675
f 441//676 442//676 443//676
f 35//677 444//677 446//677
f 120//678 445//678 444//678
f 119//679 446//679 445//679
f 444//680 445//680 446//680
f 34//681 447//681 449//681
f 121//682 448//682 447//682
f 120//683 449//683 448//683
f 447//684 448//684 449//684
f 119//685 445//685 442//685
f 120//686 448//686 445//686
f 121//687 442//687 448//687
f 445//688 448//688 442//688
f 33//689 440//689 426//689
f 117//690 450//690 440//690
f 114//691 426//691 450//691
f 440//692 450//692 426//692
f 34//693 449//693 435//693
f 120//694 451//694 449//694
f 117//695 435//695 451//695
f 449//696 451//696 435//696
f 35//697 431//697 444//697
f 114//698 452//698 431//698
f 120//699 444//699 452//699
f 431//700 452//700 444//700
f 117//701 451//701 450//701
f 120//702 452//702 451//702
f 114//703 450//703 452//703
f 451//704 452//704 450//704
f 4//705 425//705 454//705
f 115//706 453//706 425//706
f 123//707 454//707 453//707
f 425//708 453//708 454//708
f 35//709 455//709 429//709
f 122//710 456//710 455//710
f 115//711 429//711 456//711
f 455//712 456//712 429//712
f 37//713 457//713 459//713
f 123//714 458//714 457//714
f 122//715 459//715 458//715
f 457//716 458//716 459//716
f 115//717 456//717 453//717
f 122//718 458//718 456//718
f 123//719 453//719 458//719
f 456//720 458//720 453//720
f 5//721 460//721 441//721
f 124//722 461//722 460//722
f 119//723 441//723 461//723
f 460//724 461//724 441//724
f 36//725 462//725 464//725
f 125//726 463//726 462//726
f 124//727 464//727 463//727
f 462//728 463//728 464//728
f 35//729 446//729 466//729
f 119//730 465//730 446//730
f 125//731 466//731 465//731
f 446//732 465//732 466//732
f 124//733 463//733 461//733
f 125//734 465//734 463//734
f 119//735 461//735 465//735
f 463//736 465//736 461//736
f 3//737 467//737 469//737
f 126//738 468//738 467//738
f 128//739 469//739 468//739
f 467//740 468//740 469//740
f 37//741 470//741 472//741
f 127//742 471//742 470//742
f 126//743 472//743 471//743
f 470//744 471//744 472//744
f 36//745 473//745 475//745
f 128//746 474//746 473//746
f 127//747 475//747 474//747
f 473//748 474//748 475//748
f 126//749 471//749 468//749
f 127//750 474//750 471//750
f 128//751 468//751 474//751
f 471//752 474//752 468//752
f 35//753 466//753 455//753
f 125//754 476//754 466//754
f 122//755 455//755 476//755
f 466//756 476//756 455//756
f 36//757 475//757 462//757
f 127//758 477//758 475//758
f 125//759 462//759 477//759
f 475//760 477//760 462//760
f 37//761 459//761 470//761
f 122//762 478//762 459//762
f 127//763 470//763 478//763
f 459//764 478//764 470//764
f 125//765 477//765 476//765
f 127//766 478//766 477//766
f 122//767 476//767 478//767
f 477//768 478//768 476//768
f 4//769 454//769 480//769
f 123//770 479//770 454//770
f 130//771 480//771 479//771
f 454//772 479//772 480//772
f 37//773 481//773 457//773
f 129//774 482//774 481//774
f 123//775 457//775 482//775
f 481//776 482//776 457//776
f 39//777 483//777 485//777
f 130//778 484//778 483//778
f 129//779 485//779 484//779
f 483//780 484//780 485//780
f 123//781 482//781 479//781
f 129//782 484//782 482//782
f 130//783 479//783 484//783
f 482//784 484//784 479//784
f 3//785 486//785 467//785
f 131//786 487//786 486//786
f 126//787 467//787 487//787
f 486//788 487//788 467//788
f 38//789 488//789 490//789
f 132//790 489//790 488//790
f 131//791 490//791 489//791
f 488//792 489//792 490//792
f 37//793 472//793 492//793
f 126//794 491//794 472//794
f 132//795 492//795 491//795
f 472//796 491//796 492//796
f 131//797 489//797 487//797
f 132//798 491//798 489//798
f 126//799 487//799 491//799
f 489//800 491//800 487//800
f 7//801 493//801 495//801
f 133//802 494//802 493//802
f 135//803 495//803 494//803
f 493//804 494//804 495//804
f 39//805 496//805 498//805
f 134//806 497//806 496//806
f 133//807 498//807 497//807
f 496//808 497//808 498//808
f 38//809 499//809 501//809
f 135//810 500//810 499//810
f 134//811 501//811 500//811
f 499//812 500//812 501//812
f 133//813 497//813 494//813
f 134//814 500//814 497//814
f 135//815 494//815 500//815
f 497//816 500//816 494//816
f 37//817 492//817 481//817
f 132//818 502//818 492//818
f 129//819 481//819 502//819
f 492//820 502//820 481//820
f 38//821 501//821 488//821
f 134//822 503//822 501//822
f 132//823 488//823 503//823
f 501//824 503//824 488//824
f 39//825 485//825 496//825
f 129//826 504//826 485//826
f 134//827 496//827 504//827
f 485//828 504//828 496//828
f 132//829 503//829 502//829
f 134//830 504//830 503//830
f 129//831 502//831 504//831
f 503//832 504//832 502//832
f 4//833 480//833 506//833
f 130//834 505//834 480//834
f 137//835 506//835 505//835
f 480//836 505//836 506//836
f 39//837 507//837 483//837
f 136//838 508//838 507//838
f 130//839 483//839 508//839
f 507//840 508//840 483//840
f 41//841 509//841 511//841
f 137//842 510//842 509//842
f 136//843 511//843 510//843
f 509//844 510//844 511//844
f 130//845 508//845 505//845
f 136//846 510//846 508//846
f 137//847 505//847 510//847
f 508//848 510//848 505//848
f 7//849 512//849 493//849
f 138//850 513//850 512//850
f 133//851 493//851 513//851
f 512//852 513//852 493//852
f 40//853 514//853 516//853
f 139//854 515//854 514//854
f 138//855 516//855 515//855
f 514//856 515//856 516//856
f 39//857 498//857 518//857
f 133//858 517//858 498//858
f 139//859 518//859 517//859
f 498//860 517//860 518//860
f 138//861 515//861 513//861
f 139//862 517//862 515//862
f 133//863 513//863 517//863
f 515//864 517//864 513//864
f 9//865 519//865 521//865
f 140//866 520//866 519//866
f 142//867 521//867 520//867
f 519//868 520//868 521//868
f 41//869 522//869 524//869
f 141//870 523//870 522//870
f 140//871 524//871 523//871
f 522//872 523//872 524//872
f 40//873 525//873 527//873
f 142//874 526//874 525//874
f 141//875 527//875 526//875
f 525//876 526//876 527//876
f 140//877 523//877 520//877
f 141//878 526//878 523//878
f 142//879 520//879 526//879
f 523//880 526//880 520//880
f 39//881 518//881 507//881
f 139//882 528//882 518//882
f 136//883 507//883 528//883
f 518//884 528//884 507//884
f 40//885 527//885 514//885
f 141//886 529//886 527//886
f 139//887 514//887 529//887
f 527//888 529//888 514//888
f 41//889 511//889 522//889
f 136//890 530//890 511//890
f 141//891 522//891 530//891
f 511//892 530//892 522//892
f 139//893 529//893 528//893
f 141//894 530//894 529//894
f 136//895 528//895 530//895
f 529//896 530//896 528//896
f 4//897 506//897 423//897
f 137//898 531//898 506//898
f 113//899 423//899 531//899
f 506//900 531//900 423//900
f 41//901 532//901 509//901
f 143//902 533//902 532//902
f 137//903 509//903 533//903
f 532//904 533//904 509//904
f 33//905 428//905 535//905
f 113//906 534//906 428//906
f 143//907 535//907 534//907
f 428//908 534//908 535//908
f 137//909 533//909 531//909
f 143//910 534//910 533//910
f 113//911 531//911 534//911
f 533//912 534//912 531//912
f 9//913 536//913 519//913
f 144//914 537//914 536//914
f 140//915 519//915 537//915
f 536//916 537//916 519//916
f 42//917 538//917 540//917
f 145//918 539//918 538//918
f 144//919 540//919 539//919
f 538//920 539//920 540//920
f 41//921 524//921 542//921
f 140//922 541//922 524//922
f 145//923 542//923 541//923
f 524//924 541//924 542//924
f 144//925 539//925 537//925
f 145//926 541//926 539//926
f 140//927 537//927 541//927
f 539//928 541//928 537//928
f 10//929 434//929 544//929
f 118//930 543//930 434//930
f 147//931 544//931 543//931
f 434//932 543//932 544//932
f 33//933 545//933 438//933
f 146//934 546//934 545//934
f 118//935 438//935 546//935
f 545//936 546//936 438//936
f 42//937 547//937 549//937
f 147//938 548//938 547//938
f 146//939 549//939 548//939
f 547//940 548//940 549//940
f 118//941 546//941 543//941
f 146//942 548//942 546//942
f 147//943 543//943 548//943
f 546//944 548//944 543//944
f 41//945 542//945 532//945
f 145//946 550//946 542//946
f 143//947 532//947 550//947
f 542//948 550//948 532//948
f 42//949 549//949 538//949
f 146//950 551//950 549//950
f 145//951 538//951 551//951
f 549//952 551//952 538//952
f 33//953 535//953 545//953
f 143//954 552//954 535//954
f 146//955 545//955 552//955
f 535//956 552//956 545//956
f 145//957 551//957 550//957
f 146//958 552//958 551//958
f 143//959 550//959 552//959
f 551//960 552//960 550//960
f 5//961 443//961 333//961
f 121//962 553//962 443//962
f 89//963 333//963 553//963
f 443//964 553//964 333//964
f 34//965 554//965 447//965
f 148//966 555//966 554//966
f 121//967 447//967 555//967
f 554//968 555//968 447//968
f 26//969 338//969 557//969
f 89//970 556//970 338//970
f 148//971 557//971 556//971
f 338//972 556//972 557//972
f 121//973 555//973 553//973
f 148//974 556//974 555//974
f 89//975 553//975 556//975
f 555//976 556//976 553//976
f 10//977 309//977 432//977
f 84//978 558//978 309//978
f 116//979 432//979 558//979
f 309//980 558//980 432//980
f 23//981 559//981 313//981
f 149//982 560//982 559//982
f 84//983 313//983 560//983
f 559//984 560//984 313//984
f 34//985 437//985 562//985
f 116//986 561//986 437//986
f 149//987 562//987 561//987
f 437//988 561//988 562//988
f 84//989 560//989 558//989
f 149//990 561//990 560//990
f 116//991 558//991 561//991
f 560//992 561//992 558//992
f 6//993 320//993 300//993
f 86//994 563//994 320//994
f 80//995 300//995 563//995
f 320//996 563//996 300//996
f 26//997 564//997 323//997
f 150//998 565//998 564//998
f 86//999 323//999 565//999
f 564//1000 565//1000 323//1000
f 23//1001 304//1001 567//1001
f 80//1002 566//1002 304//1002
f 150//1003 567//1003 566//1003
f 304//1004 566//1004 567//1004
f 86//1005 565//1005 563//1005
f 150//1006 566//1006 565//1006
f 80//1007 563//1007 566//1007
f 565//1008 566//1008 563//1008
f 34//1009 562//1009 554//1009
f 149//1010 568//1010 562//1010
f 148//1011 554//1011 568//1011
f 562//1012 568//1012 554//1012
f 23//1013 567//1013 559//1013
f 150//1014 569//1014 567//1014
f 149//1015 559//1015 569//1015
f 567//1016 569//1016 559//1016
f 26//1017 557//1017 564//1017
f 148//1018 570//1018 557//1018
f 150//1019 564//1019 570//1019
f 557//1020 570//1020 564//1020
f 149//1021 569//1021 568//1021
f 150//1022 570//1022 569//1022
f 148//1023 568//1023 570//1023
f 569//1024 570//1024 568//1024
f 3//1025 469//1025 359//1025
f 128//1026 571//1026 469//1026
f 96//1027 359//1027 571//1027
f 469//1028 571//1028 359//1028
f 36//1029 572//1029 473//1029
f 151//1030 573//1030 572//1030
f 128//1031 473//1031 573//1031
f 572//1032 573//1032 473//1032
f 28//1033 364//1033 575//1033
f 96//1034 574//1034 364//1034
f 151//1035 575//1035 574//1035
f 364//1036 574//1036 575//1036
f 128//1037 573//1037 571//1037
f 151//1038 574//1038 573//1038
f 96//1039 571//1039 574//1039
f 573//1040 574//1040 571//1040
f 5//1041 335//1041 460//1041
f 91//1042 576//1042 335//1042
f 124//1043 460//1043 576//1043
f 335//1044 576//1044 460//1044
f 25//1045 577//1045 339//1045
f 152//1046 578//1046 577//1046
f 91//1047 339//1047 578//1047
f 577//1048 578//1048 339//1048
f 36//1049 464//1049 580//1049
f 124//1050 579//1050 464//1050
f 152//1051 580//1051 579//1051
f 464//1052 579//1052 580//1052
f 91//1053 578//1053 576//1053
f 152//1054 579//1054 578//1054
f 124//1055 576//1055 579//1055
f 578//1056 579//1056 576//1056
f 12//1057 346//1057 326//1057
f 93//1058 581//1058 346//1058
f 87//1059 326//1059 581//1059
f 346//1060 581//1060 326//1060
f 28//1061 582//1061 349//1061
f 153//1062 583//1062 582//1062
f 93//1063 349//1063 583//1063
f 582//1064 583//1064 349//1064
f 25//1065 330//1065 585//1065
f 87//1066 584//1066 330//1066
f 153//1067 585//1067 584//1067
f 330//1068 584//1068 585//1068
f 93//1069 583//1069 581//1069
f 153//1070 584//1070 583//1070
f 87//1071 581//1071 584//1071
f 583//1072 584//1072 581//1072
f 36//1073 580//1073 572//1073
f 152//1074 586//1074 580//1074
f 151//1075 572//1075 586//1075
f 580//1076 586//1076 572//1076
f 25//1077 585//1077 577//1077
f 153//1078 587//1078 585//1078
f 152//1079 577//1079 587//1079
f 585//1080 587//1080 577//1080
f 28//1081 575//1081 582//1081
f 151//1082 588//1082 575//1082
f 153//1083 582//1083 588//1083
f 575//1084 588//1084 582//1084
f 152//1085 587//1085 586//1085
f 153//1086 588//1086 587//1086
f 151//1087 586//1087 588//1087
f 587//1088 588//1088 586//1088
f 7//1089 495//1089 385//1089
f 135//1090 589//1090 495//1090
f 103//1091 385//1091 589//1091
f 495//1092 589//1092 385//1092
f 38//1093 590//1093 499//1093
f 154//1094 591//1094 590//1094
f 135//1095 499//1095 591//1095
f 590//1096 591//1096 499//1096
f 30//1097 390//1097 593//1097
f 103//1098 592//1098 390//1098
f 154//1099 593//1099 592//1099
f 390//1100 592//1100 593//1100
f 135//1101 591//1101 589//1101
f 154//1102 592//1102 591//1102
f 103//1103 589//1103 592//1103
f 591//1104 592//1104 589//1104
f 3//1105 361//1105 486//1105
f 98//1106 594//1106 361//1106
f 131//1107 486//1107 594//1107
f 361//1108 594//1108 486//1108
f 27//1109 595//1109 365//1109
f 155//1110 596//1110 595//1110
f 98//1111 365//1111 596//1111
f 595//1112 596//1112 365//1112
f 38//1113 490//1113 598//1113
f 131//1114 597//1114 490//1114
f 155//1115 598//1115 597//1115
f 490//1116 597//1116 598//1116
f 98//1117 596//1117 594//1117
f 155//1118 597//1118 596//1118
f 131//1119 594//1119 597//1119
f 596//1120 597//1120 594//1120
f 11//1121 372//1121 352//1121
f 100//1122 599//1122 372//1122
f 94//1123 352//1123 599//1123
f 372//1124 599//1124 352//1124
f 30//1125 600//1125 375//1125
f 156//1126 601//1126 600//1126
f 100//1127 375//1127 601//1127
f 600//1128 601//1128 375//1128
f 27//1129 356//1129 603//1129
f 94//1130 602//1130 356//1130
f 156//1131 603//1131 602//1131
f 356//1132 602//1132 603//1132
f 100//1133 601//1133 599//1133
f 156//1134 602//1134 601//1134
f 94//1135 599//1135 602//1135
f 601//1136 602//1136 599//1136
f 38//1137 598//1137 590//1137
f 155//1138 604//1138 598//1138
f 154//1139 590//1139 604//1139
f 598//1140 604//1140 590//1140
f 27//1141 603//1141 595//1141
f 156//1142 605//1142 603//1142
f 155//1143 595//1143 605//1143
f 603//1144 605//1144 595//1144
f 30//1145 593//1145 600//1145
f 154//1146 606//1146 593//1146
f 156//1147 600//1147 606//1147
f 593//1148 606//1148 600//1148
f 155//1149 605//1149 604//1149
f 156//1150 606//1150 605//1150
f 154//1151 604//1151 606//1151
f 605//1152 606//1152 604//1152
f 9//1153 521//1153 411//1153
f 142//1154 607//1154 521//1154
f 110//1155 411//1155 607//1155
f 521//1156 607//1156 411//1156
f 40//1157 608//1157 525//1157
f 157//1158 609//1158 608//1158
f 142//1159 525//1159 609//1159
f 608//1160 609//1160 525//1160
f 32//1161 416//1161 611//1161
f 110//1162 610//1162 416//1162
f 157//1163 611//1163 610//1163
f 416//1164 610//1164 611//1164
f 142//1165 609//1165 607//1165
f 157//1166 610//1166 609//1166
f 110//1167 607//1167 610//1167
f 609//1168 610//1168 607//1168
f 7//1169 387//1169 512//1169
f 105//1170 612//1170 387//1170
f 138//1171 512//1171 612//1171
f 387//1172 612//1172 512//1172
f 29//1173 613//1173 391//1173
f 158//1174 614//1174 613//1174
f 105//1175 391//1175 614//1175
f 613//1176 614//1176 391//1176
f 40//1177 516//1177 616//1177
f 138//1178 615//1178 516//1178
f 158//1179 616//1179 615//1179
f 516//1180 615//1180 616//1180
f 105//1181 614//1181 612//1181
f 158//1182 615//1182 614//1182
f 138//1183 612//1183 615//1183
f 614//1184 615//1184 612//1184
f 8//1185 398//1185 378//1185
f 107//1186 617//1186 398//1186
f 101//1187 378//1187 617//1187
f 398//1188 617//1188 378//1188
f 32//1189 618//1189 401//1189
f 159//1190 619//1190 618//1190
f 107//1191 401//1191 619//1191
f 618//1192 619//1192 401//1192
f 29//1193 382//1193 621//1193
f 101//1194 620//1194 382//1194
f 159//1195 621//1195 620//1195
f 382//1196 620//1196 621//1196
f 107//1197 619//1197 617//1197
f 159//1198 620//1198 619//1198
f 101//1199 617//1199 620//1199
f 619//1200 620//1200 617//1200
f 40//1201 616//1201 608//1201
f 158//1202 622//1202 616//1202
f 157//1203 608//1203 622//1203
f 616//1204 622//1204 608//1204
f 29//1205 621//1205 613//1205
f 159//1206 623//1206 621//1206
f 158//1207 613//1207 623//1207
f 621//1208 623//1208 613//1208
f 32//1209 611//1209 618//1209
f 157//1210 624//1210 611//1210
f 159//1211 618//1211 624//1211
f 611//1212 624//1212 618//1212
f 158//1213 623//1213 622//1213
f 159//1214 624//1214 623//1214
f 157//1215 622//1215 624//1215
f 623//1216 624//1216 622//1216
f 10//1217 544//1217 307//1217
f 147//1218 625//1218 544//1218
f 82//1219 307//1219 625//1219
f 544//1220 625//1220 307//1220
f 42//1221 626//1221 547//1221
f 160//1222 627//1222 626//1222
f 147//1223 547//1223 627//1223
f 626//1224 627//1224 547//1224
f 24//1225 312//1225 629//1225
f 82//1226 628//1226 312//1226
f 160//1227 629//1227 628//1227
f 312//1228 628//1228 629//1228
f 147//1229 627//1229 625//1229
f 160//1230 628//1230 627//1230
f 82//1231 625//1231 628//1231
f 627//1232 628//1232 625//1232
f 9//1233 413//1233 536//1233
f 112//1234 630//1234 413//1234
f 144//1235 536//1235 630//1235
f 413//1236 630//1236 536//1236
f 31//1237 631//1237 417//1237
f 161//1238 632//1238 631//1238
f 112//1239 417//1239 632//1239
f 631//1240 632//1240 417//1240
f 42//1241 540//1241 634//1241
f 144//1242 633//1242 540//1242
f 161//1243 634//1243 633//1243
f 540//1244 633//1244 634//1244
f 112//1245 632//1245 630//1245
f 161//1246 633//1246 632//1246
f 144//1247 630//1247 633//1247
f 632//1248 633//1248 630//1248
f 2//1249 294//1249 404//1249
f 79//1250 635//1250 294//1250
f 108//1251 404//1251 635//1251
f 294//1252 635//1252 404//1252
f 24//1253 636//1253 297//1253
f 162//1254 637//1254 636//1254
f 79//1255 297//1255 637//1255
f 636//1256 637//1256 297//1256
f 31//1257 408//1257 639//1257
f 108//1258 638//1258 408//1258
f 162//1259 639//1259 638//1259
f 408//1260 638//1260 639//1260
f 79//1261 637//1261 635//1261
f 162//1262 638//1262 637//1262
f 108//1263 635//1263 638//1263
f 637//1264 638//1264 635//1264
f 42//1265 634//1265 626//1265
f 161//1266 640//1266 634//1266
f 160//1267 626//1267 640//1267
f 634//1268 640//1268 626//1268
f 31//1269 639//1269 631//1269
f 162//1270 641//1270 639//1270
f 161//1271 631//1271 641//1271
f 639//1272 641//1272 631//1272
f 24//1273 629//1273 636//1273
f 160//1274 642//1274 629//1274
f 162//1275 636//1275 642//1275
f 629//1276 642//1276 636//1276
f 161//1277 641//1277 640//1277
f 162//1278 642//1278 641//1278
f 160//1279 640//1279 642//1279
f 641//1280 642//1280 640//1280
