# Fractured Arcana procedural boulder
o Boulder_Slab
v -0.241776 0.207866 0.002539
v 0.253886 0.218681 0.002539
v -0.266338 -0.108921 0.002539
v 0.284269 -0.107162 0.002539
v -0.001541 -0.064861 0.301713
v -0.001541 0.152761 0.343583
v -0.001541 -0.067615 -0.304736
v -0.001541 0.144074 -0.312950
v 0.401013 0.036834 -0.196495
v 0.427803 0.036834 0.214818
v -0.404685 0.036834 -0.196787
v -0.449298 0.036834 0.223922
v -0.366188 0.135994 0.113965
v -0.244690 0.102955 0.317277
v -0.152552 0.210789 0.198012
v 0.143150 0.203508 0.189829
v -0.001541 0.240941 0.002539
v 0.136174 0.195472 -0.175723
v -0.142526 0.199240 -0.179957
v -0.274185 0.110975 -0.350380
v -0.374452 0.138241 -0.111413
v -0.431303 0.036834 0.002539
v 0.235079 0.101179 0.308826
v 0.373194 0.138737 0.117047
v -0.239411 -0.027852 0.310445
v -0.001541 0.036834 0.397641
v -0.386558 -0.067866 -0.115112
v -0.352819 -0.058691 0.109880
v -0.001541 0.036834 -0.425303
v -0.255764 -0.032298 -0.326535
v 0.384544 0.141824 -0.115438
v 0.232730 0.100540 -0.300708
v 0.363645 -0.062473 0.114129
v 0.229894 -0.026101 0.302114
v 0.122971 -0.097575 0.163710
v -0.142778 -0.105483 0.185360
v -0.001541 -0.101016 0.002539
v -0.163541 -0.108948 -0.207159
v 0.152947 -0.108506 -0.197434
v 0.250396 -0.031677 -0.323575
v 0.385792 -0.068495 -0.115820
v 0.489052 0.036834 0.002539
v -0.313404 0.175689 0.060300
v -0.283098 0.181881 0.165528
v -0.201117 0.211427 0.098173
v -0.357443 0.072662 0.283908
v -0.344023 0.129967 0.236551
v -0.427552 0.093304 0.173952
v -0.074447 0.175393 0.257465
v -0.188757 0.150674 0.244877
v -0.118043 0.122414 0.311906
v -0.075372 0.227009 0.098108
v -0.136684 0.246152 0.002539
v 0.080776 0.193277 0.290370
v -0.001541 0.227195 0.216447
v 0.130547 0.241419 0.002539
v 0.081727 0.251316 0.110323
v 0.211614 0.223306 0.104679
v -0.079890 0.238646 -0.098879
v -0.220520 0.228401 -0.102393
v 0.206285 0.218643 -0.097048
v 0.073083 0.229049 -0.094056
v -0.072182 0.171088 -0.244468
v -0.001541 0.204486 -0.185852
v 0.067187 0.167451 -0.237777
v -0.269583 0.174919 -0.152627
v -0.324053 0.180430 -0.057195
v -0.131968 0.132643 -0.343807
v -0.200749 0.157966 -0.255323
v -0.400047 0.089659 -0.157808
v -0.330355 0.126250 -0.222135
v -0.361175 0.073038 -0.281782
v -0.384578 0.140995 0.002539
v -0.451042 0.036834 -0.099617
v -0.436734 0.089759 -0.056933
v -0.451907 0.091604 0.064084
v -0.478691 0.036834 0.110977
v 0.272580 0.178050 0.161223
v 0.329873 0.184393 0.063921
v 0.134247 0.136580 0.363118
v 0.202940 0.161171 0.267223
v 0.409606 0.091334 0.167971
v 0.322879 0.125055 0.224208
v 0.335915 0.070805 0.269324
v -0.127642 0.071125 0.367530
v -0.001541 0.096417 0.383888
v -0.356395 0.001111 0.283080
v -0.251284 0.036834 0.325813
v -0.001541 -0.025106 0.398970
v -0.127519 0.002576 0.367173
v -0.126700 -0.055106 0.334895
v -0.459843 -0.018902 0.065168
v -0.395375 -0.015372 0.161005
v -0.398564 -0.015794 -0.157211
v -0.438141 -0.016262 -0.057126
v -0.333766 -0.099826 0.064071
v -0.424234 -0.077519 0.002539
v -0.349700 -0.102877 -0.061945
v -0.277933 0.036834 -0.355231
v -0.354007 0.001352 -0.276114
v -0.001541 0.096621 -0.380117
v -0.140176 0.074534 -0.398731
v -0.123001 -0.052388 -0.319995
v -0.145328 -0.002267 -0.413643
v -0.001541 -0.024462 -0.389771
v 0.189263 0.152855 -0.244443
v 0.124025 0.129072 -0.330897
v 0.338497 0.188233 -0.060441
v 0.246971 0.164857 -0.141321
v 0.348360 0.072058 -0.274086
v 0.322054 0.124830 -0.218567
v 0.448056 0.096431 -0.178365
v 0.319629 -0.097346 0.062024
v 0.253978 -0.090480 0.150454
v 0.204724 -0.108727 0.101378
v 0.331531 0.003304 0.265858
v 0.317277 -0.049864 0.220381
v 0.386666 -0.014626 0.158741
v 0.065943 -0.088132 0.238506
v 0.186240 -0.076845 0.245607
v 0.119701 -0.052228 0.324493
v 0.079207 -0.106091 0.107060
v 0.141750 -0.101196 0.002539
v -0.076138 -0.096682 0.263379
v -0.001541 -0.106787 0.190969
v -0.144000 -0.101749 0.002539
v -0.078089 -0.108239 0.101624
v -0.212777 -0.108931 0.103760
v 0.082911 -0.103001 -0.106778
v 0.225582 -0.108024 -0.106296
v -0.236790 -0.106642 -0.110190
v -0.094049 -0.092415 -0.117207
v 0.073271 -0.096904 -0.259051
v -0.001541 -0.108942 -0.205841
v -0.070404 -0.089965 -0.238251
v 0.271105 -0.095948 -0.155292
v 0.372758 -0.106542 -0.066787
v 0.114960 -0.048745 -0.306824
v 0.191423 -0.079585 -0.247239
v 0.444160 -0.022247 -0.176798
v 0.331051 -0.053609 -0.224715
v 0.345918 0.001856 -0.272156
v 0.397334 -0.071566 0.002539
v 0.458901 0.036834 -0.102103
v 0.455777 -0.018782 -0.059957
v 0.456685 -0.018892 0.065158
v 0.506173 0.036834 0.117923
v 0.135912 -0.000544 0.400385
v 0.248683 0.036834 0.326435
v 0.136989 0.074505 0.403504
v -0.269682 -0.094602 0.157762
v -0.184545 -0.074212 0.239424
v -0.309954 -0.047035 0.213272
v -0.204461 -0.084505 -0.260127
v -0.295836 -0.101490 -0.167825
v -0.324284 -0.050931 -0.217986
v 0.260902 0.036834 -0.337175
v 0.139376 -0.001486 -0.405333
v 0.137602 0.074672 -0.400200
v 0.465482 0.093630 0.066360
v 0.505989 0.098556 -0.066819
v 0.380820 0.140811 0.002539
v -0.279776 0.192705 0.031856
v -0.268510 0.199827 0.082182
v -0.235743 0.220819 0.053281
v -0.305976 0.150780 0.130579
v -0.289886 0.174464 0.108006
v -0.345736 0.157971 0.088590
v -0.171354 0.204963 0.141495
v -0.236745 0.193928 0.128736
v -0.210379 0.190242 0.174923
v -0.425509 0.056131 0.268932
v -0.424336 0.086829 0.246301
v -0.449253 0.066716 0.203147
v -0.301899 0.118512 0.285013
v -0.356935 0.102741 0.264630
v -0.299155 0.087996 0.300200
v -0.393724 0.115274 0.141969
v -0.396591 0.113634 0.210739
v -0.366019 0.135948 0.177191
v -0.041197 0.169312 0.309216
v -0.101039 0.154235 0.298723
v -0.063264 0.137112 0.328061
v -0.173178 0.180482 0.224711
v -0.128552 0.159064 0.243620
v -0.112960 0.193707 0.230682
v -0.177555 0.112549 0.312310
v -0.150965 0.134864 0.273094
v -0.221082 0.130454 0.286719
v -0.312741 0.156328 0.200210
v -0.279592 0.148145 0.257433
v -0.250982 0.175065 0.221868
v -0.163191 0.220355 0.050066
v -0.193708 0.228650 0.002539
v -0.113750 0.221146 0.147786
v -0.134627 0.214932 0.095869
v -0.067414 0.244929 0.002539
v -0.098379 0.223902 0.049275
v -0.038789 0.233659 0.050754
v 0.041040 0.179082 0.331833
v -0.001541 0.189274 0.283004
v 0.077534 0.223698 0.212517
v 0.038537 0.206391 0.247617
v 0.112684 0.197657 0.236427
v -0.040747 0.202707 0.242291
v -0.079174 0.220292 0.208690
v 0.195111 0.233126 0.002539
v 0.173297 0.235325 0.053943
v 0.232557 0.220736 0.053259
v 0.039251 0.252383 0.055340
v 0.110988 0.254212 0.056848
v 0.062998 0.240712 0.002539
v 0.182892 0.219438 0.153458
v 0.154615 0.245803 0.112047
v 0.122240 0.240152 0.162764
v -0.040388 0.226398 0.153395
v 0.039930 0.239196 0.163580
v -0.001541 0.243414 0.106352
v -0.176805 0.235810 -0.048992
v -0.241094 0.225023 -0.049364
v -0.041503 0.248000 -0.049189
v -0.105654 0.237956 -0.047709
v -0.180479 0.213998 -0.143885
v -0.148499 0.233494 -0.100520
v -0.109575 0.214287 -0.137304
v 0.231466 0.219880 -0.047945
v 0.176511 0.238974 -0.049811
v 0.107177 0.215409 -0.138188
v 0.134806 0.219294 -0.093078
v 0.170279 0.206951 -0.138060
v 0.104187 0.241073 -0.048488
v 0.038383 0.247797 -0.049140
v -0.039016 0.162025 -0.287271
v -0.001541 0.179568 -0.260070
v 0.033852 0.155070 -0.271171
v -0.071441 0.202020 -0.183081
v -0.038170 0.191802 -0.221452
v -0.109964 0.189489 -0.219470
v 0.101865 0.182424 -0.209195
v 0.034784 0.190515 -0.219592
v 0.067085 0.199006 -0.179694
v -0.001541 0.236906 -0.098004
v 0.036398 0.221962 -0.144788
v -0.039999 0.224500 -0.146808
v -0.293213 0.214908 -0.084474
v -0.295131 0.201307 -0.028397
v -0.205147 0.186399 -0.165527
v -0.251566 0.203826 -0.131611
v -0.335821 0.154482 -0.081034
v -0.299175 0.178898 -0.106327
v -0.305635 0.150652 -0.125359
v -0.063385 0.137310 -0.323627
v -0.101075 0.154276 -0.293751
v -0.238206 0.137757 -0.303807
v -0.166297 0.144922 -0.295778
v -0.204192 0.124007 -0.354111
v -0.136676 0.166882 -0.253962
v -0.174171 0.181314 -0.220919
v -0.395066 0.063099 -0.173791
v -0.383847 0.082041 -0.217880
v -0.403150 0.055114 -0.249805
v -0.354894 0.132923 -0.166784
v -0.378613 0.110139 -0.196187
v -0.386112 0.113752 -0.134186
v -0.324483 0.092350 -0.320456
v -0.362728 0.103815 -0.263824
v -0.327099 0.125365 -0.303635
v -0.239993 0.168976 -0.207130
v -0.280439 0.148484 -0.253133
v -0.297944 0.150646 -0.185734
v -0.326764 0.181637 0.002539
v -0.391074 0.142762 -0.055484
v -0.370978 0.166058 -0.028199
v -0.364586 0.163822 0.032744
v -0.375567 0.138545 0.058251
v -0.432518 0.036834 -0.149443
v -0.439625 0.064290 -0.133291
v -0.442758 0.062990 -0.026853
v -0.457437 0.064398 -0.080534
v -0.441196 0.036834 -0.046451
v -0.432495 0.091487 -0.110819
v -0.404956 0.113769 -0.083913
v -0.467707 0.066050 0.147075
v -0.487152 0.036834 0.173786
v -0.393547 0.111593 0.086545
v -0.428161 0.090937 0.114756
v -0.450343 0.036834 0.052547
v -0.461126 0.064621 0.086283
v -0.449841 0.063410 0.032402
v -0.438460 0.120978 -0.028979
v -0.449305 0.091288 0.002539
v -0.411697 0.115824 0.032126
v 0.278125 0.207578 0.085970
v 0.300092 0.205812 0.034321
v 0.216836 0.197248 0.182796
v 0.237325 0.196373 0.130701
v 0.344043 0.158460 0.088937
v 0.299324 0.180440 0.112586
v 0.326845 0.159744 0.140652
v 0.069484 0.152223 0.377117
v 0.111567 0.170292 0.339234
v 0.209212 0.126707 0.275343
v 0.174644 0.152420 0.321547
v 0.182570 0.116032 0.326559
v 0.145882 0.178707 0.282362
v 0.177499 0.186677 0.234292
v 0.434814 0.065958 0.198058
v 0.389149 0.083033 0.227791
v 0.389044 0.054612 0.247955
v 0.360934 0.135403 0.176232
v 0.366191 0.108323 0.196342
v 0.422434 0.121633 0.153272
v 0.287877 0.086587 0.292003
v 0.334689 0.099187 0.250497
v 0.285487 0.114887 0.272476
v 0.256382 0.179765 0.229326
v 0.268182 0.144810 0.249798
v 0.302926 0.153743 0.195933
v -0.061680 0.108834 0.340313
v -0.001541 0.126230 0.371268
v -0.179307 0.085175 0.330650
v -0.121125 0.096858 0.334459
v -0.001541 0.066301 0.387196
v -0.066538 0.084239 0.380951
v -0.064218 0.053878 0.374706
v -0.402803 0.018570 0.254665
v -0.374680 0.036834 0.297535
v -0.239523 0.005288 0.310589
v -0.307668 0.019212 0.310603
v -0.283529 -0.011642 0.284572
v -0.316624 0.054971 0.319615
v -0.251672 0.069990 0.326315
v -0.001541 -0.045481 0.342063
v -0.064809 -0.038912 0.357885
v -0.064455 -0.065380 0.334345
v -0.065152 0.019536 0.380253
v -0.068198 -0.011782 0.390615
v -0.001541 0.006237 0.401940
v -0.189846 -0.044168 0.333940
v -0.129372 -0.027330 0.357350
v -0.182835 -0.012466 0.337163
v -0.183983 0.053371 0.336000
v -0.188846 0.019856 0.344887
v -0.134222 0.036834 0.386574
v -0.460480 0.008071 0.144834
v -0.435694 0.007857 0.197072
v -0.458811 0.009726 0.032999
v -0.475458 0.008180 0.088895
v -0.368013 -0.036464 0.132828
v -0.439797 -0.018745 0.117817
v -0.427830 -0.044463 0.093892
v -0.402984 0.010040 -0.177338
v -0.411181 0.011161 -0.124471
v -0.427851 -0.044467 -0.088819
v -0.428099 -0.017262 -0.109663
v -0.369719 -0.036805 -0.128358
v -0.425668 0.011191 -0.074745
v -0.447697 0.010385 -0.027182
v -0.304584 -0.107240 0.034470
v -0.349023 -0.102760 0.002539
v -0.315655 -0.108275 -0.030559
v -0.404130 -0.072528 0.062506
v -0.374597 -0.089701 0.033577
v -0.338690 -0.080698 0.086829
v -0.364769 -0.087831 -0.088271
v -0.395044 -0.094308 -0.030201
v -0.416554 -0.075656 -0.059279
v -0.467481 -0.019831 0.002539
v -0.441536 -0.047903 -0.029201
v -0.459102 -0.051286 0.035545
v -0.366804 0.036834 -0.286232
v -0.383499 0.019448 -0.237458
v -0.291133 0.075221 -0.372317
v -0.321943 0.055277 -0.319891
v -0.308098 -0.015866 -0.304067
v -0.316401 0.018710 -0.314314
v -0.262167 0.002286 -0.334824
v -0.001541 0.124325 -0.358334
v -0.068290 0.116748 -0.372360
v -0.073217 0.056325 -0.423063
v -0.070074 0.086818 -0.396458
v -0.001541 0.067953 -0.403684
v -0.141487 0.107079 -0.385900
v -0.207526 0.092848 -0.377658
v -0.060639 -0.059180 -0.309141
v -0.068379 -0.043187 -0.372862
v -0.001541 -0.049049 -0.351703
v -0.209766 -0.019790 -0.381793
v -0.135500 -0.030406 -0.369282
v -0.193099 -0.045568 -0.334589
v -0.001541 0.005329 -0.408712
v -0.068767 -0.012197 -0.388849
v -0.072691 0.017486 -0.419938
v -0.232191 0.057741 -0.419035
v -0.157483 0.036834 -0.448825
v -0.234446 0.015722 -0.423156
v 0.092500 0.147795 -0.277399
v 0.059233 0.135569 -0.317977
v 0.156052 0.168727 -0.201453
v 0.120474 0.154255 -0.229058
v 0.179866 0.114868 -0.316722
v 0.152251 0.137729 -0.275923
v 0.218177 0.130530 -0.281870
v 0.289080 0.199643 -0.028084
v 0.268307 0.201583 -0.077963
v 0.327742 0.160080 -0.135953
v 0.296005 0.178855 -0.106295
v 0.359136 0.163772 -0.087633
v 0.234407 0.194424 -0.124058
v 0.193948 0.180436 -0.158827
v 0.391980 0.054746 -0.244723
v 0.396280 0.083876 -0.226825
v 0.423260 0.065186 -0.187804
v 0.287588 0.115458 -0.269374
v 0.353752 0.102722 -0.259478
v 0.307098 0.089891 -0.306150
v 0.446008 0.126348 -0.156576
v 0.386711 0.112312 -0.202079
v 0.365141 0.136547 -0.173171
v 0.220112 0.159666 -0.192358
v 0.293995 0.150313 -0.185183
v 0.270181 0.145611 -0.246554
v 0.311932 -0.108228 0.035569
v 0.268831 -0.106141 0.083197
v 0.251964 -0.107954 0.057463
v 0.332176 -0.085667 0.142895
v 0.296106 -0.096844 0.111409
v 0.341152 -0.082301 0.088214
v 0.162535 -0.105410 0.136800
v 0.219707 -0.099756 0.121248
v 0.185367 -0.094101 0.156820
v 0.388649 0.019074 0.247707
v 0.362649 -0.006231 0.212512
v 0.412950 0.009169 0.188262
v 0.281921 -0.040249 0.269121
v 0.335632 -0.025694 0.251192
v 0.290440 -0.013360 0.294565
v 0.397150 -0.042908 0.144283
v 0.357970 -0.033057 0.192009
v 0.328285 -0.052857 0.160586
v 0.032580 -0.076669 0.266406
v 0.092302 -0.073701 0.281886
v 0.058478 -0.060675 0.319074
v 0.149860 -0.087013 0.198516
v 0.127461 -0.085088 0.247397
v 0.092879 -0.091349 0.195872
v 0.184026 -0.042990 0.329121
v 0.158313 -0.068038 0.291978
v 0.208753 -0.052843 0.274749
v 0.276868 -0.070050 0.179381
v 0.257357 -0.066809 0.239875
v 0.219646 -0.083869 0.197025
v 0.190140 -0.102970 0.058895
v 0.215895 -0.103188 0.002539
v 0.105271 -0.108205 0.140799
v 0.143398 -0.108600 0.104181
v 0.068925 -0.100904 0.002539
v 0.112364 -0.102004 0.057512
v 0.040346 -0.101456 0.056758
v -0.039915 -0.088091 0.299306
v -0.001541 -0.092892 0.251540
v -0.070814 -0.105770 0.186490
v -0.038668 -0.103647 0.229575
v -0.108453 -0.101019 0.221453
v 0.032770 -0.098471 0.212352
v 0.062121 -0.100981 0.171590
v -0.213467 -0.105072 0.002539
v -0.179172 -0.107522 0.054765
v -0.246369 -0.108734 0.055584
v -0.042300 -0.103795 0.055299
v -0.110491 -0.105396 0.055121
v -0.072859 -0.099660 0.002539
v -0.182286 -0.108604 0.150441
v -0.146185 -0.108635 0.103974
v -0.114201 -0.108936 0.148369
v 0.035762 -0.108828 0.147394
v -0.037814 -0.108401 0.143398
v -0.001541 -0.108104 0.102114
v 0.195140 -0.100594 -0.055288
v 0.265635 -0.105565 -0.055348
v 0.042786 -0.094900 -0.054839
v 0.115303 -0.099460 -0.053853
v 0.194221 -0.108612 -0.157652
v 0.152501 -0.106560 -0.105488
v 0.122398 -0.107141 -0.157891
v -0.247218 -0.108683 -0.050691
v -0.189386 -0.104523 -0.052691
v -0.125751 -0.107045 -0.158243
v -0.167275 -0.101262 -0.113687
v -0.206268 -0.107321 -0.164988
v -0.127455 -0.089106 -0.058231
v -0.047593 -0.089028 -0.057073
v 0.035306 -0.084274 -0.282411
v -0.001541 -0.095458 -0.254300
v -0.035518 -0.076241 -0.260220
v 0.076541 -0.108925 -0.204804
v 0.036272 -0.104643 -0.228691
v 0.116472 -0.106419 -0.239105
v -0.112511 -0.103342 -0.224686
v -0.040050 -0.105549 -0.232951
v -0.080682 -0.108946 -0.207619
v -0.001541 -0.094686 -0.115351
v -0.046385 -0.102495 -0.171606
v 0.041914 -0.104914 -0.166208
v 0.303727 -0.108948 -0.088530
v 0.336141 -0.108902 -0.033042
v 0.226662 -0.106774 -0.185830
v 0.263593 -0.108410 -0.139718
v 0.374052 -0.090851 -0.091363
v 0.332631 -0.104488 -0.119691
v 0.336186 -0.086789 -0.139504
v 0.059069 -0.061635 -0.317112
v 0.092289 -0.073686 -0.276771
v 0.221041 -0.058083 -0.285577
v 0.149321 -0.062139 -0.270620
v 0.187224 -0.044366 -0.329671
v 0.141415 -0.094267 -0.268806
v 0.181322 -0.102092 -0.234164
v 0.453821 0.006441 -0.201498
v 0.395372 -0.010101 -0.226301
v 0.388385 0.019086 -0.242464
v 0.353668 -0.059760 -0.167672
v 0.367619 -0.034933 -0.192017
v 0.388840 -0.041246 -0.136251
v 0.302429 -0.015421 -0.301479
v 0.343172 -0.027092 -0.251675
v 0.292057 -0.043006 -0.273577
v 0.225806 -0.086478 -0.197364
v 0.255834 -0.066200 -0.233401
v 0.297589 -0.077443 -0.187466
v 0.361559 -0.105176 0.002539
v 0.406821 -0.073999 -0.058288
v 0.385620 -0.092946 -0.029673
v 0.368710 -0.089020 0.033344
v 0.379491 -0.066782 0.059295
v 0.435707 0.036834 -0.151654
v 0.454311 0.008265 -0.138800
v 0.484777 0.008004 -0.029857
v 0.465788 0.008579 -0.082617
v 0.494678 0.036834 -0.052754
v 0.430501 -0.017957 -0.111105
v 0.413458 -0.042310 -0.086395
v 0.454407 0.008258 0.143906
v 0.478258 0.036834 0.171737
v 0.433808 -0.046191 0.095833
v 0.426753 -0.017482 0.115196
v 0.512848 0.036834 0.059855
v 0.475478 0.007993 0.089460
v 0.492929 0.007521 0.035477
v 0.445048 -0.049173 -0.029677
v 0.473408 -0.020926 0.002539
v 0.442361 -0.048655 0.034560
v 0.062768 -0.040158 0.363728
v 0.190098 -0.015279 0.356256
v 0.130114 -0.029249 0.367962
v 0.068258 -0.014073 0.408904
v 0.066364 0.018368 0.405743
v 0.340399 0.036834 0.272869
v 0.255568 0.070915 0.335347
v 0.296137 0.053969 0.302099
v 0.294181 0.019811 0.300131
v 0.246723 0.003925 0.323897
v 0.066343 0.118105 0.383806
v 0.065803 0.055147 0.402415
v 0.065262 0.085556 0.391462
v 0.132918 0.104324 0.375747
v 0.189288 0.088727 0.354760
v 0.197802 0.018764 0.366889
v 0.200660 0.055162 0.372113
v 0.135321 0.036834 0.398674
v -0.280156 -0.107308 0.085656
v -0.207213 -0.101262 0.172310
v -0.242916 -0.105037 0.132047
v -0.299873 -0.097022 0.111659
v -0.290908 -0.071410 0.124242
v -0.103568 -0.082119 0.306249
v -0.212078 -0.052947 0.275063
v -0.162514 -0.068772 0.294005
v -0.136654 -0.089381 0.258998
v -0.161407 -0.091909 0.209474
v -0.366099 -0.006275 0.212725
v -0.334129 -0.053608 0.161910
v -0.346785 -0.030284 0.184490
v -0.324464 -0.023052 0.240684
v -0.278063 -0.038362 0.262596
v -0.231940 -0.087718 0.205125
v -0.246880 -0.061382 0.227445
v -0.288842 -0.073318 0.185030
v -0.093767 -0.071902 -0.271996
v -0.186013 -0.102633 -0.236247
v -0.137019 -0.089624 -0.254615
v -0.172070 -0.074762 -0.306230
v -0.236601 -0.063404 -0.301729
v -0.301098 -0.108871 -0.086827
v -0.355161 -0.090963 -0.146189
v -0.329258 -0.103409 -0.117331
v -0.277572 -0.108922 -0.145565
v -0.251304 -0.108894 -0.203627
v -0.373204 -0.007115 -0.211743
v -0.292283 -0.042229 -0.270892
v -0.350354 -0.027853 -0.254699
v -0.344805 -0.029899 -0.178370
v -0.346196 -0.056890 -0.162615
v -0.255310 -0.096046 -0.220597
v -0.313517 -0.081636 -0.195626
v -0.265329 -0.068766 -0.239281
v 0.348947 0.036834 -0.274550
v 0.271245 0.000674 -0.350562
v 0.316873 0.018505 -0.317890
v 0.314852 0.055046 -0.315856
v 0.248428 0.069969 -0.321028
v 0.063519 -0.041057 -0.362872
v 0.069406 0.017541 -0.418732
v 0.067613 -0.013603 -0.400075
v 0.125284 -0.026825 -0.349480
v 0.197849 -0.017387 -0.365485
v 0.064925 0.116408 -0.370767
v 0.186172 0.087880 -0.343932
v 0.136123 0.105933 -0.379564
v 0.064513 0.085010 -0.382023
v 0.068705 0.055936 -0.414567
v 0.203748 0.018225 -0.372679
v 0.142310 0.036834 -0.413827
v 0.197981 0.054919 -0.362139
v 0.435505 0.064225 0.138046
v 0.486287 0.065753 0.035035
v 0.481708 0.066051 0.090595
v 0.449690 0.094058 0.121229
v 0.445258 0.122042 0.098287
v 0.453129 0.065329 -0.138433
v 0.482104 0.129069 -0.101106
v 0.484097 0.098422 -0.125203
v 0.501164 0.067228 -0.089063
v 0.512543 0.067309 -0.031707
v 0.323030 0.181346 0.002539
v 0.398750 0.145687 0.062163
v 0.346123 0.158442 0.031464
v 0.354090 0.161229 -0.027050
v 0.395834 0.144894 -0.056652
v 0.484783 0.095977 0.002539
v 0.447100 0.123235 -0.029825
v 0.450267 0.123845 0.035130
vn -0.472566 0.865743 -0.164833
vn -0.465496 0.884801 -0.021007
vn -0.242902 0.894813 0.374577
vn -0.538616 0.842550 0.001339
vn -0.328515 0.828772 0.453007
vn -0.817037 0.576161 0.022116
vn -0.338348 0.921546 0.190456
vn -0.401988 0.759935 0.510789
vn -0.340574 0.940075 0.016398
vn -0.213455 0.934145 0.286023
vn -0.132447 0.979193 0.153749
vn -0.199393 0.961218 0.190532
vn -0.560254 0.773607 0.296053
vn -0.313282 0.945849 -0.084998
vn -0.225651 0.935326 0.272482
vn -0.450060 0.794470 0.407753
vn -0.895807 0.254599 0.364292
vn -0.306358 0.572425 0.760575
vn -0.718483 0.689214 0.093629
vn -0.879539 0.303682 0.366318
vn -0.370942 0.386835 0.844252
vn -0.409288 0.741884 0.531123
vn -0.353311 0.509003 0.784912
vn -0.414573 0.375326 0.829011
vn -0.599838 0.800119 0.002189
vn -0.546529 0.837435 -0.002812
vn -0.391694 0.889636 0.234783
vn -0.593504 0.804812 -0.005548
vn -0.335888 0.512246 0.790432
vn -0.469771 0.731887 0.493617
vn -0.624341 0.775090 0.097130
vn -0.312797 0.859650 0.403931
vn -0.335973 0.636544 0.694215
vn -0.281159 0.915361 0.288207
vn -0.366785 0.516540 0.773728
vn -0.284617 0.621984 0.729472
vn -0.223876 0.725590 0.650691
vn -0.064180 0.581981 0.810666
vn -0.348081 0.461428 0.816042
vn -0.179420 0.414035 0.892403
vn -0.061954 0.765225 0.640775
vn -0.146237 0.899154 0.412477
vn 0.032474 0.889853 0.455090
vn 0.046913 0.854183 0.517852
vn -0.337531 0.908027 0.248111
vn -0.099964 0.804931 0.584887
vn -0.540235 0.551867 0.635287
vn -0.478231 0.821411 0.310772
vn -0.238826 0.971061 0.001347
vn -0.438097 0.863650 0.249359
vn -0.727362 0.674878 -0.124438
vn -0.315081 0.943154 -0.105760
vn -0.128741 0.784542 0.606564
vn 0.038715 0.887667 0.458856
vn -0.383165 0.767189 0.514398
vn -0.121281 0.723645 0.679433
vn -0.458744 0.742374 0.488298
vn -0.136914 0.971094 0.195530
vn -0.070200 0.583870 0.808807
vn -0.076271 0.966166 0.246385
vn -0.353887 0.875083 0.330143
vn 0.066452 0.769125 0.635634
vn -0.375948 0.869805 0.319535
vn -0.380886 0.858484 0.343410
vn -0.390111 0.902207 -0.183944
vn 0.014873 0.980935 0.193764
vn -0.276489 0.900829 0.334756
vn 0.013565 0.986456 0.163466
vn -0.269468 0.962961 -0.009616
vn -0.198212 0.979441 -0.037518
vn -0.045647 0.982968 0.178019
vn -0.269763 0.962903 -0.006766
vn 0.059294 0.979267 0.193701
vn 0.016025 0.907816 0.419061
vn -0.161901 0.986715 0.013486
vn -0.160991 0.935582 0.314274
vn -0.047018 0.988121 0.146305
vn -0.200780 0.979104 0.032288
vn -0.043006 0.887925 0.457973
vn -0.052215 0.987388 0.149460
vn -0.263111 0.714875 0.647863
vn -0.070267 0.962463 0.262161
vn -0.274485 0.918603 0.284300
vn -0.209647 0.904417 0.371590
vn 0.385631 0.850012 0.358843
vn 0.062959 0.865601 0.496761
vn 0.139494 0.976907 0.161843
vn 0.181696 0.786817 0.589835
vn -0.189046 0.757326 0.625075
vn -0.198885 0.651904 0.731755
vn -0.129157 0.810205 0.571739
vn -0.194413 0.760042 0.620112
vn -0.077542 0.929100 0.361607
vn -0.077954 0.780050 0.620843
vn -0.342899 0.742639 0.575245
vn -0.067962 0.926134 0.371023
vn 0.238220 0.969300 0.060906
vn 0.127391 0.991784 0.011635
vn 0.239292 0.969710 0.049004
vn 0.239268 0.969093 0.060081
vn 0.003458 0.976753 -0.214339
vn -0.026298 0.998865 0.039701
vn -0.010178 0.972486 -0.232738
vn -0.020122 0.974289 -0.224400
vn 0.331742 0.675602 0.658414
vn 0.383546 0.875065 0.295218
vn 0.070864 0.985365 0.155032
vn 0.349826 0.879969 0.321366
vn 0.282681 0.951386 -0.122299
vn 0.072888 0.992933 0.093653
vn 0.360827 0.931187 -0.051909
vn 0.285714 0.954941 -0.080343
vn -0.141313 0.985489 0.094034
vn -0.092899 0.994673 0.044665
vn -0.075768 0.995381 0.058956
vn -0.075618 0.995513 0.056879
vn 0.417494 0.681859 0.600638
vn -0.009210 0.976566 0.215019
vn 0.055634 0.963371 0.262339
vn -0.008002 0.951519 0.307485
vn -0.231415 0.972331 -0.031931
vn -0.213827 0.976468 -0.028067
vn -0.098554 0.990552 0.095361
vn -0.232456 0.972493 -0.014889
vn -0.167960 0.981577 0.091077
vn -0.100340 0.984293 0.145256
vn -0.230862 0.960284 0.156707
vn -0.178924 0.963186 0.200646
vn -0.380332 0.879590 0.285778
vn -0.293222 0.955345 0.036557
vn -0.165462 0.986215 -0.001376
vn -0.165372 0.982791 0.082308
vn 0.060197 0.994196 0.089168
vn -0.155820 0.985633 -0.065169
vn 0.017449 0.988462 -0.150458
vn -0.155082 0.987718 -0.019054
vn 0.028897 0.935434 -0.352318
vn -0.055688 0.925368 -0.374956
vn -0.052582 0.861290 -0.505385
vn 0.036432 0.901138 -0.431998
vn -0.026492 0.983882 -0.176845
vn -0.074284 0.996949 -0.023962
vn -0.068179 0.994287 -0.082132
vn -0.029001 0.997731 -0.060765
vn 0.237846 0.967780 -0.082655
vn 0.327922 0.925100 -0.191462
vn 0.127127 0.989729 0.065384
vn 0.328519 0.944431 -0.011232
vn 0.123126 0.912686 -0.389672
vn 0.156344 0.971274 -0.179399
vn -0.006187 0.963080 -0.269146
vn 0.131367 0.977566 -0.164643
vn 0.003509 0.990950 0.134184
vn -0.010466 0.999944 -0.001372
vn 0.099518 0.943242 -0.316844
vn 0.100393 0.991044 0.088050
vn -0.014044 0.915204 -0.402746
vn 0.151734 0.925234 -0.347734
vn 0.028618 0.999358 -0.021559
vn 0.018385 0.903310 -0.428593
vn 0.171443 0.907261 -0.384037
vn -0.185603 0.922266 -0.339082
vn 0.322778 0.736008 -0.595068
vn 0.222525 0.650556 -0.726126
vn -0.049720 0.959372 -0.277729
vn -0.045325 0.954862 -0.293572
vn -0.042379 0.772961 -0.633037
vn -0.038783 0.956725 -0.288396
vn 0.070568 0.902795 -0.424243
vn 0.188258 0.757420 -0.625199
vn 0.101691 0.953072 -0.285155
vn 0.163297 0.929728 -0.330061
vn -0.206526 0.859210 -0.468087
vn 0.025605 0.933069 -0.358786
vn 0.303655 0.815315 -0.493006
vn 0.024088 0.959381 -0.281082
vn 0.002432 0.991064 0.133367
vn 0.115676 0.945238 -0.305194
vn 0.024004 0.978920 -0.202827
vn 0.002612 0.975590 -0.219583
vn 0.070588 0.902507 -0.424852
vn 0.112322 0.872696 -0.475169
vn 0.109887 0.970408 -0.215021
vn 0.124565 0.875751 -0.466416
vn -0.050353 0.953413 -0.297436
vn -0.187615 0.888665 -0.418420
vn -0.050213 0.867824 -0.494328
vn -0.186097 0.899201 -0.395986
vn 0.113585 0.969416 -0.217556
vn 0.041272 0.905051 -0.423296
vn 0.024362 0.964140 -0.264272
vn 0.039199 0.960625 -0.275071
vn -0.284519 0.911332 0.297529
vn -0.184640 0.982765 -0.009037
vn -0.673695 0.723137 0.152341
vn -0.322306 0.922431 0.212698
vn -0.291569 0.737904 -0.608676
vn -0.258705 0.668291 -0.697466
vn -0.206017 0.845659 -0.492360
vn -0.217053 0.715074 -0.664498
vn -0.217708 0.948478 -0.230201
vn -0.677026 0.640326 -0.362792
vn -0.710869 0.497550 -0.497101
vn -0.692262 0.505420 -0.515097
vn -0.267273 0.858352 -0.437947
vn -0.587989 0.682298 -0.434441
vn -0.815376 0.392968 -0.425133
vn -0.594690 0.486741 -0.639865
vn 0.007451 0.824641 -0.565607
vn 0.065074 0.900741 -0.429455
vn -0.091031 0.957616 -0.273287
vn -0.048709 0.840891 -0.539009
vn -0.188948 0.907261 -0.375734
vn -0.054396 0.935889 -0.348069
vn -0.071844 0.952808 -0.294950
vn -0.061162 0.951525 -0.301429
vn -0.112272 0.939263 -0.324314
vn 0.029139 0.825514 -0.563628
vn -0.109023 0.859621 -0.499164
vn -0.099152 0.865712 -0.490623
vn -0.124111 0.936446 -0.328125
vn -0.118417 0.911180 -0.394624
vn -0.015579 0.949092 -0.314614
vn -0.118422 0.911181 -0.394621
vn -0.955178 0.287296 0.071392
vn -0.966006 -0.026415 -0.257168
vn -0.562164 0.767688 -0.307613
vn -0.828565 0.559122 0.029373
vn -0.712035 0.629060 -0.311914
vn -0.442668 0.845648 -0.298201
vn -0.797235 0.589336 -0.130764
vn -0.607000 0.785712 -0.119198
vn -0.570390 0.336545 -0.749261
vn -0.762360 0.297018 -0.574967
vn -0.542254 0.839650 -0.030786
vn -0.783846 0.231461 -0.576205
vn -0.878090 0.383990 -0.285499
vn -0.396097 0.900937 -0.177257
vn -0.923472 0.157537 -0.349831
vn -0.901338 0.357111 -0.245075
vn -0.244976 0.943392 -0.223602
vn -0.249632 0.879901 -0.404301
vn -0.213590 0.951888 -0.219748
vn -0.222761 0.951559 -0.211929
vn -0.126126 0.898955 -0.419490
vn -0.420502 0.906900 -0.026652
vn -0.120824 0.945956 -0.300947
vn -0.131883 0.941781 -0.309281
vn -0.207485 0.964071 -0.165882
vn -0.595667 0.799632 -0.075957
vn -0.366883 0.890230 -0.269978
vn -0.308860 0.950290 -0.039436
vn -0.120685 0.941900 -0.313462
vn -0.479504 0.864228 -0.152271
vn -0.387816 0.869683 -0.305371
vn -0.338785 0.933442 -0.117943
vn -0.230125 0.953469 0.194779
vn -0.556921 0.829501 -0.042041
vn -0.325777 0.929833 0.171115
vn -0.351323 0.910164 0.219484
vn -0.274348 0.948528 -0.158202
vn -0.811991 0.573520 0.108372
vn -0.520280 0.693629 -0.498185
vn -0.372682 0.823177 -0.428355
vn -0.637521 0.757236 0.141987
vn -0.325098 0.922875 0.206431
vn -0.837147 0.523530 0.158432
vn -0.718969 0.623087 0.307971
vn -0.311452 0.949677 -0.033328
vn -0.813485 0.571789 0.106300
vn -0.307384 0.936716 0.167569
vn -0.376414 0.923542 0.073363
vn -0.686534 0.604795 -0.403602
vn -0.936654 -0.037604 -0.348231
vn -0.635602 0.307042 -0.708333
vn -0.646521 0.255524 -0.718831
vn -0.959891 -0.202558 0.193853
vn -0.850125 0.466270 0.244703
vn -0.926858 -0.333873 0.171651
vn -0.937226 -0.243210 0.249913
vn -0.740999 0.611277 -0.277959
vn -0.554427 0.723661 -0.411005
vn -0.615082 0.788124 -0.023118
vn -0.500342 0.845208 -0.187831
vn -0.947454 0.001649 -0.319887
vn -0.756213 0.653189 -0.038547
vn -0.664535 0.571758 -0.481129
vn -0.842582 0.456723 -0.285411
vn -0.735770 0.387320 0.555541
vn -0.638810 0.742533 0.201410
vn -0.872914 0.473490 -0.117590
vn -0.704455 0.673529 0.223833
vn -0.634424 0.771149 -0.053253
vn -0.383175 0.903613 0.191468
vn -0.562466 0.826371 -0.027268
vn -0.545610 0.836080 -0.057282
vn -0.906209 -0.244422 -0.345026
vn -0.885344 0.177926 -0.429544
vn -0.965343 0.160498 -0.205801
vn -0.970599 -0.133491 -0.200294
vn -0.548589 0.835630 -0.027781
vn -0.751809 0.552694 0.359602
vn -0.880403 0.462190 -0.106166
vn -0.577787 0.812095 -0.081633
vn -0.738650 0.617883 -0.269475
vn -0.750439 0.417397 -0.512466
vn -0.383590 0.920772 0.070981
vn -0.565830 0.699274 -0.436868
vn -0.865262 -0.491256 -0.099946
vn -0.998778 -0.025899 -0.042104
vn -0.978376 -0.011879 -0.206493
vn -0.987359 -0.106632 -0.117266
vn -0.739344 0.655371 0.154465
vn -0.593905 0.793802 0.130976
vn -0.385086 0.901278 0.198511
vn -0.645100 0.714535 0.270712
vn -0.969008 0.132900 -0.208235
vn -0.531329 0.846741 -0.026824
vn -0.473069 0.836108 0.277722
vn -0.690623 0.629752 0.355602
vn 0.230819 0.971284 0.057713
vn 0.243311 0.968623 0.050695
vn 0.461357 0.871465 0.166429
vn 0.232885 0.970270 0.065881
vn 0.120845 0.853970 0.506094
vn 0.367144 0.921187 0.128915
vn 0.485642 0.801258 0.349482
vn 0.440661 0.883577 0.158462
vn 0.464431 0.875610 0.132708
vn 0.568510 0.710566 0.414600
vn 0.395940 0.880413 0.260967
vn 0.496794 0.855845 0.143961
vn 0.330171 0.799692 0.501478
vn 0.300679 0.930086 0.211027
vn 0.508487 0.771751 0.381893
vn 0.351540 0.780948 0.516275
vn -0.284797 0.735292 0.615009
vn 0.308049 0.679204 0.666174
vn 0.074116 0.919581 0.385847
vn 0.058394 0.874287 0.481884
vn 0.366161 0.854451 0.368564
vn 0.837012 0.265103 0.478677
vn 0.648621 0.240722 0.722041
vn 0.836860 0.249396 0.487305
vn 0.169899 0.957922 0.231344
vn 0.238592 0.946340 0.217979
vn 0.362317 0.851315 0.379459
vn 0.169482 0.948199 0.268692
vn 0.369952 0.689798 0.622346
vn 0.355739 0.875746 0.326371
vn 0.242506 0.927775 0.283592
vn 0.342880 0.876987 0.336641
vn 0.691044 0.228296 0.685813
vn 0.491879 0.823559 0.282499
vn 0.450332 0.515538 0.728986
vn 0.598742 0.461981 0.654279
vn 0.255112 0.960975 0.106980
vn 0.591477 0.551583 0.588142
vn 0.580090 0.143400 0.801830
vn 0.394547 0.595970 0.699394
vn 0.387543 0.545491 0.743135
vn 0.498584 0.494026 0.712287
vn 0.459675 0.727506 0.509346
vn 0.481143 0.525032 0.702028
vn 0.505376 0.814190 0.285815
vn 0.556318 0.703484 0.442290
vn 0.455475 0.505692 0.732679
vn 0.404043 0.834012 0.375731
vn 0.107626 0.954488 0.278153
vn 0.107224 0.824434 0.555708
vn 0.345242 0.936687 0.058528
vn 0.101036 0.956539 0.273540
vn 0.149640 0.838618 0.523763
vn 0.496207 0.688157 0.529357
vn 0.311281 0.271221 0.910793
vn 0.128274 0.645071 0.753279
vn 0.469195 0.870900 0.146254
vn 0.397458 0.877836 0.267265
vn 0.409792 0.768829 0.490889
vn 0.369559 0.893006 0.256841
vn 0.341898 0.558178 0.756005
vn 0.478996 0.762243 0.435373
vn 0.543159 0.832626 0.108223
vn 0.669566 0.530490 0.519867
vn -0.336264 0.679941 0.651618
vn -0.350903 0.355662 0.866240
vn -0.506074 0.336208 0.794263
vn -0.505072 0.319153 0.801900
vn -0.018231 0.557304 0.830108
vn -0.196893 0.792210 0.577613
vn -0.105224 0.665114 0.739291
vn -0.165013 0.556226 0.814483
vn -0.246222 0.323816 0.913520
vn -0.065233 0.108965 0.991903
vn -0.166323 -0.210835 0.963268
vn -0.150826 -0.210204 0.965953
vn -0.204331 0.661461 0.721609
vn -0.289083 0.782311 0.551743
vn -0.181680 0.850748 0.493174
vn -0.218355 0.846215 0.486046
vn -0.596494 -0.573753 0.561251
vn -0.577582 -0.542479 0.610013
vn -0.295982 0.460674 0.836764
vn -0.556831 -0.567114 0.606895
vn -0.507356 -0.005463 0.861719
vn -0.094000 -0.460899 0.882460
vn -0.136732 -0.699088 0.701840
vn -0.143145 -0.701223 0.698424
vn -0.361922 0.317003 0.876654
vn -0.358003 0.606631 0.709811
vn -0.098882 -0.016225 0.994967
vn -0.214693 0.576864 0.788121
vn -0.288142 -0.482252 0.827289
vn -0.167425 -0.280147 0.945244
vn -0.439726 0.496283 0.748562
vn -0.257270 -0.296238 0.919812
vn 0.225983 -0.878097 0.421756
vn -0.013448 -0.941387 0.337059
vn -0.102675 -0.661840 0.742580
vn 0.117337 -0.659118 0.742829
vn -0.294815 0.132941 0.946261
vn -0.278145 0.325985 0.903532
vn -0.142185 -0.093382 0.985425
vn -0.243322 0.325913 0.913551
vn -0.427617 0.002672 0.903956
vn -0.120896 -0.631076 0.766242
vn -0.403913 -0.262789 0.876240
vn -0.357082 -0.015973 0.933936
vn -0.228235 -0.761047 0.607220
vn -0.408844 -0.261826 0.874239
vn -0.119576 -0.631101 0.766429
vn -0.143158 -0.769190 0.622778
vn -0.116900 0.285546 0.951209
vn -0.145630 -0.016684 0.989198
vn -0.527756 0.215793 0.821527
vn -0.096186 0.178849 0.979163
vn -0.425822 -0.005377 0.904791
vn -0.396942 -0.282521 0.873281
vn -0.375311 -0.512596 0.772261
vn -0.478850 -0.287303 0.829554
vn -0.300539 0.160035 0.940247
vn 0.031545 0.480633 0.876354
vn -0.045788 -0.499040 0.865369
vn 0.128398 0.154721 0.979579
vn -0.210378 0.278990 0.936966
vn -0.417022 -0.508305 0.753471
vn -0.538425 0.485724 0.688601
vn -0.635907 0.282695 0.718126
vn -0.583524 -0.682190 0.440587
vn -0.779691 -0.617293 -0.105032
vn -0.371346 -0.912338 0.172459
vn -0.561005 -0.784933 0.262971
vn -0.819371 0.480947 -0.311964
vn -0.917146 -0.282669 -0.280964
vn -0.875861 0.228671 -0.424944
vn -0.861447 0.445257 -0.244244
vn -0.268924 -0.774699 0.572294
vn -0.295053 -0.880001 0.372211
vn -0.740797 -0.608797 0.283876
vn -0.307795 -0.720886 0.620955
vn -0.923343 -0.294278 0.246654
vn -0.710708 -0.648550 0.272537
vn -0.400129 -0.785042 0.472870
vn -0.681966 -0.708579 0.181213
vn -0.794070 -0.389270 -0.466821
vn -0.951464 -0.273183 -0.141730
vn -0.624898 -0.745337 -0.232326
vn -0.717266 -0.690073 -0.096583
vn -0.556991 -0.051505 -0.828920
vn -0.971777 -0.148981 -0.182904
vn -0.381165 -0.885982 -0.264100
vn -0.416421 -0.555315 -0.719874
vn -0.914713 0.359409 0.184730
vn -0.769177 -0.622956 0.142449
vn -0.899025 0.142774 -0.413968
vn -0.903663 -0.083852 -0.419955
vn -0.830018 0.229138 -0.508495
vn -0.934002 0.306040 -0.184337
vn -0.608493 -0.773612 -0.176809
vn -0.883341 0.391608 -0.257589
vn -0.026841 -0.999430 0.020471
vn -0.161564 -0.983026 0.086934
vn -0.159702 -0.987159 0.003467
vn -0.126764 -0.991229 0.037352
vn -0.302852 -0.775164 0.554438
vn -0.345665 -0.918438 0.192320
vn -0.529485 -0.702350 0.475763
vn -0.230863 -0.921774 0.311503
vn -0.386239 -0.862190 -0.327791
vn -0.370819 -0.881719 -0.291657
vn -0.574926 -0.812563 -0.095923
vn -0.370571 -0.881861 -0.291544
vn -0.326099 -0.936964 0.125534
vn -0.336336 -0.925402 0.174668
vn -0.183196 -0.983069 0.003707
vn -0.287526 -0.944249 0.160381
vn -0.767211 0.627064 -0.134827
vn -0.889357 0.161651 -0.427682
vn -0.979054 0.166675 0.116930
vn -0.890541 0.425910 -0.159806
vn -0.636781 -0.639151 -0.431273
vn -0.797823 -0.591440 -0.116952
vn -0.968797 -0.097238 -0.227984
vn -0.831581 -0.509858 -0.220265
vn -0.265181 -0.809585 0.523689
vn -0.768317 -0.441499 0.463430
vn -0.443982 -0.868326 0.221110
vn -0.482673 -0.801749 0.352457
vn -0.850798 -0.293432 -0.435936
vn -0.714045 -0.661830 -0.228301
vn -0.983448 -0.134030 0.121926
vn -0.835955 -0.487383 -0.252261
vn -0.825456 -0.525843 -0.205210
vn -0.645183 0.191229 -0.739710
vn -0.807154 -0.411741 -0.423050
vn -0.714124 -0.545384 -0.438844
vn -0.559695 0.609667 -0.561292
vn -0.662345 -0.482765 -0.572920
vn -0.709226 -0.059288 -0.702484
vn -0.849049 -0.066152 -0.524156
vn -0.452471 -0.286197 -0.844607
vn -0.579774 -0.356369 -0.732710
vn -0.435576 -0.596812 -0.673861
vn -0.422138 -0.349283 -0.836541
vn -0.638130 0.190892 -0.745889
vn -0.664152 -0.210105 -0.717467
vn -0.551862 -0.406640 -0.728075
vn -0.531733 -0.205903 -0.821501
vn -0.031390 0.916492 -0.398821
vn 0.094587 0.615335 -0.782571
vn 0.053086 0.918121 -0.392730
vn -0.023412 0.921934 -0.386640
vn 0.128417 0.565809 -0.814475
vn -0.091487 0.660019 -0.745657
vn 0.092951 0.632288 -0.769137
vn 0.098895 0.648406 -0.754844
vn -0.154445 0.606135 -0.780222
vn -0.029161 0.857265 -0.514048
vn -0.190459 0.353410 -0.915875
vn -0.225397 0.602625 -0.765532
vn 0.096733 0.620709 -0.778051
vn -0.033873 0.365382 -0.930241
vn -0.017650 0.856349 -0.516095
vn 0.061751 0.623722 -0.779204
vn -0.104754 -0.924864 -0.365586
vn -0.064618 -0.969717 -0.235527
vn 0.097617 -0.836008 -0.539964
vn -0.008327 -0.970124 -0.242467
vn -0.238760 -0.885259 -0.399136
vn -0.031755 -0.847186 -0.530346
vn -0.004278 -0.913678 -0.406416
vn -0.047865 -0.883665 -0.465666
vn 0.059881 -0.465117 -0.883222
vn -0.108801 -0.533356 -0.838865
vn 0.132591 -0.708468 -0.693175
vn -0.014934 -0.724127 -0.689505
vn -0.193048 -0.913385 -0.358413
vn 0.068157 -0.835582 -0.545121
vn -0.095548 -0.457311 -0.884159
vn -0.133712 -0.455668 -0.880050
vn -0.172015 0.573116 -0.801217
vn 0.004147 0.761289 -0.648399
vn -0.626752 -0.486460 -0.608719
vn -0.205074 0.803226 -0.559261
vn -0.053075 -0.080821 -0.995315
vn 0.110100 -0.645668 -0.755639
vn -0.001102 0.799190 -0.601077
vn 0.306834 -0.072217 -0.949019
vn -0.703584 -0.286158 -0.650448
vn -0.772801 -0.544873 -0.325411
vn -0.092048 -0.781987 -0.616460
vn -0.585098 -0.754096 -0.298328
vn -0.014249 0.801286 -0.598112
vn -0.058562 -0.677717 -0.732987
vn -0.823809 0.098934 -0.558168
vn -0.341461 0.109857 -0.933454
vn 0.103454 0.936802 -0.334214
vn 0.069733 0.910661 -0.407227
vn 0.032802 0.949226 -0.312879
vn 0.079163 0.934700 -0.346510
vn 0.276478 0.765047 -0.581603
vn -0.069002 0.917366 -0.392019
vn 0.278478 0.669522 -0.688615
vn 0.267942 0.667127 -0.695089
vn 0.376555 0.616872 -0.691141
vn 0.305872 0.903780 -0.299371
vn 0.052088 0.874846 -0.481592
vn 0.055380 0.886566 -0.459274
vn 0.273797 0.919716 -0.281349
vn -0.063920 0.926770 -0.370151
vn 0.167092 0.957151 -0.236520
vn 0.167268 0.959877 -0.225071
vn 0.371572 0.917287 -0.143243
vn 0.197273 0.979358 -0.044065
vn 0.312901 0.931806 -0.183928
vn 0.364480 0.923976 -0.115855
vn 0.392924 0.861679 -0.321122
vn 0.083140 0.879809 -0.467999
vn 0.335087 0.812675 -0.476735
vn 0.297087 0.917873 -0.263150
vn 0.357588 0.752433 -0.553150
vn 0.267373 0.838988 -0.473931
vn 0.404020 0.583167 -0.704758
vn 0.278626 0.733898 -0.619484
vn 0.270742 0.862611 -0.427319
vn 0.357646 0.579531 -0.732280
vn 0.354225 0.848869 -0.392360
vn 0.327426 0.867069 -0.375478
vn 0.787867 -0.514394 -0.338621
vn 0.614515 0.345142 -0.709400
vn 0.684039 -0.349419 -0.640310
vn 0.847398 0.181477 -0.498982
vn 0.080485 0.837921 -0.539825
vn 0.225192 0.919435 -0.322379
vn 0.656865 0.227001 -0.719026
vn 0.234034 0.852068 -0.468197
vn 0.152238 0.978296 -0.140572
vn 0.421104 0.552629 -0.719217
vn 0.283555 0.828460 -0.482959
vn 0.212300 0.821049 -0.529912
vn 0.654544 0.228232 -0.720752
vn 0.254449 0.919467 -0.299726
vn 0.411742 0.673125 -0.614306
vn 0.632265 0.618631 -0.466409
vn 0.355139 0.771638 -0.527685
vn 0.353946 0.893265 -0.277127
vn 0.167696 0.959855 -0.224848
vn 0.184518 0.893474 -0.409460
vn 0.366064 0.907511 -0.205965
vn 0.242394 0.858623 -0.451677
vn 0.073316 0.967455 -0.242191
vn 0.233740 0.910586 -0.340879
vn 0.266253 0.602051 -0.752758
vn 0.066321 0.878639 -0.472858
vn 0.539227 0.683568 -0.491903
vn 0.270189 0.675334 -0.686237
vn 0.140206 0.974901 -0.172948
vn 0.472647 0.845578 -0.248199
vn 0.083155 0.980604 -0.177488
vn 0.136805 0.982248 -0.128350
vn -0.012518 -0.999684 -0.021782
vn 0.280772 -0.913603 0.294104
vn 0.050765 -0.998024 0.037030
vn 0.017036 -0.998104 0.059143
vn 0.624212 -0.779351 0.054508
vn 0.083320 -0.965361 0.247256
vn 0.390967 -0.899432 0.195363
vn 0.303066 -0.952928 -0.008895
vn 0.095344 -0.909351 0.404956
vn 0.172953 -0.940020 0.294024
vn 0.072086 -0.971899 0.224090
vn 0.179272 -0.929992 0.320900
vn 0.214727 -0.970216 0.112133
vn 0.066639 -0.970870 0.230155
vn 0.129952 -0.936752 0.324973
vn 0.069154 -0.965437 0.251296
vn 0.623105 -0.689316 0.369572
vn 0.352880 -0.863557 0.360200
vn 0.414462 -0.852614 0.318230
vn 0.412192 -0.856311 0.311174
vn 0.232020 -0.706331 0.668778
vn 0.366880 -0.825458 0.428972
vn 0.623579 -0.280797 0.729590
vn 0.389969 -0.695068 0.603991
vn 0.214982 -0.910908 0.352178
vn 0.767962 -0.042068 0.639112
vn 0.453321 -0.882166 0.127608
vn 0.217239 -0.905237 0.365176
vn 0.843681 -0.142449 0.517601
vn 0.535409 -0.789405 0.300294
vn 0.782649 -0.458369 0.421139
vn 0.828686 -0.423886 0.365515
vn -0.020119 -0.953867 0.299554
vn -0.040769 -0.940404 0.337607
vn 0.090240 -0.911477 0.401332
vn -0.031651 -0.951942 0.304639
vn 0.062217 -0.967403 0.245479
vn 0.141222 -0.984553 0.103496
vn 0.035156 -0.994637 0.097265
vn 0.072330 -0.994755 0.072329
vn 0.505328 -0.779110 0.370985
vn 0.085304 -0.852453 0.515798
vn 0.385321 -0.835937 0.390815
vn 0.373252 -0.868167 0.327060
vn 0.001455 -0.949138 0.314857
vn 0.141812 -0.953355 0.266464
vn 0.008672 -0.895199 0.445583
vn 0.028716 -0.940108 0.339666
vn 0.746309 -0.245167 0.618802
vn 0.351482 -0.929563 0.111234
vn 0.102379 -0.848904 0.518538
vn 0.428230 -0.389032 0.815643
vn 0.179574 -0.769333 0.613090
vn 0.159988 -0.819040 0.550978
vn 0.372845 -0.820977 0.432415
vn 0.181621 -0.799081 0.573135
vn 0.079650 -0.969308 0.232589
vn 0.069326 -0.979309 0.190126
vn 0.048056 -0.983357 0.175212
vn 0.048459 -0.977067 0.207346
vn 0.314331 -0.937134 0.151578
vn 0.154797 -0.957132 0.244818
vn 0.322833 -0.874440 0.362125
vn 0.272753 -0.951995 0.138964
vn -0.057952 -0.997142 -0.048468
vn -0.082347 -0.990946 -0.106038
vn -0.026852 -0.999604 -0.008399
vn -0.081080 -0.996155 -0.033195
vn 0.071255 -0.924685 0.374006
vn -0.040442 -0.998690 -0.031353
vn 0.002317 -0.995381 0.095976
vn 0.053260 -0.996385 0.066188
vn 0.001593 -0.999955 -0.009350
vn -0.004018 -0.999850 -0.016843
vn -0.006676 -0.996218 -0.086634
vn -0.007462 -0.999872 -0.014121
vn -0.008077 -0.991273 -0.131579
vn -0.043794 -0.992833 -0.111194
vn -0.012033 -0.999704 -0.021125
vn -0.009927 -0.991005 -0.133456
vn 0.384330 -0.697587 0.604701
vn 0.075306 -0.984330 0.159450
vn 0.161722 -0.829701 0.534269
vn 0.288313 -0.901675 0.322269
vn -0.005977 -0.991714 0.128325
vn -0.018727 -0.997829 0.063141
vn -0.053947 -0.988134 0.143811
vn -0.047295 -0.995315 0.084333
vn 0.088465 -0.959222 0.268454
vn 0.163403 -0.970646 0.176480
vn 0.137646 -0.977587 0.159305
vn 0.163683 -0.970393 0.177610
vn 0.096101 -0.948465 0.301960
vn 0.116790 -0.974505 0.191571
vn 0.113845 -0.964809 0.237032
vn 0.129851 -0.959426 0.250280
vn 0.072596 -0.997077 -0.023810
vn 0.047640 -0.995815 -0.077998
vn 0.017833 -0.999704 -0.016531
vn 0.017298 -0.998156 -0.058183
vn -0.018961 -0.997559 -0.067204
vn 0.023603 -0.996723 -0.077369
vn 0.029230 -0.995718 -0.087705
vn 0.023612 -0.995506 -0.091702
vn -0.002081 -0.995816 0.091362
vn 0.004433 -0.999982 0.004122
vn 0.005454 -0.999928 -0.010706
vn -0.004979 -0.999983 -0.003190
vn 0.031270 -0.995541 -0.088993
vn 0.003620 -0.997974 -0.063521
vn 0.004527 -0.999661 -0.025656
vn 0.031127 -0.998570 -0.043463
vn 0.098076 -0.929508 0.355523
vn 0.139260 -0.976419 0.164960
vn 0.002803 -0.997900 -0.064712
vn 0.034613 -0.961107 0.273999
vn -0.005374 -0.996032 0.088838
vn 0.006356 -0.999930 -0.010008
vn -0.017722 -0.998719 0.047399
vn 0.011528 -0.997500 0.069724
vn 0.028818 -0.999123 -0.030375
vn 0.031863 -0.992728 -0.116085
vn 0.002351 -0.995600 -0.093679
vn 0.030174 -0.992599 -0.117626
vn -0.007976 -0.999169 0.039983
vn 0.001795 -0.999983 -0.005611
vn 0.027261 -0.998889 -0.038435
vn -0.005172 -0.999918 -0.011732
vn -0.058018 -0.998276 -0.008858
vn -0.026836 -0.999021 -0.035173
vn -0.069876 -0.992242 0.102827
vn -0.070339 -0.997333 -0.019483
vn 0.001584 -0.994495 -0.104775
vn -0.063826 -0.992372 0.105468
vn -0.004017 -0.999574 -0.028900
vn -0.061536 -0.995200 -0.076094
vn -0.020545 -0.999615 0.018650
vn -0.019767 -0.999528 0.023521
vn -0.051786 -0.997824 0.040809
vn -0.020557 -0.999527 0.022888
vn -0.014640 -0.999607 -0.023919
vn -0.052650 -0.993722 0.098719
vn -0.018380 -0.990897 0.133364
vn -0.011799 -0.991720 0.127873
vn 0.072599 -0.997127 0.021611
vn 0.070983 -0.997240 -0.021774
vn 0.047783 -0.998798 0.010904
vn 0.072479 -0.997134 0.021688
vn 0.000181 -0.999250 0.038725
vn 0.127874 -0.961319 0.243956
vn 0.079875 -0.995183 0.056835
vn -0.006855 -0.992453 0.122435
vn -0.018683 -0.982895 -0.183219
vn 0.028773 -0.980166 -0.196078
vn 0.000158 -0.998425 0.056101
vn 0.003484 -0.984713 -0.174148
vn 0.075842 -0.996786 -0.025796
vn 0.124960 -0.984130 0.125989
vn 0.227539 -0.963859 -0.138572
vn 0.244497 -0.968950 0.036829
vn -0.209970 -0.917411 -0.338037
vn -0.044131 -0.907044 -0.418716
vn -0.224007 -0.626142 -0.746838
vn -0.284020 -0.703028 -0.651985
vn 0.011246 -0.998145 -0.059837
vn 0.002609 -0.983530 -0.180726
vn -0.062114 -0.946414 -0.316926
vn -0.036994 -0.992608 -0.115591
vn -0.001695 -0.951026 -0.309107
vn -0.112808 -0.509757 -0.852890
vn 0.002932 -0.991732 -0.128295
vn -0.054560 -0.974381 -0.218184
vn -0.036837 -0.956698 -0.288743
vn 0.020234 -0.988109 -0.152419
vn -0.218998 -0.668309 -0.710917
vn 0.032138 -0.924781 -0.379139
vn -0.060344 -0.986572 -0.151773
vn -0.026005 -0.996752 0.076218
vn -0.105101 -0.991743 0.073484
vn -0.065867 -0.996826 0.044726
vn 0.000238 -0.999252 0.038680
vn -0.003995 -0.983658 0.180005
vn 0.099608 -0.959090 0.264999
vn 0.074763 -0.991508 0.106406
vn 0.002003 -0.999348 0.036061
vn -0.033298 -0.997925 0.055100
vn -0.001149 -0.994748 0.102348
vn -0.035030 -0.996778 0.072162
vn -0.027421 -0.986921 0.158853
vn -0.035651 -0.989559 0.139650
vn -0.108117 -0.988427 0.106408
vn -0.037172 -0.985356 0.166409
vn -0.042934 -0.998984 -0.013733
vn -0.027678 -0.997171 0.069891
vn 0.042345 -0.998817 -0.023906
vn -0.058245 -0.997694 0.034855
vn 0.028561 -0.999070 -0.032296
vn 0.468479 -0.786155 -0.403098
vn -0.000057 -0.999934 0.011490
vn 0.015223 -0.998749 -0.047630
vn 0.489811 -0.747707 -0.448352
vn 0.535484 -0.724337 -0.434273
vn 0.254654 -0.743435 -0.618430
vn 0.557861 -0.666161 -0.494995
vn -0.011480 -0.999933 -0.001502
vn 0.205329 -0.810090 -0.549176
vn 0.061521 -0.994457 -0.085270
vn 0.077059 -0.994505 -0.070864
vn -0.033201 -0.826505 -0.561949
vn 0.280043 -0.831874 -0.479126
vn 0.197284 -0.691749 -0.694667
vn 0.205900 -0.878113 -0.431884
vn 0.217481 -0.872209 -0.438124
vn -0.061188 -0.849644 -0.523795
vn -0.041155 -0.949160 -0.312091
vn -0.006863 -0.956322 -0.292236
vn 0.074874 -0.990522 -0.115149
vn -0.020753 -0.919100 -0.393478
vn 0.459441 -0.591256 -0.662820
vn 0.087001 -0.945499 -0.313788
vn 0.223075 -0.826175 -0.517370
vn 0.429403 -0.155875 -0.889559
vn -0.097150 -0.552305 -0.827962
vn 0.124091 -0.086324 -0.988509
vn 0.420931 0.801353 -0.425030
vn 0.443140 -0.665934 -0.600133
vn 0.621953 -0.260119 -0.738588
vn 0.448018 -0.348640 -0.823244
vn 0.712629 -0.470147 -0.520694
vn 0.646635 -0.687478 -0.330512
vn 0.196170 -0.963211 -0.183690
vn 0.651490 -0.685285 -0.325493
vn 0.450830 -0.712867 -0.537190
vn 0.612350 -0.494506 -0.616840
vn 0.448360 -0.729756 -0.516168
vn 0.451808 -0.712669 -0.536631
vn 0.231397 -0.867246 -0.440841
vn 0.657773 -0.663382 -0.356733
vn 0.504010 -0.530195 -0.681812
vn 0.419157 -0.862005 -0.285054
vn 0.044981 -0.989404 -0.138048
vn 0.629911 -0.581682 -0.514644
vn 0.584769 -0.382026 -0.715612
vn 0.667141 -0.346600 -0.659387
vn 0.255254 -0.875171 -0.411001
vn 0.193993 -0.915134 -0.353406
vn 0.257345 -0.913955 -0.313783
vn 0.247071 -0.918848 -0.307693
vn 0.485745 -0.761465 -0.429211
vn 0.213157 -0.912432 -0.349330
vn 0.368675 -0.897256 -0.242921
vn 0.413859 -0.771412 -0.483368
vn 0.255908 -0.917894 -0.303284
vn 0.195956 -0.896417 -0.397541
vn 0.167284 -0.907858 -0.384460
vn 0.166459 -0.912133 -0.374574
vn -0.035347 -0.999372 -0.002653
vn 0.096546 -0.994706 0.035196
vn 0.257742 -0.917650 0.302470
vn 0.088492 -0.995233 0.041004
vn 0.661833 -0.683761 -0.307324
vn 0.760331 -0.633391 0.143921
vn 0.913536 -0.362944 -0.183640
vn 0.555493 -0.820969 -0.132050
vn 0.498919 -0.840760 0.210244
vn 0.311245 -0.911769 0.267963
vn 0.698873 -0.660124 0.275342
vn 0.578277 -0.722514 0.378904
vn 0.560333 -0.821366 0.106701
vn 0.671832 -0.705939 0.224257
vn 0.359718 -0.858065 0.366507
vn 0.661467 -0.716326 0.222123
vn 0.443829 0.827703 -0.343400
vn 0.841199 0.370609 -0.393743
vn 0.948180 -0.317727 0.001832
vn 0.842330 0.538504 -0.022237
vn 0.962553 -0.252785 0.097936
vn 0.794617 -0.532390 -0.291794
vn 0.792743 -0.203135 -0.574713
vn 0.806480 -0.511926 -0.295841
vn 0.818050 -0.400809 -0.412489
vn 0.414725 -0.898336 0.144899
vn 0.602425 -0.735696 -0.309573
vn 0.600095 -0.736561 -0.312033
vn 0.974759 0.099874 -0.199674
vn 0.730466 -0.573885 -0.370238
vn 0.822760 -0.529870 0.205680
vn 0.661203 -0.738693 -0.130931
vn 0.441465 -0.733342 0.517028
vn 0.368529 -0.856223 0.362035
vn 0.571255 -0.765413 0.296328
vn 0.442211 -0.787393 0.429490
vn 0.285357 -0.917198 0.278063
vn 0.848464 -0.136380 0.511380
vn 0.731138 -0.075611 0.678027
vn 0.771946 -0.214000 0.598585
vn 0.882475 -0.294977 -0.366369
vn 0.645456 -0.760186 0.074190
vn 0.688683 -0.688067 0.228648
vn 0.703139 -0.671732 0.233179
vn 0.370555 -0.840059 0.396220
vn 0.575407 -0.731986 0.364834
vn 0.553240 -0.803986 0.218017
vn 0.538498 -0.815426 0.212368
vn 0.811760 -0.473372 -0.342001
vn 0.628583 -0.648981 -0.428611
vn 0.482158 -0.869156 0.109965
vn 0.699033 -0.550853 -0.455976
vn 0.992267 -0.007955 -0.123865
vn 0.680374 -0.703739 0.204556
vn 0.781353 -0.576018 -0.240189
vn 0.875341 -0.470190 -0.112695
vn 0.260495 -0.953717 0.150222
vn 0.338519 -0.922756 0.184192
vn 0.829826 -0.540796 0.137582
vn 0.305346 -0.948809 0.080781
vn 0.810067 -0.531878 -0.246775
vn 0.767662 -0.600243 0.224505
vn 0.438822 -0.898209 0.025586
vn 0.685310 -0.727433 0.034518
vn -0.062243 -0.899667 0.432117
vn 0.089140 -0.908274 0.408769
vn -0.035606 -0.940875 0.336876
vn -0.067290 -0.904143 0.421898
vn 0.550461 -0.642550 0.533031
vn 0.290691 -0.741618 0.604566
vn 0.095529 -0.889301 0.447234
vn 0.290371 -0.701213 0.651141
vn -0.080059 0.138678 0.987096
vn -0.125770 -0.093591 0.987635
vn 0.104073 0.102457 0.989278
vn -0.072152 0.092540 0.993091
vn 0.116251 -0.889313 0.442276
vn 0.228100 -0.748892 0.622199
vn 0.066995 -0.867566 0.492790
vn 0.109744 -0.866494 0.486975
vn 0.646456 -0.012503 0.762849
vn 0.407509 0.147830 0.901156
vn 0.360297 -0.281266 0.889424
vn 0.459090 -0.011298 0.888318
vn 0.380897 0.741689 0.552100
vn 0.520429 -0.312885 0.794517
vn 0.493140 0.368764 0.787925
vn 0.676481 0.368644 0.637554
vn 0.227398 -0.652127 0.723202
vn 0.613980 -0.197466 0.764223
vn 0.471149 -0.095685 0.876849
vn 0.491056 -0.197724 0.848392
vn 0.586401 0.160262 0.794009
vn 0.477033 -0.077777 0.875437
vn 0.565080 -0.309376 0.764834
vn 0.527883 -0.078971 0.845638
vn -0.305817 0.687394 0.658761
vn -0.122500 0.386875 0.913959
vn 0.246213 0.164604 0.955136
vn -0.154177 0.203752 0.966806
vn -0.155738 0.330025 0.931037
vn -0.105503 0.335306 0.936183
vn -0.094530 0.108708 0.989569
vn -0.155196 0.332308 0.930315
vn 0.397752 0.704687 0.587546
vn 0.649897 0.253724 0.716420
vn 0.416566 0.649236 0.636369
vn 0.410832 0.701956 0.581786
vn -0.072522 0.230657 0.970329
vn -0.018318 0.679890 0.733085
vn 0.183925 0.351773 0.917838
vn 0.162137 0.220846 0.961737
vn 0.525740 -0.672538 0.520855
vn 0.640266 -0.096904 0.762017
vn 0.528434 -0.359757 0.768982
vn 0.551926 -0.359848 0.752255
vn 0.364346 0.740986 0.564085
vn 0.499286 0.525372 0.688983
vn 0.588800 -0.313725 0.744911
vn 0.365958 0.522234 0.770290
vn -0.094298 0.088300 0.991620
vn 0.089414 0.046964 0.994887
vn 0.019638 -0.128000 0.991580
vn 0.077405 0.091027 0.992836
vn 0.648270 -0.157818 0.744876
vn 0.405196 -0.133897 0.904372
vn 0.463855 0.047839 0.884618
vn 0.410103 -0.161051 0.897707
vn -0.031184 -0.999397 0.015267
vn -0.028284 -0.999478 0.015626
vn -0.169063 -0.982403 0.079386
vn -0.030437 -0.999449 0.013205
vn -0.105500 -0.972782 0.206311
vn -0.155581 -0.961136 0.228062
vn -0.075689 -0.995534 0.056425
vn -0.116287 -0.974000 0.194424
vn -0.289568 -0.774697 0.562134
vn -0.575112 -0.683279 0.449862
vn -0.836913 0.024310 0.546796
vn -0.583475 -0.184342 0.790933
vn -0.047263 -0.995117 0.086655
vn -0.200556 -0.962654 0.181863
vn -0.218107 -0.952737 0.211477
vn -0.211616 -0.953066 0.216529
vn 0.353047 -0.652709 0.670320
vn -0.121418 -0.769221 0.627341
vn -0.058336 -0.956025 0.287424
vn -0.021159 -0.845657 0.533308
vn -0.419479 -0.861264 0.286813
vn -0.377708 -0.893863 0.241549
vn -0.159982 -0.885566 0.436095
vn -0.386754 -0.879541 0.277181
vn -0.232737 -0.913285 0.334281
vn -0.131698 -0.970508 0.201915
vn -0.379607 -0.894697 0.235407
vn -0.200410 -0.968224 0.149595
vn -0.290058 -0.802040 0.522110
vn -0.381767 -0.891749 0.242976
vn -0.133425 -0.961269 0.241162
vn -0.273168 -0.903541 0.330142
vn -0.568996 -0.686549 0.452653
vn -0.255030 -0.917335 0.305707
vn -0.428462 -0.890582 0.152593
vn -0.256610 -0.913252 0.316420
vn -0.620205 -0.727328 0.293836
vn -0.611036 -0.696225 0.376704
vn -0.398967 -0.876678 0.268813
vn -0.642729 -0.683573 0.345872
vn -0.558325 -0.592126 0.581086
vn -0.166464 -0.905373 0.390627
vn -0.460429 -0.774449 0.433859
vn -0.493866 -0.610374 0.619306
vn -0.437207 -0.810392 0.390020
vn -0.592148 -0.735237 0.329828
vn -0.457002 -0.875859 0.154984
vn -0.527538 -0.790452 0.311270
vn -0.140508 -0.905237 0.401002
vn -0.080904 -0.884233 0.459985
vn -0.163722 -0.949281 0.268443
vn -0.076287 -0.940628 0.330754
vn -0.269984 -0.871437 0.409520
vn -0.280466 -0.897928 0.339212
vn -0.252331 -0.904208 0.344582
vn -0.264987 -0.897457 0.352636
vn -0.237599 -0.954800 0.178617
vn -0.740601 -0.671933 0.004077
vn -0.516709 -0.784202 0.343568
vn -0.392345 -0.919687 -0.015533
vn -0.271047 -0.707185 0.653011
vn -0.298910 -0.799659 0.520766
vn -0.356399 -0.841370 0.406295
vn -0.386784 -0.714011 0.583598
vn -0.115900 -0.954865 -0.273495
vn 0.034158 -0.871100 -0.489916
vn -0.039851 -0.933866 -0.355396
vn -0.004199 -0.944886 -0.327373
vn 0.027122 -0.972332 -0.232022
vn -0.011845 -0.800814 -0.598797
vn 0.116172 -0.863442 -0.490889
vn 0.063552 -0.886490 -0.458364
vn -0.234160 -0.690232 -0.684653
vn 0.091250 -0.659269 -0.746349
vn -0.185882 -0.926760 -0.326442
vn -0.176303 -0.748255 -0.639555
vn 0.127172 -0.835174 -0.535081
vn -0.053716 -0.968677 -0.242444
vn 0.244481 -0.837170 -0.489261
vn 0.206504 -0.893998 -0.397647
vn -0.008141 -0.999939 -0.007403
vn -0.134617 -0.990599 -0.024334
vn 0.023692 -0.999265 -0.030132
vn -0.003083 -0.999947 0.009793
vn -0.631031 -0.773205 -0.062879
vn -0.239843 -0.951046 -0.194900
vn -0.516416 -0.836652 -0.182560
vn -0.415114 -0.909556 -0.019687
vn 0.000978 -0.999218 0.039531
vn 0.030415 -0.999107 0.029335
vn -0.251694 -0.961030 -0.114327
vn 0.025441 -0.999615 0.011035
vn -0.144316 -0.988563 -0.043769
vn -0.193043 -0.967295 -0.164541
vn 0.040896 -0.999015 0.017246
vn -0.134487 -0.989496 -0.053010
vn -0.892430 -0.300778 -0.336305
vn -0.753638 -0.584026 -0.301568
vn -0.770018 -0.468849 -0.432728
vn -0.727629 -0.601411 -0.329939
vn -0.432339 -0.794937 -0.425628
vn -0.313516 -0.888251 -0.335734
vn -0.577214 -0.528598 -0.622422
vn -0.334983 -0.808921 -0.483150
vn -0.770245 0.153642 -0.618964
vn -0.349987 -0.888413 -0.297040
vn -0.909094 -0.174058 -0.378486
vn -0.859720 -0.223698 -0.459174
vn -0.888750 -0.338118 -0.309516
vn -0.686201 -0.726776 0.030413
vn -0.352071 -0.885024 -0.304595
vn -0.644214 -0.764391 0.026352
vn -0.008873 -0.978601 -0.205575
vn -0.487068 -0.747786 -0.451199
vn -0.192315 -0.847465 -0.494791
vn -0.202872 -0.803135 -0.560193
vn -0.742199 -0.122381 -0.658911
vn -0.766583 -0.531376 -0.360542
vn -0.304291 -0.856053 -0.417828
vn -0.748440 -0.117730 -0.652670
vn -0.529762 -0.703801 -0.473303
vn -0.315229 -0.922157 -0.224182
vn -0.389703 -0.841521 -0.374130
vn -0.476418 -0.829872 -0.290411
vn -0.370366 -0.851043 -0.372229
vn -0.425452 -0.625483 -0.654035
vn -0.393192 -0.613479 -0.684868
vn -0.434872 -0.612085 -0.660483
vn 0.968416 -0.111745 -0.222896
vn 0.598351 -0.106166 -0.794170
vn 0.563834 0.020288 -0.825639
vn 0.596840 -0.110507 -0.794714
vn 0.448469 -0.725043 -0.522674
vn 0.415262 0.417935 -0.808015
vn 0.607335 -0.540314 -0.582414
vn 0.619286 -0.539582 -0.570382
vn 0.019665 0.560424 -0.827972
vn 0.664132 0.334095 -0.668812
vn 0.175456 0.483857 -0.857378
vn 0.139758 0.294451 -0.945392
vn 0.820565 -0.109444 -0.560976
vn 0.345690 0.071191 -0.935644
vn 0.775623 0.021252 -0.630839
vn 0.785422 0.077614 -0.614076
vn 0.016687 -0.929851 -0.367558
vn 0.010042 -0.839978 -0.542528
vn 0.273101 -0.887017 -0.372312
vn 0.042364 -0.912746 -0.406324
vn -0.044715 -0.465487 -0.883925
vn 0.024119 -0.514774 -0.856986
vn -0.041454 -0.536080 -0.843149
vn -0.033040 -0.512221 -0.858218
vn 0.215323 -0.809631 -0.546016
vn -0.096591 -0.875574 -0.473329
vn 0.028998 -0.913020 -0.406882
vn -0.030669 -0.793961 -0.607194
vn 0.038568 -0.806050 -0.590590
vn 0.126414 -0.914977 -0.383193
vn 0.285435 -0.878761 -0.382500
vn 0.298709 -0.783300 -0.545174
vn 0.094884 0.912807 -0.397217
vn 0.026824 0.940580 -0.338510
vn -0.073227 0.616446 -0.783985
vn 0.049159 0.940546 -0.336089
vn 0.373989 0.700356 -0.607975
vn 0.619725 0.452584 -0.641178
vn 0.312452 0.885681 -0.343427
vn 0.585478 0.639348 -0.498447
vn -0.029613 0.570283 -0.820915
vn 0.088986 0.632518 -0.769417
vn -0.061751 0.740354 -0.669375
vn 0.024906 0.747103 -0.664241
vn 0.082781 0.907844 -0.411057
vn -0.129836 0.541965 -0.830311
vn 0.032072 0.336927 -0.940984
vn -0.066364 0.337501 -0.938983
vn 0.303998 -0.718130 -0.625998
vn 0.497851 -0.250199 -0.830389
vn 0.378915 0.414686 -0.827320
vn 0.248149 -0.231134 -0.940744
vn 0.121085 0.109241 -0.986613
vn 0.099709 0.348098 -0.932141
vn 0.124258 -0.223776 -0.966687
vn 0.038132 0.108459 -0.993369
vn 0.420552 0.642027 -0.641044
vn 0.439956 0.521785 -0.730875
vn 0.567477 0.544497 -0.617652
vn 0.423136 0.549536 -0.720393
vn 0.494586 -0.224003 -0.839766
vn 0.578553 0.339129 -0.741800
vn 0.426391 0.310990 -0.849397
vn 0.592044 0.307068 -0.745113
vn 0.625085 0.270798 0.732077
vn 0.404744 0.890001 0.209954
vn 0.716423 0.697564 -0.011901
vn 0.549277 0.835451 -0.017806
vn 0.819690 0.460764 -0.340303
vn 0.833684 0.548313 0.065761
vn 0.724343 0.684394 0.083258
vn 0.711486 0.700555 0.054872
vn 0.251783 0.961320 0.111668
vn 0.759251 -0.005741 0.650773
vn 0.899985 0.352643 0.256261
vn 0.837070 0.420007 0.350583
vn 0.431238 0.782002 0.450008
vn 0.750107 0.626757 0.210987
vn 0.758905 0.006201 0.651172
vn 0.714401 0.053578 0.697682
vn 0.725789 -0.397346 -0.561558
vn 0.758608 -0.463790 -0.457617
vn 0.852959 -0.336247 -0.399248
vn 0.823523 -0.272690 -0.497443
vn 0.149185 0.978111 -0.145064
vn 0.886947 0.319736 -0.333307
vn 0.740543 0.427999 -0.518085
vn 0.740767 0.444311 -0.503837
vn 0.832953 -0.546816 0.084750
vn 0.609613 -0.658067 -0.441950
vn 0.980806 -0.012911 -0.194558
vn 0.897562 -0.403584 -0.177487
vn 0.729045 -0.492008 -0.475838
vn 0.931119 0.104668 -0.349374
vn 0.592038 -0.585768 -0.553504
vn 0.672069 -0.373240 -0.639543
vn 0.362459 0.919052 -0.154814
vn 0.649968 0.751989 -0.109792
vn 0.333375 0.924861 0.183012
vn 0.588501 0.787808 -0.181728
vn 0.343723 0.898273 0.273788
vn 0.326772 0.928907 -0.174220
vn 0.864186 0.502209 0.031127
vn 0.231100 0.972896 0.008066
vn 0.548510 0.822883 -0.148325
vn 0.809015 0.580583 0.091752
vn 0.465402 0.867045 0.177859
vn 0.407402 0.910395 0.072145
vn 0.769356 0.628024 -0.116949
vn 0.522429 0.845376 0.111389
vn 0.679544 0.692359 0.242607
vn 0.618357 0.776500 0.121170
vn 0.889953 -0.300451 0.343094
vn 0.833185 0.481114 0.272638
vn 0.893449 0.348771 0.283031
vn 0.845486 0.409967 0.342169
vn 0.140569 0.986950 -0.078544
vn 0.319399 0.936367 0.145606
vn 0.531951 0.781834 0.325212
vn 0.282362 0.934866 0.215169
vn 0.279375 0.927721 0.247554
vn 0.853327 0.514828 0.082375
vn 0.308120 0.936179 -0.169206
vn 0.415690 0.907599 0.058881
vn 0.472766 0.863300 0.176650
vn 0.246612 0.968884 -0.021120
vn 0.739009 0.626957 0.246556
vn 0.606373 0.794318 -0.037020
s off
f 1//1 163//1 165//1
f 43//2 164//2 163//2
f 45//3 165//3 164//3
f 163//4 164//4 165//4
f 13//5 166//5 168//5
f 44//6 167//6 166//6
f 43//7 168//7 167//7
f 166//8 167//8 168//8
f 15//9 169//9 171//9
f 45//10 170//10 169//10
f 44//11 171//11 170//11
f 169//12 170//12 171//12
f 43//13 167//13 164//13
f 44//14 170//14 167//14
f 45//15 164//15 170//15
f 167//16 170//16 164//16
f 12//17 172//17 174//17
f 46//18 173//18 172//18
f 48//19 174//19 173//19
f 172//20 173//20 174//20
f 14//21 175//21 177//21
f 47//22 176//22 175//22
f 46//23 177//23 176//23
f 175//24 176//24 177//24
f 13//25 178//25 180//25
f 48//26 179//26 178//26
f 47//27 180//27 179//27
f 178//28 179//28 180//28
f 46//29 176//29 173//29
f 47//30 179//30 176//30
f 48//31 173//31 179//31
f 176//32 179//32 173//32
f 6//33 181//33 183//33
f 49//34 182//34 181//34
f 51//35 183//35 182//35
f 181//36 182//36 183//36
f 15//37 184//37 186//37
f 50//38 185//38 184//38
f 49//39 186//39 185//39
f 184//40 185//40 186//40
f 14//41 187//41 189//41
f 51//42 188//42 187//42
f 50//43 189//43 188//43
f 187//44 188//44 189//44
f 49//45 185//45 182//45
f 50//46 188//46 185//46
f 51//47 182//47 188//47
f 185//48 188//48 182//48
f 13//49 180//49 166//49
f 47//50 190//50 180//50
f 44//51 166//51 190//51
f 180//52 190//52 166//52
f 14//53 189//53 175//53
f 50//54 191//54 189//54
f 47//55 175//55 191//55
f 189//56 191//56 175//56
f 15//57 171//57 184//57
f 44//58 192//58 171//58
f 50//59 184//59 192//59
f 171//60 192//60 184//60
f 47//61 191//61 190//61
f 50//62 192//62 191//62
f 44//63 190//63 192//63
f 191//64 192//64 190//64
f 1//65 165//65 194//65
f 45//66 193//66 165//66
f 53//67 194//67 193//67
f 165//68 193//68 194//68
f 15//69 195//69 169//69
f 52//70 196//70 195//70
f 45//71 169//71 196//71
f 195//72 196//72 169//72
f 17//73 197//73 199//73
f 53//74 198//74 197//74
f 52//75 199//75 198//75
f 197//76 198//76 199//76
f 45//77 196//77 193//77
f 52//78 198//78 196//78
f 53//79 193//79 198//79
f 196//80 198//80 193//80
f 6//81 200//81 181//81
f 54//82 201//82 200//82
f 49//83 181//83 201//83
f 200//84 201//84 181//84
f 16//85 202//85 204//85
f 55//86 203//86 202//86
f 54//87 204//87 203//87
f 202//88 203//88 204//88
f 15//89 186//89 206//89
f 49//90 205//90 186//90
f 55//91 206//91 205//91
f 186//92 205//92 206//92
f 54//93 203//93 201//93
f 55//94 205//94 203//94
f 49//95 201//95 205//95
f 203//96 205//96 201//96
f 2//97 207//97 209//97
f 56//98 208//98 207//98
f 58//99 209//99 208//99
f 207//100 208//100 209//100
f 17//101 210//101 212//101
f 57//102 211//102 210//102
f 56//103 212//103 211//103
f 210//104 211//104 212//104
f 16//105 213//105 215//105
f 58//106 214//106 213//106
f 57//107 215//107 214//107
f 213//108 214//108 215//108
f 56//109 211//109 208//109
f 57//110 214//110 211//110
f 58//111 208//111 214//111
f 211//112 214//112 208//112
f 15//113 206//113 195//113
f 55//114 216//114 206//114
f 52//115 195//115 216//115
f 206//116 216//116 195//116
f 16//117 215//117 202//117
f 57//118 217//118 215//118
f 55//119 202//119 217//119
f 215//120 217//120 202//120
f 17//121 199//121 210//121
f 52//122 218//122 199//122
f 57//123 210//123 218//123
f 199//124 218//124 210//124
f 55//125 217//125 216//125
f 57//126 218//126 217//126
f 52//127 216//127 218//127
f 217//128 218//128 216//128
f 1//129 194//129 220//129
f 53//130 219//130 194//130
f 60//131 220//131 219//131
f 194//132 219//132 220//132
f 17//133 221//133 197//133
f 59//134 222//134 221//134
f 53//135 197//135 222//135
f 221//136 222//136 197//136
f 19//137 223//137 225//137
f 60//138 224//138 223//138
f 59//139 225//139 224//139
f 223//140 224//140 225//140
f 53//141 222//141 219//141
f 59//142 224//142 222//142
f 60//143 219//143 224//143
f 222//144 224//144 219//144
f 2//145 226//145 207//145
f 61//146 227//146 226//146
f 56//147 207//147 227//147
f 226//148 227//148 207//148
f 18//149 228//149 230//149
f 62//150 229//150 228//150
f 61//151 230//151 229//151
f 228//152 229//152 230//152
f 17//153 212//153 232//153
f 56//154 231//154 212//154
f 62//155 232//155 231//155
f 212//156 231//156 232//156
f 61//157 229//157 227//157
f 62//158 231//158 229//158
f 56//159 227//159 231//159
f 229//160 231//160 227//160
f 8//161 233//161 235//161
f 63//162 234//162 233//162
f 65//163 235//163 234//163
f 233//164 234//164 235//164
f 19//165 236//165 238//165
f 64//166 237//166 236//166
f 63//167 238//167 237//167
f 236//168 237//168 238//168
f 18//169 239//169 241//169
f 65//170 240//170 239//170
f 64//171 241//171 240//171
f 239//172 240//172 241//172
f 63//173 237//173 234//173
f 64//174 240//174 237//174
f 65//175 234//175 240//175
f 237//176 240//176 234//176
f 17//177 232//177 221//177
f 62//178 242//178 232//178
f 59//179 221//179 242//179
f 232//180 242//180 221//180
f 18//181 241//181 228//181
f 64//182 243//182 241//182
f 62//183 228//183 243//183
f 241//184 243//184 228//184
f 19//185 225//185 236//185
f 59//186 244//186 225//186
f 64//187 236//187 244//187
f 225//188 244//188 236//188
f 62//189 243//189 242//189
f 64//190 244//190 243//190
f 59//191 242//191 244//191
f 243//192 244//192 242//192
f 1//193 220//193 246//193
f 60//194 245//194 220//194
f 67//195 246//195 245//195
f 220//196 245//196 246//196
f 19//197 247//197 223//197
f 66//198 248//198 247//198
f 60//199 223//199 248//199
f 247//200 248//200 223//200
f 21//201 249//201 251//201
f 67//202 250//202 249//202
f 66//203 251//203 250//203
f 249//204 250//204 251//204
f 60//205 248//205 245//205
f 66//206 250//206 248//206
f 67//207 245//207 250//207
f 248//208 250//208 245//208
f 8//209 252//209 233//209
f 68//210 253//210 252//210
f 63//211 233//211 253//211
f 252//212 253//212 233//212
f 20//213 254//213 256//213
f 69//214 255//214 254//214
f 68//215 256//215 255//215
f 254//216 255//216 256//216
f 19//217 238//217 258//217
f 63//218 257//218 238//218
f 69//219 258//219 257//219
f 238//220 257//220 258//220
f 68//221 255//221 253//221
f 69//222 257//222 255//222
f 63//223 253//223 257//223
f 255//224 257//224 253//224
f 11//225 259//225 261//225
f 70//226 260//226 259//226
f 72//227 261//227 260//227
f 259//228 260//228 261//228
f 21//229 262//229 264//229
f 71//230 263//230 262//230
f 70//231 264//231 263//231
f 262//232 263//232 264//232
f 20//233 265//233 267//233
f 72//234 266//234 265//234
f 71//235 267//235 266//235
f 265//236 266//236 267//236
f 70//237 263//237 260//237
f 71//238 266//238 263//238
f 72//239 260//239 266//239
f 263//240 266//240 260//240
f 19//241 258//241 247//241
f 69//242 268//242 258//242
f 66//243 247//243 268//243
f 258//244 268//244 247//244
f 20//245 267//245 254//245
f 71//246 269//246 267//246
f 69//247 254//247 269//247
f 267//248 269//248 254//248
f 21//249 251//249 262//249
f 66//250 270//250 251//250
f 71//251 262//251 270//251
f 251//252 270//252 262//252
f 69//253 269//253 268//253
f 71//254 270//254 269//254
f 66//255 268//255 270//255
f 269//256 270//256 268//256
f 1//257 246//257 163//257
f 67//258 271//258 246//258
f 43//259 163//259 271//259
f 246//260 271//260 163//260
f 21//261 272//261 249//261
f 73//262 273//262 272//262
f 67//263 249//263 273//263
f 272//264 273//264 249//264
f 13//265 168//265 275//265
f 43//266 274//266 168//266
f 73//267 275//267 274//267
f 168//268 274//268 275//268
f 67//269 273//269 271//269
f 73//270 274//270 273//270
f 43//271 271//271 274//271
f 273//272 274//272 271//272
f 11//273 276//273 259//273
f 74//274 277//274 276//274
f 70//275 259//275 277//275
f 276//276 277//276 259//276
f 22//277 278//277 280//277
f 75//278 279//278 278//278
f 74//279 280//279 279//279
f 278//280 279//280 280//280
f 21//281 264//281 282//281
f 70//282 281//282 264//282
f 75//283 282//283 281//283
f 264//284 281//284 282//284
f 74//285 279//285 277//285
f 75//286 281//286 279//286
f 70//287 277//287 281//287
f 279//288 281//288 277//288
f 12//289 174//289 284//289
f 48//290 283//290 174//290
f 77//291 284//291 283//291
f 174//292 283//292 284//292
f 13//293 285//293 178//293
f 76//294 286//294 285//294
f 48//295 178//295 286//295
f 285//296 286//296 178//296
f 22//297 287//297 289//297
f 77//298 288//298 287//298
f 76//299 289//299 288//299
f 287//300 288//300 289//300
f 48//301 286//301 283//301
f 76//302 288//302 286//302
f 77//303 283//303 288//303
f 286//304 288//304 283//304
f 21//305 282//305 272//305
f 75//306 290//306 282//306
f 73//307 272//307 290//307
f 282//308 290//308 272//308
f 22//309 289//309 278//309
f 76//310 291//310 289//310
f 75//311 278//311 291//311
f 289//312 291//312 278//312
f 13//313 275//313 285//313
f 73//314 292//314 275//314
f 76//315 285//315 292//315
f 275//316 292//316 285//316
f 75//317 291//317 290//317
f 76//318 292//318 291//318
f 73//319 290//319 292//319
f 291//320 292//320 290//320
f 2//321 209//321 294//321
f 58//322 293//322 209//322
f 79//323 294//323 293//323
f 209//324 293//324 294//324
f 16//325 295//325 213//325
f 78//326 296//326 295//326
f 58//327 213//327 296//327
f 295//328 296//328 213//328
f 24//329 297//329 299//329
f 79//330 298//330 297//330
f 78//331 299//331 298//331
f 297//332 298//332 299//332
f 58//333 296//333 293//333
f 78//334 298//334 296//334
f 79//335 293//335 298//335
f 296//336 298//336 293//336
f 6//337 300//337 200//337
f 80//338 301//338 300//338
f 54//339 200//339 301//339
f 300//340 301//340 200//340
f 23//341 302//341 304//341
f 81//342 303//342 302//342
f 80//343 304//343 303//343
f 302//344 303//344 304//344
f 16//345 204//345 306//345
f 54//346 305//346 204//346
f 81//347 306//347 305//347
f 204//348 305//348 306//348
f 80//349 303//349 301//349
f 81//350 305//350 303//350
f 54//351 301//351 305//351
f 303//352 305//352 301//352
f 10//353 307//353 309//353
f 82//354 308//354 307//354
f 84//355 309//355 308//355
f 307//356 308//356 309//356
f 24//357 310//357 312//357
f 83//358 311//358 310//358
f 82//359 312//359 311//359
f 310//360 311//360 312//360
f 23//361 313//361 315//361
f 84//362 314//362 313//362
f 83//363 315//363 314//363
f 313//364 314//364 315//364
f 82//365 311//365 308//365
f 83//366 314//366 311//366
f 84//367 308//367 314//367
f 311//368 314//368 308//368
f 16//369 306//369 295//369
f 81//370 316//370 306//370
f 78//371 295//371 316//371
f 306//372 316//372 295//372
f 23//373 315//373 302//373
f 83//374 317//374 315//374
f 81//375 302//375 317//375
f 315//376 317//376 302//376
f 24//377 299//377 310//377
f 78//378 318//378 299//378
f 83//379 310//379 318//379
f 299//380 318//380 310//380
f 81//381 317//381 316//381
f 83//382 318//382 317//382
f 78//383 316//383 318//383
f 317//384 318//384 316//384
f 6//385 183//385 320//385
f 51//386 319//386 183//386
f 86//387 320//387 319//387
f 183//388 319//388 320//388
f 14//389 321//389 187//389
f 85//390 322//390 321//390
f 51//391 187//391 322//391
f 321//392 322//392 187//392
f 26//393 323//393 325//393
f 86//394 324//394 323//394
f 85//395 325//395 324//395
f 323//396 324//396 325//396
f 51//397 322//397 319//397
f 85//398 324//398 322//398
f 86//399 319//399 324//399
f 322//400 324//400 319//400
f 12//401 326//401 172//401
f 87//402 327//402 326//402
f 46//403 172//403 327//403
f 326//404 327//404 172//404
f 25//405 328//405 330//405
f 88//406 329//406 328//406
f 87//407 330//407 329//407
f 328//408 329//408 330//408
f 14//409 177//409 332//409
f 46//410 331//410 177//410
f 88//411 332//411 331//411
f 177//412 331//412 332//412
f 87//413 329//413 327//413
f 88//414 331//414 329//414
f 46//415 327//415 331//415
f 329//416 331//416 327//416
f 5//417 333//417 335//417
f 89//418 334//418 333//418
f 91//419 335//419 334//419
f 333//420 334//420 335//420
f 26//421 336//421 338//421
f 90//422 337//422 336//422
f 89//423 338//423 337//423
f 336//424 337//424 338//424
f 25//425 339//425 341//425
f 91//426 340//426 339//426
f 90//427 341//427 340//427
f 339//428 340//428 341//428
f 89//429 337//429 334//429
f 90//430 340//430 337//430
f 91//431 334//431 340//431
f 337//432 340//432 334//432
f 14//433 332//433 321//433
f 88//434 342//434 332//434
f 85//435 321//435 342//435
f 332//436 342//436 321//436
f 25//437 341//437 328//437
f 90//438 343//438 341//438
f 88//439 328//439 343//439
f 341//440 343//440 328//440
f 26//441 325//441 336//441
f 85//442 344//442 325//442
f 90//443 336//443 344//443
f 325//444 344//444 336//444
f 88//445 343//445 342//445
f 90//446 344//446 343//446
f 85//447 342//447 344//447
f 343//448 344//448 342//448
f 12//449 284//449 346//449
f 77//450 345//450 284//450
f 93//451 346//451 345//451
f 284//452 345//452 346//452
f 22//453 347//453 287//453
f 92//454 348//454 347//454
f 77//455 287//455 348//455
f 347//456 348//456 287//456
f 28//457 349//457 351//457
f 93//458 350//458 349//458
f 92//459 351//459 350//459
f 349//460 350//460 351//460
f 77//461 348//461 345//461
f 92//462 350//462 348//462
f 93//463 345//463 350//463
f 348//464 350//464 345//464
f 11//465 352//465 276//465
f 94//466 353//466 352//466
f 74//467 276//467 353//467
f 352//468 353//468 276//468
f 27//469 354//469 356//469
f 95//470 355//470 354//470
f 94//471 356//471 355//471
f 354//472 355//472 356//472
f 22//473 280//473 358//473
f 74//474 357//474 280//474
f 95//475 358//475 357//475
f 280//476 357//476 358//476
f 94//477 355//477 353//477
f 95//478 357//478 355//478
f 74//479 353//479 357//479
f 355//480 357//480 353//480
f 3//481 359//481 361//481
f 96//482 360//482 359//482
f 98//483 361//483 360//483
f 359//484 360//484 361//484
f 28//485 362//485 364//485
f 97//486 363//486 362//486
f 96//487 364//487 363//487
f 362//488 363//488 364//488
f 27//489 365//489 367//489
f 98//490 366//490 365//490
f 97//491 367//491 366//491
f 365//492 366//492 367//492
f 96//493 363//493 360//493
f 97//494 366//494 363//494
f 98//495 360//495 366//495
f 363//496 366//496 360//496
f 22//497 358//497 347//497
f 95//498 368//498 358//498
f 92//499 347//499 368//499
f 358//500 368//500 347//500
f 27//501 367//501 354//501
f 97//502 369//502 367//502
f 95//503 354//503 369//503
f 367//504 369//504 354//504
f 28//505 351//505 362//505
f 92//506 370//506 351//506
f 97//507 362//507 370//507
f 351//508 370//508 362//508
f 95//509 369//509 368//509
f 97//510 370//510 369//510
f 92//511 368//511 370//511
f 369//512 370//512 368//512
f 11//513 261//513 372//513
f 72//514 371//514 261//514
f 100//515 372//515 371//515
f 261//516 371//516 372//516
f 20//517 373//517 265//517
f 99//518 374//518 373//518
f 72//519 265//519 374//519
f 373//520 374//520 265//520
f 30//521 375//521 377//521
f 100//522 376//522 375//522
f 99//523 377//523 376//523
f 375//524 376//524 377//524
f 72//525 374//525 371//525
f 99//526 376//526 374//526
f 100//527 371//527 376//527
f 374//528 376//528 371//528
f 8//529 378//529 252//529
f 101//530 379//530 378//530
f 68//531 252//531 379//531
f 378//532 379//532 252//532
f 29//533 380//533 382//533
f 102//534 381//534 380//534
f 101//535 382//535 381//535
f 380//536 381//536 382//536
f 20//537 256//537 384//537
f 68//538 383//538 256//538
f 102//539 384//539 383//539
f 256//540 383//540 384//540
f 101//541 381//541 379//541
f 102//542 383//542 381//542
f 68//543 379//543 383//543
f 381//544 383//544 379//544
f 7//545 385//545 387//545
f 103//546 386//546 385//546
f 105//547 387//547 386//547
f 385//548 386//548 387//548
f 30//549 388//549 390//549
f 104//550 389//550 388//550
f 103//551 390//551 389//551
f 388//552 389//552 390//552
f 29//553 391//553 393//553
f 105//554 392//554 391//554
f 104//555 393//555 392//555
f 391//556 392//556 393//556
f 103//557 389//557 386//557
f 104//558 392//558 389//558
f 105//559 386//559 392//559
f 389//560 392//560 386//560
f 20//561 384//561 373//561
f 102//562 394//562 384//562
f 99//563 373//563 394//563
f 384//564 394//564 373//564
f 29//565 393//565 380//565
f 104//566 395//566 393//566
f 102//567 380//567 395//567
f 393//568 395//568 380//568
f 30//569 377//569 388//569
f 99//570 396//570 377//570
f 104//571 388//571 396//571
f 377//572 396//572 388//572
f 102//573 395//573 394//573
f 104//574 396//574 395//574
f 99//575 394//575 396//575
f 395//576 396//576 394//576
f 8//577 235//577 398//577
f 65//578 397//578 235//578
f 107//579 398//579 397//579
f 235//580 397//580 398//580
f 18//581 399//581 239//581
f 106//582 400//582 399//582
f 65//583 239//583 400//583
f 399//584 400//584 239//584
f 32//585 401//585 403//585
f 107//586 402//586 401//586
f 106//587 403//587 402//587
f 401//588 402//588 403//588
f 65//589 400//589 397//589
f 106//590 402//590 400//590
f 107//591 397//591 402//591
f 400//592 402//592 397//592
f 2//593 404//593 226//593
f 108//594 405//594 404//594
f 61//595 226//595 405//595
f 404//596 405//596 226//596
f 31//597 406//597 408//597
f 109//598 407//598 406//598
f 108//599 408//599 407//599
f 406//600 407//600 408//600
f 18//601 230//601 410//601
f 61//602 409//602 230//602
f 109//603 410//603 409//603
f 230//604 409//604 410//604
f 108//605 407//605 405//605
f 109//606 409//606 407//606
f 61//607 405//607 409//607
f 407//608 409//608 405//608
f 9//609 411//609 413//609
f 110//610 412//610 411//610
f 112//611 413//611 412//611
f 411//612 412//612 413//612
f 32//613 414//613 416//613
f 111//614 415//614 414//614
f 110//615 416//615 415//615
f 414//616 415//616 416//616
f 31//617 417//617 419//617
f 112//618 418//618 417//618
f 111//619 419//619 418//619
f 417//620 418//620 419//620
f 110//621 415//621 412//621
f 111//622 418//622 415//622
f 112//623 412//623 418//623
f 415//624 418//624 412//624
f 18//625 410//625 399//625
f 109//626 420//626 410//626
f 106//627 399//627 420//627
f 410//628 420//628 399//628
f 31//629 419//629 406//629
f 111//630 421//630 419//630
f 109//631 406//631 421//631
f 419//632 421//632 406//632
f 32//633 403//633 414//633
f 106//634 422//634 403//634
f 111//635 414//635 422//635
f 403//636 422//636 414//636
f 109//637 421//637 420//637
f 111//638 422//638 421//638
f 106//639 420//639 422//639
f 421//640 422//640 420//640
f 4//641 423//641 425//641
f 113//642 424//642 423//642
f 115//643 425//643 424//643
f 423//644 424//644 425//644
f 33//645 426//645 428//645
f 114//646 427//646 426//646
f 113//647 428//647 427//647
f 426//648 427//648 428//648
f 35//649 429//649 431//649
f 115//650 430//650 429//650
f 114//651 431//651 430//651
f 429//652 430//652 431//652
f 113//653 427//653 424//653
f 114//654 430//654 427//654
f 115//655 424//655 430//655
f 427//656 430//656 424//656
f 10//657 432//657 434//657
f 116//658 433//658 432//658
f 118//659 434//659 433//659
f 432//660 433//660 434//660
f 34//661 435//661 437//661
f 117//662 436//662 435//662
f 116//663 437//663 436//663
f 435//664 436//664 437//664
f 33//665 438//665 440//665
f 118//666 439//666 438//666
f 117//667 440//667 439//667
f 438//668 439//668 440//668
f 116//669 436//669 433//669
f 117//670 439//670 436//670
f 118//671 433//671 439//671
f 436//672 439//672 433//672
f 5//673 441//673 443//673
f 119//674 442//674 441//674
f 121//675 443//675 442//675
f 441//676 442//676 443//676
f 35//677 444//677 446//677
f 120//678 445//678 444//678
f 119//679 446//679 445//679
f 444//680 445//680 446//680
f 34//681 447//681 449//681
f 121//682 448//682 447//682
f 120//683 449//683 448//683
f 447//684 448//684 449//684
f 119//685 445//685 442//685
f 120//686 448//686 445//686
f 121//687 442//687 448//687
f 445//688 448//688 442//688
f 33//689 440//689 426//689
f 117//690 450//690 440//690
f 114//691 426//691 450//691
f 440//692 450//692 426//692
f 34//693 449//693 435//693
f 120//694 451//694 449//694
f 117//695 435//695 451//695
f 449//696 451//696 435//696
f 35//697 431//697 444//697
f 114//698 452//698 431//698
f 120//699 444//699 452//699
f 431//700 452//700 444//700
f 117//701 451//701 450//701
f 120//702 452//702 451//702
f 114//703 450//703 452//703
f 451//704 452//704 450//704
f 4//705 425//705 454//705
f 115//706 453//706 425//706
f 123//707 454//707 453//707
f 425//708 453//708 454//708
f 35//709 455//709 429//709
f 122//710 456//710 455//710
f 115//711 429//711 456//711
f 455//712 456//712 429//712
f 37//713 457//713 459//713
f 123//714 458//714 457//714
f 122//715 459//715 458//715
f 457//716 458//716 459//716
f 115//717 456//717 453//717
f 122//718 458//718 456//718
f 123//719 453//719 458//719
f 456//720 458//720 453//720
f 5//721 460//721 441//721
f 124//722 461//722 460//722
f 119//723 441//723 461//723
f 460//724 461//724 441//724
f 36//725 462//725 464//725
f 125//726 463//726 462//726
f 124//727 464//727 463//727
f 462//728 463//728 464//728
f 35//729 446//729 466//729
f 119//730 465//730 446//730
f 125//731 466//731 465//731
f 446//732 465//732 466//732
f 124//733 463//733 461//733
f 125//734 465//734 463//734
f 119//735 461//735 465//735
f 463//736 465//736 461//736
f 3//737 467//737 469//737
f 126//738 468//738 467//738
f 128//739 469//739 468//739
f 467//740 468//740 469//740
f 37//741 470//741 472//741
f 127//742 471//742 470//742
f 126//743 472//743 471//743
f 470//744 471//744 472//744
f 36//745 473//745 475//745
f 128//746 474//746 473//746
f 127//747 475//747 474//747
f 473//748 474//748 475//748
f 126//749 471//749 468//749
f 127//750 474//750 471//750
f 128//751 468//751 474//751
f 471//752 474//752 468//752
f 35//753 466//753 455//753
f 125//754 476//754 466//754
f 122//755 455//755 476//755
f 466//756 476//756 455//756
f 36//757 475//757 462//757
f 127//758 477//758 475//758
f 125//759 462//759 477//759
f 475//760 477//760 462//760
f 37//761 459//761 470//761
f 122//762 478//762 459//762
f 127//763 470//763 478//763
f 459//764 478//764 470//764
f 125//765 477//765 476//765
f 127//766 478//766 477//766
f 122//767 476//767 478//767
f 477//768 478//768 476//768
f 4//769 454//769 480//769
f 123//770 479//770 454//770
f 130//771 480//771 479//771
f 454//772 479//772 480//772
f 37//773 481//773 457//773
f 129//774 482//774 481//774
f 123//775 457//775 482//775
f 481//776 482//776 457//776
f 39//777 483//777 485//777
f 130//778 484//778 483//778
f 129//779 485//779 484//779
f 483//780 484//780 485//780
f 123//781 482//781 479//781
f 129//782 484//782 482//782
f 130//783 479//783 484//783
f 482//784 484//784 479//784
f 3//785 486//785 467//785
f 131//786 487//786 486//786
f 126//787 467//787 487//787
f 486//788 487//788 467//788
f 38//789 488//789 490//789
f 132//790 489//790 488//790
f 131//791 490//791 489//791
f 488//792 489//792 490//792
f 37//793 472//793 492//793
f 126//794 491//794 472//794
f 132//795 492//795 491//795
f 472//796 491//796 492//796
f 131//797 489//797 487//797
f 132//798 491//798 489//798
f 126//799 487//799 491//799
f 489//800 491//800 487//800
f 7//801 493//801 495//801
f 133//802 494//802 493//802
f 135//803 495//803 494//803
f 493//804 494//804 495//804
f 39//805 496//805 498//805
f 134//806 497//806 496//806
f 133//807 498//807 497//807
f 496//808 497//808 498//808
f 38//809 499//809 501//809
f 135//810 500//810 499//810
f 134//811 501//811 500//811
f 499//812 500//812 501//812
f 133//813 497//813 494//813
f 134//814 500//814 497//814
f 135//815 494//815 500//815
f 497//816 500//816 494//816
f 37//817 492//817 481//817
f 132//818 502//818 492//818
f 129//819 481//819 502//819
f 492//820 502//820 481//820
f 38//821 501//821 488//821
f 134//822 503//822 501//822
f 132//823 488//823 503//823
f 501//824 503//824 488//824
f 39//825 485//825 496//825
f 129//826 504//826 485//826
f 134//827 496//827 504//827
f 485//828 504//828 496//828
f 132//829 503//829 502//829
f 134//830 504//830 503//830
f 129//831 502//831 504//831
f 503//832 504//832 502//832
f 4//833 480//833 506//833
f 130//834 505//834 480//834
f 137//835 506//835 505//835
f 480//836 505//836 506//836
f 39//837 507//837 483//837
f 136//838 508//838 507//838
f 130//839 483//839 508//839
f 507//840 508//840 483//840
f 41//841 509//841 511//841
f 137//842 510//842 509//842
f 136//843 511//843 510//843
f 509//844 510//844 511//844
f 130//845 508//845 505//845
f 136//846 510//846 508//846
f 137//847 505//847 510//847
f 508//848 510//848 505//848
f 7//849 512//849 493//849
f 138//850 513//850 512//850
f 133//851 493//851 513//851
f 512//852 513//852 493//852
f 40//853 514//853 516//853
f 139//854 515//854 514//854
f 138//855 516//855 515//855
f 514//856 515//856 516//856
f 39//857 498//857 518//857
f 133//858 517//858 498//858
f 139//859 518//859 517//859
f 498//860 517//860 518//860
f 138//861 515//861 513//861
f 139//862 517//862 515//862
f 133//863 513//863 517//863
f 515//864 517//864 513//864
f 9//865 519//865 521//865
f 140//866 520//866 519//866
f 142//867 521//867 520//867
f 519//868 520//868 521//868
f 41//869 522//869 524//869
f 141//870 523//870 522//870
f 140//871 524//871 523//871
f 522//872 523//872 524//872
f 40//873 525//873 527//873
f 142//874 526//874 525//874
f 141//875 527//875 526//875
f 525//876 526//876 527//876
f 140//877 523//877 520//877
f 141//878 526//878 523//878
f 142//879 520//879 526//879
f 523//880 526//880 520//880
f 39//881 518//881 507//881
f 139//882 528//882 518//882
f 136//883 507//883 528//883
f 518//884 528//884 507//884
f 40//885 527//885 514//885
f 141//886 529//886 527//886
f 139//887 514//887 529//887
f 527//888 529//888 514//888
f 41//889 511//889 522//889
f 136//890 530//890 511//890
f 141//891 522//891 530//891
f 511//892 530//892 522//892
f 139//893 529//893 528//893
f 141//894 530//894 529//894
f 136//895 528//895 530//895
f 529//896 530//896 528//896
f 4//897 506//897 423//897
f 137//898 531//898 506//898
f 113//899 423//899 531//899
f 506//900 531//900 423//900
f 41//901 532//901 509//901
f 143//902 533//902 532//902
f 137//903 509//903 533//903
f 532//904 533//904 509//904
f 33//905 428//905 535//905
f 113//906 534//906 428//906
f 143//907 535//907 534//907
f 428//908 534//908 535//908
f 137//909 533//909 531//909
f 143//910 534//910 533//910
f 113//911 531//911 534//911
f 533//912 534//912 531//912
f 9//913 536//913 519//913
f 144//914 537//914 536//914
f 140//915 519//915 537//915
f 536//916 537//916 519//916
f 42//917 538//917 540//917
f 145//918 539//918 538//918
f 144//919 540//919 539//919
f 538//920 539//920 540//920
f 41//921 524//921 542//921
f 140//922 541//922 524//922
f 145//923 542//923 541//923
f 524//924 541//924 542//924
f 144//925 539//925 537//925
f 145//926 541//926 539//926
f 140//927 537//927 541//927
f 539//928 541//928 537//928
f 10//929 434//929 544//929
f 118//930 543//930 434//930
f 147//931 544//931 543//931
f 434//932 543//932 544//932
f 33//933 545//933 438//933
f 146//934 546//934 545//934
f 118//935 438//935 546//935
f 545//936 546//936 438//936
f 42//937 547//937 549//937
f 147//938 548//938 547//938
f 146//939 549//939 548//939
f 547//940 548//940 549//940
f 118//941 546//941 543//941
f 146//942 548//942 546//942
f 147//943 543//943 548//943
f 546//944 548//944 543//944
f 41//945 542//945 532//945
f 145//946 550//946 542//946
f 143//947 532//947 550//947
f 542//948 550//948 532//948
f 42//949 549//949 538//949
f 146//950 551//950 549//950
f 145//951 538//951 551//951
f 549//952 551//952 538//952
f 33//953 535//953 545//953
f 143//954 552//954 535//954
f 146//955 545//955 552//955
f 535//956 552//956 545//956
f 145//957 551//957 550//957
f 146//958 552//958 551//958
f 143//959 550//959 552//959
f 551//960 552//960 550//960
f 5//961 443//961 333//961
f 121//962 553//962 443//962
f 89//963 333//963 553//963
f 443//964 553//964 333//964
f 34//965 554//965 447//965
f 148//966 555//966 554//966
f 121//967 447//967 555//967
f 554//968 555//968 447//968
f 26//969 338//969 557//969
f 89//970 556//970 338//970
f 148//971 557//971 556//971
f 338//972 556//972 557//972
f 121//973 555//973 553//973
f 148//974 556//974 555//974
f 89//975 553//975 556//975
f 555//976 556//976 553//976
f 10//977 309//977 432//977
f 84//978 558//978 309//978
f 116//979 432//979 558//979
f 309//980 558//980 432//980
f 23//981 559//981 313//981
f 149//982 560//982 559//982
f 84//983 313//983 560//983
f 559//984 560//984 313//984
f 34//985 437//985 562//985
f 116//986 561//986 437//986
f 149//987 562//987 561//987
f 437//988 561//988 562//988
f 84//989 560//989 558//989
f 149//990 561//990 560//990
f 116//991 558//991 561//991
f 560//992 561//992 558//992
f 6//993 320//993 300//993
f 86//994 563//994 320//994
f 80//995 300//995 563//995
f 320//996 563//996 300//996
f 26//997 564//997 323//997
f 150//998 565//998 564//998
f 86//999 323//999 565//999
f 564//1000 565//1000 323//1000
f 23//1001 304//1001 567//1001
f 80//1002 566//1002 304//1002
f 150//1003 567//1003 566//1003
f 304//1004 566//1004 567//1004
f 86//1005 565//1005 563//1005
f 150//1006 566//1006 565//1006
f 80//1007 563//1007 566//1007
f 565//1008 566//1008 563//1008
f 34//1009 562//1009 554//1009
f 149//1010 568//1010 562//1010
f 148//1011 554//1011 568//1011
f 562//1012 568//1012 554//1012
f 23//1013 567//1013 559//1013
f 150//1014 569//1014 567//1014
f 149//1015 559//1015 569//1015
f 567//1016 569//1016 559//1016
f 26//1017 557//1017 564//1017
f 148//1018 570//1018 557//1018
f 150//1019 564//1019 570//1019
f 557//1020 570//1020 564//1020
f 149//1021 569//1021 568//1021
f 150//1022 570//1022 569//1022
f 148//1023 568//1023 570//1023
f 569//1024 570//1024 568//1024
f 3//1025 469//1025 359//1025
f 128//1026 571//1026 469//1026
f 96//1027 359//1027 571//1027
f 469//1028 571//1028 359//1028
f 36//1029 572//1029 473//1029
f 151//1030 573//1030 572//1030
f 128//1031 473//1031 573//1031
f 572//1032 573//1032 473//1032
f 28//1033 364//1033 575//1033
f 96//1034 574//1034 364//1034
f 151//1035 575//1035 574//1035
f 364//1036 574//1036 575//1036
f 128//1037 573//1037 571//1037
f 151//1038 574//1038 573//1038
f 96//1039 571//1039 574//1039
f 573//1040 574//1040 571//1040
f 5//1041 335//1041 460//1041
f 91//1042 576//1042 335//1042
f 124//1043 460//1043 576//1043
f 335//1044 576//1044 460//1044
f 25//1045 577//1045 339//1045
f 152//1046 578//1046 577//1046
f 91//1047 339//1047 578//1047
f 577//1048 578//1048 339//1048
f 36//1049 464//1049 580//1049
f 124//1050 579//1050 464//1050
f 152//1051 580//1051 579//1051
f 464//1052 579//1052 580//1052
f 91//1053 578//1053 576//1053
f 152//1054 579//1054 578//1054
f 124//1055 576//1055 579//1055
f 578//1056 579//1056 576//1056
f 12//1057 346//1057 326//1057
f 93//1058 581//1058 346//1058
f 87//1059 326//1059 581//1059
f 346//1060 581//1060 326//1060
f 28//1061 582//1061 349//1061
f 153//1062 583//1062 582//1062
f 93//1063 349//1063 583//1063
f 582//1064 583//1064 349//1064
f 25//1065 330//1065 585//1065
f 87//1066 584//1066 330//1066
f 153//1067 585//1067 584//1067
f 330//1068 584//1068 585//1068
f 93//1069 583//1069 581//1069
f 153//1070 584//1070 583//1070
f 87//1071 581//1071 584//1071
f 583//1072 584//1072 581//1072
f 36//1073 580//1073 572//1073
f 152//1074 586//1074 580//1074
f 151//1075 572//1075 586//1075
f 580//1076 586//1076 572//1076
f 25//1077 585//1077 577//1077
f 153//1078 587//1078 585//1078
f 152//1079 577//1079 587//1079
f 585//1080 587//1080 577//1080
f 28//1081 575//1081 582//1081
f 151//1082 588//1082 575//1082
f 153//1083 582//1083 588//1083
f 575//1084 588//1084 582//1084
f 152//1085 587//1085 586//1085
f 153//1086 588//1086 587//1086
f 151//1087 586//1087 588//1087
f 587//1088 588//1088 586//1088
f 7//1089 495//1089 385//1089
f 135//1090 589//1090 495//1090
f 103//1091 385//1091 589//1091
f 495//1092 589//1092 385//1092
f 38//1093 590//1093 499//1093
f 154//1094 591//1094 590//1094
f 135//1095 499//1095 591//1095
f 590//1096 591//1096 499//1096
f 30//1097 390//1097 593//1097
f 103//1098 592//1098 390//1098
f 154//1099 593//1099 592//1099
f 390//1100 592//1100 593//1100
f 135//1101 591//1101 589//1101
f 154//1102 592//1102 591//1102
f 103//1103 589//1103 592//1103
f 591//1104 592//1104 589//1104
f 3//1105 361//1105 486//1105
f 98//1106 594//1106 361//1106
f 131//1107 486//1107 594//1107
f 361//1108 594//1108 486//1108
f 27//1109 595//1109 365//1109
f 155//1110 596//1110 595//1110
f 98//1111 365//1111 596//1111
f 595//1112 596//1112 365//1112
f 38//1113 490//1113 598//1113
f 131//1114 597//1114 490//1114
f 155//1115 598//1115 597//1115
f 490//1116 597//1116 598//1116
f 98//1117 596//1117 594//1117
f 155//1118 597//1118 596//1118
f 131//1119 594//1119 597//1119
f 596//1120 597//1120 594//1120
f 11//1121 372//1121 352//1121
f 100//1122 599//1122 372//1122
f 94//1123 352//1123 599//1123
f 372//1124 599//1124 352//1124
f 30//1125 600//1125 375//1125
f 156//1126 601//1126 600//1126
f 100//1127 375//1127 601//1127
f 600//1128 601//1128 375//1128
f 27//1129 356//1129 603//1129
f 94//1130 602//1130 356//1130
f 156//1131 603//1131 602//1131
f 356//1132 602//1132 603//1132
f 100//1133 601//1133 599//1133
f 156//1134 602//1134 601//1134
f 94//1135 599//1135 602//1135
f 601//1136 602//1136 599//1136
f 38//1137 598//1137 590//1137
f 155//1138 604//1138 598//1138
f 154//1139 590//1139 604//1139
f 598//1140 604//1140 590//1140
f 27//1141 603//1141 595//1141
f 156//1142 605//1142 603//1142
f 155//1143 595//1143 605//1143
f 603//1144 605//1144 595//1144
f 30//1145 593//1145 600//1145
f 154//1146 606//1146 593//1146
f 156//1147 600//1147 606//1147
f 593//1148 606//1148 600//1148
f 155//1149 605//1149 604//1149
f 156//1150 606//1150 605//1150
f 154//1151 604//1151 606//1151
f 605//1152 606//1152 604//1152
f 9//1153 521//1153 411//1153
f 142//1154 607//1154 521//1154
f 110//1155 411//1155 607//1155
f 521//1156 607//1156 411//1156
f 40//1157 608//1157 525//1157
f 157//1158 609//1158 608//1158
f 142//1159 525//1159 609//1159
f 608//1160 609//1160 525//1160
f 32//1161 416//1161 611//1161
f 110//1162 610//1162 416//1162
f 157//1163 611//1163 610//1163
f 416//1164 610//1164 611//1164
f 142//1165 609//1165 607//1165
f 157//1166 610//1166 609//1166
f 110//1167 607//1167 610//1167
f 609//1168 610//1168 607//1168
f 7//1169 387//1169 512//1169
f 105//1170 612//1170 387//1170
f 138//1171 512//1171 612//1171
f 387//1172 612//1172 512//1172
f 29//1173 613//1173 391//1173
f 158//1174 614//1174 613//1174
f 105//1175 391//1175 614//1175
f 613//1176 614//1176 391//1176
f 40//1177 516//1177 616//1177
f 138//1178 615//1178 516//1178
f 158//1179 616//1179 615//1179
f 516//1180 615//1180 616//1180
f 105//1181 614//1181 612//1181
f 158//1182 615//1182 614//1182
f 138//1183 612//1183 615//1183
f 614//1184 615//1184 612//1184
f 8//1185 398//1185 378//1185
f 107//1186 617//1186 398//1186
f 101//1187 378//1187 617//1187
f 398//1188 617//1188 378//1188
f 32//1189 618//1189 401//1189
f 159//1190 619//1190 618//1190
f 107//1191 401//1191 619//1191
f 618//1192 619//1192 401//1192
f 29//1193 382//1193 621//1193
f 101//1194 620//1194 382//1194
f 159//1195 621//1195 620//1195
f 382//1196 620//1196 621//1196
f 107//1197 619//1197 617//1197
f 159//1198 620//1198 619//1198
f 101//1199 617//1199 620//1199
f 619//1200 620//1200 617//1200
f 40//1201 616//1201 608//1201
f 158//1202 622//1202 616//1202
f 157//1203 608//1203 622//1203
f 616//1204 622//1204 608//1204
f 29//1205 621//1205 613//1205
f 159//1206 623//1206 621//1206
f 158//1207 613//1207 623//1207
f 621//1208 623//1208 613//1208
f 32//1209 611//1209 618//1209
f 157//1210 624//1210 611//1210
f 159//1211 618//1211 624//1211
f 611//1212 624//1212 618//1212
f 158//1213 623//1213 622//1213
f 159//1214 624//1214 623//1214
f 157//1215 622//1215 624//1215
f 623//1216 624//1216 622//1216
f 10//1217 544//1217 307//1217
f 147//1218 625//1218 544//1218
f 82//1219 307//1219 625//1219
f 544//1220 625//1220 307//1220
f 42//1221 626//1221 547//1221
f 160//1222 627//1222 626//1222
f 147//1223 547//1223 627//1223
f 626//1224 627//1224 547//1224
f 24//1225 312//1225 629//1225
f 82//1226 628//1226 312//1226
f 160//1227 629//1227 628//1227
f 312//1228 628//1228 629//1228
f 147//1229 627//1229 625//1229
f 160//1230 628//1230 627//1230
f 82//1231 625//1231 628//1231
f 627//1232 628//1232 625//1232
f 9//1233 413//1233 536//1233
f 112//1234 630//1234 413//1234
f 144//1235 536//1235 630//1235
f 413//1236 630//1236 536//1236
f 31//1237 631//1237 417//1237
f 161//1238 632//1238 631//1238
f 112//1239 417//1239 632//1239
f 631//1240 632//1240 417//1240
f 42//1241 540//1241 634//1241
f 144//1242 633//1242 540//1242
f 161//1243 634//1243 633//1243
f 540//1244 633//1244 634//1244
f 112//1245 632//1245 630//1245
f 161//1246 633//1246 632//1246
f 144//1247 630//1247 633//1247
f 632//1248 633//1248 630//1248
f 2//1249 294//1249 404//1249
f 79//1250 635//1250 294//1250
f 108//1251 404//1251 635//1251
f 294//1252 635//1252 404//1252
f 24//1253 636//1253 297//1253
f 162//1254 637//1254 636//1254
f 79//1255 297//1255 637//1255
f 636//1256 637//1256 297//1256
f 31//1257 408//1257 639//1257
f 108//1258 638//1258 408//1258
f 162//1259 639//1259 638//1259
f 408//1260 638//1260 639//1260
f 79//1261 637//1261 635//1261
f 162//1262 638//1262 637//1262
f 108//1263 635//1263 638//1263
f 637//1264 638//1264 635//1264
f 42//1265 634//1265 626//1265
f 161//1266 640//1266 634//1266
f 160//1267 626//1267 640//1267
f 634//1268 640//1268 626//1268
f 31//1269 639//1269 631//1269
f 162//1270 641//1270 639//1270
f 161//1271 631//1271 641//1271
f 639//1272 641//1272 631//1272
f 24//1273 629//1273 636//1273
f 160//1274 642//1274 629//1274
f 162//1275 636//1275 642//1275
f 629//1276 642//1276 636//1276
f 161//1277 641//1277 640//1277
f 162//1278 642//1278 641//1278
f 160//1279 640//1279 642//1279
f 641//1280 642//1280 640//1280
